<?xml version="1.0" encoding="UTF-8" standalone="no"?>
<!DOCTYPE svg PUBLIC "-//W3C//DTD SVG 1.1//EN" "http://www.w3.org/Graphics/SVG/1.1/DTD/svg11.dtd">
<svg width="100%" height="100%" viewBox="0 0 176 126" version="1.1" xmlns="http://www.w3.org/2000/svg" xmlns:xlink="http://www.w3.org/1999/xlink" xml:space="preserve" xmlns:serif="http://www.serif.com/" style="fill-rule:evenodd;clip-rule:evenodd;stroke-linejoin:round;stroke-miterlimit:2;">
    <g transform="matrix(0.429917,0,0,0.429917,-26.4674,6.04784)">
        <path d="M221.713,144.766C215.123,144.766 209.773,139.416 209.773,132.826L209.773,103.975L221.713,103.975C228.302,103.975 233.652,109.325 233.652,115.914L233.652,144.766L221.713,144.766ZM306.544,144.766L306.544,95.124C306.544,88.534 301.194,83.185 294.604,83.185L282.665,83.185L282.665,132.826C282.665,139.416 288.015,144.766 294.604,144.766L306.544,144.766ZM185.267,144.766C178.677,144.766 173.327,139.416 173.327,132.826L173.327,113.975L185.267,113.975C191.856,113.975 197.206,119.325 197.206,125.914L197.206,144.766L185.267,144.766ZM342.99,144.766L342.99,125.914C342.99,119.325 337.64,113.975 331.05,113.975L319.111,113.975L319.111,132.826C319.111,139.416 324.461,144.766 331.05,144.766L342.99,144.766ZM269.791,144.766L269.791,74.705C269.791,68.115 264.442,62.766 257.852,62.766L245.913,62.766L245.913,132.826C245.913,139.416 251.263,144.766 257.852,144.766L269.791,144.766Z" style="fill:url(#_Linear1);"/>
    </g>
    <g transform="matrix(0.0941576,0,0,0.0941576,-7.76927,4.31073)">
        <g transform="matrix(302.942,0,0,302.942,346,937)">
            <path d="M0.346,-0.047C0.327,-0.029 0.306,-0.014 0.282,-0.003C0.259,0.008 0.233,0.014 0.203,0.014C0.178,0.014 0.156,0.01 0.135,0.002C0.114,-0.005 0.097,-0.016 0.082,-0.03C0.067,-0.043 0.055,-0.059 0.047,-0.077C0.038,-0.095 0.034,-0.114 0.034,-0.134C0.034,-0.155 0.037,-0.174 0.044,-0.191C0.05,-0.208 0.059,-0.222 0.069,-0.234C0.08,-0.246 0.092,-0.257 0.106,-0.265C0.12,-0.273 0.135,-0.28 0.151,-0.285C0.166,-0.29 0.182,-0.294 0.198,-0.296C0.214,-0.298 0.229,-0.299 0.244,-0.299C0.268,-0.299 0.287,-0.298 0.303,-0.297C0.319,-0.295 0.334,-0.293 0.347,-0.291L0.347,-0.332C0.347,-0.35 0.345,-0.365 0.339,-0.379C0.334,-0.392 0.327,-0.403 0.317,-0.411C0.308,-0.42 0.297,-0.426 0.283,-0.431C0.27,-0.435 0.256,-0.437 0.239,-0.437C0.224,-0.437 0.209,-0.436 0.195,-0.434C0.181,-0.432 0.168,-0.429 0.156,-0.426C0.144,-0.422 0.133,-0.418 0.122,-0.414C0.112,-0.409 0.103,-0.405 0.096,-0.4L0.066,-0.463C0.078,-0.471 0.092,-0.478 0.106,-0.485C0.12,-0.491 0.135,-0.497 0.151,-0.502C0.167,-0.506 0.183,-0.51 0.199,-0.513C0.216,-0.516 0.232,-0.517 0.248,-0.517C0.277,-0.517 0.304,-0.514 0.327,-0.507C0.351,-0.5 0.37,-0.489 0.387,-0.474C0.403,-0.459 0.416,-0.441 0.424,-0.418C0.433,-0.396 0.438,-0.368 0.438,-0.337L0.437,-0.084L0.493,-0.084L0.493,-0L0.346,-0L0.346,-0.047ZM0.223,-0.062C0.235,-0.062 0.247,-0.063 0.259,-0.066C0.271,-0.069 0.283,-0.073 0.293,-0.078C0.304,-0.083 0.314,-0.089 0.323,-0.096C0.332,-0.103 0.34,-0.11 0.346,-0.117L0.347,-0.231L0.241,-0.231C0.224,-0.231 0.208,-0.229 0.193,-0.225C0.179,-0.221 0.166,-0.215 0.156,-0.208C0.145,-0.201 0.137,-0.191 0.131,-0.18C0.125,-0.169 0.122,-0.156 0.122,-0.142C0.122,-0.129 0.125,-0.117 0.129,-0.107C0.134,-0.097 0.141,-0.089 0.15,-0.082C0.159,-0.076 0.17,-0.071 0.182,-0.067C0.194,-0.064 0.208,-0.062 0.223,-0.062Z" style="fill-rule:nonzero;"/>
        </g>
        <g transform="matrix(302.942,0,0,302.942,511.671,937)">
            <path d="M0.354,-0.506L0.517,-0.506L0.517,-0.084L0.573,-0.084L0.573,-0L0.425,-0L0.425,-0.047C0.403,-0.029 0.378,-0.016 0.351,-0.006C0.324,0.004 0.295,0.009 0.265,0.009C0.239,0.009 0.216,0.005 0.196,-0.002C0.175,-0.01 0.157,-0.021 0.143,-0.036C0.128,-0.052 0.117,-0.071 0.109,-0.095C0.102,-0.119 0.098,-0.147 0.098,-0.18L0.098,-0.422L0.029,-0.422L0.029,-0.506L0.192,-0.506L0.192,-0.191C0.192,-0.152 0.201,-0.123 0.219,-0.103C0.237,-0.083 0.263,-0.073 0.296,-0.073C0.316,-0.073 0.337,-0.077 0.359,-0.084C0.381,-0.091 0.402,-0.101 0.421,-0.114L0.421,-0.422L0.354,-0.422L0.354,-0.506Z" style="fill-rule:nonzero;"/>
        </g>
        <g transform="matrix(302.942,0,0,302.942,711.365,937)">
            <path d="M0.347,-0.76L0.507,-0.76L0.507,-0.084L0.581,-0.084L0.581,-0L0.416,-0L0.416,-0.042C0.4,-0.025 0.381,-0.012 0.359,-0.003C0.338,0.007 0.313,0.011 0.286,0.011C0.252,0.011 0.22,0.005 0.191,-0.007C0.161,-0.018 0.136,-0.036 0.114,-0.059C0.092,-0.082 0.075,-0.11 0.063,-0.143C0.051,-0.177 0.045,-0.215 0.045,-0.258C0.045,-0.297 0.051,-0.332 0.063,-0.365C0.074,-0.397 0.091,-0.424 0.112,-0.447C0.134,-0.469 0.16,-0.487 0.19,-0.499C0.22,-0.512 0.254,-0.518 0.291,-0.518C0.315,-0.518 0.338,-0.515 0.358,-0.51C0.378,-0.505 0.397,-0.495 0.416,-0.482L0.416,-0.676L0.347,-0.676L0.347,-0.76ZM0.298,-0.068C0.325,-0.068 0.347,-0.072 0.366,-0.08C0.384,-0.088 0.401,-0.1 0.416,-0.116L0.416,-0.399C0.4,-0.413 0.381,-0.423 0.36,-0.429C0.339,-0.435 0.317,-0.438 0.295,-0.438C0.273,-0.438 0.253,-0.434 0.234,-0.426C0.215,-0.418 0.199,-0.406 0.185,-0.391C0.171,-0.376 0.16,-0.357 0.151,-0.335C0.143,-0.313 0.139,-0.287 0.139,-0.259C0.139,-0.228 0.143,-0.2 0.151,-0.176C0.159,-0.153 0.17,-0.133 0.184,-0.116C0.198,-0.1 0.214,-0.088 0.234,-0.08C0.253,-0.072 0.275,-0.068 0.298,-0.068Z" style="fill-rule:nonzero;"/>
        </g>
        <g transform="matrix(302.942,0,0,302.942,898.928,937)">
            <path d="M0.045,-0.506L0.21,-0.506L0.21,-0.084L0.286,-0.084L0.286,-0L0.046,-0L0.046,-0.084L0.118,-0.084L0.118,-0.422L0.045,-0.422L0.045,-0.506ZM0.101,-0.685C0.101,-0.694 0.103,-0.702 0.106,-0.709C0.11,-0.717 0.114,-0.724 0.12,-0.729C0.126,-0.735 0.132,-0.74 0.14,-0.743C0.148,-0.746 0.156,-0.748 0.165,-0.748C0.174,-0.748 0.182,-0.746 0.189,-0.743C0.197,-0.74 0.204,-0.735 0.209,-0.729C0.215,-0.724 0.219,-0.717 0.223,-0.709C0.226,-0.702 0.228,-0.694 0.228,-0.685C0.228,-0.676 0.226,-0.668 0.223,-0.66C0.219,-0.652 0.215,-0.645 0.209,-0.639C0.204,-0.633 0.197,-0.629 0.189,-0.625C0.182,-0.622 0.174,-0.62 0.165,-0.62C0.156,-0.62 0.148,-0.622 0.14,-0.625C0.132,-0.629 0.126,-0.633 0.12,-0.639C0.114,-0.645 0.11,-0.652 0.106,-0.66C0.103,-0.668 0.101,-0.676 0.101,-0.685Z" style="fill-rule:nonzero;"/>
        </g>
        <g transform="matrix(302.942,0,0,302.942,996.112,937)">
            <path d="M0.042,-0.253C0.042,-0.293 0.049,-0.329 0.061,-0.362C0.074,-0.395 0.091,-0.423 0.114,-0.447C0.136,-0.471 0.163,-0.489 0.194,-0.501C0.225,-0.514 0.259,-0.521 0.296,-0.521C0.333,-0.521 0.368,-0.514 0.399,-0.501C0.43,-0.489 0.456,-0.471 0.479,-0.448C0.501,-0.424 0.518,-0.396 0.53,-0.363C0.543,-0.33 0.549,-0.294 0.549,-0.254C0.549,-0.215 0.543,-0.178 0.53,-0.145C0.518,-0.112 0.501,-0.084 0.479,-0.06C0.456,-0.036 0.43,-0.018 0.399,-0.005C0.368,0.009 0.333,0.015 0.296,0.015C0.258,0.015 0.223,0.009 0.192,-0.004C0.161,-0.017 0.135,-0.036 0.113,-0.059C0.091,-0.083 0.073,-0.111 0.061,-0.144C0.049,-0.177 0.042,-0.213 0.042,-0.253ZM0.138,-0.253C0.138,-0.224 0.142,-0.198 0.151,-0.174C0.159,-0.151 0.17,-0.131 0.185,-0.115C0.199,-0.098 0.216,-0.085 0.235,-0.076C0.254,-0.067 0.274,-0.063 0.296,-0.063C0.318,-0.063 0.339,-0.067 0.359,-0.076C0.378,-0.085 0.395,-0.098 0.409,-0.114C0.424,-0.13 0.435,-0.15 0.443,-0.174C0.451,-0.197 0.455,-0.224 0.455,-0.253C0.455,-0.284 0.451,-0.311 0.443,-0.334C0.435,-0.358 0.424,-0.378 0.409,-0.394C0.395,-0.41 0.378,-0.422 0.359,-0.43C0.339,-0.438 0.318,-0.442 0.296,-0.442C0.274,-0.442 0.254,-0.438 0.235,-0.43C0.216,-0.422 0.199,-0.41 0.185,-0.394C0.17,-0.378 0.159,-0.358 0.151,-0.334C0.142,-0.311 0.138,-0.284 0.138,-0.253Z" style="fill-rule:nonzero;"/>
        </g>
        <g transform="matrix(302.942,0,0,302.942,1177.32,937)">
            <path d="M0.216,-0.506L0.333,-0.506L0.333,-0.432L0.216,-0.432L0.216,-0.084L0.295,-0.084L0.295,-0L0.049,-0L0.049,-0.084L0.125,-0.084L0.125,-0.432L0.042,-0.432L0.042,-0.506L0.125,-0.506L0.125,-0.585C0.126,-0.614 0.13,-0.64 0.138,-0.662C0.146,-0.683 0.157,-0.702 0.171,-0.716C0.185,-0.731 0.202,-0.742 0.223,-0.749C0.243,-0.756 0.265,-0.76 0.29,-0.76C0.307,-0.76 0.323,-0.759 0.336,-0.757C0.35,-0.756 0.362,-0.753 0.373,-0.751C0.384,-0.748 0.393,-0.745 0.402,-0.742C0.41,-0.738 0.417,-0.735 0.424,-0.732L0.396,-0.667C0.386,-0.673 0.372,-0.677 0.355,-0.681C0.338,-0.685 0.321,-0.687 0.303,-0.687C0.276,-0.687 0.254,-0.679 0.239,-0.662C0.224,-0.645 0.216,-0.62 0.216,-0.588L0.216,-0.506Z" style="fill-rule:nonzero;"/>
        </g>
        <g transform="matrix(302.942,0,0,302.942,1287.52,937)">
            <path d="M0.045,-0.506L0.21,-0.506L0.21,-0.084L0.286,-0.084L0.286,-0L0.046,-0L0.046,-0.084L0.118,-0.084L0.118,-0.422L0.045,-0.422L0.045,-0.506ZM0.101,-0.685C0.101,-0.694 0.103,-0.702 0.106,-0.709C0.11,-0.717 0.114,-0.724 0.12,-0.729C0.126,-0.735 0.132,-0.74 0.14,-0.743C0.148,-0.746 0.156,-0.748 0.165,-0.748C0.174,-0.748 0.182,-0.746 0.189,-0.743C0.197,-0.74 0.204,-0.735 0.209,-0.729C0.215,-0.724 0.219,-0.717 0.223,-0.709C0.226,-0.702 0.228,-0.694 0.228,-0.685C0.228,-0.676 0.226,-0.668 0.223,-0.66C0.219,-0.652 0.215,-0.645 0.209,-0.639C0.204,-0.633 0.197,-0.629 0.189,-0.625C0.182,-0.622 0.174,-0.62 0.165,-0.62C0.156,-0.62 0.148,-0.622 0.14,-0.625C0.132,-0.629 0.126,-0.633 0.12,-0.639C0.114,-0.645 0.11,-0.652 0.106,-0.66C0.103,-0.668 0.101,-0.676 0.101,-0.685Z" style="fill-rule:nonzero;"/>
        </g>
        <g transform="matrix(302.942,0,0,302.942,1384.7,937)">
            <path d="M0.413,-0.399L0.32,-0.399L0.32,-0.43C0.309,-0.43 0.298,-0.428 0.287,-0.424C0.276,-0.42 0.265,-0.414 0.255,-0.406C0.246,-0.397 0.237,-0.387 0.23,-0.374C0.222,-0.361 0.217,-0.346 0.214,-0.328L0.214,-0.084L0.3,-0.084L0.3,-0L0.049,-0L0.049,-0.084L0.119,-0.084L0.119,-0.422L0.049,-0.422L0.049,-0.506L0.21,-0.506L0.21,-0.436C0.216,-0.446 0.223,-0.456 0.23,-0.465C0.238,-0.474 0.246,-0.482 0.255,-0.489C0.264,-0.495 0.274,-0.5 0.284,-0.504C0.295,-0.508 0.307,-0.51 0.32,-0.51L0.368,-0.51C0.383,-0.51 0.398,-0.509 0.413,-0.509L0.413,-0.399Z" style="fill-rule:nonzero;"/>
        </g>
        <g transform="matrix(302.942,0,0,302.942,1526.7,937)">
            <path d="M0.135,-0.241C0.135,-0.227 0.136,-0.214 0.138,-0.202C0.14,-0.19 0.143,-0.179 0.147,-0.168C0.159,-0.135 0.178,-0.111 0.205,-0.094C0.231,-0.078 0.261,-0.07 0.295,-0.07C0.321,-0.07 0.347,-0.073 0.372,-0.081C0.397,-0.088 0.423,-0.1 0.45,-0.115L0.487,-0.053C0.454,-0.03 0.42,-0.014 0.387,-0.002C0.353,0.009 0.318,0.014 0.282,0.014C0.248,0.014 0.216,0.008 0.187,-0.003C0.158,-0.014 0.133,-0.031 0.112,-0.054C0.091,-0.076 0.075,-0.104 0.063,-0.138C0.051,-0.171 0.045,-0.21 0.045,-0.255C0.045,-0.291 0.05,-0.325 0.06,-0.357C0.07,-0.389 0.085,-0.417 0.105,-0.441C0.125,-0.465 0.15,-0.484 0.18,-0.498C0.209,-0.512 0.244,-0.519 0.283,-0.519C0.321,-0.519 0.353,-0.513 0.379,-0.502C0.404,-0.49 0.425,-0.475 0.441,-0.456C0.457,-0.437 0.469,-0.415 0.478,-0.391C0.486,-0.366 0.492,-0.341 0.495,-0.316C0.497,-0.304 0.498,-0.291 0.498,-0.278C0.499,-0.266 0.499,-0.253 0.499,-0.241L0.135,-0.241ZM0.277,-0.443C0.256,-0.443 0.237,-0.44 0.221,-0.434C0.206,-0.428 0.192,-0.419 0.181,-0.408C0.17,-0.397 0.161,-0.383 0.155,-0.367C0.148,-0.35 0.143,-0.332 0.14,-0.312L0.402,-0.312C0.401,-0.331 0.398,-0.348 0.393,-0.364C0.388,-0.38 0.381,-0.394 0.371,-0.406C0.361,-0.417 0.349,-0.427 0.333,-0.433C0.318,-0.44 0.299,-0.443 0.277,-0.443Z" style="fill-rule:nonzero;"/>
        </g>
    </g>
    <defs>
        <linearGradient id="_Linear1" x1="0" y1="0" x2="1" y2="0" gradientUnits="userSpaceOnUse" gradientTransform="matrix(169.662,0,0,82,173.327,129.766)"><stop offset="0" style="stop-color:rgb(249,181,82);stop-opacity:1"/><stop offset="1" style="stop-color:rgb(247,109,107);stop-opacity:1"/></linearGradient>
    </defs>
</svg>
