<?xml version="1.0" encoding="UTF-8" standalone="no"?>
<!DOCTYPE svg PUBLIC "-//W3C//DTD SVG 1.1//EN" "http://www.w3.org/Graphics/SVG/1.1/DTD/svg11.dtd">
<svg width="100%" height="100%" viewBox="0 0 176 126" version="1.1" xmlns="http://www.w3.org/2000/svg" xmlns:xlink="http://www.w3.org/1999/xlink" xml:space="preserve" xmlns:serif="http://www.serif.com/" style="fill-rule:evenodd;clip-rule:evenodd;stroke-linejoin:round;stroke-miterlimit:2;">
    <g transform="matrix(0.200275,0,0,0.200275,8.16564,38.4503)">
        <g>
            <g transform="matrix(0.870064,0,0,0.870064,-89.99,-308.654)">
                <path d="M468.001,474.736L484.465,474.736C489.753,474.636 494.667,473.738 499.207,472.042C503.747,470.346 507.564,467.801 510.657,464.409C513.75,461.016 515.746,456.726 516.644,451.537C517.243,447.746 517.043,444.328 516.045,441.285C515.047,438.242 513.426,435.647 511.181,433.502C508.936,431.357 506.092,429.735 502.65,428.638C499.207,427.54 495.441,426.991 491.35,426.991L472.491,426.991L454.531,531.76L475.186,531.76C481.771,531.76 487.758,530.612 493.146,528.318C498.534,526.023 503.049,522.63 506.691,518.14C510.333,513.65 512.653,508.112 513.651,501.527C514.249,497.136 513.875,493.145 512.528,489.553C511.181,485.961 509.16,482.943 506.466,480.498C503.772,478.054 500.629,476.208 497.037,474.96C493.445,473.713 489.753,473.09 485.962,473.09L468.151,473.09L467.702,476.083L484.764,476.083C488.257,476.083 491.599,476.707 494.792,477.954C497.985,479.201 500.729,480.922 503.024,483.117C505.319,485.313 506.99,487.957 508.038,491.05C509.086,494.143 509.31,497.585 508.711,501.377C507.813,506.965 505.843,511.679 502.8,515.521C499.756,519.362 495.89,522.281 491.2,524.276C486.511,526.272 481.322,527.27 475.635,527.27L460.219,527.27L476.533,431.481L490.901,431.481C497.885,431.481 503.348,433.277 507.29,436.87C511.231,440.462 512.703,445.451 511.705,451.836C510.907,456.327 509.136,460.018 506.392,462.912C503.648,465.806 500.305,467.976 496.364,469.423C492.422,470.869 488.207,471.593 483.717,471.593L468.45,471.593L468.001,474.736Z" style="fill:rgb(52,50,53);fill-rule:nonzero;"/>
                <path d="M548.224,415.018L528.168,531.76L532.659,531.76L552.864,415.018L548.224,415.018Z" style="fill:rgb(52,50,53);fill-rule:nonzero;"/>
                <path d="M557.504,497.336C556.606,503.622 557.204,509.484 559.3,514.922C561.395,520.36 564.788,524.75 569.477,528.093C574.167,531.436 579.804,533.107 586.39,533.107C592.975,533.207 599.087,531.635 604.724,528.392C610.362,525.15 615.052,520.809 618.793,515.371C622.535,509.933 624.905,503.921 625.903,497.336C626.701,491.05 626.027,485.188 623.882,479.75C621.737,474.312 618.369,469.922 613.779,466.579C609.189,463.236 603.602,461.515 597.016,461.415C590.331,461.415 584.145,463.037 578.457,466.28C572.77,469.522 568.08,473.863 564.388,479.301C560.697,484.739 558.402,490.751 557.504,497.336ZM562.143,497.336C563.041,491.649 565.137,486.41 568.43,481.621C571.722,476.831 575.788,473.015 580.628,470.171C585.467,467.327 590.73,465.905 596.418,465.905C602.205,466.005 607.069,467.527 611.01,470.47C614.952,473.414 617.82,477.255 619.616,481.995C621.412,486.734 621.961,491.848 621.263,497.336C620.365,503.023 618.269,508.262 614.977,513.051C611.684,517.841 607.568,521.657 602.629,524.501C597.69,527.345 592.327,528.717 586.54,528.617C580.852,528.617 576.088,527.145 572.246,524.202C568.405,521.258 565.561,517.417 563.715,512.677C561.869,507.938 561.345,502.824 562.143,497.336Z" style="fill:rgb(52,50,53);fill-rule:nonzero;"/>
                <path d="M641.618,497.336C642.416,491.649 644.462,486.41 647.754,481.621C651.047,476.831 655.163,473.015 660.102,470.171C665.041,467.327 670.404,465.905 676.191,465.905C679.384,465.905 682.353,466.354 685.097,467.252C687.841,468.15 690.235,469.373 692.281,470.919C694.326,472.466 695.948,474.137 697.145,475.933L698.043,470.096C695.748,467.602 692.755,465.531 689.063,463.885C685.371,462.239 681.18,461.415 676.491,461.415C669.806,461.415 663.619,463.037 657.932,466.28C652.244,469.522 647.555,473.863 643.863,479.301C640.171,484.739 637.876,490.751 636.978,497.336C636.18,503.622 636.828,509.484 638.924,514.922C641.019,520.36 644.387,524.75 649.026,528.093C653.666,531.436 659.279,533.107 665.864,533.107C670.853,533.107 675.368,532.259 679.409,530.563C683.45,528.866 686.868,526.871 689.662,524.576L690.56,518.589C688.764,520.285 686.643,521.882 684.199,523.378C681.754,524.875 678.985,526.122 675.892,527.12C672.799,528.118 669.606,528.617 666.313,528.617C660.626,528.617 655.787,527.145 651.795,524.202C647.804,521.258 644.886,517.392 643.04,512.602C641.194,507.813 640.72,502.724 641.618,497.336Z" style="fill:rgb(52,50,53);fill-rule:nonzero;"/>
                <path d="M726.331,415.018L706.275,531.76L710.915,531.76L730.97,415.018L726.331,415.018ZM754.319,463.062L716.452,491.05L745.638,531.76L751.325,531.76L721.99,491.649L760.455,463.062L754.319,463.062Z" style="fill:rgb(52,50,53);fill-rule:nonzero;"/>
            </g>
            <g transform="matrix(0.870064,0,0,0.870064,181.461,-308.529)">
                <path d="M470.546,426.991L452.585,531.76L477.88,531.76L495.84,426.991L470.546,426.991Z" style="fill:rgb(52,50,53);fill-rule:nonzero;"/>
                <path d="M547.476,489.853L540.142,531.76L563.49,531.76L570.974,487.458C571.672,482.569 571.448,478.128 570.3,474.137C569.153,470.146 566.958,466.978 563.715,464.633C560.472,462.288 556.107,461.166 550.619,461.266C545.929,461.266 541.788,462.288 538.196,464.334C534.604,466.379 531.711,469.098 529.515,472.491L531.012,462.912L508.412,462.912L496.588,531.76L519.188,531.76L526.672,489.553C526.971,487.158 527.719,485.013 528.917,483.117C530.114,481.222 531.661,479.8 533.557,478.852C535.452,477.904 537.648,477.43 540.142,477.43C542.637,477.43 544.457,478.004 545.605,479.151C546.752,480.299 547.426,481.845 547.625,483.791C547.825,485.737 547.775,487.757 547.476,489.853Z" style="fill:rgb(52,50,53);fill-rule:nonzero;"/>
                <path d="M586.091,462.912L582.947,481.621L628.896,481.621L632.189,462.912L586.091,462.912ZM634.733,436.57L645.809,420.256C644.511,419.059 643.015,417.886 641.318,416.739C639.622,415.592 637.652,414.619 635.407,413.82C633.162,413.022 630.592,412.623 627.699,412.623C622.41,412.623 617.696,413.671 613.555,415.766C609.414,417.862 606.121,420.78 603.677,424.522C601.232,428.264 599.611,432.529 598.812,437.319L582.648,531.76L604.2,531.76L619.616,443.305C619.816,441.31 620.315,439.539 621.113,437.992C621.911,436.445 622.934,435.223 624.181,434.325C625.429,433.427 626.9,432.928 628.597,432.828C629.994,432.928 631.141,433.302 632.039,433.951C632.937,434.6 633.835,435.473 634.733,436.57Z" style="fill:rgb(52,50,53);fill-rule:nonzero;"/>
                <path d="M632.937,497.186C632.039,504.171 632.962,510.357 635.706,515.745C638.45,521.133 642.491,525.399 647.829,528.542C653.167,531.685 659.379,533.257 666.463,533.257C673.847,533.257 680.632,531.71 686.818,528.617C693.004,525.524 698.143,521.283 702.234,515.895C706.325,510.507 708.869,504.321 709.867,497.336C710.765,490.451 709.842,484.34 707.098,479.001C704.354,473.663 700.338,469.373 695.05,466.13C689.761,462.887 683.525,461.266 676.341,461.266C669.057,461.266 662.297,462.812 656.061,465.905C649.825,468.999 644.661,473.239 640.57,478.627C636.479,484.015 633.935,490.202 632.937,497.186ZM655.836,497.336C656.435,494.043 657.608,491.125 659.354,488.58C661.1,486.036 663.32,483.966 666.014,482.369C668.708,480.773 671.602,479.974 674.695,479.974C677.688,480.074 680.133,480.947 682.029,482.594C683.924,484.24 685.296,486.36 686.144,488.954C686.993,491.549 687.217,494.243 686.818,497.037C686.319,500.329 685.172,503.298 683.376,505.942C681.58,508.586 679.359,510.681 676.715,512.228C674.071,513.775 671.202,514.498 668.109,514.398C665.116,514.398 662.646,513.6 660.701,512.004C658.755,510.407 657.358,508.287 656.51,505.643C655.662,502.998 655.437,500.23 655.836,497.336Z" style="fill:rgb(52,50,53);fill-rule:nonzero;"/>
            </g>
            <g transform="matrix(1.28209,0,0,1.28209,-268.425,-538.859)">
                <g transform="matrix(32.0563,0,0,32.0563,446,586.429)">
                    <path d="M0.169,-0.7L0.051,-0L0.133,-0L0.254,-0.7L0.169,-0.7ZM0.201,-0.62L0.344,-0.62C0.371,-0.619 0.395,-0.614 0.415,-0.604C0.435,-0.593 0.45,-0.579 0.46,-0.56C0.469,-0.541 0.472,-0.517 0.467,-0.49C0.462,-0.462 0.451,-0.439 0.435,-0.42C0.418,-0.401 0.398,-0.386 0.374,-0.376C0.349,-0.366 0.323,-0.361 0.294,-0.36L0.157,-0.36L0.143,-0.28L0.286,-0.28C0.329,-0.28 0.37,-0.289 0.407,-0.306C0.445,-0.323 0.477,-0.348 0.502,-0.379C0.528,-0.41 0.544,-0.447 0.551,-0.49C0.557,-0.531 0.552,-0.568 0.536,-0.6C0.52,-0.631 0.496,-0.656 0.464,-0.674C0.431,-0.691 0.394,-0.7 0.352,-0.7L0.215,-0.7L0.201,-0.62Z" style="fill:rgb(52,50,53);fill-rule:nonzero;"/>
                </g>
                <g transform="matrix(32.0563,0,0,32.0563,462.06,586.429)">
                    <path d="M0.052,-0.23C0.046,-0.187 0.051,-0.148 0.066,-0.112C0.081,-0.075 0.104,-0.046 0.135,-0.024C0.166,-0.002 0.204,0.009 0.249,0.009C0.294,0.009 0.336,-0.002 0.374,-0.023C0.412,-0.044 0.444,-0.073 0.469,-0.11C0.494,-0.146 0.509,-0.186 0.515,-0.23C0.521,-0.273 0.517,-0.312 0.501,-0.348C0.487,-0.385 0.463,-0.414 0.432,-0.437C0.4,-0.459 0.362,-0.47 0.318,-0.47C0.273,-0.47 0.231,-0.459 0.193,-0.438C0.155,-0.416 0.124,-0.387 0.099,-0.35C0.074,-0.314 0.058,-0.274 0.052,-0.23ZM0.131,-0.23C0.136,-0.26 0.147,-0.288 0.164,-0.313C0.181,-0.338 0.202,-0.358 0.228,-0.373C0.253,-0.388 0.281,-0.395 0.311,-0.395C0.341,-0.394 0.366,-0.386 0.386,-0.371C0.406,-0.355 0.42,-0.335 0.429,-0.31C0.438,-0.285 0.44,-0.259 0.436,-0.23C0.431,-0.2 0.42,-0.172 0.403,-0.148C0.386,-0.123 0.364,-0.102 0.339,-0.087C0.314,-0.073 0.286,-0.065 0.255,-0.066C0.225,-0.066 0.2,-0.074 0.18,-0.09C0.16,-0.105 0.146,-0.126 0.138,-0.151C0.129,-0.175 0.127,-0.202 0.131,-0.23Z" style="fill:rgb(52,50,53);fill-rule:nonzero;"/>
                </g>
                <g transform="matrix(32.0563,0,0,32.0563,478.537,586.429)">
                    <path d="M0.057,-0.46L0.166,0.037L0.352,-0.298L0.428,0.037L0.709,-0.46L0.618,-0.46L0.454,-0.162L0.383,-0.497L0.203,-0.164L0.144,-0.46L0.057,-0.46Z" style="fill:rgb(52,50,53);fill-rule:nonzero;"/>
                </g>
                <g transform="matrix(32.0563,0,0,32.0563,499.181,586.429)">
                    <path d="M0.238,0.01C0.287,0.01 0.331,-0.001 0.368,-0.023C0.405,-0.045 0.436,-0.073 0.46,-0.107L0.397,-0.148C0.38,-0.124 0.359,-0.104 0.334,-0.089C0.308,-0.073 0.279,-0.065 0.248,-0.065C0.22,-0.065 0.197,-0.071 0.179,-0.083C0.161,-0.094 0.148,-0.111 0.139,-0.132C0.13,-0.153 0.126,-0.178 0.126,-0.205C0.126,-0.231 0.13,-0.256 0.139,-0.28C0.147,-0.303 0.159,-0.324 0.174,-0.342C0.189,-0.36 0.207,-0.374 0.229,-0.385C0.25,-0.395 0.273,-0.4 0.298,-0.4C0.323,-0.4 0.343,-0.395 0.359,-0.386C0.375,-0.377 0.387,-0.364 0.396,-0.346C0.404,-0.33 0.408,-0.309 0.408,-0.285C0.408,-0.276 0.407,-0.267 0.404,-0.258C0.401,-0.249 0.398,-0.24 0.395,-0.232L0.426,-0.278L0.096,-0.278L0.096,-0.21L0.479,-0.21C0.482,-0.215 0.484,-0.224 0.487,-0.236C0.489,-0.248 0.49,-0.259 0.49,-0.269C0.49,-0.313 0.482,-0.35 0.467,-0.38C0.452,-0.409 0.43,-0.432 0.403,-0.447C0.375,-0.462 0.342,-0.47 0.303,-0.47C0.266,-0.47 0.233,-0.463 0.202,-0.448C0.171,-0.433 0.143,-0.413 0.12,-0.389C0.097,-0.364 0.079,-0.335 0.066,-0.303C0.053,-0.27 0.047,-0.236 0.047,-0.2C0.047,-0.156 0.055,-0.118 0.071,-0.087C0.087,-0.056 0.109,-0.032 0.138,-0.015C0.167,0.002 0.2,0.01 0.238,0.01Z" style="fill:rgb(52,50,53);fill-rule:nonzero;"/>
                </g>
                <g transform="matrix(32.0563,0,0,32.0563,515.178,586.429)">
                    <path d="M0.203,-0.46L0.124,-0.46L0.044,-0L0.124,-0L0.203,-0.46ZM0.324,-0.373L0.377,-0.437C0.365,-0.448 0.353,-0.456 0.34,-0.462C0.327,-0.467 0.312,-0.47 0.296,-0.47C0.269,-0.469 0.244,-0.46 0.222,-0.441C0.2,-0.422 0.181,-0.399 0.166,-0.37C0.151,-0.341 0.14,-0.312 0.135,-0.281L0.172,-0.281C0.175,-0.3 0.181,-0.318 0.188,-0.336C0.195,-0.353 0.205,-0.368 0.219,-0.379C0.232,-0.39 0.248,-0.396 0.268,-0.395C0.279,-0.395 0.289,-0.393 0.298,-0.389C0.306,-0.385 0.315,-0.38 0.324,-0.373Z" style="fill:rgb(52,50,53);fill-rule:nonzero;"/>
                </g>
                <g transform="matrix(32.0563,0,0,32.0563,525.339,586.429)">
                    <path d="M0.238,0.01C0.287,0.01 0.331,-0.001 0.368,-0.023C0.405,-0.045 0.436,-0.073 0.46,-0.107L0.397,-0.148C0.38,-0.124 0.359,-0.104 0.334,-0.089C0.308,-0.073 0.279,-0.065 0.248,-0.065C0.22,-0.065 0.197,-0.071 0.179,-0.083C0.161,-0.094 0.148,-0.111 0.139,-0.132C0.13,-0.153 0.126,-0.178 0.126,-0.205C0.126,-0.231 0.13,-0.256 0.139,-0.28C0.147,-0.303 0.159,-0.324 0.174,-0.342C0.189,-0.36 0.207,-0.374 0.229,-0.385C0.25,-0.395 0.273,-0.4 0.298,-0.4C0.323,-0.4 0.343,-0.395 0.359,-0.386C0.375,-0.377 0.387,-0.364 0.396,-0.346C0.404,-0.33 0.408,-0.309 0.408,-0.285C0.408,-0.276 0.407,-0.267 0.404,-0.258C0.401,-0.249 0.398,-0.24 0.395,-0.232L0.426,-0.278L0.096,-0.278L0.096,-0.21L0.479,-0.21C0.482,-0.215 0.484,-0.224 0.487,-0.236C0.489,-0.248 0.49,-0.259 0.49,-0.269C0.49,-0.313 0.482,-0.35 0.467,-0.38C0.452,-0.409 0.43,-0.432 0.403,-0.447C0.375,-0.462 0.342,-0.47 0.303,-0.47C0.266,-0.47 0.233,-0.463 0.202,-0.448C0.171,-0.433 0.143,-0.413 0.12,-0.389C0.097,-0.364 0.079,-0.335 0.066,-0.303C0.053,-0.27 0.047,-0.236 0.047,-0.2C0.047,-0.156 0.055,-0.118 0.071,-0.087C0.087,-0.056 0.109,-0.032 0.138,-0.015C0.167,0.002 0.2,0.01 0.238,0.01Z" style="fill:rgb(52,50,53);fill-rule:nonzero;"/>
                </g>
                <g transform="matrix(32.0563,0,0,32.0563,541.335,586.429)">
                    <path d="M0.512,-0.78L0.381,-0L0.458,-0L0.593,-0.78L0.512,-0.78ZM0.045,-0.23C0.039,-0.187 0.043,-0.147 0.056,-0.111C0.069,-0.074 0.091,-0.045 0.121,-0.023C0.15,-0.001 0.187,0.01 0.23,0.009C0.26,0.009 0.288,0.003 0.314,-0.01C0.339,-0.022 0.362,-0.039 0.382,-0.061C0.401,-0.083 0.417,-0.109 0.43,-0.138C0.443,-0.167 0.451,-0.197 0.456,-0.23C0.46,-0.261 0.46,-0.29 0.457,-0.319C0.453,-0.348 0.445,-0.373 0.433,-0.396C0.421,-0.419 0.405,-0.437 0.384,-0.45C0.363,-0.463 0.337,-0.47 0.306,-0.47C0.263,-0.471 0.222,-0.46 0.185,-0.439C0.148,-0.418 0.117,-0.389 0.092,-0.353C0.067,-0.316 0.052,-0.275 0.045,-0.23ZM0.125,-0.23C0.13,-0.261 0.142,-0.29 0.159,-0.315C0.176,-0.34 0.198,-0.359 0.224,-0.374C0.25,-0.389 0.278,-0.396 0.308,-0.395C0.327,-0.394 0.345,-0.39 0.36,-0.381C0.375,-0.372 0.388,-0.359 0.398,-0.344C0.407,-0.329 0.414,-0.311 0.418,-0.292C0.422,-0.273 0.423,-0.252 0.42,-0.23C0.416,-0.207 0.408,-0.185 0.398,-0.166C0.387,-0.146 0.373,-0.129 0.357,-0.114C0.341,-0.099 0.324,-0.087 0.305,-0.079C0.285,-0.07 0.266,-0.066 0.246,-0.066C0.217,-0.066 0.192,-0.073 0.172,-0.088C0.153,-0.103 0.139,-0.123 0.131,-0.148C0.122,-0.172 0.12,-0.2 0.125,-0.23Z" style="fill:rgb(52,50,53);fill-rule:nonzero;"/>
                </g>
                <g transform="matrix(32.0563,0,0,32.0563,568.679,586.429)">
                    <path d="M0.253,-0.78L0.174,-0.78L0.04,-0L0.119,-0L0.253,-0.78ZM0.532,-0.23C0.538,-0.273 0.534,-0.313 0.521,-0.349C0.508,-0.386 0.486,-0.415 0.457,-0.437C0.428,-0.459 0.391,-0.47 0.348,-0.47C0.317,-0.469 0.289,-0.463 0.264,-0.451C0.238,-0.438 0.215,-0.421 0.196,-0.399C0.176,-0.377 0.16,-0.352 0.148,-0.323C0.135,-0.294 0.127,-0.263 0.122,-0.23C0.118,-0.199 0.118,-0.17 0.122,-0.141C0.125,-0.112 0.133,-0.087 0.145,-0.064C0.157,-0.041 0.173,-0.023 0.195,-0.01C0.216,0.003 0.241,0.01 0.272,0.01C0.315,0.01 0.356,-0.001 0.393,-0.021C0.43,-0.043 0.46,-0.071 0.485,-0.108C0.51,-0.144 0.525,-0.185 0.532,-0.23ZM0.453,-0.23C0.448,-0.199 0.436,-0.171 0.419,-0.146C0.401,-0.121 0.379,-0.101 0.353,-0.086C0.327,-0.072 0.299,-0.065 0.27,-0.066C0.25,-0.066 0.233,-0.07 0.218,-0.08C0.203,-0.089 0.19,-0.101 0.18,-0.116C0.17,-0.131 0.163,-0.149 0.16,-0.168C0.156,-0.187 0.155,-0.208 0.158,-0.23C0.161,-0.253 0.169,-0.275 0.18,-0.295C0.191,-0.314 0.204,-0.332 0.22,-0.346C0.236,-0.362 0.254,-0.373 0.273,-0.382C0.292,-0.391 0.312,-0.395 0.332,-0.395C0.361,-0.395 0.386,-0.388 0.406,-0.373C0.425,-0.358 0.439,-0.338 0.447,-0.313C0.455,-0.288 0.457,-0.26 0.453,-0.23Z" style="fill:rgb(52,50,53);fill-rule:nonzero;"/>
                </g>
                <g transform="matrix(32.0563,0,0,32.0563,585.926,586.429)">
                    <path d="M0.481,-0.46L0.39,-0.46L0.192,-0.105L0.224,-0.1L0.14,-0.46L0.052,-0.46L0.156,-0.068L-0.018,0.219L0.073,0.219L0.481,-0.46Z" style="fill:rgb(52,50,53);fill-rule:nonzero;"/>
                </g>
                <g transform="matrix(32.0563,0,0,32.0563,609.199,586.429)">
                    <path d="M0.169,-0.7L0.051,-0L0.133,-0L0.254,-0.7L0.169,-0.7ZM0.258,-0C0.309,-0 0.356,-0.009 0.401,-0.027C0.446,-0.044 0.486,-0.069 0.521,-0.1C0.556,-0.131 0.586,-0.168 0.609,-0.211C0.631,-0.254 0.647,-0.3 0.655,-0.35C0.662,-0.398 0.66,-0.443 0.651,-0.486C0.641,-0.528 0.624,-0.565 0.599,-0.597C0.574,-0.629 0.542,-0.654 0.503,-0.673C0.465,-0.691 0.421,-0.7 0.371,-0.7L0.215,-0.7L0.2,-0.615L0.362,-0.615C0.401,-0.615 0.434,-0.608 0.463,-0.595C0.492,-0.581 0.515,-0.562 0.533,-0.538C0.551,-0.513 0.563,-0.485 0.57,-0.453C0.576,-0.421 0.576,-0.387 0.571,-0.35C0.564,-0.311 0.552,-0.276 0.535,-0.244C0.517,-0.211 0.495,-0.183 0.468,-0.16C0.441,-0.136 0.41,-0.117 0.376,-0.105C0.342,-0.092 0.305,-0.085 0.266,-0.085L0.11,-0.085L0.095,-0L0.258,-0Z" style="fill:rgb(52,50,53);fill-rule:nonzero;"/>
                </g>
                <g transform="matrix(32.0563,0,0,32.0563,630.324,586.429)">
                    <path d="M0.104,-0.139C0.107,-0.157 0.114,-0.172 0.126,-0.185C0.138,-0.198 0.153,-0.207 0.172,-0.214C0.191,-0.22 0.211,-0.223 0.234,-0.224C0.259,-0.224 0.283,-0.22 0.305,-0.213C0.327,-0.205 0.349,-0.194 0.37,-0.179L0.377,-0.225C0.369,-0.234 0.358,-0.244 0.345,-0.253C0.332,-0.262 0.316,-0.27 0.297,-0.276C0.278,-0.282 0.256,-0.285 0.231,-0.286C0.196,-0.286 0.163,-0.28 0.134,-0.268C0.104,-0.256 0.079,-0.239 0.06,-0.216C0.041,-0.193 0.029,-0.167 0.024,-0.136C0.02,-0.107 0.023,-0.081 0.034,-0.059C0.045,-0.038 0.061,-0.021 0.083,-0.009C0.104,0.003 0.129,0.009 0.157,0.009C0.185,0.01 0.212,0.005 0.238,-0.006C0.264,-0.017 0.286,-0.032 0.306,-0.052C0.325,-0.072 0.337,-0.096 0.344,-0.124L0.337,-0.18C0.33,-0.157 0.32,-0.136 0.306,-0.117C0.291,-0.099 0.274,-0.085 0.253,-0.075C0.232,-0.065 0.209,-0.06 0.184,-0.061C0.167,-0.061 0.152,-0.064 0.139,-0.07C0.126,-0.076 0.117,-0.085 0.11,-0.097C0.103,-0.108 0.101,-0.122 0.104,-0.139ZM0.136,-0.353C0.147,-0.36 0.16,-0.367 0.174,-0.374C0.189,-0.381 0.205,-0.388 0.222,-0.393C0.239,-0.398 0.258,-0.4 0.279,-0.399C0.292,-0.399 0.304,-0.398 0.315,-0.395C0.326,-0.392 0.335,-0.387 0.343,-0.381C0.351,-0.375 0.357,-0.367 0.36,-0.358C0.363,-0.349 0.364,-0.338 0.363,-0.325L0.304,-0L0.384,-0L0.44,-0.33C0.445,-0.359 0.442,-0.384 0.429,-0.405C0.416,-0.426 0.398,-0.442 0.373,-0.453C0.347,-0.464 0.319,-0.469 0.288,-0.47C0.251,-0.47 0.217,-0.464 0.187,-0.453C0.156,-0.441 0.13,-0.428 0.107,-0.415L0.136,-0.353Z" style="fill:rgb(52,50,53);fill-rule:nonzero;"/>
                </g>
                <g transform="matrix(32.0563,0,0,32.0563,645.326,586.429)">
                    <path d="M0.058,-0.46L0.044,-0.385L0.269,-0.385L0.282,-0.46L0.058,-0.46ZM0.155,-0.62L0.051,-0L0.128,-0L0.236,-0.62L0.155,-0.62Z" style="fill:rgb(52,50,53);fill-rule:nonzero;"/>
                </g>
                <g transform="matrix(32.0563,0,0,32.0563,652.763,586.429)">
                    <path d="M0.104,-0.139C0.107,-0.157 0.114,-0.172 0.126,-0.185C0.138,-0.198 0.153,-0.207 0.172,-0.214C0.191,-0.22 0.211,-0.223 0.234,-0.224C0.259,-0.224 0.283,-0.22 0.305,-0.213C0.327,-0.205 0.349,-0.194 0.37,-0.179L0.377,-0.225C0.369,-0.234 0.358,-0.244 0.345,-0.253C0.332,-0.262 0.316,-0.27 0.297,-0.276C0.278,-0.282 0.256,-0.285 0.231,-0.286C0.196,-0.286 0.163,-0.28 0.134,-0.268C0.104,-0.256 0.079,-0.239 0.06,-0.216C0.041,-0.193 0.029,-0.167 0.024,-0.136C0.02,-0.107 0.023,-0.081 0.034,-0.059C0.045,-0.038 0.061,-0.021 0.083,-0.009C0.104,0.003 0.129,0.009 0.157,0.009C0.185,0.01 0.212,0.005 0.238,-0.006C0.264,-0.017 0.286,-0.032 0.306,-0.052C0.325,-0.072 0.337,-0.096 0.344,-0.124L0.337,-0.18C0.33,-0.157 0.32,-0.136 0.306,-0.117C0.291,-0.099 0.274,-0.085 0.253,-0.075C0.232,-0.065 0.209,-0.06 0.184,-0.061C0.167,-0.061 0.152,-0.064 0.139,-0.07C0.126,-0.076 0.117,-0.085 0.11,-0.097C0.103,-0.108 0.101,-0.122 0.104,-0.139ZM0.136,-0.353C0.147,-0.36 0.16,-0.367 0.174,-0.374C0.189,-0.381 0.205,-0.388 0.222,-0.393C0.239,-0.398 0.258,-0.4 0.279,-0.399C0.292,-0.399 0.304,-0.398 0.315,-0.395C0.326,-0.392 0.335,-0.387 0.343,-0.381C0.351,-0.375 0.357,-0.367 0.36,-0.358C0.363,-0.349 0.364,-0.338 0.363,-0.325L0.304,-0L0.384,-0L0.44,-0.33C0.445,-0.359 0.442,-0.384 0.429,-0.405C0.416,-0.426 0.398,-0.442 0.373,-0.453C0.347,-0.464 0.319,-0.469 0.288,-0.47C0.251,-0.47 0.217,-0.464 0.187,-0.453C0.156,-0.441 0.13,-0.428 0.107,-0.415L0.136,-0.353Z" style="fill:rgb(52,50,53);fill-rule:nonzero;"/>
                </g>
                <g transform="matrix(32.0563,0,0,32.0563,667.766,586.429)">
                    <path d="M0.09,-0.46L0.076,-0.385L0.301,-0.385L0.315,-0.46L0.09,-0.46ZM0.346,-0.685L0.399,-0.749C0.393,-0.756 0.386,-0.763 0.378,-0.769C0.37,-0.775 0.361,-0.78 0.351,-0.784C0.341,-0.787 0.33,-0.789 0.317,-0.79C0.288,-0.791 0.262,-0.784 0.241,-0.77C0.219,-0.756 0.202,-0.737 0.189,-0.713C0.175,-0.689 0.167,-0.662 0.162,-0.631L0.054,-0L0.134,-0L0.24,-0.62C0.242,-0.637 0.246,-0.652 0.251,-0.666C0.256,-0.679 0.263,-0.69 0.272,-0.698C0.281,-0.706 0.291,-0.71 0.304,-0.711C0.312,-0.711 0.32,-0.709 0.327,-0.705C0.334,-0.7 0.34,-0.694 0.346,-0.685Z" style="fill:rgb(52,50,53);fill-rule:nonzero;"/>
                </g>
                <g transform="matrix(32.0563,0,0,32.0563,676.645,586.429)">
                    <path d="M0.178,-0.78L0.046,-0L0.123,-0L0.258,-0.78L0.178,-0.78Z" style="fill:rgb(52,50,53);fill-rule:nonzero;"/>
                </g>
                <g transform="matrix(32.0563,0,0,32.0563,683.794,586.429)">
                    <path d="M0.481,-0.46L0.39,-0.46L0.192,-0.105L0.224,-0.1L0.14,-0.46L0.052,-0.46L0.156,-0.068L-0.018,0.219L0.073,0.219L0.481,-0.46Z" style="fill:rgb(52,50,53);fill-rule:nonzero;"/>
                </g>
                <g transform="matrix(32.0563,0,0,32.0563,697.45,586.429)">
                    <path d="M0.058,-0.46L0.044,-0.385L0.269,-0.385L0.282,-0.46L0.058,-0.46ZM0.155,-0.62L0.051,-0L0.128,-0L0.236,-0.62L0.155,-0.62Z" style="fill:rgb(52,50,53);fill-rule:nonzero;"/>
                </g>
                <g transform="matrix(32.0563,0,0,32.0563,714.504,586.429)">
                    <path d="M0.106,-0.212L0.038,-0.166C0.05,-0.135 0.067,-0.107 0.088,-0.08C0.109,-0.053 0.135,-0.031 0.166,-0.015C0.196,0.002 0.23,0.01 0.268,0.01C0.299,0.01 0.329,0.004 0.358,-0.007C0.386,-0.018 0.411,-0.034 0.433,-0.054C0.454,-0.074 0.471,-0.097 0.484,-0.124C0.497,-0.151 0.503,-0.179 0.503,-0.21C0.503,-0.238 0.498,-0.262 0.489,-0.282C0.48,-0.303 0.468,-0.32 0.453,-0.335C0.438,-0.349 0.421,-0.361 0.404,-0.371C0.386,-0.381 0.368,-0.39 0.351,-0.397C0.329,-0.405 0.31,-0.414 0.293,-0.424C0.276,-0.433 0.263,-0.443 0.252,-0.454C0.241,-0.465 0.232,-0.476 0.227,-0.489C0.221,-0.502 0.218,-0.515 0.218,-0.53C0.218,-0.549 0.222,-0.566 0.231,-0.581C0.24,-0.596 0.253,-0.608 0.27,-0.617C0.286,-0.625 0.308,-0.63 0.333,-0.63C0.362,-0.63 0.386,-0.625 0.405,-0.614C0.424,-0.603 0.439,-0.589 0.451,-0.573C0.462,-0.556 0.472,-0.539 0.479,-0.522L0.552,-0.561C0.542,-0.587 0.528,-0.611 0.509,-0.634C0.491,-0.657 0.468,-0.675 0.441,-0.689C0.414,-0.703 0.381,-0.71 0.343,-0.71C0.3,-0.71 0.263,-0.701 0.231,-0.684C0.199,-0.667 0.174,-0.644 0.157,-0.615C0.139,-0.586 0.13,-0.554 0.13,-0.519C0.13,-0.492 0.135,-0.469 0.146,-0.449C0.156,-0.429 0.169,-0.412 0.185,-0.398C0.201,-0.384 0.218,-0.372 0.235,-0.362C0.253,-0.352 0.27,-0.344 0.285,-0.337C0.308,-0.326 0.33,-0.315 0.35,-0.304C0.37,-0.293 0.386,-0.28 0.398,-0.264C0.41,-0.248 0.416,-0.227 0.416,-0.2C0.416,-0.179 0.41,-0.158 0.399,-0.138C0.387,-0.118 0.37,-0.102 0.348,-0.089C0.327,-0.076 0.301,-0.07 0.271,-0.07C0.243,-0.07 0.219,-0.076 0.199,-0.088C0.179,-0.1 0.162,-0.117 0.147,-0.138C0.132,-0.159 0.119,-0.184 0.106,-0.212Z" style="fill:rgb(52,50,53);fill-rule:nonzero;"/>
                </g>
                <g transform="matrix(32.0563,0,0,32.0563,731.525,586.429)">
                    <path d="M0.052,-0.23C0.046,-0.187 0.051,-0.148 0.066,-0.112C0.081,-0.075 0.104,-0.046 0.135,-0.024C0.166,-0.002 0.204,0.009 0.249,0.009C0.294,0.009 0.336,-0.002 0.374,-0.023C0.412,-0.044 0.444,-0.073 0.469,-0.11C0.494,-0.146 0.509,-0.186 0.515,-0.23C0.521,-0.273 0.517,-0.312 0.501,-0.348C0.487,-0.385 0.463,-0.414 0.432,-0.437C0.4,-0.459 0.362,-0.47 0.318,-0.47C0.273,-0.47 0.231,-0.459 0.193,-0.438C0.155,-0.416 0.124,-0.387 0.099,-0.35C0.074,-0.314 0.058,-0.274 0.052,-0.23ZM0.131,-0.23C0.136,-0.26 0.147,-0.288 0.164,-0.313C0.181,-0.338 0.202,-0.358 0.228,-0.373C0.253,-0.388 0.281,-0.395 0.311,-0.395C0.341,-0.394 0.366,-0.386 0.386,-0.371C0.406,-0.355 0.42,-0.335 0.429,-0.31C0.438,-0.285 0.44,-0.259 0.436,-0.23C0.431,-0.2 0.42,-0.172 0.403,-0.148C0.386,-0.123 0.364,-0.102 0.339,-0.087C0.314,-0.073 0.286,-0.065 0.255,-0.066C0.225,-0.066 0.2,-0.074 0.18,-0.09C0.16,-0.105 0.146,-0.126 0.138,-0.151C0.129,-0.175 0.127,-0.202 0.131,-0.23Z" style="fill:rgb(52,50,53);fill-rule:nonzero;"/>
                </g>
                <g transform="matrix(32.0563,0,0,32.0563,748.483,586.429)">
                    <path d="M0.09,-0.46L0.076,-0.385L0.301,-0.385L0.315,-0.46L0.09,-0.46ZM0.346,-0.685L0.399,-0.749C0.393,-0.756 0.386,-0.763 0.378,-0.769C0.37,-0.775 0.361,-0.78 0.351,-0.784C0.341,-0.787 0.33,-0.789 0.317,-0.79C0.288,-0.791 0.262,-0.784 0.241,-0.77C0.219,-0.756 0.202,-0.737 0.189,-0.713C0.175,-0.689 0.167,-0.662 0.162,-0.631L0.054,-0L0.134,-0L0.24,-0.62C0.242,-0.637 0.246,-0.652 0.251,-0.666C0.256,-0.679 0.263,-0.69 0.272,-0.698C0.281,-0.706 0.291,-0.71 0.304,-0.711C0.312,-0.711 0.32,-0.709 0.327,-0.705C0.334,-0.7 0.34,-0.694 0.346,-0.685Z" style="fill:rgb(52,50,53);fill-rule:nonzero;"/>
                </g>
                <g transform="matrix(32.0563,0,0,32.0563,757.363,586.429)">
                    <path d="M0.058,-0.46L0.044,-0.385L0.269,-0.385L0.282,-0.46L0.058,-0.46ZM0.155,-0.62L0.051,-0L0.128,-0L0.236,-0.62L0.155,-0.62Z" style="fill:rgb(52,50,53);fill-rule:nonzero;"/>
                </g>
                <g transform="matrix(32.0563,0,0,32.0563,764.8,586.429)">
                    <path d="M0.057,-0.46L0.166,0.037L0.352,-0.298L0.428,0.037L0.709,-0.46L0.618,-0.46L0.454,-0.162L0.383,-0.497L0.203,-0.164L0.144,-0.46L0.057,-0.46Z" style="fill:rgb(52,50,53);fill-rule:nonzero;"/>
                </g>
                <g transform="matrix(32.0563,0,0,32.0563,785.925,586.429)">
                    <path d="M0.104,-0.139C0.107,-0.157 0.114,-0.172 0.126,-0.185C0.138,-0.198 0.153,-0.207 0.172,-0.214C0.191,-0.22 0.211,-0.223 0.234,-0.224C0.259,-0.224 0.283,-0.22 0.305,-0.213C0.327,-0.205 0.349,-0.194 0.37,-0.179L0.377,-0.225C0.369,-0.234 0.358,-0.244 0.345,-0.253C0.332,-0.262 0.316,-0.27 0.297,-0.276C0.278,-0.282 0.256,-0.285 0.231,-0.286C0.196,-0.286 0.163,-0.28 0.134,-0.268C0.104,-0.256 0.079,-0.239 0.06,-0.216C0.041,-0.193 0.029,-0.167 0.024,-0.136C0.02,-0.107 0.023,-0.081 0.034,-0.059C0.045,-0.038 0.061,-0.021 0.083,-0.009C0.104,0.003 0.129,0.009 0.157,0.009C0.185,0.01 0.212,0.005 0.238,-0.006C0.264,-0.017 0.286,-0.032 0.306,-0.052C0.325,-0.072 0.337,-0.096 0.344,-0.124L0.337,-0.18C0.33,-0.157 0.32,-0.136 0.306,-0.117C0.291,-0.099 0.274,-0.085 0.253,-0.075C0.232,-0.065 0.209,-0.06 0.184,-0.061C0.167,-0.061 0.152,-0.064 0.139,-0.07C0.126,-0.076 0.117,-0.085 0.11,-0.097C0.103,-0.108 0.101,-0.122 0.104,-0.139ZM0.136,-0.353C0.147,-0.36 0.16,-0.367 0.174,-0.374C0.189,-0.381 0.205,-0.388 0.222,-0.393C0.239,-0.398 0.258,-0.4 0.279,-0.399C0.292,-0.399 0.304,-0.398 0.315,-0.395C0.326,-0.392 0.335,-0.387 0.343,-0.381C0.351,-0.375 0.357,-0.367 0.36,-0.358C0.363,-0.349 0.364,-0.338 0.363,-0.325L0.304,-0L0.384,-0L0.44,-0.33C0.445,-0.359 0.442,-0.384 0.429,-0.405C0.416,-0.426 0.398,-0.442 0.373,-0.453C0.347,-0.464 0.319,-0.469 0.288,-0.47C0.251,-0.47 0.217,-0.464 0.187,-0.453C0.156,-0.441 0.13,-0.428 0.107,-0.415L0.136,-0.353Z" style="fill:rgb(52,50,53);fill-rule:nonzero;"/>
                </g>
                <g transform="matrix(32.0563,0,0,32.0563,800.927,586.429)">
                    <path d="M0.203,-0.46L0.124,-0.46L0.044,-0L0.124,-0L0.203,-0.46ZM0.324,-0.373L0.377,-0.437C0.365,-0.448 0.353,-0.456 0.34,-0.462C0.327,-0.467 0.312,-0.47 0.296,-0.47C0.269,-0.469 0.244,-0.46 0.222,-0.441C0.2,-0.422 0.181,-0.399 0.166,-0.37C0.151,-0.341 0.14,-0.312 0.135,-0.281L0.172,-0.281C0.175,-0.3 0.181,-0.318 0.188,-0.336C0.195,-0.353 0.205,-0.368 0.219,-0.379C0.232,-0.39 0.248,-0.396 0.268,-0.395C0.279,-0.395 0.289,-0.393 0.298,-0.389C0.306,-0.385 0.315,-0.38 0.324,-0.373Z" style="fill:rgb(52,50,53);fill-rule:nonzero;"/>
                </g>
                <g transform="matrix(32.0563,0,0,32.0563,811.089,586.429)">
                    <path d="M0.238,0.01C0.287,0.01 0.331,-0.001 0.368,-0.023C0.405,-0.045 0.436,-0.073 0.46,-0.107L0.397,-0.148C0.38,-0.124 0.359,-0.104 0.334,-0.089C0.308,-0.073 0.279,-0.065 0.248,-0.065C0.22,-0.065 0.197,-0.071 0.179,-0.083C0.161,-0.094 0.148,-0.111 0.139,-0.132C0.13,-0.153 0.126,-0.178 0.126,-0.205C0.126,-0.231 0.13,-0.256 0.139,-0.28C0.147,-0.303 0.159,-0.324 0.174,-0.342C0.189,-0.36 0.207,-0.374 0.229,-0.385C0.25,-0.395 0.273,-0.4 0.298,-0.4C0.323,-0.4 0.343,-0.395 0.359,-0.386C0.375,-0.377 0.387,-0.364 0.396,-0.346C0.404,-0.33 0.408,-0.309 0.408,-0.285C0.408,-0.276 0.407,-0.267 0.404,-0.258C0.401,-0.249 0.398,-0.24 0.395,-0.232L0.426,-0.278L0.096,-0.278L0.096,-0.21L0.479,-0.21C0.482,-0.215 0.484,-0.224 0.487,-0.236C0.489,-0.248 0.49,-0.259 0.49,-0.269C0.49,-0.313 0.482,-0.35 0.467,-0.38C0.452,-0.409 0.43,-0.432 0.403,-0.447C0.375,-0.462 0.342,-0.47 0.303,-0.47C0.266,-0.47 0.233,-0.463 0.202,-0.448C0.171,-0.433 0.143,-0.413 0.12,-0.389C0.097,-0.364 0.079,-0.335 0.066,-0.303C0.053,-0.27 0.047,-0.236 0.047,-0.2C0.047,-0.156 0.055,-0.118 0.071,-0.087C0.087,-0.056 0.109,-0.032 0.138,-0.015C0.167,0.002 0.2,0.01 0.238,0.01Z" style="fill:rgb(52,50,53);fill-rule:nonzero;"/>
                </g>
            </g>
            <g transform="matrix(0.395975,0,0,0.395975,-49.6702,-57.0975)">
                <path d="M500,450.54L234.241,326.603L765.759,326.603L500,450.54ZM500,202.665L765.759,326.603L234.241,326.603L500,202.665Z" style="fill:white;"/>
            </g>
            <g transform="matrix(0.501114,0,0,0.501114,-102.24,-135.55)">
                <path d="M710,645.909C659.698,661.083 584.74,645.966 549.183,588.375C542.655,606.669 524.167,624.399 500,636.055L500,512.559L710,414.635L710,645.909Z" style="fill:rgb(200,200,200);"/>
            </g>
            <g transform="matrix(0.501114,0,0,0.501114,-102.24,-135.55)">
                <path d="M290,653.452L290,414.635L500,512.559L500,636.055C453.396,658.534 385.674,658.4 341.971,596.068C332.913,626.869 312.799,644.496 290,653.452Z" style="fill:rgb(182,182,182);"/>
            </g>
            <g transform="matrix(266.139,-19.7782,-22.5074,-233.867,-0.485803,216.259)">
                <path d="M0,0.07C0.027,0.011 0.204,-0.044 0.278,0.082C0.34,-0.067 0.571,-0.079 0.66,0.032C0.769,-0.103 0.956,-0.06 1,0.014C0.907,-0.032 0.732,0 0.665,0.132C0.621,0.035 0.386,-0.037 0.277,0.15C0.223,0.012 0.056,0.034 0,0.07Z" style="fill:rgb(52,50,53);fill-rule:nonzero;"/>
            </g>
            <g transform="matrix(200.295,-14.885,-16.939,-176.008,84.8483,225.602)">
                <path d="M0.988,0.118C0.984,0.112 0.98,0.106 0.976,0.101C0.972,0.095 0.968,0.09 0.964,0.084L0.95,0.069C0.946,0.064 0.941,0.059 0.936,0.055L0.922,0.041L0.906,0.029L0.891,0.018C0.88,0.011 0.869,0.004 0.858,-0.001C0.847,-0.007 0.835,-0.012 0.824,-0.016C0.812,-0.02 0.801,-0.024 0.789,-0.027C0.783,-0.028 0.777,-0.03 0.771,-0.031C0.765,-0.032 0.759,-0.033 0.753,-0.034C0.747,-0.034 0.741,-0.035 0.735,-0.035C0.729,-0.036 0.723,-0.036 0.717,-0.036C0.704,-0.037 0.692,-0.036 0.68,-0.035C0.668,-0.034 0.657,-0.032 0.645,-0.03C0.633,-0.028 0.621,-0.025 0.61,-0.021C0.598,-0.018 0.587,-0.014 0.576,-0.009C0.57,-0.007 0.564,-0.005 0.559,-0.002C0.553,0 0.548,0.003 0.543,0.006C0.532,0.012 0.521,0.018 0.511,0.025C0.501,0.031 0.491,0.039 0.481,0.046L0.45,0.069L0.421,0.05C0.414,0.045 0.406,0.04 0.399,0.036C0.391,0.031 0.383,0.027 0.375,0.023C0.359,0.015 0.342,0.009 0.325,0.004C0.316,0.001 0.307,-0.001 0.298,-0.003C0.29,-0.004 0.281,-0.006 0.271,-0.007C0.253,-0.009 0.235,-0.01 0.216,-0.009C0.198,-0.008 0.179,-0.006 0.16,-0.002C0.142,0.002 0.123,0.008 0.105,0.015C0.086,0.022 0.068,0.03 0.051,0.041C0.042,0.046 0.034,0.051 0.025,0.057C0.017,0.063 0.008,0.069 -0,0.076C0.005,0.066 0.01,0.058 0.016,0.048C0.022,0.04 0.029,0.031 0.036,0.023C0.043,0.015 0.051,0.007 0.059,-0.001C0.067,-0.008 0.075,-0.015 0.084,-0.022C0.102,-0.035 0.121,-0.047 0.141,-0.056C0.162,-0.066 0.183,-0.073 0.206,-0.079C0.217,-0.081 0.228,-0.083 0.239,-0.085C0.251,-0.087 0.262,-0.088 0.274,-0.088C0.286,-0.088 0.297,-0.088 0.309,-0.087C0.321,-0.087 0.332,-0.086 0.344,-0.084C0.367,-0.08 0.39,-0.074 0.412,-0.066C0.422,-0.062 0.432,-0.057 0.442,-0.053C0.446,-0.055 0.449,-0.058 0.453,-0.061C0.465,-0.07 0.479,-0.078 0.493,-0.086C0.5,-0.09 0.507,-0.094 0.514,-0.097C0.521,-0.1 0.528,-0.104 0.536,-0.107C0.55,-0.113 0.566,-0.118 0.581,-0.122C0.596,-0.126 0.612,-0.13 0.628,-0.132C0.644,-0.134 0.66,-0.135 0.676,-0.136C0.692,-0.136 0.708,-0.135 0.724,-0.133C0.732,-0.132 0.74,-0.131 0.748,-0.129C0.756,-0.128 0.763,-0.126 0.771,-0.124C0.779,-0.122 0.787,-0.12 0.794,-0.117C0.802,-0.115 0.809,-0.112 0.816,-0.108C0.831,-0.102 0.845,-0.095 0.859,-0.087C0.872,-0.079 0.885,-0.07 0.897,-0.06C0.909,-0.049 0.921,-0.039 0.931,-0.027C0.936,-0.021 0.941,-0.015 0.946,-0.009C0.95,-0.003 0.954,0.004 0.959,0.01C0.963,0.017 0.966,0.023 0.97,0.03C0.973,0.037 0.977,0.043 0.98,0.05C0.982,0.057 0.985,0.064 0.987,0.071C0.99,0.078 0.992,0.085 0.994,0.093C0.997,0.107 0.999,0.121 1,0.136C0.996,0.13 0.992,0.124 0.988,0.118Z" style="fill:rgb(52,50,53);fill-rule:nonzero;"/>
            </g>
            <g transform="matrix(146.15,-10.8612,-12.3599,-128.428,26.811,239.865)">
                <path d="M0.015,0.137C0.02,0.131 0.025,0.125 0.031,0.12C0.037,0.114 0.044,0.109 0.05,0.104C0.056,0.1 0.063,0.095 0.07,0.091C0.077,0.087 0.085,0.084 0.092,0.08C0.1,0.077 0.107,0.073 0.115,0.071C0.123,0.068 0.131,0.066 0.139,0.064C0.147,0.062 0.155,0.06 0.163,0.059C0.196,0.053 0.229,0.053 0.261,0.056C0.278,0.058 0.294,0.06 0.31,0.063C0.316,0.065 0.321,0.066 0.327,0.067C0.33,0.061 0.333,0.054 0.337,0.048C0.346,0.032 0.356,0.018 0.367,0.004C0.379,-0.009 0.391,-0.022 0.404,-0.033C0.417,-0.044 0.43,-0.055 0.445,-0.064C0.473,-0.084 0.503,-0.099 0.534,-0.112C0.549,-0.118 0.565,-0.124 0.581,-0.129C0.596,-0.134 0.612,-0.138 0.629,-0.142C0.645,-0.145 0.661,-0.148 0.677,-0.15C0.694,-0.152 0.71,-0.154 0.727,-0.154C0.743,-0.155 0.76,-0.155 0.776,-0.154C0.784,-0.154 0.793,-0.153 0.801,-0.152C0.809,-0.152 0.817,-0.151 0.825,-0.149C0.833,-0.148 0.841,-0.147 0.849,-0.145C0.857,-0.143 0.866,-0.142 0.873,-0.139C0.881,-0.137 0.889,-0.135 0.897,-0.132C0.905,-0.129 0.912,-0.126 0.92,-0.123C0.935,-0.117 0.949,-0.108 0.963,-0.1C0.977,-0.091 0.989,-0.08 1,-0.069C0.993,-0.072 0.986,-0.076 0.978,-0.079C0.971,-0.082 0.964,-0.085 0.957,-0.087C0.942,-0.092 0.927,-0.096 0.912,-0.099C0.905,-0.101 0.897,-0.102 0.89,-0.103C0.882,-0.104 0.875,-0.105 0.867,-0.105C0.852,-0.106 0.837,-0.107 0.822,-0.107C0.807,-0.107 0.792,-0.106 0.777,-0.104C0.762,-0.103 0.747,-0.101 0.732,-0.099C0.703,-0.094 0.673,-0.087 0.645,-0.079C0.63,-0.074 0.616,-0.07 0.602,-0.065C0.589,-0.059 0.575,-0.054 0.561,-0.048C0.548,-0.042 0.535,-0.035 0.522,-0.028C0.51,-0.021 0.497,-0.013 0.485,-0.005C0.473,0.003 0.462,0.012 0.451,0.021C0.44,0.03 0.431,0.04 0.421,0.051C0.412,0.061 0.404,0.072 0.396,0.083C0.393,0.089 0.39,0.095 0.386,0.101C0.383,0.107 0.381,0.113 0.378,0.119L0.362,0.152L0.334,0.139C0.329,0.136 0.321,0.134 0.315,0.131C0.308,0.129 0.301,0.127 0.295,0.125C0.281,0.12 0.267,0.117 0.253,0.114C0.224,0.107 0.196,0.104 0.167,0.104C0.16,0.104 0.153,0.104 0.145,0.104C0.138,0.105 0.131,0.105 0.124,0.106C0.109,0.108 0.095,0.111 0.081,0.115C0.074,0.117 0.067,0.12 0.06,0.123C0.053,0.126 0.046,0.128 0.04,0.132C0.033,0.135 0.026,0.139 0.02,0.143C0.013,0.146 0.007,0.151 0,0.155C0.005,0.149 0.009,0.143 0.015,0.137Z" style="fill:rgb(52,50,53);fill-rule:nonzero;"/>
            </g>
        </g>
    </g>
</svg>
