<?xml version="1.0" encoding="UTF-8" standalone="no"?>
<!DOCTYPE svg PUBLIC "-//W3C//DTD SVG 1.1//EN" "http://www.w3.org/Graphics/SVG/1.1/DTD/svg11.dtd">
<svg width="100%" height="100%" viewBox="0 0 176 126" version="1.1" xmlns="http://www.w3.org/2000/svg" xmlns:xlink="http://www.w3.org/1999/xlink" xml:space="preserve" xmlns:serif="http://www.serif.com/" style="fill-rule:evenodd;clip-rule:evenodd;stroke-linejoin:round;stroke-miterlimit:2;">
    <g transform="matrix(0.181623,0,0,0.181623,1.14031,35.422)">
        <g transform="matrix(0.416239,0,0,0.416239,-54.5448,-147.85)">
            <path d="M2021.14,609.498L2095.47,609.498L2095.47,683.828L2021.14,683.828L2021.14,609.498ZM2169.8,609.498L2244.13,609.498L2244.13,683.828L2169.8,683.828L2169.8,609.498ZM1426.49,609.498L1500.83,609.498L1500.83,683.828L1426.49,683.828L1426.49,609.498ZM1277.83,609.498L1352.16,609.498L1352.16,683.828L1277.83,683.828L1277.83,609.498ZM1575.15,609.498L1649.49,609.498L1649.49,683.828L1575.15,683.828L1575.15,609.498ZM1723.82,609.498L1798.15,609.498L1798.15,683.828L1723.82,683.828L1723.82,609.498ZM1872.48,609.498L1946.81,609.498L1946.81,683.828L1872.48,683.828L1872.48,609.498ZM2169.8,535.167L2169.8,460.837L2244.13,460.837L2244.13,535.167L2169.8,535.167L2169.8,609.498L2095.47,609.498L2095.47,535.167L2169.8,535.167ZM1723.82,609.498L1649.49,609.498L1649.49,535.167L1575.15,535.167L1575.15,609.498L1500.83,609.498L1500.83,535.167L1426.49,535.167L1426.49,609.498L1352.16,609.498L1352.16,535.167L1277.83,535.167L1277.83,460.837L1352.16,460.837L1352.16,535.167L1426.49,535.167L1426.49,460.837L1500.83,460.837L1500.83,535.167L1575.15,535.167L1575.15,460.837L1649.49,460.837L1649.49,535.167L1723.82,535.167L1723.82,460.837L1798.15,460.837L1798.15,535.167L1872.48,535.167L1872.48,609.498L1798.15,609.498L1798.15,535.167L1723.82,535.167L1723.82,609.498ZM2021.14,609.498L1946.81,609.498L1946.81,535.167L1872.48,535.167L1872.48,460.837L1946.81,460.837L1946.81,535.167L2021.14,535.167L2021.14,460.837L2095.47,460.837L2095.47,535.167L2021.14,535.167L2021.14,609.498ZM2169.8,460.837L2095.47,460.837L2095.47,386.506L2169.8,386.506L2169.8,460.837ZM1575.15,460.837L1500.83,460.837L1500.83,386.506L1575.15,386.506L1575.15,460.837ZM1723.82,460.837L1649.49,460.837L1649.49,386.506L1723.82,386.506L1723.82,460.837ZM1872.48,460.837L1798.15,460.837L1798.15,386.506L1872.48,386.506L1872.48,460.837ZM2021.14,460.837L1946.81,460.837L1946.81,386.506L2021.14,386.506L2021.14,460.837ZM1426.49,460.837L1352.16,460.837L1352.16,386.506L1426.49,386.506L1426.49,460.837Z" style="fill:url(#_Linear1);"/>
        </g>
        <g transform="matrix(0.416239,0,0,0.416239,-54.5448,-147.85)">
            <path d="M682.818,979.163L757.149,979.163L757.149,1053.49L682.818,1053.49L682.818,979.163ZM534.157,979.163L608.488,979.163L608.488,1053.49L534.157,1053.49L534.157,979.163ZM385.496,979.163L459.827,979.163L459.827,1053.49L385.496,1053.49L385.496,979.163ZM608.488,904.833L682.818,904.833L682.818,979.163L608.488,979.163L608.488,904.833L534.157,904.833L534.157,979.163L459.827,979.163L459.827,904.833L534.157,904.833L534.157,830.502L608.488,830.502L608.488,904.833ZM385.496,904.833L385.496,830.502L459.827,830.502L459.827,904.833L385.496,904.833L385.496,979.163L311.166,979.163L311.166,904.833L385.496,904.833ZM757.149,904.833L831.479,904.833L831.479,979.163L757.149,979.163L757.149,904.833L682.818,904.833L682.818,830.502L757.149,830.502L757.149,904.833ZM682.818,830.502L608.488,830.502L608.488,756.172L682.818,756.172L682.818,830.502ZM534.157,830.502L459.827,830.502L459.827,756.172L534.157,756.172L534.157,830.502ZM385.496,830.502L311.166,830.502L311.166,756.172L385.496,756.172L385.496,830.502ZM831.479,830.502L757.149,830.502L757.149,756.172L831.479,756.172L831.479,830.502Z" style="fill:url(#_Linear2);"/>
        </g>
        <g transform="matrix(0.949524,0,0,0.949524,-195.176,-579.104)">
            <g transform="matrix(1,0,0,1,-367.558,-174.427)">
                <g transform="matrix(212.199,0,0,212.199,635,945)">
                    <path d="M0.342,-0.691L0.35,-0.691C0.47,-0.691 0.568,-0.635 0.643,-0.523C0.657,-0.499 0.668,-0.476 0.674,-0.455L0.67,-0.453L0.557,-0.453C0.503,-0.538 0.433,-0.58 0.346,-0.58C0.272,-0.58 0.21,-0.549 0.16,-0.488C0.128,-0.445 0.111,-0.398 0.111,-0.346C0.111,-0.253 0.157,-0.181 0.248,-0.131C0.283,-0.118 0.313,-0.111 0.34,-0.111L0.352,-0.111C0.44,-0.111 0.51,-0.158 0.563,-0.25L0.674,-0.25C0.676,-0.25 0.678,-0.248 0.678,-0.246C0.656,-0.177 0.618,-0.121 0.566,-0.08C0.502,-0.027 0.432,-0 0.357,-0L0.334,-0C0.237,-0 0.151,-0.043 0.076,-0.129C0.025,-0.194 0,-0.265 0,-0.342L0,-0.35C0,-0.473 0.059,-0.573 0.178,-0.648C0.231,-0.677 0.286,-0.691 0.342,-0.691Z" style="fill:rgb(52,50,53);fill-rule:nonzero;"/>
                </g>
                <g transform="matrix(212.199,0,0,212.199,967.701,945)">
                    <path d="M0.412,-0.57C0.39,-0.577 0.368,-0.58 0.346,-0.58C0.217,-0.577 0.143,-0.521 0.121,-0.414L0.113,-0.301L0.113,-0.004C0.113,-0.001 0.112,-0 0.109,-0L0.006,-0C0.003,-0 0.002,-0.001 0.002,-0.004L0.002,-0.229C0.002,-0.275 0.001,-0.317 0,-0.355C0.001,-0.366 0.002,-0.392 0.002,-0.434C0.047,-0.618 0.176,-0.704 0.391,-0.691L0.398,-0.691C0.403,-0.691 0.408,-0.691 0.412,-0.691L0.412,-0.57Z" style="fill:rgb(52,50,53);fill-rule:nonzero;"/>
                </g>
            </g>
            <g transform="matrix(1,0,0,1,656.55,915.995)">
                <path d="M122.678,-69.628L122.678,-145.887C122.678,-146.439 122.954,-146.716 123.506,-146.716L145.472,-146.716C146.025,-146.716 146.301,-146.439 146.301,-145.887L146.301,-98.225C146.301,-90.627 146.439,-80.542 146.716,-67.97C145.196,-55.398 142.157,-45.313 137.598,-37.715C121.572,-12.572 100.435,0 74.187,0L72.529,0C45.728,0 24.314,-12.986 8.289,-38.958C2.763,-50.356 0,-61.132 0,-71.286L0,-145.887C0,-146.439 0.276,-146.716 0.829,-146.716L23.209,-146.716C23.762,-146.716 24.038,-146.439 24.038,-145.887L24.038,-128.065C24.038,-100.09 23.9,-80.196 23.624,-68.384C25.489,-57.747 28.666,-49.596 33.156,-43.932C44.001,-30.393 57.401,-23.624 73.358,-23.624C93.182,-23.624 108.379,-33.432 118.948,-53.05C121.434,-59.612 122.678,-65.138 122.678,-69.628Z" style="fill:rgb(52,50,53);fill-rule:nonzero;"/>
                <path d="M198.937,-77.088L198.937,-0.829C198.937,-0.276 198.66,0 198.108,0L176.142,0C175.589,0 175.313,-0.276 175.313,-0.829L175.313,-48.491C175.313,-56.089 175.175,-66.174 174.898,-78.746C176.418,-91.317 179.457,-101.402 184.016,-109.001C200.042,-134.144 221.179,-146.716 247.427,-146.716L249.085,-146.716C275.886,-146.716 297.3,-133.73 313.325,-107.757C318.851,-96.36 321.614,-85.584 321.614,-75.43L321.614,-0.829C321.614,-0.276 321.338,0 320.785,0L298.405,0C297.852,0 297.576,-0.276 297.576,-0.829L297.576,-18.65C297.576,-46.626 297.714,-66.519 297.99,-78.331C296.125,-88.969 292.948,-97.12 288.458,-102.784C277.613,-116.323 264.213,-123.092 248.256,-123.092C228.432,-123.092 213.235,-113.283 202.667,-93.666C200.18,-87.104 198.937,-81.578 198.937,-77.088Z" style="fill:rgb(52,50,53);fill-rule:nonzero;"/>
                <path d="M420.254,-144.643L423.984,-144.643C445.535,-144.643 464.185,-135.111 479.935,-116.046C489.605,-102.715 494.44,-89.038 494.44,-75.016L494.44,-69.213C494.44,-64.24 494.026,-61.753 493.197,-61.753L373.006,-61.753L373.006,-61.339C376.045,-49.596 381.295,-40.754 388.755,-34.814C398.426,-26.249 409.202,-21.966 421.082,-21.966L423.155,-21.966C437.937,-21.966 450.923,-28.321 462.113,-41.031L486.98,-41.031C480.28,-25.282 467.846,-13.401 449.68,-5.388C440.7,-1.796 431.72,0 422.74,0L421.911,0C396.284,0 375.562,-11.881 359.744,-35.643C353.112,-47.8 349.797,-60.095 349.797,-72.529C349.797,-97.741 361.401,-118.326 384.611,-134.282C396.768,-141.19 408.649,-144.643 420.254,-144.643ZM373.006,-83.305C427.921,-83.028 460.801,-82.89 471.646,-82.89L471.646,-83.305C467.432,-97.741 460.386,-108.103 450.509,-114.389C441.391,-119.915 432.549,-122.678 423.984,-122.678L419.839,-122.678C404.712,-122.678 391.449,-115.217 380.052,-100.297C376.874,-95.324 374.526,-89.66 373.006,-83.305Z" style="fill:rgb(52,50,53);fill-rule:nonzero;"/>
            </g>
            <g transform="matrix(-212.199,0,0,212.199,624.669,935.888)">
                <path d="M0.412,-0.22L0.412,-0.099C0.408,-0.099 0.403,-0.099 0.398,-0.099L0.391,-0.099C0.176,-0.086 0.047,-0.172 0.002,-0.356C0.002,-0.398 0.001,-0.424 0,-0.435C0.001,-0.452 -0,-0.49 -0,-0.49L-0.105,-0.49L-0.105,-0.607L0,-0.607L0.002,-0.781C0.002,-0.784 0.003,-0.785 0.006,-0.785L0.109,-0.785C0.112,-0.785 0.113,-0.784 0.113,-0.781L0.113,-0.607L0.411,-0.607L0.411,-0.489L0.113,-0.49L0.121,-0.376C0.143,-0.269 0.217,-0.213 0.346,-0.21C0.368,-0.21 0.39,-0.213 0.412,-0.22Z" style="fill:rgb(52,50,53);fill-rule:nonzero;"/>
            </g>
        </g>
        <g transform="matrix(0.95603,0,0,0.95603,-744.1,-377.803)">
            <g transform="matrix(0.939759,7.23964e-34,0,0.939759,64.3675,-126.507)">
                <path d="M1055.01,663.746L1068.72,688.788L1068.5,688.789C1063.78,688.789 1059.24,687.999 1055.01,686.545L1055.01,663.746ZM1064.62,668.654L1088.89,683.435C1084.76,685.772 1080.19,687.422 1075.34,688.228L1064.62,668.654ZM1049.02,654.428L1049.02,683.935C1044.75,681.659 1040.92,678.659 1037.7,675.097L1049.02,654.428ZM1075.27,667.837L1104.56,667.837C1101.98,672.351 1098.58,676.334 1094.56,679.582L1075.27,667.837ZM1048.25,643.198L1033.66,669.838C1030.9,665.574 1028.89,660.772 1027.84,655.624L1048.25,643.198ZM1084.1,661.515L1109.97,645.761C1109.99,646.267 1110,646.777 1110,647.289C1110,652.285 1109.12,657.077 1107.49,661.515L1084.1,661.515ZM1088.76,651.381L1103.34,624.741C1106.1,629.004 1108.11,633.806 1109.16,638.954L1088.76,651.381ZM1029.51,633.064L1052.9,633.064L1027.03,648.818C1027.01,648.311 1027,647.801 1027,647.289C1027,642.292 1027.88,637.5 1029.51,633.064ZM1087.98,640.15L1087.98,610.643C1092.25,612.919 1096.08,615.92 1099.3,619.481L1087.98,640.15ZM1081.99,630.833L1068.28,605.79L1068.5,605.789C1073.22,605.789 1077.76,606.579 1081.99,608.034L1081.99,630.833ZM1061.73,626.741L1032.44,626.741C1035.02,622.228 1038.42,618.245 1042.44,614.996L1061.73,626.741ZM1072.38,625.925L1048.11,611.144C1052.24,608.806 1056.81,607.156 1061.66,606.35L1072.38,625.925Z" style="fill:rgb(52,50,53);"/>
            </g>
            <g>
                <g transform="matrix(1,0,0,1,0,-166)">
                    <rect x="1120" y="654" width="21.482" height="66.771" style="fill:rgb(52,50,53);"/>
                </g>
                <path d="M1068.5,408.807C1108.78,408.807 1141.48,441.509 1141.48,481.789C1141.48,522.069 1108.78,554.771 1068.5,554.771C1028.22,554.771 995.518,522.069 995.518,481.789C995.518,441.509 1028.22,408.807 1068.5,408.807ZM1068.5,430.289C1096.92,430.289 1120,453.366 1120,481.789C1120,510.213 1096.92,533.289 1068.5,533.289C1040.08,533.289 1017,510.213 1017,481.789C1017,453.366 1040.08,430.289 1068.5,430.289Z" style="fill:rgb(52,50,53);"/>
            </g>
        </g>
    </g>
    <defs>
        <linearGradient id="_Linear1" x1="0" y1="0" x2="1" y2="0" gradientUnits="userSpaceOnUse" gradientTransform="matrix(966.297,0,0,297.322,1277.83,535.167)"><stop offset="0" style="stop-color:rgb(52,50,53);stop-opacity:1"/><stop offset="1" style="stop-color:rgb(52,50,53);stop-opacity:0"/></linearGradient>
        <linearGradient id="_Linear2" x1="0" y1="0" x2="1" y2="0" gradientUnits="userSpaceOnUse" gradientTransform="matrix(520.314,0,0,297.322,311.166,904.833)"><stop offset="0" style="stop-color:rgb(52,50,53);stop-opacity:0"/><stop offset="1" style="stop-color:rgb(52,50,53);stop-opacity:1"/></linearGradient>
    </defs>
</svg>
