<?xml version="1.0" encoding="UTF-8" standalone="no"?>
<!DOCTYPE svg PUBLIC "-//W3C//DTD SVG 1.1//EN" "http://www.w3.org/Graphics/SVG/1.1/DTD/svg11.dtd">
<svg width="100%" height="100%" viewBox="0 0 280 1246" version="1.1" xmlns="http://www.w3.org/2000/svg" xmlns:xlink="http://www.w3.org/1999/xlink" xml:space="preserve" xmlns:serif="http://www.serif.com/" style="fill-rule:evenodd;clip-rule:evenodd;stroke-linejoin:round;stroke-miterlimit:2;">
    <g transform="matrix(6.12323e-17,-1,1,6.12323e-17,-622.12,2183.64)">
        <g transform="matrix(440,0,0,440,927,898)">
            <path d="M0.316,-0.351C0.313,-0.373 0.304,-0.39 0.288,-0.401C0.272,-0.412 0.252,-0.418 0.228,-0.418C0.191,-0.418 0.165,-0.401 0.151,-0.368C0.136,-0.335 0.129,-0.282 0.129,-0.21C0.129,-0.143 0.138,-0.093 0.157,-0.059C0.176,-0.024 0.201,-0.007 0.232,-0.007C0.27,-0.007 0.302,-0.019 0.328,-0.044C0.361,-0.075 0.377,-0.121 0.377,-0.181L0.385,-0.181C0.385,-0.122 0.37,-0.076 0.339,-0.042C0.308,-0.008 0.266,0.009 0.213,0.009C0.17,0.009 0.129,-0.008 0.092,-0.043C0.047,-0.084 0.025,-0.137 0.025,-0.201C0.025,-0.27 0.048,-0.326 0.093,-0.37C0.132,-0.408 0.173,-0.427 0.216,-0.427C0.245,-0.427 0.271,-0.422 0.296,-0.412C0.333,-0.397 0.356,-0.373 0.365,-0.341C0.368,-0.329 0.37,-0.319 0.37,-0.31C0.37,-0.289 0.36,-0.272 0.34,-0.261C0.332,-0.256 0.324,-0.254 0.313,-0.254C0.301,-0.254 0.29,-0.258 0.281,-0.267C0.271,-0.276 0.266,-0.288 0.266,-0.303C0.266,-0.317 0.271,-0.329 0.28,-0.338C0.289,-0.347 0.301,-0.351 0.316,-0.351Z" style="fill:rgb(225,224,226);fill-rule:nonzero;"/>
        </g>
        <g transform="matrix(440,0,0,440,1101.24,898)">
            <path d="M0.433,-0.21C0.433,-0.145 0.411,-0.092 0.366,-0.049C0.325,-0.01 0.28,0.009 0.229,0.009C0.177,0.009 0.132,-0.009 0.093,-0.045C0.048,-0.087 0.025,-0.142 0.025,-0.21C0.025,-0.275 0.047,-0.328 0.092,-0.37C0.133,-0.408 0.178,-0.427 0.229,-0.427C0.28,-0.427 0.326,-0.409 0.365,-0.373C0.41,-0.332 0.433,-0.277 0.433,-0.21ZM0.329,-0.21C0.329,-0.284 0.323,-0.336 0.31,-0.366C0.295,-0.401 0.268,-0.418 0.229,-0.418C0.193,-0.418 0.167,-0.401 0.152,-0.368C0.137,-0.335 0.129,-0.282 0.129,-0.21C0.129,-0.137 0.136,-0.083 0.15,-0.05C0.163,-0.017 0.19,-0 0.229,-0C0.265,-0 0.291,-0.017 0.306,-0.051C0.321,-0.085 0.329,-0.138 0.329,-0.21Z" style="fill:rgb(225,224,226);fill-rule:nonzero;"/>
        </g>
        <g transform="matrix(440,0,0,440,1298.36,898)">
            <path d="M0.202,-0.245L0.202,-0.048C0.202,-0.035 0.203,-0.026 0.205,-0.022C0.206,-0.02 0.21,-0.018 0.215,-0.016C0.22,-0.014 0.229,-0.012 0.242,-0.011C0.255,-0.01 0.266,-0.009 0.276,-0.009L0.276,-0L0.02,-0L0.02,-0.009C0.035,-0.009 0.049,-0.01 0.064,-0.011C0.078,-0.012 0.091,-0.015 0.102,-0.019C0.106,-0.022 0.108,-0.032 0.108,-0.048L0.108,-0.353C0.108,-0.359 0.108,-0.365 0.108,-0.371C0.107,-0.377 0.106,-0.382 0.103,-0.385L0.097,-0.395C0.09,-0.4 0.065,-0.402 0.021,-0.402L0.021,-0.411L0.202,-0.427L0.202,-0.299C0.206,-0.328 0.215,-0.353 0.228,-0.375C0.247,-0.406 0.266,-0.422 0.287,-0.425C0.308,-0.427 0.321,-0.428 0.327,-0.428C0.369,-0.428 0.402,-0.415 0.427,-0.39C0.448,-0.369 0.458,-0.343 0.458,-0.314L0.458,-0.048C0.458,-0.035 0.459,-0.026 0.461,-0.022C0.462,-0.02 0.466,-0.018 0.471,-0.016C0.476,-0.014 0.486,-0.012 0.5,-0.011C0.514,-0.01 0.527,-0.009 0.54,-0.009L0.54,-0L0.284,-0L0.284,-0.009C0.295,-0.009 0.307,-0.01 0.321,-0.011C0.335,-0.012 0.347,-0.015 0.358,-0.019C0.362,-0.022 0.364,-0.032 0.364,-0.048L0.364,-0.302C0.364,-0.335 0.361,-0.359 0.356,-0.376C0.347,-0.403 0.331,-0.417 0.308,-0.417C0.277,-0.417 0.252,-0.398 0.233,-0.36C0.218,-0.331 0.208,-0.293 0.202,-0.245Z" style="fill:rgb(225,224,226);fill-rule:nonzero;"/>
        </g>
        <g transform="matrix(440,0,0,440,1534.64,898)">
            <path d="M0.306,-0.213L0.306,-0.167C0.306,-0.152 0.306,-0.137 0.307,-0.123C0.307,-0.076 0.302,-0.044 0.291,-0.027C0.276,-0.003 0.248,0.009 0.206,0.009C0.166,0.009 0.137,-0.001 0.118,-0.02C0.099,-0.039 0.09,-0.067 0.09,-0.103L0.09,-0.387L0.01,-0.387L0.01,-0.396C0.065,-0.409 0.106,-0.441 0.134,-0.491C0.156,-0.532 0.167,-0.577 0.167,-0.627L0.184,-0.627L0.184,-0.416L0.299,-0.416L0.299,-0.387L0.184,-0.387L0.184,-0.116C0.184,-0.08 0.185,-0.057 0.188,-0.046C0.194,-0.021 0.209,-0.008 0.232,-0.008C0.259,-0.008 0.277,-0.023 0.285,-0.052C0.291,-0.072 0.294,-0.11 0.294,-0.165L0.294,-0.213L0.306,-0.213Z" style="fill:rgb(225,224,226);fill-rule:nonzero;"/>
        </g>
        <g transform="matrix(440,0,0,440,1670.6,898)">
            <path d="M0.278,-0.11L0.278,-0.243C0.27,-0.232 0.258,-0.226 0.243,-0.224C0.227,-0.221 0.212,-0.219 0.197,-0.217C0.178,-0.212 0.162,-0.202 0.151,-0.185C0.138,-0.165 0.131,-0.137 0.131,-0.1C0.131,-0.062 0.135,-0.035 0.142,-0.022C0.15,-0.008 0.162,-0.001 0.179,-0.001C0.204,-0.001 0.227,-0.012 0.248,-0.033C0.268,-0.054 0.278,-0.079 0.278,-0.11ZM0.281,-0.29L0.281,-0.349C0.281,-0.375 0.277,-0.394 0.268,-0.403C0.26,-0.412 0.241,-0.417 0.213,-0.417C0.19,-0.417 0.17,-0.413 0.153,-0.404C0.136,-0.395 0.124,-0.383 0.119,-0.368C0.122,-0.369 0.125,-0.369 0.129,-0.369C0.142,-0.369 0.152,-0.364 0.16,-0.354C0.168,-0.344 0.172,-0.333 0.172,-0.32C0.172,-0.305 0.167,-0.293 0.157,-0.284C0.147,-0.275 0.135,-0.27 0.122,-0.27C0.113,-0.27 0.105,-0.272 0.098,-0.277C0.079,-0.29 0.069,-0.306 0.069,-0.325C0.069,-0.334 0.071,-0.345 0.075,-0.357C0.084,-0.383 0.108,-0.402 0.145,-0.414C0.172,-0.423 0.199,-0.427 0.226,-0.427C0.275,-0.427 0.313,-0.418 0.338,-0.399C0.361,-0.382 0.372,-0.361 0.372,-0.336L0.372,-0.116C0.372,-0.076 0.373,-0.051 0.375,-0.042C0.38,-0.019 0.392,-0.008 0.411,-0.008C0.428,-0.008 0.44,-0.017 0.446,-0.035C0.452,-0.053 0.455,-0.079 0.455,-0.112L0.454,-0.169L0.454,-0.178L0.466,-0.178L0.466,-0.134C0.466,-0.12 0.466,-0.107 0.467,-0.094C0.467,-0.055 0.462,-0.029 0.453,-0.016C0.441,0.001 0.416,0.009 0.38,0.009C0.351,0.009 0.329,0.004 0.315,-0.006C0.298,-0.018 0.287,-0.038 0.282,-0.066C0.268,-0.034 0.247,-0.012 0.219,-0.001C0.202,0.006 0.18,0.009 0.152,0.009C0.124,0.009 0.1,0.002 0.079,-0.011C0.05,-0.029 0.036,-0.056 0.036,-0.093C0.036,-0.129 0.05,-0.16 0.078,-0.184C0.106,-0.208 0.14,-0.222 0.179,-0.225C0.219,-0.229 0.246,-0.234 0.26,-0.241C0.274,-0.249 0.281,-0.265 0.281,-0.29Z" style="fill:rgb(225,224,226);fill-rule:nonzero;"/>
        </g>
        <g transform="matrix(440,0,0,440,1874.32,898)">
            <path d="M0.316,-0.351C0.313,-0.373 0.304,-0.39 0.288,-0.401C0.272,-0.412 0.252,-0.418 0.228,-0.418C0.191,-0.418 0.165,-0.401 0.151,-0.368C0.136,-0.335 0.129,-0.282 0.129,-0.21C0.129,-0.143 0.138,-0.093 0.157,-0.059C0.176,-0.024 0.201,-0.007 0.232,-0.007C0.27,-0.007 0.302,-0.019 0.328,-0.044C0.361,-0.075 0.377,-0.121 0.377,-0.181L0.385,-0.181C0.385,-0.122 0.37,-0.076 0.339,-0.042C0.308,-0.008 0.266,0.009 0.213,0.009C0.17,0.009 0.129,-0.008 0.092,-0.043C0.047,-0.084 0.025,-0.137 0.025,-0.201C0.025,-0.27 0.048,-0.326 0.093,-0.37C0.132,-0.408 0.173,-0.427 0.216,-0.427C0.245,-0.427 0.271,-0.422 0.296,-0.412C0.333,-0.397 0.356,-0.373 0.365,-0.341C0.368,-0.329 0.37,-0.319 0.37,-0.31C0.37,-0.289 0.36,-0.272 0.34,-0.261C0.332,-0.256 0.324,-0.254 0.313,-0.254C0.301,-0.254 0.29,-0.258 0.281,-0.267C0.271,-0.276 0.266,-0.288 0.266,-0.303C0.266,-0.317 0.271,-0.329 0.28,-0.338C0.289,-0.347 0.301,-0.351 0.316,-0.351Z" style="fill:rgb(225,224,226);fill-rule:nonzero;"/>
        </g>
        <g transform="matrix(440,0,0,440,2048.56,898)">
            <path d="M0.306,-0.213L0.306,-0.167C0.306,-0.152 0.306,-0.137 0.307,-0.123C0.307,-0.076 0.302,-0.044 0.291,-0.027C0.276,-0.003 0.248,0.009 0.206,0.009C0.166,0.009 0.137,-0.001 0.118,-0.02C0.099,-0.039 0.09,-0.067 0.09,-0.103L0.09,-0.387L0.01,-0.387L0.01,-0.396C0.065,-0.409 0.106,-0.441 0.134,-0.491C0.156,-0.532 0.167,-0.577 0.167,-0.627L0.184,-0.627L0.184,-0.416L0.299,-0.416L0.299,-0.387L0.184,-0.387L0.184,-0.116C0.184,-0.08 0.185,-0.057 0.188,-0.046C0.194,-0.021 0.209,-0.008 0.232,-0.008C0.259,-0.008 0.277,-0.023 0.285,-0.052C0.291,-0.072 0.294,-0.11 0.294,-0.165L0.294,-0.213L0.306,-0.213Z" style="fill:rgb(225,224,226);fill-rule:nonzero;"/>
        </g>
    </g>
</svg>
