<?xml version="1.0" encoding="UTF-8" standalone="no"?>
<!DOCTYPE svg PUBLIC "-//W3C//DTD SVG 1.1//EN" "http://www.w3.org/Graphics/SVG/1.1/DTD/svg11.dtd">
<svg width="100%" height="100%" viewBox="0 0 176 126" version="1.1" xmlns="http://www.w3.org/2000/svg" xmlns:xlink="http://www.w3.org/1999/xlink" xml:space="preserve" xmlns:serif="http://www.serif.com/" style="fill-rule:evenodd;clip-rule:evenodd;stroke-linejoin:round;stroke-miterlimit:2;">
    <g transform="matrix(0.0697882,0,0,0.0697882,0.221587,15.046)">
        <g>
            <g id="Helicopter" transform="matrix(1.67009,0,0,1.67009,-857.711,-361.386)">
                <g transform="matrix(0.033278,-0.000961764,-0.000961764,-0.033278,1021.75,574.51)">
                    <path d="M122,5808C102,5788 486,4050 476,4000C472,3977 149,2927 164,2905C186,2871 209,2861 437,2786C714,2695 707,2695 815,2761C864,2790 951,2851 1009,2897C1351,3166 1427,3223 1573,3321C1765,3451 1745,3448 2022,3395C2174,3367 2719,3271 3250,3179C3313,3168 3581,3121 3845,3075C4330,2990 4483,2963 4909,2889C5072,2861 5157,2842 5189,2825C5214,2813 5384,2704 5565,2584C5747,2463 6005,2298 6139,2215C6525.01,1975.86 7642.88,1424.4 8143,1351C8710.83,1267.67 10087,1300 10087,1300L10198,1300C10366,1300 10734,1352 10907,1401C11065,1446 11172,1500 11248,1576C11326,1655 11351,1708 11351,1798C11350,2006 11176,2296 10866,2605C10459,3011 10061,3343 9628,3395C9588,3400 9068,3510 9007,3553C8652,3802 8513,3878 8231,3981C8174,4002 8123,4023 8117,4029C8106,4040 8222.27,4574.66 8246.27,4650.66C8257.27,4683.66 7712,4708.08 7656,4663.08C7630,4642.08 7630,4236 7623,4178C7615,4108 7605,4100 7542,4110C7451,4125 7174,4149 6945,4161C6681,4175 6256,4179 6185,4161C6146,4151 5724,3592 5698,3580C5618,3543 5121,3579 2855,3785C2404,3826 1992,3862 1940,3866C1888,3870 1837,3877 1828,3881C1810,3891 1566,4373 1190,5143C1059,5411 937,5653 919,5681C902,5708 874,5738 859,5746C818,5767 654,5787 386,5805C111,5823 137,5823 122,5808Z" style="fill:rgb(32,63,153);fill-rule:nonzero;"/>
                </g>
                <g transform="matrix(0.598771,0,0,0.598771,513.573,216.388)">
                    <path d="M846.756,340.611C639.582,384.225 451.984,458.272 295.252,555.057C415.323,491.303 550.197,438.949 695.975,400.539C746.966,387.103 799.292,375.374 852.79,365.458L846.756,340.611ZM930.204,324.881L943.933,350.498C1052.18,334.99 1164.64,326.815 1280,326.815C1653.24,326.815 1996.06,412.39 2264.75,555.057C2004.4,394.285 1658.87,296.253 1280,296.253C1159.48,296.253 1042.34,306.173 930.204,324.881Z" style="fill:rgb(32,63,153);"/>
                </g>
            </g>
            <g id="Earth">
                <path d="M1312,349.9C1312,350.5 1312.5,351 1313.1,351C1315.3,351 1331.4,359.1 1341.9,365.4C1353.4,372.4 1355.3,373 1379.5,377.4C1387.2,378.8 1396.2,380.8 1399.4,382C1406.5,384.4 1420,391.6 1427.3,396.7C1442.7,407.6 1468.8,431.9 1477,442.9C1479.5,446.2 1481.8,448.9 1482.1,449C1482.4,449 1485.8,446.6 1489.6,443.7L1496.5,438.3L1538,435.1C1565.2,433 1583.8,431.1 1592,429.5C1618.7,424.4 1637.8,423.1 1647.3,425.9C1652.3,427.4 1656,430.9 1656,434.2C1656,437.8 1659.1,442.8 1662.8,445.3C1670.6,450.7 1686.4,454.3 1710.1,456C1722.7,457 1725.9,457.7 1748.7,464.4L1773.5,471.7L1781.6,482.4C1794.6,499.5 1799.8,511.8 1795.8,515.9C1794.7,516.9 1794.8,517 1796,516.6C1802.5,514.4 1867.5,503 1893.7,499.5C1911.6,497.1 1926.6,494.8 1927,494.3C1928,493.2 1931.1,442.7 1930.2,441.9C1928.4,440.3 1869.1,423.7 1830.5,414.1C1682.4,377.2 1515.1,354.4 1363.5,350.5C1351.4,350.2 1334.9,349.7 1326.8,349.4C1316.6,349 1312,349.2 1312,349.9Z"/>
                <path d="M1162.5,352.7C1118.3,355.2 1077.7,358.4 1038.8,362.6C1013.2,365.3 1002.8,366.7 1007.1,366.9C1008.5,366.9 1036.8,368.6 1070.1,370.5C1103.3,372.4 1135.2,374 1141,373.9L1151.5,373.9L1159.4,363.4C1163.7,357.6 1167.1,352.8 1166.9,352.7C1166.7,352.6 1164.7,352.6 1162.5,352.7Z"/>
                <path d="M842.5,391.7C841.4,392 828.6,394.6 814,397.6C752.6,410.3 687.6,426.6 631.1,443.6C575.5,460.3 517,480.4 500.5,488.5C483.3,496.9 460.9,511.8 443,526.8C428.9,538.6 396.8,569.6 393.3,574.8C389,581.4 386,590.4 386,597.1L386,602L403.3,602C446.2,602 481.5,612.4 509.2,633.3C519,640.7 535.4,657.8 541.4,666.8C547,675.2 554.8,690.6 558,699.6C559.8,704.8 560.5,705.6 562.3,705.4C591,701.3 603,697.6 610.9,690.5C619.3,682.9 617.9,673.6 606.7,663.3C602.7,659.6 588.6,653 584.8,653C581.6,653 555.8,645.9 549.2,643.2C534.6,637.2 526,627.6 526,617.3C526,604 540.1,585.4 563.4,567.8C574.6,559.4 598.5,548 613,544.1C661.5,531.3 710.3,528.7 766.5,536.1C798.4,540.3 816.1,545.2 838.5,556C870.2,571.2 887,588.6 887,606.1C887,611.7 886.4,613.8 882.9,621.1C864.7,658.6 866.2,683.1 886.9,687C896.9,688.9 896.1,689.4 932.2,656.7C950.5,640.2 972.7,620.2 981.5,612.3L997.5,597.9L1008,598.4C1013.8,598.7 1027.3,599.5 1038,600.1C1061.5,601.5 1109.9,600.7 1135.8,598.5C1154.1,597 1177.2,594.2 1192.7,591.7L1201,590.3L1202.7,592.9C1205,596.4 1206.7,597.7 1212.5,600.4C1225.1,606.3 1245.9,608.5 1281.4,607.7L1307.5,607.2L1351.7,612.1C1395.7,616.9 1395.8,617 1405.7,620.9C1436.3,633 1474.1,642.3 1502,644.5C1510.5,645.2 1510.7,645.2 1521.5,640.7C1537.8,634.1 1547.7,631.7 1559,631.7C1575,631.8 1583.7,636.1 1590.9,647.5C1597.6,658.1 1610.7,667.2 1625.6,671.6C1632,673.5 1647.1,674.1 1655.1,672.7C1659.3,672 1659.8,671.6 1660.8,668.2C1662.9,661.3 1666.6,659 1697.5,645.6L1726.5,633L1735.2,624.3C1740,619.5 1743.8,615.4 1743.5,615.2C1743.3,615 1737.6,614.5 1730.8,614C1712.7,612.8 1706,610.6 1707.4,606.2C1708.5,602.9 1718,597.7 1739,589C1766.4,577.7 1775,571.5 1775,563.1C1775,559.1 1773.2,555.8 1766.1,546.7C1758.2,536.5 1755.3,531.1 1753.6,522.7C1752.7,518.3 1751.1,513.5 1749.9,511.9C1747.3,508.2 1740.9,504.6 1734,502.9C1725.7,500.8 1706.5,501.4 1694.5,504C1658.8,511.7 1641.7,512 1628.2,505.1C1626.2,504.1 1621.2,500.5 1617.2,497.1C1613.2,493.8 1608.9,490.8 1607.5,490.4C1604.4,489.6 1599.1,491.4 1591.5,495.6C1571.6,506.6 1546,511 1502.2,511C1488.8,511 1477.5,510.8 1477,510.5C1476.6,510.2 1474.2,511.1 1471.7,512.5C1462.2,517.9 1444.3,522.6 1424.8,524.9C1396.8,528.3 1307.5,528.7 1292,525.5C1273.1,521.7 1249.9,513.5 1219.7,499.9C1193.8,488.2 1181.7,481.7 1151,463.2L1125.5,447.7L1037.5,434.9C989.1,427.8 948.5,421.9 947.2,421.7C944.5,421.2 937,426.5 917,442.9C893.9,461.8 888.1,464.5 875.4,461.5C866.9,459.5 850.7,454.4 847.1,452.6C843.6,450.7 839.4,446.1 838.1,442.7C836.1,437.6 836.9,431.2 842,411.4C844.8,400.6 847,391.6 847,391.4C847,390.9 845.3,391 842.5,391.7Z"/>
                <path d="M1990.4,464.8C1988.4,476.5 1992.9,472.8 1946.5,500.2C1899.2,528 1902.8,525 1892.6,545C1874.2,580.9 1871.1,611 1882.9,638.5C1885.5,644.7 1892.9,654 1895.2,654C1895.6,654 1919.4,647 1948.2,638.5C1977,629.9 2011.5,619.8 2025,616C2056.5,607.1 2065,604.5 2084.4,597.6L2100.4,592L2162.4,592C2198,592 2226.2,592.5 2228.5,593C2232.2,593.9 2233.8,593.4 2248.2,587.7C2256.9,584.3 2264,581.2 2264,580.9C2264,580.6 2253.8,574.8 2241.3,568.2C2172.5,531.6 2087.5,494.7 2008.3,467.1L1991.1,461.1L1990.4,464.8Z"/>
            </g>
            <g id="Dispatch">
                <path d="M2102,610.3C2102,610.5 2098.9,624.5 2095,641.4C2091.2,658.3 2088,672.6 2088,673.1C2088,673.6 2097.6,674.1 2109.3,674.2L2130.5,674.5L2096.8,822C2078.3,903.1 2063.1,970.3 2063.1,971.2C2063,972.9 2065.5,973 2102.9,973C2140.1,973 2142.9,972.9 2143.4,971.2C2143.7,970.3 2151.2,937.5 2160,898.5C2168.9,859.4 2176.3,826.8 2176.6,826C2177.1,824.2 2187,817.5 2197.1,812.1C2216,802 2232.4,801.3 2240.7,810.2C2245.3,815.1 2247.4,821.8 2247.3,831.5C2247.3,839.4 2245.6,848.1 2232.6,904.5C2224.5,939.7 2217.6,969.5 2217.3,970.7L2216.8,973L2339.5,973L2346.4,942.7C2350.2,926.1 2353.5,911.7 2353.8,910.7C2354.2,909.1 2352.7,909 2332,909C2314.4,909 2309.9,908.7 2310.3,907.7C2311.8,903.7 2331.1,816 2332.1,808.5C2335.6,781.7 2329.3,758.4 2314.5,743.4C2302.1,730.7 2285.1,724.6 2263,724.6C2245.4,724.7 2233.5,727.7 2216.7,736.2C2211.3,739 2204.2,743.2 2200.8,745.7C2197.5,748.1 2194.6,749.9 2194.4,749.7C2194,749.3 2224,616.8 2225.6,611.7C2226.1,610.1 2222.7,610 2164.1,610C2129.9,610 2102,610.2 2102,610.3Z"/>
                <path d="M266.5,620.2C266.3,620.9 263.2,634.6 259.5,650.6C255.9,666.7 252.6,680.7 252.3,681.9C251.8,683.9 252.1,684 269.7,684.2L287.7,684.5L236.5,908.5L200.5,909.5L193.3,940.5C189.4,957.5 186.1,971.9 186.1,972.3C186,972.7 224.8,972.9 272.3,972.7C355.6,972.4 359,972.3 372.3,970.2C412.6,963.7 445.1,950.6 473.3,929.4C516.7,896.8 544.1,846.7 550,789.1C552.1,768 550.8,741 546.9,724.3C535.9,677.1 504.7,642.5 459.5,627.7C436.4,620 421.3,619 333.7,619C281.2,619 266.9,619.3 266.5,620.2ZM415.5,686.4C441.9,693.9 458.2,713.3 465.2,745.5C467.2,754.9 466.9,787.4 464.7,798.3C455.4,844.2 425.8,882.4 386.1,899.6C370.3,906.4 361.1,908.2 337.6,908.7C317.6,909.2 316.8,909.2 317.3,907.4C317.6,906.3 329.2,856.2 343,796C356.8,735.8 368.3,685.9 368.5,685.1C369.3,683.1 407.3,684.1 415.5,686.4Z"/>
                <path d="M1720.5,654.8L1677.5,673.6L1670.8,701.5C1667.1,716.9 1664.1,729.8 1664.1,730.2C1664,730.7 1654.1,731 1642.1,731C1630,731 1619.9,731.4 1619.6,731.8C1619.3,732.3 1616.2,745.5 1612.6,761.2C1609,776.9 1605.8,790.9 1605.4,792.4L1604.8,795L1627,795C1647.6,795 1649.1,795.1 1648.6,796.7C1647.9,799.1 1625.3,896.7 1623.4,905.4C1617.8,932 1620.5,951.8 1631.2,963.6C1642.5,975.8 1662,980.5 1692.9,978.1C1709.8,976.8 1718.6,975.1 1733.3,970.4L1744,966.9L1744,958.1C1744,953.3 1743.7,941.2 1743.3,931.3L1742.7,913.3L1737.6,914.6C1734.8,915.4 1729.1,916.2 1725,916.6C1718.4,917.1 1716.9,916.9 1713,914.8C1706.6,911.5 1704.7,907.5 1705.3,898.5C1705.6,894.6 1710.8,870 1716.9,843.7C1723,817.4 1728,795.6 1728,795.4C1728,795.2 1738,795 1750.3,795L1772.5,795L1779.4,764.2C1783.2,747.3 1786.3,733 1786.4,732.5C1786.5,731.9 1778.4,731.3 1764.9,731L1743.3,730.5L1754.1,684.5C1760.1,659.2 1765,637.9 1765,637.2C1765,636.6 1764.7,636 1764.3,636.1C1763.8,636.1 1744.2,644.5 1720.5,654.8Z"/>
                <path d="M847,724.6C821.4,727.5 801,734.1 786.3,744.1C755.8,765 745.8,801 761.5,833.5C768.6,848.3 781.6,860.8 798.5,869.3C806.6,873.3 816.9,876.7 834.3,881C860.6,887.6 866.7,890.7 868.9,898.8C870.2,903.2 868.9,908.9 865.7,913.2C860.3,920.5 842.5,925.2 828.5,923.1C819.5,921.8 814.4,919.4 810.2,914.6C806.7,910.6 805.5,906.1 806.2,898.9L806.7,894L772.2,894.2L737.7,894.5L730.9,924.5C727.1,941 724,955.3 724,956.2C724,957.9 725.5,958 742.4,958L760.9,958L767.5,963C778,970.9 786.2,974.3 802.6,977.7C815.1,980.2 849.6,980.2 862.5,977.7C887.5,972.7 905.8,964.1 919.8,950.6C936.8,934.4 944.1,916.7 944.1,892C944.1,874.2 938.9,860.3 927.5,848.2C912.9,832.5 899.3,826.3 862.5,818.5C837.3,813.2 834.4,812.3 831,808.3C828.6,805.6 828,804 828,800.3C828,796.3 828.5,795.3 832.3,791.5C838,785.8 844.8,783.8 858.6,783.8C870.1,783.8 878.3,785.7 884.3,789.6C888.5,792.4 892,797.4 892,800.7L892,803L923.4,803C952.5,803 954.9,802.9 955.4,801.2C956.6,797.3 969,742.5 969,741.3C969,740.3 964.2,740 945.5,740L922,740L914.2,736.1C905.4,731.7 892.6,727.6 883,726.1C875.8,724.9 852.4,724 847,724.6Z"/>
                <path d="M1924.9,725.1C1913.4,726.2 1895.5,730.5 1884.5,734.9C1837.5,753.7 1804.1,795.8 1796.5,846.2C1794.6,858.9 1794.6,881.5 1796.5,891.7C1800.6,913.3 1811.2,933.2 1826.7,948.1C1854.2,974.6 1890.2,984.1 1932.8,975.9C1965.8,969.5 1996.1,951.7 2014.3,927.8C2020.8,919.2 2026.2,910.2 2025.2,909.7C2019.1,906.2 1964,876 1963.7,876C1963.5,876 1961,879.1 1958.1,882.9C1946.8,898.2 1933.8,905.8 1916.3,907.5C1899.3,909.2 1885.1,902.3 1876.6,888.1C1871.2,879.2 1869.6,871.9 1870.2,858.7C1871.1,840.7 1876.6,827.6 1889.1,814.6C1899.5,803.6 1910.2,798.1 1925.1,796C1938,794.2 1950.5,797.8 1959.3,806C1961.8,808.2 1964.5,811.6 1965.5,813.5L1967.1,817L2043.5,817L2050.4,786.2C2054.2,769.3 2057.5,754.9 2057.8,754.2C2058.1,753.3 2053.3,753 2035.7,753L2013.3,753L2005.9,746.9C1996.2,739 1979.4,730.7 1966.6,727.5C1955.1,724.6 1939.4,723.7 1924.9,725.1Z"/>
                <path d="M1157.5,726.6C1145.2,728.6 1128.9,736 1120.1,743.7L1114.7,748.4L1115.3,745C1115.7,743.1 1116.2,739.1 1116.6,736.2L1117.3,731L1057.4,731.2L997.5,731.5L990.3,762.5C986.4,779.5 983.1,793.8 983.1,794.2C983,794.7 992.7,795 1004.6,795L1026.2,795L1025.5,797.7C1025.2,799.3 1010.4,863.9 992.6,941.5L960.3,1082.5L1022.3,1082.8C1056.4,1082.9 1084.5,1082.9 1084.6,1082.7C1085,1082.3 1099,1021.1 1099,1019.8C1099,1019.4 1088.6,1019 1075.9,1019C1057.8,1019 1052.9,1018.7 1053.2,1017.7C1053.5,1017.1 1056.5,1003.9 1060,988.5C1063.5,973.1 1066.5,960.4 1066.6,960.2C1066.7,960 1068.5,961 1070.7,962.4C1086,972.5 1113.8,978.3 1136.6,976.1C1173.3,972.7 1204.7,958.8 1229.4,934.9C1260.2,905.3 1275.3,864.8 1271.9,820.6C1268.5,774.9 1242.1,741.2 1200.4,729.4C1193,727.2 1189,726.8 1176,726.5C1167.5,726.3 1159.2,726.4 1157.5,726.6ZM1163.5,799.4C1180.8,804 1192,817.5 1194.1,836.1C1196.3,855.7 1189.8,873.5 1175.1,888C1156.5,906.5 1129.2,911.2 1106.3,900C1098.9,896.3 1089.6,888.2 1087,883L1085.1,879.3L1091,853.5L1096.9,827.8L1101.6,822.1C1111.7,809.8 1126.1,801 1140,798.7C1145.7,797.7 1158.8,798.1 1163.5,799.4Z"/>
                <path d="M1413.5,727.4C1379.3,733.1 1350.8,747.8 1327.8,771.8C1304.4,796.1 1290.9,828.5 1289.3,864.1C1288.1,891.2 1293.9,913.7 1307.6,934.7C1312.9,942.8 1325.2,954.9 1333.8,960.4C1367.2,982.1 1413.9,981.8 1440.4,960C1443.1,957.8 1445.5,956.1 1445.7,956.4C1445.9,956.6 1445.4,959.8 1444.5,963.4C1443.7,967.1 1443,970.8 1443,971.6C1443,972.8 1451.6,973 1503.8,973L1564.5,973L1571.4,943.2C1575.2,926.9 1578.5,912.5 1578.8,911.3L1579.2,909L1557.3,908.8L1535.4,908.5L1555.7,820.5C1566.8,772.1 1575.9,732.2 1576,731.7C1576,731.3 1558.4,731.1 1536.8,731.2L1497.7,731.5L1496.5,736.8C1495.8,739.7 1495.1,742.3 1494.8,742.5C1494.6,742.7 1491.6,741.1 1488,738.9C1480.3,734 1475,731.8 1463.4,728.9C1452.3,726.1 1426.1,725.3 1413.5,727.4ZM1447.7,799.5C1456.5,802.3 1463.3,806.5 1469.3,812.9C1477.5,821.7 1477.4,820.4 1471.5,846C1468.7,858.4 1466.1,869.7 1465.7,871.1C1464.8,874.6 1456,885.6 1450.2,890.4C1445.4,894.3 1435.2,899.8 1429,901.9C1427.1,902.5 1422.1,903.4 1417.9,903.9C1392.9,907.1 1372.2,893.6 1368,871.1C1361.7,837.5 1385.5,803 1419.1,797.1C1426.7,795.7 1439.3,796.8 1447.7,799.5Z"/>
                <path d="M584.5,732.2C584.3,732.9 581.1,746.5 577.5,762.5C573.8,778.4 570.6,792.3 570.4,793.2C569.9,794.9 571.4,795 592,795L614,795L613.5,797.2C613.2,798.5 604,838.5 593.2,886.2L573.4,973L634.7,973C668.4,973 696,972.9 696,972.7C696,972.6 699.3,958.3 703.3,941L710.6,909.5L688.8,909.2C676.8,909.1 667,908.7 667,908.4C667,908.1 676,868.3 687,820.1C698,771.9 707,732.1 707,731.7C707,731.3 679.5,731 646,731C598,731 584.8,731.3 584.5,732.2Z"/>
            </g>
            <g transform="matrix(0.412861,0,0,0.412861,614.553,567.341)">
                <path d="M158.116,6.916C156.178,2.702 151.965,0.001 147.327,0C142.688,-0.001 138.472,2.697 136.534,6.911C106.659,71.886 53.676,155.516 53.676,201.001C53.676,252.722 95.603,294.649 147.324,294.649C199.045,294.649 240.973,252.721 240.973,201.001C240.974,155.519 187.992,71.891 158.116,6.916ZM143.324,264.816C108.723,264.816 80.574,236.667 80.574,202.066C80.574,195.163 86.171,189.566 93.074,189.566C99.977,189.566 105.574,195.163 105.574,202.066C105.574,222.881 122.509,239.816 143.324,239.816C150.227,239.816 155.824,245.413 155.824,252.316C155.824,259.22 150.227,264.816 143.324,264.816Z" style="fill-rule:nonzero;"/>
            </g>
            <g id="flight-following-alternate" serif:id="flight following alternate" transform="matrix(1,0,0,1,0,2)">
                <g transform="matrix(1.29394,0,-0.278409,1.29394,52.8319,-169.529)">
                    <path d="M1099.99,917.012L1099.99,933.009L1119,933.009C1120.08,933.009 1120.97,933.344 1121.67,934.014C1122.36,934.684 1122.71,935.56 1122.71,936.642C1122.71,937.569 1122.36,938.368 1121.67,939.037C1120.97,939.707 1120.08,940.042 1119,940.042L1099.99,940.042L1099.99,960.29C1099.99,961.321 1099.62,962.197 1098.87,962.918C1098.12,963.639 1097.23,964 1096.2,964C1095.12,964 1094.22,963.639 1093.5,962.918C1092.78,962.197 1092.41,961.321 1092.41,960.29L1092.41,913.611C1092.41,912.581 1092.78,911.705 1093.5,910.984C1094.22,910.262 1095.09,909.902 1096.12,909.902L1122.48,909.902C1123.56,909.902 1124.45,910.237 1125.14,910.906C1125.84,911.576 1126.19,912.452 1126.19,913.534C1126.19,914.461 1125.83,915.273 1125.11,915.968C1124.38,916.664 1123.51,917.012 1122.48,917.012L1099.99,917.012Z" style="fill-rule:nonzero;"/>
                    <path d="M1237.94,943.752C1237.94,947.77 1237.04,951.377 1235.23,954.571C1233.43,957.766 1230.97,960.265 1227.85,962.068C1224.74,963.871 1221.3,964.773 1217.54,964.773C1213.78,964.773 1210.34,963.871 1207.22,962.068C1204.1,960.265 1201.64,957.766 1199.84,954.571C1198.04,951.377 1197.13,947.77 1197.13,943.752C1197.13,939.733 1198.04,936.101 1199.84,932.855C1201.64,929.609 1204.1,927.084 1207.22,925.281C1210.34,923.478 1213.78,922.576 1217.54,922.576C1221.3,922.576 1224.74,923.478 1227.85,925.281C1230.97,927.084 1233.43,929.609 1235.23,932.855C1237.04,936.101 1237.94,939.733 1237.94,943.752ZM1230.6,943.752C1230.6,940.97 1230.02,938.484 1228.86,936.294C1227.7,934.104 1226.13,932.404 1224.14,931.193C1222.16,929.982 1219.96,929.377 1217.54,929.377C1215.12,929.377 1212.91,929.982 1210.93,931.193C1208.94,932.404 1207.37,934.104 1206.21,936.294C1205.06,938.484 1204.48,940.97 1204.48,943.752C1204.48,946.482 1205.06,948.93 1206.21,951.094C1207.37,953.258 1208.94,954.945 1210.93,956.156C1212.91,957.367 1215.12,957.972 1217.54,957.972C1219.96,957.972 1222.16,957.367 1224.14,956.156C1226.13,954.945 1227.7,953.258 1228.86,951.094C1230.02,948.93 1230.6,946.482 1230.6,943.752Z" style="fill-rule:nonzero;"/>
                    <path d="M1320.09,960.29C1320.09,961.321 1319.73,962.197 1319.01,962.918C1318.29,963.639 1317.41,964 1316.38,964C1315.35,964 1314.49,963.639 1313.79,962.918C1313.1,962.197 1312.75,961.321 1312.75,960.29L1312.75,910.52C1312.75,909.489 1313.11,908.614 1313.83,907.892C1314.55,907.171 1315.43,906.81 1316.46,906.81C1317.49,906.81 1318.35,907.171 1319.05,907.892C1319.74,908.614 1320.09,909.489 1320.09,910.52L1320.09,960.29Z" style="fill-rule:nonzero;"/>
                    <path d="M1405.34,960.29C1405.34,961.321 1404.97,962.197 1404.25,962.918C1403.53,963.639 1402.66,964 1401.62,964C1400.6,964 1399.73,963.639 1399.04,962.918C1398.34,962.197 1397.99,961.321 1397.99,960.29L1397.99,910.52C1397.99,909.489 1398.35,908.614 1399.08,907.892C1399.8,907.171 1400.67,906.81 1401.7,906.81C1402.73,906.81 1403.6,907.171 1404.29,907.892C1404.99,908.614 1405.34,909.489 1405.34,910.52L1405.34,960.29Z" style="fill-rule:nonzero;"/>
                    <path d="M1520.18,943.752C1520.18,947.77 1519.28,951.377 1517.47,954.571C1515.67,957.766 1513.21,960.265 1510.09,962.068C1506.98,963.871 1503.54,964.773 1499.78,964.773C1496.01,964.773 1492.58,963.871 1489.46,962.068C1486.34,960.265 1483.88,957.766 1482.08,954.571C1480.27,951.377 1479.37,947.77 1479.37,943.752C1479.37,939.733 1480.27,936.101 1482.08,932.855C1483.88,929.609 1486.34,927.084 1489.46,925.281C1492.58,923.478 1496.01,922.576 1499.78,922.576C1503.54,922.576 1506.98,923.478 1510.09,925.281C1513.21,927.084 1515.67,929.609 1517.47,932.855C1519.28,936.101 1520.18,939.733 1520.18,943.752ZM1512.84,943.752C1512.84,940.97 1512.26,938.484 1511.1,936.294C1509.94,934.104 1508.37,932.404 1506.38,931.193C1504.4,929.982 1502.2,929.377 1499.78,929.377C1497.35,929.377 1495.15,929.982 1493.17,931.193C1491.18,932.404 1489.61,934.104 1488.45,936.294C1487.29,938.484 1486.71,940.97 1486.71,943.752C1486.71,946.482 1487.29,948.93 1488.45,951.094C1489.61,953.258 1491.18,954.945 1493.17,956.156C1495.15,957.367 1497.35,957.972 1499.78,957.972C1502.2,957.972 1504.4,957.367 1506.38,956.156C1508.37,954.945 1509.94,953.258 1511.1,951.094C1512.26,948.93 1512.84,946.482 1512.84,943.752Z" style="fill-rule:nonzero;"/>
                    <path d="M1641.67,923.117C1642.65,923.117 1643.48,923.465 1644.18,924.16C1644.88,924.856 1645.22,925.745 1645.22,926.827C1645.22,927.187 1645.12,927.677 1644.91,928.295L1633.09,961.681C1632.78,962.506 1632.27,963.124 1631.54,963.536C1630.82,963.948 1630.05,964.103 1629.23,964C1627.83,963.897 1626.78,963.124 1626.06,961.681L1618.02,940.66L1610.6,961.681C1610.29,962.403 1609.85,962.957 1609.29,963.343C1608.72,963.73 1608.1,963.948 1607.43,964C1606.66,964.103 1605.9,963.936 1605.15,963.498C1604.4,963.06 1603.9,962.454 1603.64,961.681L1591.66,928.295C1591.51,927.831 1591.43,927.342 1591.43,926.827C1591.43,925.796 1591.77,924.92 1592.44,924.199C1593.11,923.478 1593.98,923.117 1595.07,923.117C1596.82,923.117 1597.95,923.89 1598.47,925.436L1607.66,951.48L1615.01,932.237C1615.62,930.691 1616.76,929.918 1618.4,929.918C1619.95,929.918 1621.01,930.691 1621.57,932.237L1629.07,951.171L1638.11,925.436C1638.68,923.89 1639.86,923.117 1641.67,923.117Z" style="fill-rule:nonzero;"/>
                    <path d="M1725.83,960.29C1725.83,961.321 1725.48,962.197 1724.79,962.918C1724.09,963.639 1723.2,964 1722.12,964C1721.09,964 1720.23,963.639 1719.53,962.918C1718.84,962.197 1718.49,961.321 1718.49,960.29L1718.49,926.827C1718.49,925.796 1718.84,924.92 1719.53,924.199C1720.23,923.478 1721.09,923.117 1722.12,923.117C1723.2,923.117 1724.09,923.478 1724.79,924.199C1725.48,924.92 1725.83,925.796 1725.83,926.827L1725.83,960.29ZM1722.12,918.016C1720.63,918.016 1719.56,917.746 1718.91,917.205C1718.27,916.664 1717.95,915.801 1717.95,914.616L1717.95,913.379C1717.95,912.143 1718.29,911.267 1718.99,910.752C1719.68,910.237 1720.75,909.979 1722.2,909.979C1723.64,909.979 1724.68,910.249 1725.33,910.79C1725.97,911.331 1726.29,912.194 1726.29,913.379L1726.29,914.616C1726.29,915.852 1725.96,916.728 1725.29,917.244C1724.62,917.759 1723.56,918.016 1722.12,918.016Z" style="fill-rule:nonzero;"/>
                    <path d="M1822.74,922.576C1832.02,922.576 1836.65,928.14 1836.65,939.269L1836.65,960.29C1836.65,961.321 1836.31,962.197 1835.61,962.918C1834.91,963.639 1834.03,964 1832.94,964C1831.91,964 1831.05,963.639 1830.36,962.918C1829.66,962.197 1829.31,961.321 1829.31,960.29L1829.31,939.347C1829.31,936.307 1828.62,933.885 1827.23,932.082C1825.83,930.279 1823.57,929.377 1820.42,929.377C1818.36,929.377 1816.5,929.828 1814.82,930.729C1813.15,931.631 1811.83,932.842 1810.88,934.362C1809.93,935.882 1809.45,937.543 1809.45,939.347L1809.45,960.29C1809.45,961.321 1809.1,962.197 1808.41,962.918C1807.71,963.639 1806.82,964 1805.74,964C1804.66,964 1803.78,963.652 1803.11,962.957C1802.44,962.261 1802.11,961.372 1802.11,960.29L1802.11,927.213C1802.11,926.183 1802.46,925.307 1803.15,924.585C1803.85,923.864 1804.71,923.503 1805.74,923.503C1806.82,923.503 1807.71,923.864 1808.41,924.585C1809.1,925.307 1809.45,926.183 1809.45,927.213L1809.45,929.918C1810.79,927.857 1812.66,926.118 1815.05,924.701C1817.45,923.285 1820.01,922.576 1822.74,922.576Z" style="fill-rule:nonzero;"/>
                    <path d="M1947.17,922.963C1948.25,922.963 1949.14,923.31 1949.84,924.006C1950.53,924.701 1950.88,925.616 1950.88,926.749L1950.88,960.754C1950.88,964.927 1949.99,968.418 1948.21,971.226C1946.43,974.034 1944.03,976.108 1940.99,977.447C1937.95,978.787 1934.52,979.457 1930.71,979.457C1928.65,979.457 1926.24,979.096 1923.48,978.375C1920.73,977.653 1918.96,976.906 1918.19,976.133C1916.59,975.309 1915.79,974.279 1915.79,973.042C1915.79,972.733 1915.89,972.321 1916.1,971.806C1916.67,970.518 1917.62,969.874 1918.96,969.874C1919.63,969.874 1920.35,970.028 1921.12,970.337C1925.25,971.934 1928.47,972.733 1930.79,972.733C1934.91,972.733 1938.06,971.741 1940.25,969.758C1942.44,967.774 1943.54,965.056 1943.54,961.604L1943.54,957.431C1942.45,959.44 1940.64,961.166 1938.09,962.609C1935.54,964.052 1932.85,964.773 1930.01,964.773C1926.46,964.773 1923.21,963.871 1920.27,962.068C1917.34,960.265 1915.03,957.753 1913.36,954.533C1911.68,951.313 1910.85,947.693 1910.85,943.674C1910.85,939.656 1911.68,936.036 1913.36,932.816C1915.03,929.596 1917.33,927.084 1920.24,925.281C1923.15,923.478 1926.35,922.576 1929.86,922.576C1932.69,922.576 1935.33,923.22 1937.78,924.508C1940.23,925.796 1942.15,927.368 1943.54,929.222L1943.54,926.749C1943.54,925.667 1943.87,924.766 1944.54,924.044C1945.21,923.323 1946.09,922.963 1947.17,922.963ZM1930.86,957.972C1933.39,957.972 1935.63,957.367 1937.59,956.156C1939.54,954.945 1941.08,953.245 1942.18,951.055C1943.29,948.865 1943.85,946.405 1943.85,943.674C1943.85,940.944 1943.29,938.496 1942.18,936.333C1941.08,934.169 1939.54,932.468 1937.59,931.232C1935.63,929.995 1933.39,929.377 1930.86,929.377C1928.39,929.377 1926.17,929.995 1924.22,931.232C1922.26,932.468 1920.73,934.181 1919.62,936.371C1918.51,938.561 1917.96,940.995 1917.96,943.674C1917.96,946.354 1918.51,948.788 1919.62,950.978C1920.73,953.167 1922.26,954.881 1924.22,956.117C1926.17,957.354 1928.39,957.972 1930.86,957.972Z" style="fill-rule:nonzero;"/>
                </g>
                <g transform="matrix(1.29394,0,-0.278409,1.29394,-984.326,-169.529)">
                    <path d="M1099.99,917.012L1099.99,933.009L1119,933.009C1120.08,933.009 1120.97,933.344 1121.67,934.014C1122.36,934.684 1122.71,935.56 1122.71,936.642C1122.71,937.569 1122.36,938.368 1121.67,939.037C1120.97,939.707 1120.08,940.042 1119,940.042L1099.99,940.042L1099.99,960.29C1099.99,961.321 1099.62,962.197 1098.87,962.918C1098.12,963.639 1097.23,964 1096.2,964C1095.12,964 1094.22,963.639 1093.5,962.918C1092.78,962.197 1092.41,961.321 1092.41,960.29L1092.41,913.611C1092.41,912.581 1092.78,911.705 1093.5,910.984C1094.22,910.262 1095.09,909.902 1096.12,909.902L1122.48,909.902C1123.56,909.902 1124.45,910.237 1125.14,910.906C1125.84,911.576 1126.19,912.452 1126.19,913.534C1126.19,914.461 1125.83,915.273 1125.11,915.968C1124.38,916.664 1123.51,917.012 1122.48,917.012L1099.99,917.012Z" style="fill-rule:nonzero;"/>
                    <path d="M1208.73,960.29C1208.73,961.321 1208.37,962.197 1207.64,962.918C1206.92,963.639 1206.05,964 1205.02,964C1203.99,964 1203.12,963.639 1202.43,962.918C1201.73,962.197 1201.38,961.321 1201.38,960.29L1201.38,910.52C1201.38,909.489 1201.75,908.614 1202.47,907.892C1203.19,907.171 1204.06,906.81 1205.09,906.81C1206.12,906.81 1206.99,907.171 1207.68,907.892C1208.38,908.614 1208.73,909.489 1208.73,910.52L1208.73,960.29Z" style="fill-rule:nonzero;"/>
                    <path d="M1292.96,960.29C1292.96,961.321 1292.62,962.197 1291.92,962.918C1291.23,963.639 1290.34,964 1289.26,964C1288.23,964 1287.36,963.639 1286.67,962.918C1285.97,962.197 1285.62,961.321 1285.62,960.29L1285.62,926.827C1285.62,925.796 1285.97,924.92 1286.67,924.199C1287.36,923.478 1288.23,923.117 1289.26,923.117C1290.34,923.117 1291.23,923.478 1291.92,924.199C1292.62,924.92 1292.96,925.796 1292.96,926.827L1292.96,960.29ZM1289.26,918.016C1287.76,918.016 1286.69,917.746 1286.05,917.205C1285.4,916.664 1285.08,915.801 1285.08,914.616L1285.08,913.379C1285.08,912.143 1285.43,911.267 1286.12,910.752C1286.82,910.237 1287.89,909.979 1289.33,909.979C1290.78,909.979 1291.82,910.249 1292.46,910.79C1293.11,911.331 1293.43,912.194 1293.43,913.379L1293.43,914.616C1293.43,915.852 1293.09,916.728 1292.42,917.244C1291.75,917.759 1290.7,918.016 1289.26,918.016Z" style="fill-rule:nonzero;"/>
                    <path d="M1403.09,922.963C1404.18,922.963 1405.07,923.31 1405.76,924.006C1406.46,924.701 1406.8,925.616 1406.8,926.749L1406.8,960.754C1406.8,964.927 1405.91,968.418 1404.14,971.226C1402.36,974.034 1399.95,976.108 1396.91,977.447C1393.87,978.787 1390.44,979.457 1386.63,979.457C1384.57,979.457 1382.16,979.096 1379.41,978.375C1376.65,977.653 1374.88,976.906 1374.11,976.133C1372.52,975.309 1371.72,974.279 1371.72,973.042C1371.72,972.733 1371.82,972.321 1372.03,971.806C1372.59,970.518 1373.55,969.874 1374.88,969.874C1375.56,969.874 1376.28,970.028 1377.05,970.337C1381.17,971.934 1384.39,972.733 1386.71,972.733C1390.83,972.733 1393.99,971.741 1396.18,969.758C1398.37,967.774 1399.46,965.056 1399.46,961.604L1399.46,957.431C1398.38,959.44 1396.56,961.166 1394.01,962.609C1391.46,964.052 1388.77,964.773 1385.94,964.773C1382.38,964.773 1379.14,963.871 1376.2,962.068C1373.26,960.265 1370.96,957.753 1369.28,954.533C1367.61,951.313 1366.77,947.693 1366.77,943.674C1366.77,939.656 1367.61,936.036 1369.28,932.816C1370.96,929.596 1373.25,927.084 1376.16,925.281C1379.07,923.478 1382.28,922.576 1385.78,922.576C1388.62,922.576 1391.26,923.22 1393.7,924.508C1396.15,925.796 1398.07,927.368 1399.46,929.222L1399.46,926.749C1399.46,925.667 1399.8,924.766 1400.47,924.044C1401.14,923.323 1402.01,922.963 1403.09,922.963ZM1386.79,957.972C1389.31,957.972 1391.55,957.367 1393.51,956.156C1395.47,954.945 1397,953.245 1398.11,951.055C1399.22,948.865 1399.77,946.405 1399.77,943.674C1399.77,940.944 1399.22,938.496 1398.11,936.333C1397,934.169 1395.47,932.468 1393.51,931.232C1391.55,929.995 1389.31,929.377 1386.79,929.377C1384.31,929.377 1382.1,929.995 1380.14,931.232C1378.18,932.468 1376.65,934.181 1375.54,936.371C1374.43,938.561 1373.88,940.995 1373.88,943.674C1373.88,946.354 1374.43,948.788 1375.54,950.978C1376.65,953.167 1378.18,954.881 1380.14,956.117C1382.1,957.354 1384.31,957.972 1386.79,957.972Z" style="fill-rule:nonzero;"/>
                    <path d="M1503.56,922.808C1512.63,922.808 1517.16,928.424 1517.16,939.656L1517.16,960.29C1517.16,961.321 1516.82,962.197 1516.12,962.918C1515.42,963.639 1514.54,964 1513.45,964C1512.42,964 1511.56,963.639 1510.87,962.918C1510.17,962.197 1509.82,961.321 1509.82,960.29L1509.82,939.656C1509.82,932.958 1506.99,929.609 1501.32,929.609C1498.28,929.609 1495.76,930.575 1493.75,932.507C1491.74,934.439 1490.73,936.822 1490.73,939.656L1490.73,960.29C1490.73,961.321 1490.38,962.197 1489.69,962.918C1488.99,963.639 1488.11,964 1487.02,964C1485.94,964 1485.07,963.652 1484.4,962.957C1483.73,962.261 1483.39,961.372 1483.39,960.29L1483.39,910.52C1483.39,909.489 1483.74,908.614 1484.43,907.892C1485.13,907.171 1485.99,906.81 1487.02,906.81C1488.11,906.81 1488.99,907.171 1489.69,907.892C1490.38,908.614 1490.73,909.489 1490.73,910.52L1490.73,930.073C1492.02,928.063 1493.83,926.35 1496.14,924.933C1498.46,923.516 1500.93,922.808 1503.56,922.808Z" style="fill-rule:nonzero;"/>
                    <path d="M1604.8,930.691L1604.8,953.721C1604.8,956.297 1605.96,957.585 1608.28,957.585C1608.64,957.585 1609.13,957.495 1609.75,957.315C1610.37,957.135 1610.86,957.044 1611.22,957.044C1611.89,957.044 1612.45,957.328 1612.92,957.895C1613.38,958.461 1613.61,959.183 1613.61,960.059C1613.61,961.141 1613,962.068 1611.76,962.841C1610.52,963.614 1609.13,964 1607.59,964C1605.88,964 1604.33,963.82 1602.91,963.459C1601.49,963.098 1600.23,962.184 1599.12,960.715C1598.02,959.247 1597.46,957.019 1597.46,954.03L1597.46,930.691L1592.98,930.691C1592,930.691 1591.19,930.369 1590.55,929.725C1589.9,929.081 1589.58,928.269 1589.58,927.29C1589.58,926.311 1589.9,925.513 1590.55,924.895C1591.19,924.276 1592,923.967 1592.98,923.967L1597.46,923.967L1597.46,917.475C1597.46,916.445 1597.81,915.569 1598.51,914.848C1599.2,914.126 1600.09,913.766 1601.17,913.766C1602.2,913.766 1603.07,914.126 1603.76,914.848C1604.46,915.569 1604.8,916.445 1604.8,917.475L1604.8,923.967L1611.22,923.967C1612.2,923.967 1613.01,924.289 1613.65,924.933C1614.3,925.577 1614.62,926.389 1614.62,927.368C1614.62,928.347 1614.3,929.145 1613.65,929.763C1613.01,930.382 1612.2,930.691 1611.22,930.691L1604.8,930.691Z" style="fill-rule:nonzero;"/>
                </g>
            </g>
        </g>
    </g>
</svg>
