<?xml version="1.0" encoding="UTF-8" standalone="no"?>
<!DOCTYPE svg PUBLIC "-//W3C//DTD SVG 1.1//EN" "http://www.w3.org/Graphics/SVG/1.1/DTD/svg11.dtd">
<svg width="100%" height="100%" viewBox="0 0 176 126" version="1.1" xmlns="http://www.w3.org/2000/svg" xmlns:xlink="http://www.w3.org/1999/xlink" xml:space="preserve" xmlns:serif="http://www.serif.com/" style="fill-rule:evenodd;clip-rule:evenodd;stroke-linejoin:round;stroke-miterlimit:2;">
    <rect x="0" y="0" width="176" height="126" style="fill:rgb(246,246,246);"/>
    <g transform="matrix(0.259169,0,0,0.259169,-169.25,-162.607)">
        <g transform="matrix(3.5809,0,0,3.5809,-2203.63,-2103.34)">
            <text x="866px" y="865px" style="font-family:'ColonnaMT', 'Colonna MT', fantasy;font-size:71.426px;fill:rgb(52,50,53);">w</text>
        </g>
        <g transform="matrix(1.18091,0,0,1.18091,459.795,123.877)">
            <text x="414px" y="654px" style="font-family:'ColonnaMT', 'Colonna MT', fantasy;font-size:215.651px;fill:rgb(52,50,53);">f</text>
        </g>
        <g>
            <g transform="matrix(41.8111,327.034,-315.259,1.66895e-14,899.273,779.198)">
                <path d="M0.073,0.091L0.072,-0.015L0.108,-0.016L0.108,0.084C0.108,0.142 0.105,0.183 0.099,0.207C0.091,0.237 0.075,0.261 0.052,0.281C0.028,0.302 -0.026,0.304 -0.026,0.304C-0.005,0.297 0.014,0.284 0.032,0.264C0.049,0.245 0.06,0.223 0.065,0.199C0.07,0.175 0.073,0.139 0.073,0.091Z" style="fill:rgb(52,50,53);fill-rule:nonzero;"/>
            </g>
            <g transform="matrix(-315.259,0,23.3034,182.272,966.41,896.613)">
                <path d="M0.153,-0.515L0.153,-0C0.13,-0 0.094,0.002 0.046,0.006L0.046,-0.003C0.071,-0.009 0.089,-0.024 0.099,-0.045C0.108,-0.067 0.113,-0.106 0.113,-0.162L0.113,-0.38C0.113,-0.423 0.116,-0.464 0.106,-0.483C0.096,-0.503 0.096,-0.504 0.072,-0.51L0.072,-0.519C0.112,-0.516 0.122,-0.515 0.153,-0.515Z" style="fill:rgb(52,50,53);fill-rule:nonzero;"/>
            </g>
            <g transform="matrix(45.73,357.686,-311.185,1.94007e-14,894.831,772.311)">
                <path d="M0.143,0.082L0.143,0.003L0.179,0.003L0.179,0.079C0.179,0.128 0.175,0.163 0.167,0.185C0.158,0.206 0.141,0.227 0.117,0.247C0.128,0.227 0.135,0.208 0.137,0.192C0.139,0.179 0.141,0.143 0.143,0.082Z" style="fill:rgb(52,50,53);fill-rule:nonzero;"/>
            </g>
            <g transform="matrix(45.73,357.686,-262.302,3.87695e-15,897.233,792.063)">
                <path d="M0.143,0.082L0.143,0.003L0.179,0.003L0.179,0.079C0.179,0.128 0.175,0.163 0.167,0.185C0.158,0.206 0.141,0.227 0.117,0.247C0.128,0.227 0.135,0.208 0.137,0.192C0.139,0.179 0.141,0.143 0.143,0.082Z" style="fill:rgb(52,50,53);fill-rule:nonzero;"/>
            </g>
            <g transform="matrix(45.73,357.686,-221.566,-9.05953e-15,899.672,811.938)">
                <path d="M0.143,0.082L0.143,0.003L0.179,0.003L0.179,0.079C0.179,0.128 0.175,0.163 0.167,0.185C0.158,0.206 0.141,0.227 0.117,0.247C0.128,0.227 0.135,0.208 0.137,0.192C0.139,0.179 0.141,0.143 0.143,0.082Z" style="fill:rgb(52,50,53);fill-rule:nonzero;"/>
            </g>
            <g transform="matrix(45.73,357.686,-182.232,-2.15511e-14,902.114,831.814)">
                <path d="M0.143,0.082L0.143,0.003L0.179,0.003L0.179,0.079C0.179,0.128 0.175,0.163 0.167,0.185C0.158,0.206 0.141,0.227 0.117,0.247C0.128,0.227 0.135,0.208 0.137,0.192C0.139,0.179 0.141,0.143 0.143,0.082Z" style="fill:rgb(52,50,53);fill-rule:nonzero;"/>
            </g>
        </g>
        <g>
            <g transform="matrix(-41.8111,327.034,315.259,1.66895e-14,1085.92,779.198)">
                <path d="M0.073,0.091L0.072,-0.015L0.108,-0.016L0.108,0.084C0.108,0.142 0.105,0.183 0.099,0.207C0.091,0.237 0.075,0.261 0.052,0.281C0.028,0.302 -0.026,0.304 -0.026,0.304C-0.005,0.297 0.014,0.284 0.032,0.264C0.049,0.245 0.06,0.223 0.065,0.199C0.07,0.175 0.073,0.139 0.073,0.091Z" style="fill:rgb(52,50,53);fill-rule:nonzero;"/>
            </g>
            <g transform="matrix(315.259,0,-23.3034,182.272,1018.78,896.613)">
                <path d="M0.153,-0.515L0.153,-0C0.13,-0 0.094,0.002 0.046,0.006L0.046,-0.003C0.071,-0.009 0.089,-0.024 0.099,-0.045C0.108,-0.067 0.113,-0.106 0.113,-0.162L0.113,-0.38C0.113,-0.423 0.116,-0.464 0.106,-0.483C0.096,-0.503 0.096,-0.504 0.072,-0.51L0.072,-0.519C0.112,-0.516 0.122,-0.515 0.153,-0.515Z" style="fill:rgb(52,50,53);fill-rule:nonzero;"/>
            </g>
            <g transform="matrix(-45.73,357.686,311.185,1.94007e-14,1090.36,772.311)">
                <path d="M0.143,0.082L0.143,0.003L0.179,0.003L0.179,0.079C0.179,0.128 0.175,0.163 0.167,0.185C0.158,0.206 0.141,0.227 0.117,0.247C0.128,0.227 0.135,0.208 0.137,0.192C0.139,0.179 0.141,0.143 0.143,0.082Z" style="fill:rgb(52,50,53);fill-rule:nonzero;"/>
            </g>
            <g transform="matrix(-45.73,357.686,262.302,3.87695e-15,1087.96,792.063)">
                <path d="M0.143,0.082L0.143,0.003L0.179,0.003L0.179,0.079C0.179,0.128 0.175,0.163 0.167,0.185C0.158,0.206 0.141,0.227 0.117,0.247C0.128,0.227 0.135,0.208 0.137,0.192C0.139,0.179 0.141,0.143 0.143,0.082Z" style="fill:rgb(52,50,53);fill-rule:nonzero;"/>
            </g>
            <g transform="matrix(-45.73,357.686,221.566,-9.05953e-15,1085.52,811.938)">
                <path d="M0.143,0.082L0.143,0.003L0.179,0.003L0.179,0.079C0.179,0.128 0.175,0.163 0.167,0.185C0.158,0.206 0.141,0.227 0.117,0.247C0.128,0.227 0.135,0.208 0.137,0.192C0.139,0.179 0.141,0.143 0.143,0.082Z" style="fill:rgb(52,50,53);fill-rule:nonzero;"/>
            </g>
            <g transform="matrix(-45.73,357.686,182.232,-2.15511e-14,1083.08,831.814)">
                <path d="M0.143,0.082L0.143,0.003L0.179,0.003L0.179,0.079C0.179,0.128 0.175,0.163 0.167,0.185C0.158,0.206 0.141,0.227 0.117,0.247C0.128,0.227 0.135,0.208 0.137,0.192C0.139,0.179 0.141,0.143 0.143,0.082Z" style="fill:rgb(52,50,53);fill-rule:nonzero;"/>
            </g>
        </g>
    </g>
</svg>
