<?xml version="1.0" encoding="UTF-8" standalone="no"?>
<!DOCTYPE svg PUBLIC "-//W3C//DTD SVG 1.1//EN" "http://www.w3.org/Graphics/SVG/1.1/DTD/svg11.dtd">
<svg width="100%" height="100%" viewBox="0 0 280 1246" version="1.1" xmlns="http://www.w3.org/2000/svg" xmlns:xlink="http://www.w3.org/1999/xlink" xml:space="preserve" xmlns:serif="http://www.serif.com/" style="fill-rule:evenodd;clip-rule:evenodd;stroke-linejoin:round;stroke-miterlimit:2;">
    <g transform="matrix(5.88274e-17,-0.960725,0.960725,5.88274e-17,-586.696,1800.28)">
        <g transform="matrix(440,0,0,440,927,898)">
            <path d="M0.213,-0.249L0.213,-0.048C0.213,-0.035 0.214,-0.026 0.216,-0.022C0.217,-0.02 0.221,-0.018 0.226,-0.016C0.231,-0.014 0.239,-0.012 0.253,-0.011C0.266,-0.01 0.277,-0.009 0.287,-0.009L0.287,-0L0.02,-0L0.02,-0.009C0.039,-0.009 0.057,-0.01 0.073,-0.011C0.088,-0.012 0.102,-0.015 0.113,-0.019C0.117,-0.022 0.119,-0.032 0.119,-0.048L0.119,-0.574C0.119,-0.582 0.119,-0.59 0.118,-0.596C0.118,-0.602 0.117,-0.607 0.114,-0.61C0.109,-0.617 0.105,-0.621 0.101,-0.622C0.089,-0.625 0.062,-0.627 0.021,-0.627L0.021,-0.636L0.213,-0.653L0.213,-0.299C0.217,-0.326 0.227,-0.351 0.242,-0.376C0.261,-0.407 0.284,-0.423 0.311,-0.426C0.316,-0.426 0.322,-0.426 0.329,-0.427C0.335,-0.428 0.339,-0.428 0.342,-0.428C0.389,-0.428 0.424,-0.415 0.447,-0.39C0.466,-0.369 0.475,-0.344 0.475,-0.314L0.475,-0.048C0.475,-0.035 0.476,-0.026 0.478,-0.022C0.479,-0.02 0.483,-0.018 0.488,-0.016C0.493,-0.014 0.503,-0.012 0.517,-0.011C0.531,-0.01 0.545,-0.009 0.559,-0.009L0.559,-0L0.301,-0L0.301,-0.009C0.312,-0.009 0.324,-0.01 0.338,-0.011C0.352,-0.012 0.364,-0.015 0.375,-0.019C0.379,-0.022 0.381,-0.032 0.381,-0.048L0.381,-0.32C0.381,-0.348 0.378,-0.37 0.372,-0.384C0.363,-0.406 0.345,-0.417 0.319,-0.417C0.291,-0.417 0.267,-0.399 0.247,-0.362C0.23,-0.331 0.219,-0.293 0.213,-0.249Z" style="fill:rgb(225,224,226);fill-rule:nonzero;"/>
        </g>
        <g transform="matrix(440,0,0,440,1171.64,898)">
            <path d="M0.433,-0.21C0.433,-0.145 0.411,-0.092 0.366,-0.049C0.325,-0.01 0.28,0.009 0.229,0.009C0.177,0.009 0.132,-0.009 0.093,-0.045C0.048,-0.087 0.025,-0.142 0.025,-0.21C0.025,-0.275 0.047,-0.328 0.092,-0.37C0.133,-0.408 0.178,-0.427 0.229,-0.427C0.28,-0.427 0.326,-0.409 0.365,-0.373C0.41,-0.332 0.433,-0.277 0.433,-0.21ZM0.329,-0.21C0.329,-0.284 0.323,-0.336 0.31,-0.366C0.295,-0.401 0.268,-0.418 0.229,-0.418C0.193,-0.418 0.167,-0.401 0.152,-0.368C0.137,-0.335 0.129,-0.282 0.129,-0.21C0.129,-0.137 0.136,-0.083 0.15,-0.05C0.163,-0.017 0.19,-0 0.229,-0C0.265,-0 0.291,-0.017 0.306,-0.051C0.321,-0.085 0.329,-0.138 0.329,-0.21Z" style="fill:rgb(225,224,226);fill-rule:nonzero;"/>
        </g>
        <g transform="matrix(440,0,0,440,1368.76,898)">
            <path d="M0.447,-0.305C0.452,-0.336 0.46,-0.36 0.47,-0.378C0.487,-0.407 0.509,-0.423 0.539,-0.426C0.543,-0.426 0.548,-0.426 0.554,-0.427C0.56,-0.428 0.564,-0.428 0.567,-0.428C0.608,-0.428 0.641,-0.415 0.665,-0.39C0.686,-0.369 0.696,-0.343 0.696,-0.314L0.696,-0.048C0.696,-0.035 0.697,-0.027 0.699,-0.023C0.7,-0.02 0.704,-0.018 0.709,-0.016C0.714,-0.014 0.723,-0.012 0.736,-0.011C0.749,-0.01 0.759,-0.009 0.768,-0.009L0.768,-0L0.531,-0L0.531,-0.009C0.547,-0.009 0.559,-0.01 0.568,-0.011C0.577,-0.012 0.586,-0.015 0.596,-0.02C0.6,-0.023 0.602,-0.033 0.602,-0.048L0.602,-0.302C0.602,-0.334 0.599,-0.358 0.594,-0.376C0.585,-0.403 0.569,-0.417 0.547,-0.417C0.523,-0.417 0.504,-0.406 0.488,-0.384C0.471,-0.359 0.457,-0.314 0.448,-0.249L0.448,-0.048C0.448,-0.035 0.449,-0.026 0.451,-0.022C0.452,-0.02 0.455,-0.018 0.46,-0.017C0.465,-0.015 0.473,-0.013 0.486,-0.012C0.498,-0.01 0.509,-0.009 0.52,-0.009L0.52,-0L0.282,-0L0.282,-0.009C0.307,-0.009 0.327,-0.011 0.341,-0.016L0.348,-0.019C0.352,-0.022 0.354,-0.032 0.354,-0.048L0.354,-0.302C0.354,-0.335 0.351,-0.359 0.346,-0.376C0.337,-0.403 0.321,-0.417 0.298,-0.417C0.268,-0.417 0.245,-0.398 0.228,-0.36C0.217,-0.333 0.208,-0.295 0.201,-0.245L0.201,-0.048C0.201,-0.035 0.202,-0.026 0.204,-0.022C0.205,-0.02 0.209,-0.018 0.214,-0.016C0.219,-0.014 0.228,-0.012 0.241,-0.011C0.254,-0.01 0.264,-0.009 0.273,-0.009L0.273,-0L0.02,-0L0.02,-0.009C0.034,-0.009 0.048,-0.01 0.063,-0.011C0.077,-0.012 0.09,-0.015 0.101,-0.019C0.105,-0.022 0.107,-0.032 0.107,-0.048L0.107,-0.352C0.107,-0.358 0.107,-0.364 0.107,-0.37C0.106,-0.376 0.105,-0.381 0.102,-0.384C0.097,-0.391 0.093,-0.395 0.09,-0.396C0.08,-0.399 0.057,-0.401 0.021,-0.401L0.021,-0.41L0.201,-0.427L0.201,-0.299C0.206,-0.331 0.213,-0.357 0.222,-0.375C0.237,-0.406 0.26,-0.423 0.29,-0.426C0.297,-0.427 0.303,-0.427 0.308,-0.428C0.313,-0.428 0.317,-0.428 0.319,-0.428C0.362,-0.428 0.395,-0.416 0.417,-0.392C0.437,-0.37 0.447,-0.341 0.447,-0.305Z" style="fill:rgb(225,224,226);fill-rule:nonzero;"/>
        </g>
        <g transform="matrix(440,0,0,440,1703.16,898)">
            <path d="M0.129,-0.206C0.129,-0.134 0.138,-0.082 0.155,-0.05C0.172,-0.018 0.197,-0.002 0.232,-0.002C0.269,-0.002 0.301,-0.014 0.329,-0.039C0.363,-0.069 0.38,-0.11 0.38,-0.162L0.388,-0.162C0.388,-0.112 0.372,-0.071 0.34,-0.039C0.308,-0.007 0.265,0.009 0.212,0.009C0.167,0.009 0.127,-0.008 0.09,-0.042C0.047,-0.082 0.025,-0.134 0.025,-0.199C0.025,-0.269 0.046,-0.326 0.089,-0.37C0.126,-0.408 0.168,-0.427 0.215,-0.427C0.258,-0.427 0.294,-0.414 0.323,-0.389C0.365,-0.352 0.386,-0.291 0.386,-0.206L0.129,-0.206ZM0.301,-0.218C0.301,-0.283 0.295,-0.332 0.284,-0.366C0.272,-0.4 0.254,-0.417 0.228,-0.417C0.192,-0.417 0.166,-0.401 0.151,-0.369C0.136,-0.336 0.129,-0.286 0.129,-0.218L0.301,-0.218Z" style="fill:rgb(225,224,226);fill-rule:nonzero;"/>
        </g>
    </g>
</svg>
