<?xml version="1.0" encoding="UTF-8" standalone="no"?>
<!DOCTYPE svg PUBLIC "-//W3C//DTD SVG 1.1//EN" "http://www.w3.org/Graphics/SVG/1.1/DTD/svg11.dtd">
<svg width="100%" height="100%" viewBox="0 0 176 126" version="1.1" xmlns="http://www.w3.org/2000/svg" xmlns:xlink="http://www.w3.org/1999/xlink" xml:space="preserve" xmlns:serif="http://www.serif.com/" style="fill-rule:evenodd;clip-rule:evenodd;stroke-linejoin:round;stroke-miterlimit:2;">
    <g transform="matrix(0.181623,0,0,0.181623,1.14031,35.422)">
        <g>
            <g transform="matrix(0.484973,0,0,0.508064,-5.56319,-27.4052)">
                <path d="M189.741,210.057C189.741,210.057 214.217,186.487 228.722,162.918C205.001,135.269 207.293,102.937 207.293,102.937C192.788,126.96 188.835,188.3 189.741,210.057ZM346.115,197.517C359.713,199.632 386.002,211.416 390.231,218.669C411.988,207.186 397.484,114.721 366.663,84.505C360.62,104.447 353.488,152.991 336.566,161.452C352.158,180.898 346.115,197.517 346.115,197.517ZM85.491,340.142C95.463,329.264 151.214,313.853 160.28,308.414C169.345,302.975 154.387,270.34 157.107,263.994C159.826,257.649 166.625,232.719 180.221,223.233L180.239,223.316C174.997,194.933 184.629,92.06 211.951,82.691C211.347,105.051 239.75,148.565 259.09,163.07C263.32,160.048 288.702,158.235 305.019,161.86C326.172,154.608 352.764,94.174 346.115,54.288C370.209,48.934 434.955,105.656 445.833,209.604C472.122,220.482 535.058,277.373 535.578,397.253C536.145,527.791 503.142,576.489 490.252,608.471L430.723,651.668L220.809,651.668C220.809,651.668 425.889,489.416 430.723,377.009C435.557,264.6 326.626,280.765 326.626,280.765C326.626,280.765 302.603,265.354 277.674,250.85C280.847,243.144 286.974,221.485 262.263,216.403C240.959,212.021 226.581,244.505 222.376,273.06C218.874,296.843 193.367,318.839 166.171,322.011C194.925,311.436 234.01,260.913 201.073,227.432C196.995,223.654 165.266,253.116 175.237,267.167C185.208,281.218 196.011,292.399 175.01,306.147C158.004,317.281 116.767,332.89 116.767,332.89C116.767,332.89 154.84,329.717 161.639,341.502C168.438,353.287 149.831,387.737 124.472,398.612C143.962,416.743 170.401,458.292 286.89,415.686C264.679,440.162 189.741,461.161 150.308,453.91C148.948,467.508 163.452,474.306 187.021,472.494C210.591,470.681 264.982,459.802 272.234,454.816C264.529,470.681 213.764,484.278 196.994,491.077C203.339,514.195 313.481,609.378 201.979,627.055C249.42,615.421 219.506,539.576 182.036,566.318C158.791,582.907 184.151,606.961 176.503,637.848C154.747,635.582 124.167,615.723 124.32,604.845C154.538,585.505 169.343,510.417 162.997,491.833C156.652,473.25 131.119,471.437 118.881,462.824C106.643,454.212 99.543,422.635 98.183,399.067C86.398,385.922 75.52,351.021 85.491,340.142ZM229.173,281.823C242.167,291.493 253.045,257.045 278.125,261.275C301.052,265.142 308.646,286.657 321.94,284.542C290.515,307.508 234.612,304.485 246.397,332.89C222.526,310.831 225.244,290.888 229.173,281.823Z" style="fill:rgb(255,0,0);fill-rule:nonzero;"/>
            </g>
            <g transform="matrix(0.958734,0,-0.293114,1.00438,-468.488,-571.483)">
                <g transform="matrix(1.00875,0,0,0.99467,-10.5234,-42.7531)">
                    <rect x="933" y="792.974" width="736" height="126.026" style="fill:rgb(255,0,0);"/>
                </g>
                <g transform="matrix(0.404893,0,0.118162,0.386491,881.17,631.441)">
                    <g>
                        <path d="M144,9.4C137,10.9 132.2,13.3 127.4,17.5C119.9,23.9 118,28.7 105,74.4C93.4,115.1 92.8,117.7 93.2,124.5C93.8,133 97.1,140.8 102.4,146.2L106,149.9L83.8,227.2L61.7,304.6L56,306.3C48.3,308.5 41.5,313.5 36.9,320C33.5,324.9 31.6,330.4 20.5,369C8.4,410.8 7.9,412.8 8.3,420.1C9,433.7 16.2,444.3 29,450.4L35.5,453.5L127,453.4L321,453.4L412.5,453.5L418.7,450.6C425.7,447.4 433.9,439.5 436.7,433.3C437.7,431.2 438.5,429.3 438.7,429.1C438.8,428.9 441.8,431.7 445.3,435.2C460.4,450.6 477.2,457.9 501.7,459.9C523.7,461.6 546.8,458 566.8,449.8L574.1,446.8L581.3,450.1L588.5,453.5L727.6,453.5L735.3,449.7L743.1,445.9L747.8,447.4C768.9,454.2 795.1,458.5 824.1,459.9C866.6,462 903.3,455.5 932.2,440.9L938.2,437.8L941.1,441.3C945.1,446.1 952.5,450.6 959.5,452.5C968.4,454.8 1090.6,454.8 1099.5,452.5C1106.3,450.7 1113.8,446.2 1117.5,441.8L1120,438.8L1124.3,443.1C1126.6,445.4 1131.4,448.7 1135,450.4L1141.5,453.5L1267.5,453.5L1273.5,450.7C1283.9,445.8 1290.2,438.2 1294.4,425.3L1296.2,420L1303.9,426.8C1333,452.5 1369,462.3 1424.7,459.9C1456.5,458.4 1489,452.4 1518.8,442.3C1541.3,434.7 1551.3,428.6 1556.7,419.1C1558.2,416.6 1559.5,414.4 1559.6,414.2C1559.7,414 1563.8,417.8 1568.7,422.7C1591.6,445.8 1621.3,457.6 1662.5,459.9C1678.2,460.8 1707.4,459.6 1722.5,457.5C1763,451.7 1806.2,438.3 1818.5,427.7C1826.1,421.1 1828,416.3 1840.6,372.1L1852.4,330.7L1856.6,326.4C1862.5,320.6 1864.1,316.9 1869.9,296.9C1882.3,253.7 1885.3,234.2 1883.1,210.9C1878.2,158.3 1850,124.9 1801,113.4C1776.1,107.6 1736.9,107.6 1709,113.5C1670.8,121.5 1636,139.7 1609,165.7L1604.4,170L1602.3,165.7C1591.6,143.7 1571.2,126 1547,117.8C1528.8,111.7 1511,109 1488.1,109C1465.3,109 1445.5,111.6 1425.6,117.2C1403.9,123.2 1386.5,131.1 1367.4,143.7C1365.3,145 1365.2,144.8 1363.5,139.8C1361.2,132.8 1356.8,126.6 1351.2,122.5C1342,115.9 1342.6,115.9 1280.9,116.2L1225.3,116.5L1219.2,119.7C1215.8,121.4 1213,122.7 1213,122.5C1213,122.4 1217.8,105.6 1223.6,85.4C1233.6,50.7 1234.2,48.1 1233.7,41.3C1233.2,31.9 1229.7,24.7 1222.5,18.1C1219.4,15.3 1214.5,12.1 1211.2,10.8L1205.5,8.5L1068.5,8.5L1062.8,10.8C1056.1,13.5 1047.9,20.5 1044.6,26.4C1043.3,28.6 1036.8,49.5 1030.1,72.8C1020.7,105.6 1018,116.4 1018,121C1018,124.3 1017.8,127 1017.6,127C1017.4,127 1012.6,125.2 1007,123C995.4,118.4 978.2,113.9 961.8,111.3C945.8,108.8 900.9,108.8 886.5,111.3C874.4,113.4 856.9,118 847.7,121.4C839.5,124.6 823.4,132.6 816,137.4L810.5,140.9L808,135.7C804.9,129.2 798,122.2 791.5,119L786.5,116.5L714.3,116.2C656,116 641.4,116.2 638.3,117.3C635.1,118.4 633.7,118.4 630.9,117.4C628.4,116.5 614.8,116.1 578.3,116.1C536,116 529,115.8 529,114.6C529,113.8 533.1,99 538.1,81.8C546.6,52.2 547.1,50.1 546.8,42.5C546.1,24.8 534.9,12.3 516.7,9C513.1,8.3 480.9,8.1 422.9,8.4C318,9 346.3,8.9 239,8.5C170.7,8.2 148.2,8.4 144,9.4Z" style="fill:rgb(255,0,0);"/>
                        <path d="M142.5,24.9C138,26.9 133,32.1 131.2,36.6C129.1,41.8 107,119.9 107,122.1C107,129.4 114.4,140.1 120.5,141.6C122.3,142 123,142.8 122.7,143.9C122.5,144.8 111.1,184.5 97.4,232.2L72.5,319L68,319C58.2,319 50.1,323.8 46.7,331.7C45.8,333.8 39.8,353.9 33.4,376.4C21.9,416.7 21.8,417.4 22.9,422.5C23.7,425.9 25.3,429.2 27.6,431.8C34.1,439.5 28.4,439.1 130.5,438.6C239,438.1 209.3,438.1 317,438.6C379.8,439 408.6,438.8 411.2,438C416,436.6 420.6,432.7 422.9,428.1C423.9,426.1 427.3,415.5 430.4,404.5C433.5,393.5 436.3,383.8 436.7,383C437,382.2 437.9,384.9 438.6,389.2C443.5,417.2 460.4,436 487,443.1C496.7,445.7 515.7,446.6 527.5,445.1C542.9,443.1 558.6,438.3 572.7,431.2L577.8,428.7L580.6,432C582.2,433.8 585.2,436.1 587.5,437.1C591.2,438.8 595.6,439 658,439C720.4,439 724.8,438.8 728.5,437.1C730.8,436.1 733.8,433.8 735.3,432C737.8,429.1 738.4,428.9 740.5,429.8C749.3,433.8 779,440.8 799.5,443.6C817.8,446.2 860.2,446.2 874.7,443.7C900.4,439.3 919.5,432.4 937.6,421L947,415.1L947,418.8C947,423.5 949.9,429.7 953.6,433.2C960,439.2 957.9,439 1029.5,439C1101.1,439 1099.1,439.2 1105.3,433.2C1109.5,429.2 1110.8,426.3 1116.1,407.7C1118.8,398.4 1121.1,390.6 1121.3,390.4C1121.5,390.2 1123.4,398 1125.4,407.8C1129.5,426.9 1130.3,429.1 1134.7,433.2C1140.9,439.1 1139.5,439 1204.8,439L1264.7,439L1269.1,436.7C1276.2,433 1278.8,428 1285,405.7C1288,394.9 1290.8,386 1291.3,386C1291.7,386 1292,386.6 1292,387.2C1292,389.9 1302.5,404.7 1309.4,411.8C1325.3,428.4 1345.7,438.3 1374.5,443.6C1387,445.9 1427.4,446.2 1444.5,444.2C1467.4,441.4 1493.2,435.6 1513.1,428.9C1529.4,423.4 1537.3,419.6 1541.5,415.3C1545.1,411.6 1546.4,408.2 1553.4,384L1555.8,375.5L1557.5,379.5C1561.9,389.8 1563.1,392.2 1567.6,399C1573.2,407.6 1584,418.6 1592.3,424.2C1616,440.3 1645,446.9 1686.4,445.7C1722,444.6 1756,438.4 1786.5,427.3C1801.6,421.9 1806.7,419.2 1810.9,414.4C1814.5,410.3 1815.3,408 1826.3,369.3C1832.8,346.8 1838,326.8 1838,324.7C1838,322 1838.4,321 1839.5,321C1840.4,321 1843.2,318.9 1845.8,316.2C1850.5,311.5 1850.6,311.3 1856.9,289.5C1865.9,258.2 1868,247.7 1868.7,228.5C1869.1,216 1868.9,210.4 1867.6,203C1861.1,165.6 1843.3,143 1811.2,131.5C1778.7,119.8 1728.4,120.8 1689,134C1661,143.4 1639,156.9 1617.9,177.9C1610.4,185.4 1602.9,193.2 1601.3,195.3L1598.3,199.1L1596.6,192.3C1587.6,156.7 1564.8,135.3 1526.6,127.1C1495.8,120.4 1452.8,123 1421.4,133.6C1394.1,142.7 1372.1,155.7 1352.5,174.2C1347.1,179.3 1342.9,182.8 1343.2,182C1345.9,174.6 1351,154.2 1351,150.8C1350.9,142.7 1345.5,134.8 1337.8,131.6C1334.6,130.2 1326.9,130 1283,130C1233.9,130 1231.7,130.1 1227.2,132C1223.4,133.7 1218.7,138.1 1202.5,155.9C1191.5,167.9 1182.4,177.7 1182.3,177.6C1182.2,177.5 1190.4,148.7 1200.4,113.5C1210.5,78.3 1219.1,48.1 1219.4,46.4C1221.1,38.8 1215.7,28.9 1207.7,25.1C1203.4,23 1202.3,23 1136.8,23L1070.3,23L1066,25.3C1057.6,29.7 1057.2,30.7 1044.1,76.7C1037.4,99.9 1032,120.6 1032,122.7C1032,124.8 1032.9,128.3 1033.9,130.5C1035.6,134.3 1041.3,140.3 1044.1,141.2C1045,141.5 1039.5,162 1024,216.1C1012.3,257 1002.4,291.2 1001.9,292C1001.3,293.1 1001.1,292.7 1001,290.6C1001,286.8 995.8,271.6 992.6,265.9C991.1,263.3 988.2,259.2 986,256.7L982.1,252.3L989.9,251.8C995,251.5 999,250.7 1001.6,249.4C1009.2,245.4 1010.1,243.2 1021.1,205.5C1026.7,186.2 1031.5,168.8 1031.8,166.8C1032.5,161.1 1030.2,154.3 1026,149.9C1023.6,147.4 1018.4,144.2 1010.9,140.6C990.7,130.9 969.1,125.9 939.1,123.8C882.7,119.9 832.9,135.9 800.4,168.4C794.8,174 790.4,178.1 790.6,177.5C793.7,168 797,154.2 797,150.9C796.9,142.7 791.6,134.8 783.8,131.6C780.5,130.2 771.3,130 712.3,130C648.2,130 644.3,130.1 640.4,131.9C638.1,132.9 635.9,134.3 635.6,134.9C635.1,135.7 634,135.5 632.2,134.2C626.3,130.1 624.6,130 565.7,130C511.9,130 508.8,129.9 509.5,128.2C511.6,122.7 533,46.1 533,44C533,36.2 527.7,28.1 520.5,24.9C516.7,23.1 511.5,23 427,23.1C356.2,23.1 336.9,23.4 334.5,24.4C332,25.4 330.9,25.4 328.3,24.3C325.7,23.3 308,23 235.8,23C151.6,23 146.3,23.1 142.5,24.9ZM313.9,141.6L303.9,175L284,175L292.6,141.2L313.9,141.6ZM465,248.2C466.2,248.6 464.6,255.5 455.6,287.1C449.6,308.2 444.5,325.9 444.3,326.3C444,326.7 442.3,325.7 440.4,324C438.5,322.4 435.8,320.7 434.5,320.4C432.7,320 432.1,319.3 432.5,318.1C433.2,315.8 455,239.7 455,239.5C455,239.4 456.9,241.2 459.3,243.5C461.6,245.8 464.2,247.9 465,248.2ZM620.1,249.2L622.7,250.1L614.4,279.2C609.8,295.1 605,309.9 603.8,312.1C601.8,315.7 595.6,319.9 594.3,318.6C594,318.3 597.7,304.2 602.5,287.3C615.1,243 613.9,246.7 615.8,247.5C616.7,247.9 618.7,248.6 620.1,249.2ZM1300.4,251.7C1295.2,263.6 1287.3,291.7 1284.4,308.8L1282.6,319.1L1279.7,318.8C1277,318.5 1276.6,317.7 1269.6,300L1262.4,281.4L1280,265.7C1296,251.4 1302.6,246.9 1300.4,251.7ZM763.5,285C764.6,290.4 771.5,304.2 775.6,309.1L779.3,313.5L765.4,314C757.7,314.3 751.4,314.5 751.4,314.5C751.3,314.5 753.5,306.5 756.3,296.7C759.1,286.9 761.7,279.5 762.1,280.2C762.5,280.9 763.1,283.1 763.5,285ZM273,282.1L262.6,319L243.2,318.6L253.6,282.1L273,282.1Z"/>
                        <g transform="matrix(2.45382,0,-0.750209,2.57066,-1052.33,-1435.63)">
                            <g transform="matrix(184.278,0,0,184.278,662,720)">
                                <path d="M0.82,-0.614L0.77,-0.614L0.77,-0.164L0.82,-0.164L0.82,-0L0.442,-0L0.442,-0.164L0.49,-0.164L0.49,-0.329L0.35,-0.329L0.35,-0.164L0.398,-0.164L0.398,-0L0.02,-0L0.02,-0.164L0.07,-0.164L0.07,-0.614L0.02,-0.614L0.02,-0.778L0.398,-0.778L0.398,-0.614L0.35,-0.614L0.35,-0.462L0.49,-0.462L0.49,-0.614L0.442,-0.614L0.442,-0.778L0.82,-0.778L0.82,-0.614Z" style="fill:white;fill-rule:nonzero;"/>
                            </g>
                            <g transform="matrix(184.278,0,0,184.278,816.794,720)">
                                <path d="M0.676,-0.164L0.676,-0L0.402,-0L0.402,-0.078C0.354,-0.017 0.294,0.014 0.222,0.014C0.167,0.014 0.125,-0.003 0.098,-0.038C0.07,-0.073 0.056,-0.12 0.056,-0.181L0.056,-0.392L0.012,-0.392L0.012,-0.556L0.286,-0.556L0.286,-0.228C0.286,-0.206 0.291,-0.19 0.301,-0.18C0.31,-0.169 0.325,-0.164 0.344,-0.164C0.363,-0.164 0.378,-0.169 0.388,-0.18C0.397,-0.19 0.402,-0.206 0.402,-0.228L0.402,-0.392L0.348,-0.392L0.348,-0.556L0.632,-0.556L0.632,-0.164L0.676,-0.164Z" style="fill:white;fill-rule:nonzero;"/>
                            </g>
                            <g transform="matrix(184.278,0,0,184.278,943.208,720)">
                                <path d="M0.261,0.014C0.177,0.014 0.096,0.001 0.018,-0.026L0.018,-0.174L0.18,-0.174L0.18,-0.164C0.18,-0.132 0.2,-0.116 0.241,-0.116C0.277,-0.116 0.295,-0.128 0.295,-0.153C0.295,-0.166 0.29,-0.176 0.28,-0.183C0.269,-0.19 0.251,-0.195 0.225,-0.2L0.175,-0.209C0.07,-0.228 0.018,-0.287 0.018,-0.387C0.018,-0.445 0.04,-0.49 0.084,-0.522C0.128,-0.554 0.187,-0.57 0.262,-0.57C0.345,-0.57 0.416,-0.556 0.473,-0.528L0.473,-0.389L0.321,-0.389L0.321,-0.399C0.321,-0.412 0.317,-0.423 0.308,-0.43C0.299,-0.437 0.285,-0.44 0.268,-0.44C0.235,-0.44 0.218,-0.429 0.218,-0.408C0.218,-0.397 0.223,-0.388 0.232,-0.382C0.241,-0.376 0.258,-0.37 0.283,-0.365L0.34,-0.354C0.399,-0.343 0.442,-0.322 0.467,-0.291C0.492,-0.26 0.505,-0.221 0.505,-0.173C0.505,-0.112 0.484,-0.066 0.442,-0.034C0.399,-0.002 0.339,0.014 0.261,0.014Z" style="fill:white;fill-rule:nonzero;"/>
                            </g>
                            <g transform="matrix(184.278,0,0,184.278,1038.85,720)">
                                <path d="M0.621,-0.164L0.664,-0.164L0.664,-0L0.419,-0L0.316,-0.192L0.292,-0.192L0.292,-0L0.018,-0L0.018,-0.164L0.062,-0.164L0.062,-0.614L0.018,-0.614L0.018,-0.778L0.292,-0.778L0.292,-0.372L0.316,-0.372L0.44,-0.556L0.651,-0.556L0.651,-0.392L0.61,-0.392L0.525,-0.297L0.621,-0.164Z" style="fill:white;fill-rule:nonzero;"/>
                            </g>
                            <g transform="matrix(184.278,0,0,184.278,1163.79,720)">
                                <path d="M0.316,0.014C0.221,0.014 0.147,-0.011 0.094,-0.061C0.041,-0.11 0.014,-0.183 0.014,-0.278C0.014,-0.373 0.041,-0.446 0.094,-0.496C0.147,-0.545 0.221,-0.57 0.316,-0.57C0.41,-0.57 0.478,-0.546 0.52,-0.497C0.561,-0.448 0.582,-0.387 0.582,-0.314L0.582,-0.242L0.258,-0.242L0.258,-0.236C0.258,-0.211 0.265,-0.193 0.28,-0.182C0.295,-0.17 0.319,-0.164 0.353,-0.164C0.394,-0.164 0.432,-0.167 0.469,-0.173C0.506,-0.179 0.538,-0.187 0.565,-0.196L0.565,-0.036C0.542,-0.023 0.507,-0.012 0.463,-0.002C0.418,0.009 0.369,0.014 0.316,0.014ZM0.374,-0.352L0.374,-0.364C0.374,-0.387 0.369,-0.403 0.36,-0.413C0.35,-0.423 0.335,-0.428 0.316,-0.428C0.297,-0.428 0.282,-0.423 0.273,-0.412C0.263,-0.402 0.258,-0.386 0.258,-0.364L0.258,-0.352L0.374,-0.352Z" style="fill:white;fill-rule:nonzero;"/>
                            </g>
                            <g transform="matrix(184.278,0,0,184.278,1273.25,720)">
                                <path d="M0.316,0.014C0.221,0.014 0.147,-0.011 0.094,-0.061C0.041,-0.11 0.014,-0.183 0.014,-0.278C0.014,-0.373 0.041,-0.446 0.094,-0.496C0.147,-0.545 0.221,-0.57 0.316,-0.57C0.41,-0.57 0.478,-0.546 0.52,-0.497C0.561,-0.448 0.582,-0.387 0.582,-0.314L0.582,-0.242L0.258,-0.242L0.258,-0.236C0.258,-0.211 0.265,-0.193 0.28,-0.182C0.295,-0.17 0.319,-0.164 0.353,-0.164C0.394,-0.164 0.432,-0.167 0.469,-0.173C0.506,-0.179 0.538,-0.187 0.565,-0.196L0.565,-0.036C0.542,-0.023 0.507,-0.012 0.463,-0.002C0.418,0.009 0.369,0.014 0.316,0.014ZM0.374,-0.352L0.374,-0.364C0.374,-0.387 0.369,-0.403 0.36,-0.413C0.35,-0.423 0.335,-0.428 0.316,-0.428C0.297,-0.428 0.282,-0.423 0.273,-0.412C0.263,-0.402 0.258,-0.386 0.258,-0.364L0.258,-0.352L0.374,-0.352Z" style="fill:white;fill-rule:nonzero;"/>
                            </g>
                        </g>
                    </g>
                </g>
                <g transform="matrix(0.518212,0,0.173255,0.526515,331.774,272.246)">
                    <g transform="matrix(106.684,0,0,106.684,825.42,1106)">
                        <path d="M0.991,-0.413L0.976,-0.368C0.957,-0.311 0.923,-0.269 0.875,-0.242C0.826,-0.215 0.758,-0.201 0.671,-0.201L0.332,-0.201L0.263,-0L0.052,-0L0.252,-0.58L0.802,-0.58C0.889,-0.58 0.948,-0.566 0.977,-0.539C1.006,-0.512 1.01,-0.47 0.991,-0.413ZM0.686,-0.448L0.417,-0.448L0.378,-0.333L0.647,-0.333C0.668,-0.333 0.685,-0.334 0.7,-0.336C0.714,-0.337 0.726,-0.34 0.735,-0.344C0.744,-0.349 0.752,-0.355 0.757,-0.362C0.763,-0.369 0.768,-0.379 0.772,-0.39C0.777,-0.402 0.779,-0.412 0.779,-0.42C0.779,-0.432 0.772,-0.44 0.758,-0.443C0.744,-0.446 0.72,-0.448 0.686,-0.448Z" style="fill-rule:nonzero;"/>
                    </g>
                    <g transform="matrix(106.684,0,0,106.684,948.32,1106)">
                        <path d="M0.894,-0.132L0.849,-0L0.299,-0C0.212,-0 0.154,-0.014 0.125,-0.041C0.096,-0.068 0.091,-0.11 0.11,-0.167L0.194,-0.413C0.213,-0.47 0.247,-0.512 0.296,-0.539C0.344,-0.566 0.412,-0.58 0.499,-0.58L1.049,-0.58L1.003,-0.448L0.537,-0.448C0.512,-0.448 0.491,-0.446 0.473,-0.443C0.457,-0.439 0.442,-0.433 0.431,-0.426C0.42,-0.419 0.411,-0.409 0.404,-0.398C0.397,-0.387 0.392,-0.374 0.387,-0.359L0.386,-0.358L0.972,-0.358L0.927,-0.226L0.341,-0.226L0.339,-0.221C0.334,-0.206 0.331,-0.193 0.33,-0.182C0.329,-0.171 0.332,-0.161 0.338,-0.154C0.344,-0.147 0.354,-0.141 0.369,-0.138C0.383,-0.134 0.403,-0.132 0.428,-0.132L0.894,-0.132Z" style="fill-rule:nonzero;"/>
                    </g>
                    <g transform="matrix(106.684,0,0,106.684,1071.22,1106)">
                        <path d="M0.686,-0.448C0.72,-0.448 0.744,-0.446 0.758,-0.443C0.772,-0.44 0.779,-0.432 0.779,-0.42C0.779,-0.412 0.777,-0.402 0.772,-0.39C0.768,-0.379 0.763,-0.369 0.757,-0.362C0.752,-0.355 0.744,-0.349 0.735,-0.344C0.726,-0.34 0.714,-0.337 0.7,-0.336C0.685,-0.334 0.668,-0.333 0.647,-0.333L0.378,-0.333L0.417,-0.448L0.686,-0.448ZM0.701,-0.201C0.741,-0.202 0.776,-0.207 0.806,-0.214C0.836,-0.221 0.862,-0.232 0.884,-0.246C0.906,-0.26 0.925,-0.277 0.94,-0.297C0.955,-0.317 0.967,-0.341 0.976,-0.368L0.991,-0.413C1.01,-0.47 1.006,-0.512 0.977,-0.539C0.948,-0.566 0.889,-0.58 0.802,-0.58L0.252,-0.58L0.052,-0L0.263,-0L0.332,-0.2L0.461,-0.2L0.623,-0L0.858,-0L0.701,-0.201Z" style="fill-rule:nonzero;"/>
                    </g>
                    <g transform="matrix(106.684,0,0,106.684,1193.91,1106)">
                        <path d="M0.341,-0.226L0.263,-0L0.052,-0L0.194,-0.413C0.213,-0.47 0.247,-0.512 0.296,-0.539C0.344,-0.566 0.412,-0.58 0.499,-0.58L1.049,-0.58L1.003,-0.448L0.537,-0.448C0.512,-0.448 0.491,-0.446 0.473,-0.443C0.457,-0.439 0.442,-0.433 0.431,-0.426C0.42,-0.419 0.411,-0.409 0.404,-0.398C0.397,-0.387 0.392,-0.374 0.387,-0.359L0.386,-0.358L0.972,-0.358L0.927,-0.226L0.341,-0.226Z" style="fill-rule:nonzero;"/>
                    </g>
                    <g transform="matrix(106.684,0,0,106.684,1316.81,1106)">
                        <path d="M0.672,-0.448C0.697,-0.448 0.717,-0.446 0.732,-0.443C0.746,-0.439 0.756,-0.433 0.762,-0.426C0.768,-0.419 0.771,-0.409 0.77,-0.398C0.769,-0.387 0.767,-0.374 0.762,-0.359L0.714,-0.221C0.709,-0.206 0.703,-0.193 0.696,-0.182C0.689,-0.171 0.679,-0.161 0.668,-0.154C0.657,-0.147 0.643,-0.141 0.625,-0.138C0.609,-0.134 0.588,-0.132 0.563,-0.132L0.428,-0.132C0.403,-0.132 0.383,-0.134 0.369,-0.138C0.354,-0.141 0.344,-0.147 0.338,-0.154C0.332,-0.161 0.329,-0.171 0.33,-0.182C0.331,-0.193 0.334,-0.206 0.339,-0.221L0.387,-0.359C0.392,-0.374 0.397,-0.387 0.404,-0.398C0.411,-0.409 0.42,-0.419 0.431,-0.426C0.442,-0.433 0.457,-0.439 0.473,-0.443C0.491,-0.446 0.512,-0.448 0.537,-0.448L0.672,-0.448ZM0.991,-0.413C1.01,-0.47 1.006,-0.512 0.977,-0.539C0.948,-0.566 0.889,-0.58 0.802,-0.58L0.499,-0.58C0.412,-0.58 0.344,-0.566 0.296,-0.539C0.247,-0.512 0.213,-0.47 0.194,-0.413L0.11,-0.167C0.091,-0.11 0.096,-0.068 0.125,-0.041C0.154,-0.014 0.212,-0 0.299,-0L0.602,-0C0.689,-0 0.757,-0.014 0.806,-0.041C0.854,-0.068 0.888,-0.11 0.907,-0.167L0.991,-0.413Z" style="fill-rule:nonzero;"/>
                    </g>
                    <g transform="matrix(106.684,0,0,106.684,1439.71,1106)">
                        <path d="M0.686,-0.448C0.72,-0.448 0.744,-0.446 0.758,-0.443C0.772,-0.44 0.779,-0.432 0.779,-0.42C0.779,-0.412 0.777,-0.402 0.772,-0.39C0.768,-0.379 0.763,-0.369 0.757,-0.362C0.752,-0.355 0.744,-0.349 0.735,-0.344C0.726,-0.34 0.714,-0.337 0.7,-0.336C0.685,-0.334 0.668,-0.333 0.647,-0.333L0.378,-0.333L0.417,-0.448L0.686,-0.448ZM0.701,-0.201C0.741,-0.202 0.776,-0.207 0.806,-0.214C0.836,-0.221 0.862,-0.232 0.884,-0.246C0.906,-0.26 0.925,-0.277 0.94,-0.297C0.955,-0.317 0.967,-0.341 0.976,-0.368L0.991,-0.413C1.01,-0.47 1.006,-0.512 0.977,-0.539C0.948,-0.566 0.889,-0.58 0.802,-0.58L0.252,-0.58L0.052,-0L0.263,-0L0.332,-0.2L0.461,-0.2L0.623,-0L0.858,-0L0.701,-0.201Z" style="fill-rule:nonzero;"/>
                    </g>
                    <g transform="matrix(106.684,0,0,106.684,1562.39,1106)">
                        <path d="M0.461,-0.58L0.252,-0.58L0.052,-0L0.263,-0L0.368,-0.305L0.53,-0.022L0.559,-0.022L0.917,-0.305L0.812,-0L1.023,-0L1.223,-0.58L1.014,-0.58L0.632,-0.269L0.461,-0.58Z" style="fill-rule:nonzero;"/>
                    </g>
                    <g transform="matrix(106.684,0,0,106.684,1703.75,1106)">
                        <path d="M0.387,-0.359C0.392,-0.374 0.397,-0.387 0.404,-0.398C0.411,-0.409 0.42,-0.419 0.431,-0.426C0.442,-0.433 0.457,-0.439 0.473,-0.443C0.491,-0.446 0.512,-0.448 0.537,-0.448L0.672,-0.448C0.697,-0.448 0.717,-0.446 0.732,-0.443C0.746,-0.439 0.756,-0.433 0.762,-0.426C0.768,-0.419 0.771,-0.409 0.77,-0.398C0.769,-0.387 0.767,-0.374 0.762,-0.359L0.387,-0.359ZM0.991,-0.413C1.01,-0.47 1.006,-0.512 0.977,-0.539C0.948,-0.566 0.889,-0.58 0.802,-0.58L0.499,-0.58C0.412,-0.58 0.344,-0.566 0.296,-0.539C0.247,-0.512 0.213,-0.47 0.194,-0.413L0.052,-0L0.263,-0L0.341,-0.227L0.716,-0.227L0.638,-0L0.849,-0L0.991,-0.413Z" style="fill-rule:nonzero;"/>
                    </g>
                    <g transform="matrix(106.684,0,0,106.684,1826.65,1106)">
                        <path d="M0.838,-0.58L1.049,-0.58L0.849,-0L0.66,-0L0.378,-0.333L0.263,-0L0.052,-0L0.252,-0.58L0.44,-0.58L0.723,-0.248L0.838,-0.58Z" style="fill-rule:nonzero;"/>
                    </g>
                    <g transform="matrix(106.684,0,0,106.684,1949.55,1106)">
                        <path d="M0.925,-0.22L0.714,-0.22C0.709,-0.205 0.703,-0.192 0.696,-0.181C0.689,-0.17 0.679,-0.161 0.668,-0.154C0.657,-0.147 0.643,-0.141 0.625,-0.138C0.609,-0.134 0.588,-0.132 0.563,-0.132L0.428,-0.132C0.403,-0.132 0.383,-0.134 0.369,-0.138C0.354,-0.141 0.344,-0.147 0.338,-0.154C0.332,-0.161 0.329,-0.171 0.33,-0.182C0.331,-0.193 0.334,-0.206 0.339,-0.221L0.387,-0.359C0.392,-0.374 0.397,-0.387 0.404,-0.398C0.411,-0.409 0.42,-0.419 0.431,-0.426C0.442,-0.433 0.457,-0.439 0.473,-0.443C0.491,-0.446 0.512,-0.448 0.537,-0.448L0.672,-0.448C0.697,-0.448 0.716,-0.446 0.731,-0.443C0.746,-0.439 0.756,-0.434 0.762,-0.427C0.769,-0.42 0.772,-0.41 0.771,-0.399C0.77,-0.388 0.767,-0.375 0.762,-0.36L0.973,-0.36L0.991,-0.413C1.01,-0.47 1.006,-0.512 0.977,-0.539C0.948,-0.566 0.889,-0.58 0.802,-0.58L0.499,-0.58C0.412,-0.58 0.344,-0.566 0.296,-0.539C0.247,-0.512 0.213,-0.47 0.194,-0.413L0.11,-0.167C0.091,-0.11 0.096,-0.068 0.125,-0.041C0.154,-0.014 0.212,-0 0.299,-0L0.602,-0C0.689,-0 0.757,-0.014 0.806,-0.041C0.854,-0.068 0.888,-0.11 0.907,-0.167L0.925,-0.22Z" style="fill-rule:nonzero;"/>
                    </g>
                    <g transform="matrix(106.684,0,0,106.684,2072.45,1106)">
                        <path d="M0.894,-0.132L0.849,-0L0.299,-0C0.212,-0 0.154,-0.014 0.125,-0.041C0.096,-0.068 0.091,-0.11 0.11,-0.167L0.194,-0.413C0.213,-0.47 0.247,-0.512 0.296,-0.539C0.344,-0.566 0.412,-0.58 0.499,-0.58L1.049,-0.58L1.003,-0.448L0.537,-0.448C0.512,-0.448 0.491,-0.446 0.473,-0.443C0.457,-0.439 0.442,-0.433 0.431,-0.426C0.42,-0.419 0.411,-0.409 0.404,-0.398C0.397,-0.387 0.392,-0.374 0.387,-0.359L0.386,-0.358L0.972,-0.358L0.927,-0.226L0.341,-0.226L0.339,-0.221C0.334,-0.206 0.331,-0.193 0.33,-0.182C0.329,-0.171 0.332,-0.161 0.338,-0.154C0.344,-0.147 0.354,-0.141 0.369,-0.138C0.383,-0.134 0.403,-0.132 0.428,-0.132L0.894,-0.132Z" style="fill-rule:nonzero;"/>
                    </g>
                </g>
            </g>
        </g>
    </g>
</svg>
