<?xml version="1.0" encoding="UTF-8" standalone="no"?>
<!DOCTYPE svg PUBLIC "-//W3C//DTD SVG 1.1//EN" "http://www.w3.org/Graphics/SVG/1.1/DTD/svg11.dtd">
<svg width="100%" height="100%" viewBox="0 0 475 250" version="1.1" xmlns="http://www.w3.org/2000/svg" xmlns:xlink="http://www.w3.org/1999/xlink" xml:space="preserve" xmlns:serif="http://www.serif.com/" style="fill-rule:evenodd;clip-rule:evenodd;stroke-linejoin:round;stroke-miterlimit:2;">
    <g transform="matrix(1,0,0,1,-82.794,-113.274)">
        <path d="M161.82,352.71C152.34,352.71 144.627,356.055 144.627,346.575L144.627,130.465C144.627,120.985 152.34,113.274 161.82,113.274L478.09,113.274C487.569,113.274 495.28,120.985 495.28,130.465L495.28,346.575C495.28,356.055 487.569,352.71 478.09,352.71L161.82,352.71Z" style="fill:url(#_Linear1);fill-rule:nonzero;"/>
        <path d="M161.82,360.26C154.275,360.26 148.138,354.123 148.138,346.579L148.138,130.469C148.138,122.925 154.275,116.788 161.82,116.788L478.09,116.788C485.634,116.788 491.769,122.925 491.769,130.469L491.769,346.579C491.769,354.123 485.633,360.26 478.09,360.26L161.82,360.26Z" style="fill:url(#_Linear2);fill-rule:nonzero;"/>
        <path d="M489.43,346.58C489.43,352.844 484.353,357.92 478.091,357.92L161.821,357.92C155.557,357.92 150.479,352.843 150.479,346.58L150.479,130.47C150.479,124.206 155.557,119.129 161.821,119.129L478.091,119.129C484.353,119.129 489.43,124.206 489.43,130.47L489.43,346.58Z" style="fill-rule:nonzero;"/>
        <g>
            <path d="M557.2,355.44C557.2,359.436 544.935,362.674 540.257,362.674L99.737,362.674C95.058,362.674 82.794,359.436 82.794,355.44C82.794,351.448 86.586,348.212 91.265,348.212L548.725,348.212C553.405,348.212 557.195,351.452 557.195,355.442L557.2,355.44Z" style="fill:url(#_Linear3);fill-rule:nonzero;"/>
            <rect x="82.8" y="340.98" width="474.4" height="14.464" style="fill:url(#_Linear4);"/>
            <g transform="matrix(6.12323e-17,1,-1,6.12323e-17,671.83,31.83)">
                <path d="M309.15,114.624L323.614,114.624L323.614,114.624C327.608,114.631 330.844,126.89 330.844,131.567L330.844,572.087C330.844,576.766 327.606,589.03 323.61,589.03C323.518,589.03 323.427,589.028 323.336,589.024L309.15,589.024L309.15,114.624Z" style="fill:url(#_Linear5);fill-rule:nonzero;"/>
            </g>
        </g>
        <path d="M534.22,348.41C534.22,348.934 533.434,349.361 532.462,349.361L524.024,349.361C523.052,349.361 522.267,348.934 522.267,348.41C522.267,347.884 523.052,347.461 524.024,347.461L532.462,347.461C533.432,347.461 534.222,347.881 534.222,348.411L534.22,348.41Z" style="fill-rule:nonzero;"/>
        <path d="M352.72,345.87L287.289,345.87C285.881,345.87 284.738,344.805 284.738,343.492L284.738,341.112L355.27,341.112L355.27,343.492C355.27,344.802 354.12,345.872 352.72,345.872L352.72,345.87Z" style="fill:rgb(62,61,61);fill-rule:nonzero;"/>
        <g id="rose-petals.svg" transform="matrix(-0.402388,-4.92783e-17,5.96556e-17,-0.487125,319.995,226.605)">
            <g transform="matrix(1,0,0,1,-400,-200)">
                <clipPath id="_clip6">
                    <rect x="0" y="0" width="800" height="400"/>
                </clipPath>
                <g clip-path="url(#_clip6)">
                    <rect x="0" y="0" width="800" height="400" style="fill:rgb(51,0,0);"/>
                    <rect x="0" y="0" width="800" height="400" style="fill:url(#_Radial7);"/>
                    <g>
                        <circle cx="267.5" cy="61" r="300" style="fill:url(#_Linear8);"/>
                        <circle cx="532.5" cy="61" r="300" style="fill:url(#_Linear9);"/>
                        <circle cx="400" cy="30" r="300" style="fill:url(#_Linear10);"/>
                    </g>
                </g>
            </g>
        </g>
        <g transform="matrix(0.869529,0,0,0.869529,41.7501,29.5654)">
            <path d="M480.95,133.077C480.95,130.926 479.204,129.18 477.053,129.18L162.937,129.18C160.786,129.18 159.04,130.926 159.04,133.077L159.04,320.133C159.04,322.284 160.786,324.03 162.937,324.03L477.053,324.03C479.204,324.03 480.95,322.284 480.95,320.133L480.95,133.077Z" style="fill:rgb(12,12,12);"/>
        </g>
        <g transform="matrix(0.869529,0,0,0.0637807,41.7501,133.652)">
            <path d="M480.95,182.308C480.95,152.986 479.204,129.18 477.053,129.18L162.937,129.18C160.786,129.18 159.04,152.986 159.04,182.308L159.04,324.03L480.95,324.03L480.95,182.308Z" style="fill:rgb(51,51,51);"/>
        </g>
    </g>
    <g transform="matrix(0.671555,0,0,0.671555,37.8814,-15.7342)">
        <g transform="matrix(34.6361,0,0,34.6361,97,124.7)">
            <path d="M0.418,0.012C0.347,0.012 0.282,-0.004 0.225,-0.035C0.167,-0.066 0.122,-0.109 0.089,-0.164C0.056,-0.219 0.039,-0.281 0.039,-0.35C0.039,-0.419 0.056,-0.482 0.089,-0.537C0.122,-0.592 0.167,-0.634 0.225,-0.666C0.282,-0.697 0.347,-0.712 0.419,-0.712C0.48,-0.712 0.535,-0.701 0.584,-0.68C0.632,-0.659 0.674,-0.628 0.707,-0.588L0.603,-0.492C0.556,-0.547 0.497,-0.574 0.427,-0.574C0.384,-0.574 0.345,-0.565 0.311,-0.546C0.277,-0.527 0.251,-0.5 0.232,-0.466C0.213,-0.432 0.203,-0.393 0.203,-0.35C0.203,-0.307 0.213,-0.268 0.232,-0.234C0.251,-0.2 0.277,-0.173 0.311,-0.155C0.345,-0.136 0.384,-0.126 0.427,-0.126C0.497,-0.126 0.556,-0.154 0.603,-0.209L0.707,-0.113C0.674,-0.072 0.632,-0.041 0.583,-0.02C0.534,0.001 0.479,0.012 0.418,0.012Z" style="fill:white;fill-rule:nonzero;"/>
        </g>
        <g transform="matrix(34.6361,0,0,34.6361,122.25,124.7)">
            <path d="M0.289,-0.546C0.372,-0.546 0.436,-0.526 0.481,-0.487C0.526,-0.447 0.548,-0.387 0.548,-0.307L0.548,-0L0.402,-0L0.402,-0.067C0.373,-0.017 0.318,0.008 0.238,0.008C0.197,0.008 0.161,0.001 0.131,-0.013C0.1,-0.027 0.077,-0.046 0.061,-0.071C0.045,-0.096 0.037,-0.124 0.037,-0.155C0.037,-0.205 0.056,-0.244 0.094,-0.273C0.131,-0.302 0.189,-0.316 0.268,-0.316L0.392,-0.316C0.392,-0.35 0.382,-0.376 0.361,-0.395C0.34,-0.413 0.309,-0.422 0.268,-0.422C0.239,-0.422 0.211,-0.418 0.184,-0.408C0.156,-0.4 0.132,-0.387 0.113,-0.372L0.057,-0.481C0.086,-0.502 0.122,-0.518 0.163,-0.529C0.203,-0.54 0.246,-0.546 0.289,-0.546ZM0.277,-0.097C0.304,-0.097 0.327,-0.103 0.348,-0.116C0.369,-0.128 0.383,-0.146 0.392,-0.17L0.392,-0.225L0.285,-0.225C0.221,-0.225 0.189,-0.204 0.189,-0.162C0.189,-0.142 0.197,-0.126 0.213,-0.115C0.228,-0.103 0.25,-0.097 0.277,-0.097Z" style="fill:white;fill-rule:nonzero;"/>
        </g>
        <g transform="matrix(34.6361,0,0,34.6361,143.62,124.7)">
            <path d="M0.761,-0.546C0.828,-0.546 0.882,-0.526 0.922,-0.487C0.961,-0.447 0.981,-0.387 0.981,-0.308L0.981,-0L0.825,-0L0.825,-0.284C0.825,-0.327 0.816,-0.359 0.799,-0.38C0.781,-0.401 0.756,-0.411 0.723,-0.411C0.686,-0.411 0.657,-0.399 0.636,-0.376C0.615,-0.352 0.604,-0.317 0.604,-0.27L0.604,-0L0.448,-0L0.448,-0.284C0.448,-0.369 0.414,-0.411 0.346,-0.411C0.31,-0.411 0.281,-0.399 0.26,-0.376C0.239,-0.352 0.228,-0.317 0.228,-0.27L0.228,-0L0.072,-0L0.072,-0.538L0.221,-0.538L0.221,-0.476C0.241,-0.499 0.266,-0.516 0.295,-0.528C0.324,-0.54 0.355,-0.546 0.39,-0.546C0.428,-0.546 0.462,-0.539 0.493,-0.524C0.524,-0.508 0.548,-0.487 0.567,-0.458C0.589,-0.486 0.617,-0.508 0.651,-0.523C0.684,-0.538 0.721,-0.546 0.761,-0.546Z" style="fill:white;fill-rule:nonzero;"/>
        </g>
        <g transform="matrix(34.6361,0,0,34.6361,180.161,124.7)">
            <path d="M0.599,-0.267C0.599,-0.265 0.598,-0.251 0.596,-0.225L0.189,-0.225C0.196,-0.192 0.214,-0.165 0.241,-0.146C0.268,-0.127 0.302,-0.117 0.343,-0.117C0.371,-0.117 0.396,-0.121 0.418,-0.13C0.439,-0.138 0.459,-0.151 0.478,-0.169L0.561,-0.079C0.51,-0.021 0.436,0.008 0.339,0.008C0.278,0.008 0.225,-0.004 0.178,-0.028C0.131,-0.051 0.095,-0.084 0.07,-0.126C0.045,-0.168 0.032,-0.216 0.032,-0.269C0.032,-0.322 0.045,-0.369 0.07,-0.411C0.095,-0.454 0.129,-0.487 0.172,-0.51C0.216,-0.534 0.265,-0.546 0.319,-0.546C0.372,-0.546 0.419,-0.535 0.462,-0.512C0.505,-0.489 0.538,-0.457 0.563,-0.414C0.587,-0.372 0.599,-0.323 0.599,-0.267ZM0.32,-0.428C0.285,-0.428 0.255,-0.418 0.231,-0.398C0.207,-0.378 0.192,-0.351 0.187,-0.316L0.452,-0.316C0.447,-0.35 0.432,-0.377 0.408,-0.398C0.384,-0.418 0.355,-0.428 0.32,-0.428Z" style="fill:white;fill-rule:nonzero;"/>
        </g>
        <g transform="matrix(34.6361,0,0,34.6361,202.017,124.7)">
            <path d="M0.221,-0.467C0.24,-0.493 0.265,-0.513 0.297,-0.526C0.328,-0.539 0.365,-0.546 0.406,-0.546L0.406,-0.402C0.389,-0.403 0.377,-0.404 0.371,-0.404C0.326,-0.404 0.291,-0.392 0.266,-0.367C0.241,-0.342 0.228,-0.304 0.228,-0.254L0.228,-0L0.072,-0L0.072,-0.538L0.221,-0.538L0.221,-0.467Z" style="fill:white;fill-rule:nonzero;"/>
        </g>
        <g transform="matrix(34.6361,0,0,34.6361,216.633,124.7)">
            <path d="M0.328,0.008C0.271,0.008 0.221,-0.004 0.175,-0.028C0.131,-0.051 0.095,-0.084 0.07,-0.126C0.045,-0.168 0.032,-0.216 0.032,-0.269C0.032,-0.322 0.045,-0.37 0.07,-0.412C0.095,-0.454 0.131,-0.487 0.175,-0.51C0.221,-0.534 0.271,-0.546 0.328,-0.546C0.385,-0.546 0.435,-0.534 0.48,-0.51C0.525,-0.487 0.56,-0.454 0.585,-0.412C0.61,-0.37 0.623,-0.322 0.623,-0.269C0.623,-0.216 0.61,-0.168 0.585,-0.126C0.56,-0.084 0.525,-0.051 0.48,-0.028C0.435,-0.004 0.385,0.008 0.328,0.008ZM0.328,-0.12C0.368,-0.12 0.401,-0.134 0.427,-0.161C0.452,-0.188 0.465,-0.224 0.465,-0.269C0.465,-0.314 0.452,-0.35 0.427,-0.378C0.401,-0.405 0.368,-0.418 0.328,-0.418C0.288,-0.418 0.255,-0.405 0.229,-0.378C0.203,-0.35 0.19,-0.314 0.19,-0.269C0.19,-0.224 0.203,-0.188 0.229,-0.161C0.255,-0.134 0.288,-0.12 0.328,-0.12Z" style="fill:white;fill-rule:nonzero;"/>
        </g>
        <g transform="matrix(34.6361,0,0,34.6361,239.32,124.7)">
            <path d="M0.399,-0.546C0.466,-0.546 0.52,-0.526 0.561,-0.486C0.602,-0.446 0.622,-0.387 0.622,-0.308L0.622,-0L0.466,-0L0.466,-0.284C0.466,-0.327 0.457,-0.359 0.438,-0.38C0.419,-0.401 0.392,-0.411 0.357,-0.411C0.318,-0.411 0.286,-0.399 0.263,-0.375C0.24,-0.35 0.228,-0.314 0.228,-0.266L0.228,-0L0.072,-0L0.072,-0.538L0.221,-0.538L0.221,-0.475C0.242,-0.498 0.267,-0.515 0.298,-0.528C0.329,-0.54 0.362,-0.546 0.399,-0.546Z" style="fill:white;fill-rule:nonzero;"/>
        </g>
        <g transform="matrix(34.6361,0,0,34.6361,273.055,124.7)">
            <path d="M0.228,-0.568L0.004,-0.568L0.004,-0.7L0.614,-0.7L0.614,-0.568L0.39,-0.568L0.39,-0L0.228,-0L0.228,-0.568Z" style="fill:white;fill-rule:nonzero;"/>
        </g>
        <g transform="matrix(34.6361,0,0,34.6361,294.461,124.7)">
            <path d="M0.399,-0.546C0.466,-0.546 0.52,-0.526 0.561,-0.486C0.602,-0.446 0.622,-0.387 0.622,-0.308L0.622,-0L0.466,-0L0.466,-0.284C0.466,-0.327 0.457,-0.359 0.438,-0.38C0.419,-0.401 0.392,-0.411 0.357,-0.411C0.318,-0.411 0.286,-0.399 0.263,-0.375C0.24,-0.35 0.228,-0.314 0.228,-0.266L0.228,-0L0.072,-0L0.072,-0.742L0.228,-0.742L0.228,-0.482C0.249,-0.503 0.274,-0.519 0.303,-0.53C0.332,-0.541 0.364,-0.546 0.399,-0.546Z" style="fill:white;fill-rule:nonzero;"/>
        </g>
        <g transform="matrix(34.6361,0,0,34.6361,318.394,124.7)">
            <path d="M0.072,-0.538L0.228,-0.538L0.228,-0L0.072,-0L0.072,-0.538ZM0.15,-0.613C0.121,-0.613 0.098,-0.621 0.08,-0.638C0.062,-0.655 0.053,-0.675 0.053,-0.7C0.053,-0.725 0.062,-0.745 0.08,-0.762C0.098,-0.779 0.121,-0.787 0.15,-0.787C0.179,-0.787 0.202,-0.779 0.22,-0.763C0.238,-0.747 0.247,-0.727 0.247,-0.703C0.247,-0.677 0.238,-0.656 0.22,-0.639C0.202,-0.622 0.179,-0.613 0.15,-0.613Z" style="fill:white;fill-rule:nonzero;"/>
        </g>
        <g transform="matrix(34.6361,0,0,34.6361,328.82,124.7)">
            <path d="M0.39,-0.546C0.44,-0.546 0.486,-0.535 0.527,-0.511C0.568,-0.489 0.6,-0.456 0.623,-0.414C0.646,-0.373 0.658,-0.324 0.658,-0.269C0.658,-0.214 0.646,-0.165 0.623,-0.124C0.6,-0.082 0.568,-0.05 0.527,-0.027C0.486,-0.004 0.44,0.008 0.39,0.008C0.316,0.008 0.26,-0.015 0.221,-0.062L0.221,-0L0.072,-0L0.072,-0.742L0.228,-0.742L0.228,-0.481C0.267,-0.524 0.321,-0.546 0.39,-0.546ZM0.363,-0.12C0.403,-0.12 0.436,-0.134 0.462,-0.161C0.487,-0.188 0.5,-0.224 0.5,-0.269C0.5,-0.314 0.487,-0.35 0.462,-0.378C0.436,-0.405 0.403,-0.418 0.363,-0.418C0.323,-0.418 0.29,-0.405 0.265,-0.378C0.239,-0.35 0.226,-0.314 0.226,-0.269C0.226,-0.224 0.239,-0.188 0.265,-0.161C0.29,-0.134 0.323,-0.12 0.363,-0.12Z" style="fill:white;fill-rule:nonzero;"/>
        </g>
        <g transform="matrix(34.6361,0,0,34.6361,352.718,124.7)">
            <path d="M0.328,0.008C0.271,0.008 0.221,-0.004 0.175,-0.028C0.131,-0.051 0.095,-0.084 0.07,-0.126C0.045,-0.168 0.032,-0.216 0.032,-0.269C0.032,-0.322 0.045,-0.37 0.07,-0.412C0.095,-0.454 0.131,-0.487 0.175,-0.51C0.221,-0.534 0.271,-0.546 0.328,-0.546C0.385,-0.546 0.435,-0.534 0.48,-0.51C0.525,-0.487 0.56,-0.454 0.585,-0.412C0.61,-0.37 0.623,-0.322 0.623,-0.269C0.623,-0.216 0.61,-0.168 0.585,-0.126C0.56,-0.084 0.525,-0.051 0.48,-0.028C0.435,-0.004 0.385,0.008 0.328,0.008ZM0.328,-0.12C0.368,-0.12 0.401,-0.134 0.427,-0.161C0.452,-0.188 0.465,-0.224 0.465,-0.269C0.465,-0.314 0.452,-0.35 0.427,-0.378C0.401,-0.405 0.368,-0.418 0.328,-0.418C0.288,-0.418 0.255,-0.405 0.229,-0.378C0.203,-0.35 0.19,-0.314 0.19,-0.269C0.19,-0.224 0.203,-0.188 0.229,-0.161C0.255,-0.134 0.288,-0.12 0.328,-0.12Z" style="fill:white;fill-rule:nonzero;"/>
        </g>
        <g transform="matrix(34.6361,0,0,34.6361,375.405,124.7)">
            <path d="M0.62,-0.742L0.62,-0L0.471,-0L0.471,-0.062C0.432,-0.015 0.376,0.008 0.303,0.008C0.252,0.008 0.206,-0.003 0.166,-0.026C0.125,-0.049 0.092,-0.081 0.069,-0.123C0.046,-0.165 0.034,-0.214 0.034,-0.269C0.034,-0.324 0.046,-0.373 0.069,-0.415C0.092,-0.457 0.125,-0.489 0.166,-0.512C0.206,-0.535 0.252,-0.546 0.303,-0.546C0.372,-0.546 0.425,-0.524 0.464,-0.481L0.464,-0.742L0.62,-0.742ZM0.33,-0.12C0.369,-0.12 0.402,-0.134 0.428,-0.161C0.454,-0.188 0.467,-0.224 0.467,-0.269C0.467,-0.314 0.454,-0.35 0.428,-0.378C0.402,-0.405 0.369,-0.418 0.33,-0.418C0.29,-0.418 0.257,-0.405 0.231,-0.378C0.205,-0.35 0.192,-0.314 0.192,-0.269C0.192,-0.224 0.205,-0.188 0.231,-0.161C0.257,-0.134 0.29,-0.12 0.33,-0.12Z" style="fill:white;fill-rule:nonzero;"/>
        </g>
        <g transform="matrix(34.6361,0,0,34.6361,399.373,124.7)">
            <path d="M0.599,-0.267C0.599,-0.265 0.598,-0.251 0.596,-0.225L0.189,-0.225C0.196,-0.192 0.214,-0.165 0.241,-0.146C0.268,-0.127 0.302,-0.117 0.343,-0.117C0.371,-0.117 0.396,-0.121 0.418,-0.13C0.439,-0.138 0.459,-0.151 0.478,-0.169L0.561,-0.079C0.51,-0.021 0.436,0.008 0.339,0.008C0.278,0.008 0.225,-0.004 0.178,-0.028C0.131,-0.051 0.095,-0.084 0.07,-0.126C0.045,-0.168 0.032,-0.216 0.032,-0.269C0.032,-0.322 0.045,-0.369 0.07,-0.411C0.095,-0.454 0.129,-0.487 0.172,-0.51C0.216,-0.534 0.265,-0.546 0.319,-0.546C0.372,-0.546 0.419,-0.535 0.462,-0.512C0.505,-0.489 0.538,-0.457 0.563,-0.414C0.587,-0.372 0.599,-0.323 0.599,-0.267ZM0.32,-0.428C0.285,-0.428 0.255,-0.418 0.231,-0.398C0.207,-0.378 0.192,-0.351 0.187,-0.316L0.452,-0.316C0.447,-0.35 0.432,-0.377 0.408,-0.398C0.384,-0.418 0.355,-0.428 0.32,-0.428Z" style="fill:white;fill-rule:nonzero;"/>
        </g>
        <g transform="matrix(34.6361,0,0,34.6361,420.709,124.7)">
            <path d="M0.289,-0.546C0.372,-0.546 0.436,-0.526 0.481,-0.487C0.526,-0.447 0.548,-0.387 0.548,-0.307L0.548,-0L0.402,-0L0.402,-0.067C0.373,-0.017 0.318,0.008 0.238,0.008C0.197,0.008 0.161,0.001 0.131,-0.013C0.1,-0.027 0.077,-0.046 0.061,-0.071C0.045,-0.096 0.037,-0.124 0.037,-0.155C0.037,-0.205 0.056,-0.244 0.094,-0.273C0.131,-0.302 0.189,-0.316 0.268,-0.316L0.392,-0.316C0.392,-0.35 0.382,-0.376 0.361,-0.395C0.34,-0.413 0.309,-0.422 0.268,-0.422C0.239,-0.422 0.211,-0.418 0.184,-0.408C0.156,-0.4 0.132,-0.387 0.113,-0.372L0.057,-0.481C0.086,-0.502 0.122,-0.518 0.163,-0.529C0.203,-0.54 0.246,-0.546 0.289,-0.546ZM0.277,-0.097C0.304,-0.097 0.327,-0.103 0.348,-0.116C0.369,-0.128 0.383,-0.146 0.392,-0.17L0.392,-0.225L0.285,-0.225C0.221,-0.225 0.189,-0.204 0.189,-0.162C0.189,-0.142 0.197,-0.126 0.213,-0.115C0.228,-0.103 0.25,-0.097 0.277,-0.097Z" style="fill:white;fill-rule:nonzero;"/>
        </g>
        <g transform="matrix(34.6361,0,0,34.6361,442.08,124.7)">
            <path d="M0.614,-0.538L0.614,-0L0.466,-0L0.466,-0.064C0.445,-0.041 0.421,-0.023 0.392,-0.011C0.363,0.002 0.332,0.008 0.299,0.008C0.228,0.008 0.172,-0.012 0.131,-0.053C0.09,-0.094 0.069,-0.154 0.069,-0.234L0.069,-0.538L0.225,-0.538L0.225,-0.257C0.225,-0.17 0.261,-0.127 0.334,-0.127C0.371,-0.127 0.401,-0.139 0.424,-0.164C0.447,-0.188 0.458,-0.224 0.458,-0.272L0.458,-0.538L0.614,-0.538Z" style="fill:white;fill-rule:nonzero;"/>
        </g>
        <g transform="matrix(34.6361,0,0,34.6361,465.875,124.7)">
            <path d="M0.414,-0L0.296,-0.165L0.174,-0L0.004,-0L0.211,-0.271L0.011,-0.538L0.186,-0.538L0.3,-0.381L0.417,-0.538L0.583,-0.538L0.383,-0.275L0.591,-0L0.414,-0Z" style="fill:white;fill-rule:nonzero;"/>
        </g>
        <g transform="matrix(34.6361,0,0,34.6361,97,197.943)">
            <rect x="0.06" y="-0.302" width="0.262" height="0.062" style="fill:white;fill-rule:nonzero;"/>
        </g>
        <g transform="matrix(34.6361,0,0,34.6361,119.306,197.943)">
            <path d="M1.075,-0.7L0.839,-0L0.761,-0L0.556,-0.597L0.35,-0L0.273,-0L0.037,-0.7L0.113,-0.7L0.315,-0.098L0.524,-0.7L0.593,-0.7L0.799,-0.095L1.004,-0.7L1.075,-0.7Z" style="fill:white;fill-rule:nonzero;"/>
        </g>
        <g transform="matrix(34.6361,0,0,34.6361,155.881,197.943)">
            <path d="M0.557,-0.241L0.117,-0.241C0.121,-0.186 0.142,-0.142 0.18,-0.109C0.218,-0.075 0.266,-0.058 0.324,-0.058C0.357,-0.058 0.387,-0.064 0.414,-0.076C0.441,-0.087 0.465,-0.104 0.485,-0.127L0.525,-0.081C0.502,-0.053 0.472,-0.032 0.438,-0.017C0.403,-0.002 0.364,0.005 0.322,0.005C0.268,0.005 0.22,-0.007 0.179,-0.029C0.137,-0.053 0.104,-0.084 0.081,-0.125C0.058,-0.166 0.046,-0.212 0.046,-0.263C0.046,-0.314 0.057,-0.36 0.08,-0.401C0.102,-0.442 0.133,-0.473 0.172,-0.496C0.211,-0.519 0.254,-0.53 0.303,-0.53C0.352,-0.53 0.395,-0.519 0.434,-0.496C0.473,-0.473 0.503,-0.442 0.525,-0.402C0.547,-0.361 0.558,-0.315 0.558,-0.263L0.557,-0.241ZM0.303,-0.469C0.252,-0.469 0.21,-0.453 0.175,-0.421C0.141,-0.388 0.122,-0.346 0.117,-0.294L0.49,-0.294C0.485,-0.346 0.466,-0.388 0.432,-0.421C0.397,-0.453 0.354,-0.469 0.303,-0.469Z" style="fill:white;fill-rule:nonzero;"/>
        </g>
        <g transform="matrix(34.6361,0,0,34.6361,176.802,197.943)">
            <path d="M0.37,-0.53C0.419,-0.53 0.464,-0.519 0.504,-0.497C0.544,-0.474 0.575,-0.443 0.598,-0.402C0.621,-0.361 0.632,-0.315 0.632,-0.263C0.632,-0.211 0.621,-0.165 0.598,-0.124C0.575,-0.083 0.544,-0.052 0.504,-0.029C0.464,-0.006 0.419,0.005 0.37,0.005C0.326,0.005 0.286,-0.004 0.252,-0.023C0.217,-0.042 0.188,-0.069 0.167,-0.104L0.167,-0L0.099,-0L0.099,-0.742L0.17,-0.742L0.17,-0.426C0.192,-0.46 0.22,-0.486 0.255,-0.503C0.289,-0.521 0.327,-0.53 0.37,-0.53ZM0.365,-0.058C0.402,-0.058 0.435,-0.067 0.465,-0.084C0.495,-0.101 0.519,-0.125 0.536,-0.156C0.553,-0.187 0.561,-0.223 0.561,-0.263C0.561,-0.303 0.553,-0.339 0.536,-0.37C0.519,-0.401 0.495,-0.426 0.465,-0.443C0.435,-0.46 0.402,-0.468 0.365,-0.468C0.328,-0.468 0.294,-0.46 0.265,-0.443C0.235,-0.426 0.212,-0.401 0.195,-0.37C0.178,-0.339 0.169,-0.303 0.169,-0.263C0.169,-0.223 0.178,-0.187 0.195,-0.156C0.212,-0.125 0.235,-0.101 0.265,-0.084C0.294,-0.067 0.328,-0.058 0.365,-0.058Z" style="fill:white;fill-rule:nonzero;"/>
        </g>
        <g transform="matrix(34.6361,0,0,34.6361,209.36,197.943)">
            <path d="M0.114,-0.7L0.399,-0.7C0.473,-0.7 0.538,-0.685 0.595,-0.656C0.652,-0.626 0.696,-0.585 0.727,-0.532C0.758,-0.478 0.774,-0.418 0.774,-0.35C0.774,-0.282 0.758,-0.222 0.727,-0.169C0.696,-0.116 0.652,-0.074 0.595,-0.045C0.538,-0.015 0.473,-0 0.399,-0L0.114,-0L0.114,-0.7ZM0.395,-0.064C0.456,-0.064 0.51,-0.076 0.556,-0.101C0.602,-0.125 0.638,-0.159 0.663,-0.202C0.688,-0.245 0.701,-0.294 0.701,-0.35C0.701,-0.406 0.688,-0.456 0.663,-0.499C0.638,-0.542 0.602,-0.575 0.556,-0.6C0.51,-0.624 0.456,-0.636 0.395,-0.636L0.188,-0.636L0.188,-0.064L0.395,-0.064Z" style="fill:white;fill-rule:nonzero;"/>
        </g>
        <g transform="matrix(34.6361,0,0,34.6361,237.969,197.943)">
            <path d="M0.557,-0.241L0.117,-0.241C0.121,-0.186 0.142,-0.142 0.18,-0.109C0.218,-0.075 0.266,-0.058 0.324,-0.058C0.357,-0.058 0.387,-0.064 0.414,-0.076C0.441,-0.087 0.465,-0.104 0.485,-0.127L0.525,-0.081C0.502,-0.053 0.472,-0.032 0.438,-0.017C0.403,-0.002 0.364,0.005 0.322,0.005C0.268,0.005 0.22,-0.007 0.179,-0.029C0.137,-0.053 0.104,-0.084 0.081,-0.125C0.058,-0.166 0.046,-0.212 0.046,-0.263C0.046,-0.314 0.057,-0.36 0.08,-0.401C0.102,-0.442 0.133,-0.473 0.172,-0.496C0.211,-0.519 0.254,-0.53 0.303,-0.53C0.352,-0.53 0.395,-0.519 0.434,-0.496C0.473,-0.473 0.503,-0.442 0.525,-0.402C0.547,-0.361 0.558,-0.315 0.558,-0.263L0.557,-0.241ZM0.303,-0.469C0.252,-0.469 0.21,-0.453 0.175,-0.421C0.141,-0.388 0.122,-0.346 0.117,-0.294L0.49,-0.294C0.485,-0.346 0.466,-0.388 0.432,-0.421C0.397,-0.453 0.354,-0.469 0.303,-0.469Z" style="fill:white;fill-rule:nonzero;"/>
        </g>
        <g transform="matrix(34.6361,0,0,34.6361,258.543,197.943)">
            <path d="M0.541,-0.526L0.307,-0L0.234,-0L0.001,-0.526L0.075,-0.526L0.272,-0.078L0.471,-0.526L0.541,-0.526Z" style="fill:white;fill-rule:nonzero;"/>
        </g>
        <g transform="matrix(34.6361,0,0,34.6361,276.796,197.943)">
            <path d="M0.557,-0.241L0.117,-0.241C0.121,-0.186 0.142,-0.142 0.18,-0.109C0.218,-0.075 0.266,-0.058 0.324,-0.058C0.357,-0.058 0.387,-0.064 0.414,-0.076C0.441,-0.087 0.465,-0.104 0.485,-0.127L0.525,-0.081C0.502,-0.053 0.472,-0.032 0.438,-0.017C0.403,-0.002 0.364,0.005 0.322,0.005C0.268,0.005 0.22,-0.007 0.179,-0.029C0.137,-0.053 0.104,-0.084 0.081,-0.125C0.058,-0.166 0.046,-0.212 0.046,-0.263C0.046,-0.314 0.057,-0.36 0.08,-0.401C0.102,-0.442 0.133,-0.473 0.172,-0.496C0.211,-0.519 0.254,-0.53 0.303,-0.53C0.352,-0.53 0.395,-0.519 0.434,-0.496C0.473,-0.473 0.503,-0.442 0.525,-0.402C0.547,-0.361 0.558,-0.315 0.558,-0.263L0.557,-0.241ZM0.303,-0.469C0.252,-0.469 0.21,-0.453 0.175,-0.421C0.141,-0.388 0.122,-0.346 0.117,-0.294L0.49,-0.294C0.485,-0.346 0.466,-0.388 0.432,-0.421C0.397,-0.453 0.354,-0.469 0.303,-0.469Z" style="fill:white;fill-rule:nonzero;"/>
        </g>
        <g transform="matrix(34.6361,0,0,34.6361,297.716,197.943)">
            <rect x="0.099" y="-0.742" width="0.071" height="0.742" style="fill:white;fill-rule:nonzero;"/>
        </g>
        <g transform="matrix(34.6361,0,0,34.6361,307.033,197.943)">
            <path d="M0.314,0.005C0.263,0.005 0.218,-0.007 0.177,-0.029C0.136,-0.053 0.104,-0.084 0.081,-0.125C0.058,-0.166 0.046,-0.212 0.046,-0.263C0.046,-0.314 0.058,-0.36 0.081,-0.401C0.104,-0.442 0.136,-0.473 0.177,-0.496C0.218,-0.519 0.263,-0.53 0.314,-0.53C0.365,-0.53 0.41,-0.519 0.451,-0.496C0.492,-0.473 0.524,-0.442 0.547,-0.401C0.57,-0.36 0.581,-0.314 0.581,-0.263C0.581,-0.212 0.57,-0.166 0.547,-0.125C0.524,-0.084 0.492,-0.053 0.451,-0.029C0.41,-0.007 0.365,0.005 0.314,0.005ZM0.314,-0.058C0.351,-0.058 0.385,-0.067 0.414,-0.084C0.444,-0.101 0.467,-0.125 0.484,-0.156C0.501,-0.187 0.509,-0.223 0.509,-0.263C0.509,-0.303 0.501,-0.339 0.484,-0.37C0.467,-0.401 0.444,-0.426 0.414,-0.443C0.385,-0.46 0.351,-0.468 0.314,-0.468C0.277,-0.468 0.243,-0.46 0.214,-0.443C0.184,-0.426 0.161,-0.401 0.143,-0.37C0.127,-0.339 0.118,-0.303 0.118,-0.263C0.118,-0.223 0.127,-0.187 0.143,-0.156C0.161,-0.125 0.184,-0.101 0.214,-0.084C0.243,-0.067 0.277,-0.058 0.314,-0.058Z" style="fill:white;fill-rule:nonzero;"/>
        </g>
        <g transform="matrix(34.6361,0,0,34.6361,328.75,197.943)">
            <path d="M0.37,-0.53C0.419,-0.53 0.464,-0.519 0.504,-0.497C0.544,-0.474 0.575,-0.443 0.598,-0.402C0.621,-0.361 0.632,-0.315 0.632,-0.263C0.632,-0.21 0.621,-0.164 0.598,-0.123C0.575,-0.082 0.544,-0.051 0.504,-0.029C0.465,-0.006 0.42,0.005 0.37,0.005C0.327,0.005 0.289,-0.004 0.255,-0.021C0.22,-0.039 0.192,-0.065 0.17,-0.099L0.17,0.194L0.099,0.194L0.099,-0.526L0.167,-0.526L0.167,-0.422C0.188,-0.457 0.217,-0.483 0.252,-0.502C0.286,-0.521 0.326,-0.53 0.37,-0.53ZM0.365,-0.058C0.402,-0.058 0.435,-0.067 0.465,-0.084C0.495,-0.101 0.519,-0.125 0.536,-0.156C0.553,-0.187 0.561,-0.223 0.561,-0.263C0.561,-0.303 0.553,-0.339 0.536,-0.37C0.519,-0.401 0.495,-0.425 0.465,-0.442C0.435,-0.459 0.402,-0.468 0.365,-0.468C0.328,-0.468 0.294,-0.459 0.265,-0.442C0.235,-0.425 0.212,-0.401 0.195,-0.37C0.178,-0.339 0.169,-0.303 0.169,-0.263C0.169,-0.223 0.178,-0.187 0.195,-0.156C0.212,-0.125 0.235,-0.101 0.265,-0.084C0.294,-0.067 0.328,-0.058 0.365,-0.058Z" style="fill:white;fill-rule:nonzero;"/>
        </g>
        <g transform="matrix(34.6361,0,0,34.6361,352.234,197.943)">
            <path d="M0.557,-0.241L0.117,-0.241C0.121,-0.186 0.142,-0.142 0.18,-0.109C0.218,-0.075 0.266,-0.058 0.324,-0.058C0.357,-0.058 0.387,-0.064 0.414,-0.076C0.441,-0.087 0.465,-0.104 0.485,-0.127L0.525,-0.081C0.502,-0.053 0.472,-0.032 0.438,-0.017C0.403,-0.002 0.364,0.005 0.322,0.005C0.268,0.005 0.22,-0.007 0.179,-0.029C0.137,-0.053 0.104,-0.084 0.081,-0.125C0.058,-0.166 0.046,-0.212 0.046,-0.263C0.046,-0.314 0.057,-0.36 0.08,-0.401C0.102,-0.442 0.133,-0.473 0.172,-0.496C0.211,-0.519 0.254,-0.53 0.303,-0.53C0.352,-0.53 0.395,-0.519 0.434,-0.496C0.473,-0.473 0.503,-0.442 0.525,-0.402C0.547,-0.361 0.558,-0.315 0.558,-0.263L0.557,-0.241ZM0.303,-0.469C0.252,-0.469 0.21,-0.453 0.175,-0.421C0.141,-0.388 0.122,-0.346 0.117,-0.294L0.49,-0.294C0.485,-0.346 0.466,-0.388 0.432,-0.421C0.397,-0.453 0.354,-0.469 0.303,-0.469Z" style="fill:white;fill-rule:nonzero;"/>
        </g>
        <g transform="matrix(34.6361,0,0,34.6361,373.154,197.943)">
            <path d="M0.167,-0.423C0.184,-0.458 0.209,-0.485 0.242,-0.503C0.275,-0.521 0.315,-0.53 0.364,-0.53L0.364,-0.461L0.347,-0.462C0.292,-0.462 0.248,-0.445 0.217,-0.411C0.186,-0.377 0.17,-0.329 0.17,-0.268L0.17,-0L0.099,-0L0.099,-0.526L0.167,-0.526L0.167,-0.423Z" style="fill:white;fill-rule:nonzero;"/>
        </g>
        <g transform="matrix(34.6361,0,0,34.6361,97,234.565)">
            <rect x="0.06" y="-0.302" width="0.262" height="0.062" style="fill:white;fill-rule:nonzero;"/>
        </g>
        <g transform="matrix(34.6361,0,0,34.6361,119.306,234.565)">
            <path d="M0.607,-0.35L0.678,-0.35L0.678,-0.083C0.645,-0.054 0.607,-0.032 0.562,-0.017C0.517,-0.002 0.47,0.006 0.421,0.006C0.351,0.006 0.288,-0.009 0.232,-0.04C0.176,-0.071 0.132,-0.113 0.1,-0.168C0.068,-0.222 0.052,-0.283 0.052,-0.35C0.052,-0.417 0.068,-0.478 0.1,-0.533C0.132,-0.587 0.176,-0.629 0.232,-0.66C0.288,-0.691 0.351,-0.706 0.422,-0.706C0.475,-0.706 0.524,-0.698 0.569,-0.681C0.614,-0.664 0.651,-0.638 0.682,-0.605L0.636,-0.558C0.581,-0.613 0.51,-0.64 0.425,-0.64C0.368,-0.64 0.317,-0.627 0.272,-0.603C0.226,-0.578 0.19,-0.543 0.164,-0.499C0.138,-0.454 0.125,-0.405 0.125,-0.35C0.125,-0.295 0.138,-0.246 0.164,-0.202C0.19,-0.158 0.226,-0.123 0.271,-0.098C0.316,-0.073 0.367,-0.06 0.424,-0.06C0.496,-0.06 0.557,-0.078 0.607,-0.114L0.607,-0.35Z" style="fill:white;fill-rule:nonzero;"/>
        </g>
        <g transform="matrix(34.6361,0,0,34.6361,146.079,234.565)">
            <path d="M0.167,-0.423C0.184,-0.458 0.209,-0.485 0.242,-0.503C0.275,-0.521 0.315,-0.53 0.364,-0.53L0.364,-0.461L0.347,-0.462C0.292,-0.462 0.248,-0.445 0.217,-0.411C0.186,-0.377 0.17,-0.329 0.17,-0.268L0.17,-0L0.099,-0L0.099,-0.526L0.167,-0.526L0.167,-0.423Z" style="fill:white;fill-rule:nonzero;"/>
        </g>
        <g transform="matrix(34.6361,0,0,34.6361,159.657,234.565)">
            <path d="M0.283,-0.53C0.352,-0.53 0.404,-0.513 0.441,-0.478C0.478,-0.444 0.496,-0.393 0.496,-0.326L0.496,-0L0.428,-0L0.428,-0.082C0.412,-0.055 0.389,-0.033 0.358,-0.018C0.327,-0.003 0.29,0.005 0.247,0.005C0.188,0.005 0.142,-0.009 0.107,-0.037C0.072,-0.065 0.055,-0.102 0.055,-0.148C0.055,-0.193 0.071,-0.229 0.103,-0.256C0.136,-0.283 0.187,-0.297 0.258,-0.297L0.425,-0.297L0.425,-0.329C0.425,-0.374 0.412,-0.409 0.387,-0.433C0.362,-0.456 0.325,-0.468 0.276,-0.468C0.243,-0.468 0.211,-0.463 0.18,-0.452C0.149,-0.441 0.123,-0.425 0.101,-0.406L0.069,-0.459C0.096,-0.482 0.128,-0.499 0.165,-0.511C0.202,-0.524 0.242,-0.53 0.283,-0.53ZM0.258,-0.051C0.298,-0.051 0.332,-0.06 0.361,-0.079C0.39,-0.097 0.411,-0.123 0.425,-0.158L0.425,-0.244L0.26,-0.244C0.17,-0.244 0.125,-0.213 0.125,-0.15C0.125,-0.119 0.137,-0.095 0.16,-0.078C0.183,-0.06 0.216,-0.051 0.258,-0.051Z" style="fill:white;fill-rule:nonzero;"/>
        </g>
        <g transform="matrix(34.6361,0,0,34.6361,180.092,234.565)">
            <path d="M0.37,-0.53C0.419,-0.53 0.464,-0.519 0.504,-0.497C0.544,-0.474 0.575,-0.443 0.598,-0.402C0.621,-0.361 0.632,-0.315 0.632,-0.263C0.632,-0.21 0.621,-0.164 0.598,-0.123C0.575,-0.082 0.544,-0.051 0.504,-0.029C0.465,-0.006 0.42,0.005 0.37,0.005C0.327,0.005 0.289,-0.004 0.255,-0.021C0.22,-0.039 0.192,-0.065 0.17,-0.099L0.17,0.194L0.099,0.194L0.099,-0.526L0.167,-0.526L0.167,-0.422C0.188,-0.457 0.217,-0.483 0.252,-0.502C0.286,-0.521 0.326,-0.53 0.37,-0.53ZM0.365,-0.058C0.402,-0.058 0.435,-0.067 0.465,-0.084C0.495,-0.101 0.519,-0.125 0.536,-0.156C0.553,-0.187 0.561,-0.223 0.561,-0.263C0.561,-0.303 0.553,-0.339 0.536,-0.37C0.519,-0.401 0.495,-0.425 0.465,-0.442C0.435,-0.459 0.402,-0.468 0.365,-0.468C0.328,-0.468 0.294,-0.459 0.265,-0.442C0.235,-0.425 0.212,-0.401 0.195,-0.37C0.178,-0.339 0.169,-0.303 0.169,-0.263C0.169,-0.223 0.178,-0.187 0.195,-0.156C0.212,-0.125 0.235,-0.101 0.265,-0.084C0.294,-0.067 0.328,-0.058 0.365,-0.058Z" style="fill:white;fill-rule:nonzero;"/>
        </g>
        <g transform="matrix(34.6361,0,0,34.6361,203.575,234.565)">
            <path d="M0.367,-0.53C0.433,-0.53 0.486,-0.511 0.525,-0.472C0.564,-0.434 0.583,-0.378 0.583,-0.305L0.583,-0L0.512,-0L0.512,-0.298C0.512,-0.353 0.498,-0.394 0.471,-0.423C0.444,-0.452 0.405,-0.466 0.354,-0.466C0.297,-0.466 0.253,-0.449 0.22,-0.416C0.187,-0.382 0.17,-0.335 0.17,-0.276L0.17,-0L0.099,-0L0.099,-0.742L0.17,-0.742L0.17,-0.434C0.189,-0.465 0.216,-0.488 0.25,-0.505C0.284,-0.522 0.323,-0.53 0.367,-0.53Z" style="fill:white;fill-rule:nonzero;"/>
        </g>
        <g transform="matrix(34.6361,0,0,34.6361,227.024,234.565)">
            <path d="M0.099,-0.526L0.17,-0.526L0.17,-0L0.099,-0L0.099,-0.526ZM0.135,-0.641C0.12,-0.641 0.108,-0.646 0.098,-0.656C0.088,-0.666 0.083,-0.678 0.083,-0.692C0.083,-0.705 0.088,-0.717 0.098,-0.727C0.108,-0.737 0.12,-0.742 0.135,-0.742C0.15,-0.742 0.162,-0.737 0.172,-0.728C0.182,-0.718 0.187,-0.706 0.187,-0.693C0.187,-0.678 0.182,-0.666 0.172,-0.656C0.162,-0.646 0.15,-0.641 0.135,-0.641Z" style="fill:white;fill-rule:nonzero;"/>
        </g>
        <g transform="matrix(34.6361,0,0,34.6361,236.341,234.565)">
            <path d="M0.317,0.005C0.265,0.005 0.219,-0.006 0.178,-0.029C0.137,-0.052 0.104,-0.084 0.081,-0.125C0.058,-0.166 0.046,-0.212 0.046,-0.263C0.046,-0.314 0.058,-0.36 0.081,-0.401C0.104,-0.442 0.137,-0.473 0.178,-0.496C0.219,-0.519 0.265,-0.53 0.317,-0.53C0.362,-0.53 0.403,-0.521 0.439,-0.503C0.474,-0.486 0.502,-0.46 0.523,-0.426L0.47,-0.39C0.453,-0.416 0.431,-0.436 0.404,-0.449C0.377,-0.462 0.348,-0.468 0.317,-0.468C0.279,-0.468 0.245,-0.46 0.215,-0.443C0.184,-0.426 0.161,-0.401 0.143,-0.37C0.127,-0.339 0.118,-0.303 0.118,-0.263C0.118,-0.222 0.127,-0.187 0.143,-0.156C0.161,-0.125 0.184,-0.101 0.215,-0.084C0.245,-0.067 0.279,-0.058 0.317,-0.058C0.348,-0.058 0.377,-0.064 0.404,-0.077C0.431,-0.09 0.453,-0.109 0.47,-0.135L0.523,-0.099C0.502,-0.065 0.474,-0.039 0.438,-0.021C0.402,-0.004 0.362,0.005 0.317,0.005Z" style="fill:white;fill-rule:nonzero;"/>
        </g>
        <g transform="matrix(34.6361,0,0,34.6361,264.916,234.565)">
            <path d="M0.114,-0.7L0.399,-0.7C0.473,-0.7 0.538,-0.685 0.595,-0.656C0.652,-0.626 0.696,-0.585 0.727,-0.532C0.758,-0.478 0.774,-0.418 0.774,-0.35C0.774,-0.282 0.758,-0.222 0.727,-0.169C0.696,-0.116 0.652,-0.074 0.595,-0.045C0.538,-0.015 0.473,-0 0.399,-0L0.114,-0L0.114,-0.7ZM0.395,-0.064C0.456,-0.064 0.51,-0.076 0.556,-0.101C0.602,-0.125 0.638,-0.159 0.663,-0.202C0.688,-0.245 0.701,-0.294 0.701,-0.35C0.701,-0.406 0.688,-0.456 0.663,-0.499C0.638,-0.542 0.602,-0.575 0.556,-0.6C0.51,-0.624 0.456,-0.636 0.395,-0.636L0.188,-0.636L0.188,-0.064L0.395,-0.064Z" style="fill:white;fill-rule:nonzero;"/>
        </g>
        <g transform="matrix(34.6361,0,0,34.6361,293.525,234.565)">
            <path d="M0.557,-0.241L0.117,-0.241C0.121,-0.186 0.142,-0.142 0.18,-0.109C0.218,-0.075 0.266,-0.058 0.324,-0.058C0.357,-0.058 0.387,-0.064 0.414,-0.076C0.441,-0.087 0.465,-0.104 0.485,-0.127L0.525,-0.081C0.502,-0.053 0.472,-0.032 0.438,-0.017C0.403,-0.002 0.364,0.005 0.322,0.005C0.268,0.005 0.22,-0.007 0.179,-0.029C0.137,-0.053 0.104,-0.084 0.081,-0.125C0.058,-0.166 0.046,-0.212 0.046,-0.263C0.046,-0.314 0.057,-0.36 0.08,-0.401C0.102,-0.442 0.133,-0.473 0.172,-0.496C0.211,-0.519 0.254,-0.53 0.303,-0.53C0.352,-0.53 0.395,-0.519 0.434,-0.496C0.473,-0.473 0.503,-0.442 0.525,-0.402C0.547,-0.361 0.558,-0.315 0.558,-0.263L0.557,-0.241ZM0.303,-0.469C0.252,-0.469 0.21,-0.453 0.175,-0.421C0.141,-0.388 0.122,-0.346 0.117,-0.294L0.49,-0.294C0.485,-0.346 0.466,-0.388 0.432,-0.421C0.397,-0.453 0.354,-0.469 0.303,-0.469Z" style="fill:white;fill-rule:nonzero;"/>
        </g>
        <g transform="matrix(34.6361,0,0,34.6361,314.446,234.565)">
            <path d="M0.24,0.005C0.197,0.005 0.157,-0.001 0.117,-0.014C0.079,-0.026 0.048,-0.041 0.026,-0.06L0.058,-0.116C0.08,-0.099 0.108,-0.085 0.141,-0.074C0.174,-0.063 0.209,-0.057 0.245,-0.057C0.293,-0.057 0.329,-0.065 0.352,-0.08C0.375,-0.095 0.386,-0.116 0.386,-0.143C0.386,-0.162 0.38,-0.178 0.367,-0.189C0.354,-0.2 0.338,-0.208 0.319,-0.214C0.3,-0.219 0.274,-0.225 0.242,-0.23C0.199,-0.238 0.165,-0.246 0.139,-0.255C0.113,-0.263 0.091,-0.277 0.073,-0.297C0.054,-0.317 0.045,-0.345 0.045,-0.38C0.045,-0.424 0.063,-0.46 0.1,-0.488C0.137,-0.516 0.188,-0.53 0.253,-0.53C0.287,-0.53 0.321,-0.526 0.355,-0.517C0.389,-0.507 0.417,-0.496 0.439,-0.481L0.408,-0.424C0.365,-0.454 0.313,-0.469 0.253,-0.469C0.208,-0.469 0.173,-0.461 0.151,-0.445C0.128,-0.429 0.116,-0.408 0.116,-0.382C0.116,-0.362 0.123,-0.346 0.136,-0.334C0.149,-0.322 0.165,-0.313 0.184,-0.308C0.203,-0.302 0.23,-0.296 0.264,-0.29C0.306,-0.282 0.34,-0.274 0.365,-0.266C0.39,-0.258 0.412,-0.244 0.43,-0.225C0.448,-0.206 0.457,-0.179 0.457,-0.145C0.457,-0.099 0.438,-0.063 0.4,-0.035C0.361,-0.009 0.308,0.005 0.24,0.005Z" style="fill:white;fill-rule:nonzero;"/>
        </g>
        <g transform="matrix(34.6361,0,0,34.6361,331.383,234.565)">
            <path d="M0.099,-0.526L0.17,-0.526L0.17,-0L0.099,-0L0.099,-0.526ZM0.135,-0.641C0.12,-0.641 0.108,-0.646 0.098,-0.656C0.088,-0.666 0.083,-0.678 0.083,-0.692C0.083,-0.705 0.088,-0.717 0.098,-0.727C0.108,-0.737 0.12,-0.742 0.135,-0.742C0.15,-0.742 0.162,-0.737 0.172,-0.728C0.182,-0.718 0.187,-0.706 0.187,-0.693C0.187,-0.678 0.182,-0.666 0.172,-0.656C0.162,-0.646 0.15,-0.641 0.135,-0.641Z" style="fill:white;fill-rule:nonzero;"/>
        </g>
        <g transform="matrix(34.6361,0,0,34.6361,340.7,234.565)">
            <path d="M0.586,-0.526L0.586,-0.064C0.586,0.025 0.564,0.091 0.521,0.134C0.477,0.177 0.411,0.199 0.323,0.199C0.274,0.199 0.228,0.192 0.185,0.177C0.141,0.163 0.105,0.143 0.078,0.118L0.114,0.064C0.139,0.087 0.17,0.104 0.206,0.117C0.243,0.13 0.281,0.136 0.321,0.136C0.388,0.136 0.437,0.12 0.468,0.089C0.499,0.058 0.515,0.01 0.515,-0.055L0.515,-0.122C0.493,-0.089 0.464,-0.063 0.429,-0.046C0.393,-0.029 0.353,-0.02 0.31,-0.02C0.261,-0.02 0.216,-0.031 0.175,-0.053C0.135,-0.074 0.103,-0.105 0.081,-0.143C0.058,-0.183 0.046,-0.227 0.046,-0.276C0.046,-0.325 0.058,-0.369 0.081,-0.408C0.103,-0.447 0.135,-0.477 0.175,-0.498C0.215,-0.519 0.26,-0.53 0.31,-0.53C0.355,-0.53 0.395,-0.521 0.431,-0.503C0.467,-0.485 0.496,-0.459 0.518,-0.425L0.518,-0.526L0.586,-0.526ZM0.317,-0.083C0.355,-0.083 0.389,-0.091 0.42,-0.108C0.451,-0.124 0.474,-0.147 0.492,-0.176C0.508,-0.205 0.517,-0.239 0.517,-0.276C0.517,-0.313 0.508,-0.346 0.492,-0.376C0.474,-0.405 0.451,-0.427 0.421,-0.444C0.39,-0.46 0.356,-0.468 0.317,-0.468C0.279,-0.468 0.245,-0.46 0.215,-0.444C0.184,-0.428 0.161,-0.405 0.143,-0.376C0.127,-0.347 0.118,-0.313 0.118,-0.276C0.118,-0.239 0.127,-0.205 0.143,-0.176C0.161,-0.147 0.184,-0.124 0.215,-0.108C0.245,-0.091 0.279,-0.083 0.317,-0.083Z" style="fill:white;fill-rule:nonzero;"/>
        </g>
        <g transform="matrix(34.6361,0,0,34.6361,364.46,234.565)">
            <path d="M0.367,-0.53C0.433,-0.53 0.486,-0.511 0.525,-0.472C0.564,-0.434 0.583,-0.378 0.583,-0.305L0.583,-0L0.512,-0L0.512,-0.298C0.512,-0.353 0.498,-0.394 0.471,-0.423C0.444,-0.452 0.405,-0.466 0.354,-0.466C0.297,-0.466 0.253,-0.449 0.22,-0.416C0.187,-0.382 0.17,-0.335 0.17,-0.276L0.17,-0L0.099,-0L0.099,-0.526L0.167,-0.526L0.167,-0.429C0.186,-0.461 0.213,-0.486 0.248,-0.503C0.282,-0.521 0.322,-0.53 0.367,-0.53Z" style="fill:white;fill-rule:nonzero;"/>
        </g>
        <g transform="matrix(34.6361,0,0,34.6361,387.978,234.565)">
            <path d="M0.557,-0.241L0.117,-0.241C0.121,-0.186 0.142,-0.142 0.18,-0.109C0.218,-0.075 0.266,-0.058 0.324,-0.058C0.357,-0.058 0.387,-0.064 0.414,-0.076C0.441,-0.087 0.465,-0.104 0.485,-0.127L0.525,-0.081C0.502,-0.053 0.472,-0.032 0.438,-0.017C0.403,-0.002 0.364,0.005 0.322,0.005C0.268,0.005 0.22,-0.007 0.179,-0.029C0.137,-0.053 0.104,-0.084 0.081,-0.125C0.058,-0.166 0.046,-0.212 0.046,-0.263C0.046,-0.314 0.057,-0.36 0.08,-0.401C0.102,-0.442 0.133,-0.473 0.172,-0.496C0.211,-0.519 0.254,-0.53 0.303,-0.53C0.352,-0.53 0.395,-0.519 0.434,-0.496C0.473,-0.473 0.503,-0.442 0.525,-0.402C0.547,-0.361 0.558,-0.315 0.558,-0.263L0.557,-0.241ZM0.303,-0.469C0.252,-0.469 0.21,-0.453 0.175,-0.421C0.141,-0.388 0.122,-0.346 0.117,-0.294L0.49,-0.294C0.485,-0.346 0.466,-0.388 0.432,-0.421C0.397,-0.453 0.354,-0.469 0.303,-0.469Z" style="fill:white;fill-rule:nonzero;"/>
        </g>
        <g transform="matrix(34.6361,0,0,34.6361,408.898,234.565)">
            <path d="M0.167,-0.423C0.184,-0.458 0.209,-0.485 0.242,-0.503C0.275,-0.521 0.315,-0.53 0.364,-0.53L0.364,-0.461L0.347,-0.462C0.292,-0.462 0.248,-0.445 0.217,-0.411C0.186,-0.377 0.17,-0.329 0.17,-0.268L0.17,-0L0.099,-0L0.099,-0.526L0.167,-0.526L0.167,-0.423Z" style="fill:white;fill-rule:nonzero;"/>
        </g>
        <g transform="matrix(34.6361,0,0,34.6361,97,307.808)">
            <path d="M0.505,-0.383L0.505,-0.317L0.07,-0.143L0.07,-0.205L0.438,-0.35L0.07,-0.495L0.07,-0.558L0.505,-0.383Z" style="fill:white;fill-rule:nonzero;"/>
        </g>
        <g transform="matrix(34.6361,0,0,34.6361,116.916,307.808)">
            <rect x="0" y="-0" width="0.5" height="0.048" style="fill:white;fill-rule:nonzero;"/>
        </g>
    </g>
    <defs>
        <linearGradient id="_Linear1" x1="0" y1="0" x2="1" y2="0" gradientUnits="userSpaceOnUse" gradientTransform="matrix(340.3,235.54,-235.54,340.3,147.44,116.71)"><stop offset="0" style="stop-color:rgb(153,153,153);stop-opacity:1"/><stop offset="1" style="stop-color:rgb(77,77,77);stop-opacity:1"/></linearGradient>
        <linearGradient id="_Linear2" x1="0" y1="0" x2="1" y2="0" gradientUnits="userSpaceOnUse" gradientTransform="matrix(-337.34,-87.27,87.27,-337.34,491.5,282.9)"><stop offset="0" style="stop-color:rgb(153,153,153);stop-opacity:1"/><stop offset="1" style="stop-color:rgb(102,102,102);stop-opacity:1"/></linearGradient>
        <linearGradient id="_Linear3" x1="0" y1="0" x2="1" y2="0" gradientUnits="userSpaceOnUse" gradientTransform="matrix(469.47,-15.22,15.22,469.47,85.97,362.89)"><stop offset="0" style="stop-color:rgb(102,102,102);stop-opacity:1"/><stop offset="0.3" style="stop-color:rgb(99,99,99);stop-opacity:1"/><stop offset="0.56" style="stop-color:rgb(88,88,88);stop-opacity:1"/><stop offset="0.81" style="stop-color:rgb(70,70,70);stop-opacity:1"/><stop offset="1" style="stop-color:rgb(51,51,51);stop-opacity:1"/></linearGradient>
        <linearGradient id="_Linear4" x1="0" y1="0" x2="1" y2="0" gradientUnits="userSpaceOnUse" gradientTransform="matrix(474.4,0,0,474.4,82.8,348.21)"><stop offset="0" style="stop-color:rgb(102,102,102);stop-opacity:1"/><stop offset="0" style="stop-color:rgb(119,119,119);stop-opacity:1"/><stop offset="0.01" style="stop-color:rgb(153,153,153);stop-opacity:1"/><stop offset="0.01" style="stop-color:rgb(181,181,181);stop-opacity:1"/><stop offset="0.02" style="stop-color:rgb(203,203,203);stop-opacity:1"/><stop offset="0.02" style="stop-color:rgb(218,218,218);stop-opacity:1"/><stop offset="0.03" style="stop-color:rgb(227,227,227);stop-opacity:1"/><stop offset="0.04" style="stop-color:rgb(230,230,230);stop-opacity:1"/><stop offset="0.05" style="stop-color:rgb(212,212,212);stop-opacity:1"/><stop offset="0.07" style="stop-color:rgb(190,190,190);stop-opacity:1"/><stop offset="0.09" style="stop-color:rgb(173,173,173);stop-opacity:1"/><stop offset="0.12" style="stop-color:rgb(162,162,162);stop-opacity:1"/><stop offset="0.26" style="stop-color:rgb(153,153,153);stop-opacity:1"/><stop offset="0.94" style="stop-color:rgb(102,102,102);stop-opacity:1"/><stop offset="0.95" style="stop-color:rgb(122,122,122);stop-opacity:1"/><stop offset="0.98" style="stop-color:rgb(230,230,230);stop-opacity:1"/><stop offset="1" style="stop-color:rgb(51,51,51);stop-opacity:1"/></linearGradient>
        <linearGradient id="_Linear5" x1="0" y1="0" x2="1" y2="0" gradientUnits="userSpaceOnUse" gradientTransform="matrix(21.694,0,0,474.406,309.15,351.827)"><stop offset="0" style="stop-color:black;stop-opacity:0"/><stop offset="1" style="stop-color:black;stop-opacity:1"/></linearGradient>
        <radialGradient id="_Radial7" cx="0" cy="0" r="1" gradientUnits="userSpaceOnUse" gradientTransform="matrix(514,0,0,514,396,281)"><stop offset="0" style="stop-color:rgb(221,17,136);stop-opacity:1"/><stop offset="1" style="stop-color:rgb(51,0,0);stop-opacity:1"/></radialGradient>
        <linearGradient id="_Linear8" x1="0" y1="0" x2="1" y2="0" gradientUnits="userSpaceOnUse" gradientTransform="matrix(1.1328e-14,185,-185,1.1328e-14,400,148)"><stop offset="0" style="stop-color:rgb(255,170,51);stop-opacity:0"/><stop offset="1" style="stop-color:rgb(255,170,51);stop-opacity:0.2"/></linearGradient>
        <linearGradient id="_Linear9" x1="0" y1="0" x2="1" y2="0" gradientUnits="userSpaceOnUse" gradientTransform="matrix(1.1328e-14,185,-185,1.1328e-14,400,148)"><stop offset="0" style="stop-color:rgb(255,170,51);stop-opacity:0"/><stop offset="1" style="stop-color:rgb(255,170,51);stop-opacity:0.2"/></linearGradient>
        <linearGradient id="_Linear10" x1="0" y1="0" x2="1" y2="0" gradientUnits="userSpaceOnUse" gradientTransform="matrix(1.1328e-14,185,-185,1.1328e-14,400,148)"><stop offset="0" style="stop-color:rgb(255,170,51);stop-opacity:0"/><stop offset="1" style="stop-color:rgb(255,170,51);stop-opacity:0.2"/></linearGradient>
    </defs>
</svg>
