<?xml version="1.0" encoding="UTF-8" standalone="no"?>
<!DOCTYPE svg PUBLIC "-//W3C//DTD SVG 1.1//EN" "http://www.w3.org/Graphics/SVG/1.1/DTD/svg11.dtd">
<svg width="100%" height="100%" viewBox="0 0 696 273" version="1.1" xmlns="http://www.w3.org/2000/svg" xmlns:xlink="http://www.w3.org/1999/xlink" xml:space="preserve" xmlns:serif="http://www.serif.com/" style="fill-rule:evenodd;clip-rule:evenodd;stroke-linejoin:round;stroke-miterlimit:2;">
    <g transform="matrix(1,0,0,1,-237,-579.162)">
        <g transform="matrix(258.269,0,0,258.269,237,760)">
            <path d="M0,-0.7L0.318,-0.7L0.377,-0.606L0.377,-0.385L0.33,-0.351L0.377,-0.316L0.377,-0.092L0.319,0L0,0L0,-0.7ZM0.14,-0.603L0.14,-0.407L0.237,-0.407L0.237,-0.603L0.14,-0.603ZM0.14,-0.292L0.14,-0.097L0.237,-0.097L0.237,-0.292L0.14,-0.292Z" style="fill:rgb(107,30,212);fill-rule:nonzero;"/>
        </g>
        <g transform="matrix(258.269,0,0,258.269,346.966,760)">
            <rect x="0" y="-0.7" width="0.14" height="0.7" style="fill:rgb(107,30,212);fill-rule:nonzero;"/>
        </g>
        <g transform="matrix(258.269,0,0,258.269,395.643,760)">
            <path d="M0,-0.7L0.377,-0.7L0.377,-0.412L0.237,-0.412L0.237,-0.603L0.14,-0.603L0.14,-0.096L0.237,-0.096L0.237,-0.218L0.188,-0.218L0.188,-0.314L0.377,-0.314L0.377,0L0,0L0,-0.7Z" style="fill:rgb(107,30,212);fill-rule:nonzero;"/>
        </g>
        <g transform="matrix(258.269,0,0,258.269,505.609,760)">
            <path d="M0,-0.7L0.318,-0.7L0.377,-0.606L0.377,-0.385L0.33,-0.351L0.377,-0.316L0.377,-0.092L0.319,0L0,0L0,-0.7ZM0.14,-0.603L0.14,-0.407L0.237,-0.407L0.237,-0.603L0.14,-0.603ZM0.14,-0.292L0.14,-0.097L0.237,-0.097L0.237,-0.292L0.14,-0.292Z" style="fill:white;fill-rule:nonzero;"/>
        </g>
        <g transform="matrix(258.269,0,0,258.269,615.575,760)">
            <path d="M0,-0.7L0.377,-0.7L0.377,-0L0,-0L0,-0.7ZM0.14,-0.603L0.14,-0.097L0.237,-0.097L0.237,-0.603L0.14,-0.603Z" style="fill:white;fill-rule:nonzero;"/>
        </g>
        <g transform="matrix(258.269,0,0,258.269,725.667,760)">
            <path d="M0,-0.7L0.377,-0.7L0.377,-0.491L0.237,-0.491L0.237,-0.603L0.14,-0.603L0.14,-0.379L0.377,-0.379L0.377,-0L0,-0L0,-0.204L0.14,-0.204L0.14,-0.097L0.237,-0.097L0.237,-0.282L0,-0.282L0,-0.7Z" style="fill:white;fill-rule:nonzero;"/>
        </g>
        <g transform="matrix(258.269,0,0,258.269,835.633,760)">
            <path d="M0,-0.7L0.377,-0.7L0.377,-0.491L0.237,-0.491L0.237,-0.603L0.14,-0.603L0.14,-0.379L0.377,-0.379L0.377,-0L0,-0L0,-0.204L0.14,-0.204L0.14,-0.097L0.237,-0.097L0.237,-0.282L0,-0.282L0,-0.7Z" style="fill:white;fill-rule:nonzero;"/>
        </g>
    </g>
    <g transform="matrix(0.318641,0,0,0.318641,44.7626,30.0434)">
        <g transform="matrix(258.269,0,0,258.269,165.535,760)">
            <rect x="0.024" y="-0.4" width="0.209" height="0.103" style="fill:white;fill-rule:nonzero;"/>
        </g>
        <g transform="matrix(258.269,0,0,258.269,319.361,760)">
            <path d="M0.3,-0.134L0.3,-0.243L0.24,-0.243L0.24,-0.368L0.446,-0.368L0.446,-0L0.024,-0L0.024,-0.706L0.422,-0.706L0.422,-0.572L0.173,-0.572L0.173,-0.134L0.3,-0.134Z" style="fill:white;fill-rule:nonzero;"/>
        </g>
        <g transform="matrix(258.269,0,0,258.269,458.76,760)">
            <path d="M0.173,-0L0.024,-0L0.024,-0.594L0.138,-0.706L0.447,-0.706L0.447,-0L0.299,-0L0.299,-0.232L0.173,-0.232L0.173,-0ZM0.299,-0.366L0.299,-0.572L0.173,-0.572L0.173,-0.366L0.299,-0.366Z" style="fill:white;fill-rule:nonzero;"/>
        </g>
        <g transform="matrix(258.269,0,0,258.269,597.782,760)">
            <path d="M0.391,-0.706L0.562,-0.706L0.562,-0L0.425,-0L0.425,-0.439L0.315,-0L0.271,-0L0.161,-0.439L0.161,-0L0.024,-0L0.024,-0.706L0.195,-0.706L0.293,-0.354L0.391,-0.706Z" style="fill:white;fill-rule:nonzero;"/>
        </g>
        <g transform="matrix(258.269,0,0,258.269,768.203,760)">
            <path d="M0.024,-0.706L0.367,-0.706L0.367,-0.572L0.171,-0.572L0.171,-0.436L0.357,-0.436L0.357,-0.304L0.173,-0.304L0.173,-0.134L0.372,-0.134L0.372,-0L0.024,-0L0.024,-0.706Z" style="fill:white;fill-rule:nonzero;"/>
        </g>
        <g transform="matrix(258.269,0,0,258.269,956.709,760)">
            <path d="M0.413,-0L0.024,-0L0.024,-0.22L0.172,-0.22L0.172,-0.134L0.264,-0.134L0.264,-0.246L0.029,-0.423L0.029,-0.706L0.408,-0.706L0.408,-0.496L0.274,-0.496L0.274,-0.571L0.177,-0.571L0.177,-0.479L0.413,-0.302L0.413,-0Z" style="fill:white;fill-rule:nonzero;"/>
        </g>
        <g transform="matrix(258.269,0,0,258.269,1086.4,760)">
            <path d="M0.445,-0.572L0.312,-0.572L0.312,-0L0.163,-0L0.163,-0.572L0.024,-0.572L0.024,-0.706L0.445,-0.706L0.445,-0.572Z" style="fill:white;fill-rule:nonzero;"/>
        </g>
        <g transform="matrix(258.269,0,0,258.269,1223.4,760)">
            <path d="M0.024,-0.706L0.451,-0.706L0.451,-0L0.024,-0L0.024,-0.706ZM0.173,-0.134L0.303,-0.134L0.303,-0.572L0.173,-0.572L0.173,-0.134Z" style="fill:white;fill-rule:nonzero;"/>
        </g>
        <g transform="matrix(258.269,0,0,258.269,1363.18,760)">
            <path d="M0.299,-0L0.211,-0.255L0.172,-0.255L0.172,-0L0.024,-0L0.024,-0.606L0.132,-0.706L0.434,-0.706L0.434,-0.257L0.354,-0.257L0.448,-0L0.299,-0ZM0.286,-0.388L0.286,-0.572L0.172,-0.572L0.172,-0.388L0.286,-0.388Z" style="fill:white;fill-rule:nonzero;"/>
        </g>
        <g transform="matrix(258.269,0,0,258.269,1499.55,760)">
            <path d="M0.024,-0.706L0.367,-0.706L0.367,-0.572L0.171,-0.572L0.171,-0.436L0.357,-0.436L0.357,-0.304L0.173,-0.304L0.173,-0.134L0.372,-0.134L0.372,-0L0.024,-0L0.024,-0.706Z" style="fill:white;fill-rule:nonzero;"/>
        </g>
        <g transform="matrix(258.269,0,0,258.269,1688.06,760)">
            <rect x="0.024" y="-0.4" width="0.209" height="0.103" style="fill:white;fill-rule:nonzero;"/>
        </g>
    </g>
</svg>
