<?xml version="1.0" encoding="UTF-8" standalone="no"?>
<!DOCTYPE svg PUBLIC "-//W3C//DTD SVG 1.1//EN" "http://www.w3.org/Graphics/SVG/1.1/DTD/svg11.dtd">
<svg width="100%" height="100%" viewBox="0 0 176 126" version="1.1" xmlns="http://www.w3.org/2000/svg" xmlns:xlink="http://www.w3.org/1999/xlink" xml:space="preserve" xmlns:serif="http://www.serif.com/" style="fill-rule:evenodd;clip-rule:evenodd;stroke-linejoin:round;stroke-miterlimit:2;">
    <g transform="matrix(0.181623,0,0,0.181623,1.14031,35.422)">
        <g transform="matrix(1.31807,0,0,1.31807,-611.359,-671.413)">
            <circle cx="618" cy="550" r="23" style="fill:rgb(188,188,188);"/>
        </g>
        <g transform="matrix(5.50591,0,0,5.50591,-6.27844,-195.03)">
            <path d="M159.339,33.615L16.661,33.615L16.661,92.385L159.339,92.385L159.339,33.615ZM83.791,81.57L92.48,81.57L92.48,82.664C92.48,84.198 92.058,85.579 91.214,86.807C90.217,88.264 88.721,89.3 86.726,89.914L85.978,88.705C87.819,88.284 89.181,87.44 90.063,86.174C90.83,85.176 91.195,84.006 91.157,82.664L83.791,82.664L83.791,81.57ZM109.26,86.001C110.41,84.812 111.197,83.124 111.619,80.937L112.827,81.57C112.213,84.025 111.254,85.886 109.95,87.152C108.608,88.456 106.632,89.377 104.023,89.914L103.563,88.648C106.057,88.188 107.955,87.305 109.26,86.001ZM133.379,81.34L133.379,82.434L128.776,82.434L128.776,83.93C128.776,85.426 128.488,86.634 127.913,87.555C127.299,88.59 126.359,89.377 125.093,89.914L124.288,88.878C125.515,88.379 126.378,87.746 126.877,86.979C127.376,86.25 127.625,85.234 127.625,83.93L127.625,82.434L122.849,82.434L122.849,81.34L127.625,81.34L127.625,77.485L128.776,77.485L128.776,81.34L133.379,81.34ZM66.145,81.145C68.178,81.835 69.886,82.583 71.267,83.389L70.518,84.655C70.097,84.348 69.444,83.983 68.562,83.561C67.68,83.139 66.874,82.794 66.145,82.526L66.145,89.315L64.995,89.315L64.995,77.002L66.145,77.002L66.145,81.145ZM48.186,80.684C49.605,79.457 50.66,78.191 51.351,76.887L52.559,77.635C51.945,78.67 51.063,79.725 49.912,80.799L49.912,89.315L48.762,89.315L48.762,81.95C47.304,83.254 45.884,84.233 44.504,84.885L43.755,83.734C45.367,82.928 46.844,81.912 48.186,80.684ZM27.663,76.887L28.814,76.887L28.814,80.742L33.417,80.742L33.417,81.835L28.814,81.835L28.814,83.331C28.814,84.827 28.526,86.036 27.951,86.956C27.339,87.988 26.405,88.772 25.146,89.309L25.131,89.315L24.326,88.28C25.553,87.781 26.416,87.148 26.915,86.381C27.414,85.652 27.663,84.635 27.663,83.331L27.663,81.835L22.887,81.835L22.887,80.742L27.663,80.742L27.663,76.887ZM152.974,83.066L152.974,84.332L142.961,84.332L142.961,83.066L152.974,83.066ZM104.196,78.808C105.5,79.537 106.574,80.343 107.418,81.225L106.44,82.434C105.788,81.59 104.771,80.707 103.391,79.787L104.196,78.808ZM84.827,78.348L91.387,78.348L91.387,79.441L84.827,79.441L84.827,78.348ZM57.079,56.275L57.079,74.229L39.124,74.229L39.124,56.275L57.079,56.275ZM96.977,56.275L96.977,74.229L79.023,74.229L79.023,56.275L96.977,56.275ZM116.926,56.275L116.926,74.229L98.972,74.229L98.972,56.275L116.926,56.275ZM37.129,56.275L37.129,74.229L19.175,74.229L19.175,56.275L37.129,56.275ZM77.028,56.275L77.028,74.229L59.074,74.229L59.074,56.275L77.028,56.275ZM136.876,56.275L136.876,74.229L118.921,74.229L118.921,56.275L136.876,56.275ZM156.825,56.275L156.825,74.229L138.871,74.229L138.871,56.275L156.825,56.275ZM30.677,70.239L33.14,70.239L29.617,66.249L33.14,66.249L33.14,60.265L23.165,60.265L23.165,70.239L25.16,70.239L25.16,66.249L27.155,66.249L30.677,70.239ZM152.835,60.265L142.86,60.265L142.86,66.249L150.84,66.249L150.84,68.244L142.86,68.244L142.86,70.239L152.835,70.239L152.835,64.255L144.855,64.255L144.855,62.26L152.835,62.26L152.835,60.265ZM65.058,70.239L65.058,63.382L71.043,70.239L73.038,70.239L73.038,60.265L71.043,60.265L71.043,67.34L65.058,60.265L63.063,60.265L63.063,70.239L65.058,70.239ZM85.008,70.239L85.008,63.382L90.992,70.239L92.987,70.239L92.987,60.265L90.992,60.265L90.992,67.34L85.008,60.265L83.013,60.265L83.013,70.239L85.008,70.239ZM130.423,70.239L132.886,70.239L129.364,66.249L132.886,66.249L132.886,60.265L122.911,60.265L122.911,70.239L124.906,70.239L124.906,66.249L126.901,66.249L130.423,70.239ZM43.114,60.265L43.114,70.239L53.089,70.239L53.089,60.265L51.094,60.265L51.094,68.244L45.109,68.244L45.109,60.265L43.114,60.265ZM104.957,62.26L112.937,62.26L112.937,60.265L102.962,60.265L102.962,70.239L112.937,70.239L112.937,68.244L104.957,68.244L104.957,66.249L110.942,66.249L110.942,64.255L104.957,64.255L104.957,62.26ZM31.145,62.26L31.145,64.255L25.16,64.255L25.16,62.26L31.145,62.26ZM130.891,62.26L130.891,64.255L124.906,64.255L124.906,62.26L130.891,62.26ZM56.919,36.086L19.175,36.086L19.175,54.12L56.919,54.12L56.919,36.086ZM116.926,36.166L116.926,54.12L98.972,54.12L98.972,36.166L116.926,36.166ZM96.977,36.166L96.977,54.12L79.023,54.12L79.023,36.166L96.977,36.166ZM136.876,36.166L136.876,54.12L118.921,54.12L118.921,36.166L136.876,36.166ZM156.825,36.166L156.825,54.12L138.871,54.12L138.871,36.166L156.825,36.166ZM77.028,36.166L77.028,54.12L59.074,54.12L59.074,36.166L77.028,36.166ZM65.058,50.13L65.058,43.273L71.043,50.13L73.038,50.13L73.038,40.156L71.043,40.156L71.043,47.232L65.058,40.156L63.063,40.156L63.063,50.13L65.058,50.13ZM112.937,44.146L108.947,44.146L108.947,46.141L110.942,46.141L110.942,48.136L104.957,48.136L104.957,42.151L112.937,42.151L112.937,40.156L102.962,40.156L102.962,50.13L112.937,50.13L112.937,44.146ZM87.003,40.156L87.003,50.13L88.997,50.13L88.997,40.156L87.003,40.156ZM122.911,40.156L122.911,50.13L124.906,50.13L124.906,46.141L130.891,46.141L130.891,50.13L132.886,50.13L132.886,40.156L130.891,40.156L130.891,44.146L124.906,44.146L124.906,40.156L122.911,40.156ZM142.86,42.151L146.85,42.151L146.85,50.13L148.845,50.13L148.845,42.151L152.835,42.151L152.835,40.156L142.86,40.156L142.86,42.151Z" style="fill:rgb(52,50,53);"/>
        </g>
    </g>
</svg>
