<?xml version="1.0" encoding="UTF-8" standalone="no"?>
<!DOCTYPE svg PUBLIC "-//W3C//DTD SVG 1.1//EN" "http://www.w3.org/Graphics/SVG/1.1/DTD/svg11.dtd">
<svg width="100%" height="100%" viewBox="0 0 176 126" version="1.1" xmlns="http://www.w3.org/2000/svg" xmlns:xlink="http://www.w3.org/1999/xlink" xml:space="preserve" xmlns:serif="http://www.serif.com/" style="fill-rule:evenodd;clip-rule:evenodd;stroke-linejoin:round;stroke-miterlimit:2;">
    <g transform="matrix(0.181623,0,0,0.181623,1.14031,35.422)">
        <g transform="matrix(0.306862,0,0,0.224712,85.4581,-9.95058)">
            <rect x="0" y="0" width="2560" height="1440"/>
        </g>
        <g transform="matrix(0.659033,0,0,0.659033,-320.369,-84.7405)">
            <g id="torgue" transform="matrix(266.667,0,0,266.667,636.792,452.799)">
                <path d="M0.375,-0.375L0.375,-0.313L0.188,-0.313L0.188,-0.375L0.375,-0.375ZM0.36,-0.125L0.438,-0.125L0.327,-0.25L0.438,-0.25L0.438,-0.438L0.125,-0.438L0.125,-0.125L0.188,-0.125L0.188,-0.25L0.25,-0.25L0.36,-0.125ZM0.563,-0.563L0.563,-0L0,-0L0,-0.563L0.563,-0.563Z" style="fill:white;fill-rule:nonzero;"/>
            </g>
            <g transform="matrix(266.667,0,0,266.667,803.458,452.799)">
                <path d="M0.125,-0.438L0.125,-0.125L0.438,-0.125L0.438,-0.438L0.375,-0.438L0.375,-0.188L0.188,-0.188L0.188,-0.438L0.125,-0.438ZM0.563,-0.563L0.563,-0L0,-0L0,-0.563L0.563,-0.563Z" style="fill:white;fill-rule:nonzero;"/>
            </g>
            <g transform="matrix(266.667,0,0,266.667,970.125,452.799)">
                <path d="M0.188,-0.125L0.188,-0.34L0.375,-0.125L0.438,-0.125L0.438,-0.438L0.375,-0.438L0.375,-0.216L0.188,-0.438L0.125,-0.438L0.125,-0.125L0.188,-0.125ZM0.563,-0.563L0.563,-0L0,-0L0,-0.563L0.563,-0.563Z" style="fill:white;fill-rule:nonzero;"/>
            </g>
            <g transform="matrix(266.667,0,0,266.667,1136.79,452.799)">
                <path d="M0.188,-0.125L0.188,-0.34L0.375,-0.125L0.438,-0.125L0.438,-0.438L0.375,-0.438L0.375,-0.216L0.188,-0.438L0.125,-0.438L0.125,-0.125L0.188,-0.125ZM0.563,-0.563L0.563,-0L0,-0L0,-0.563L0.563,-0.563Z" style="fill:white;fill-rule:nonzero;"/>
            </g>
            <g transform="matrix(266.667,0,0,266.667,1303.46,452.799)">
                <path d="M0.563,-0.563L0.563,-0L0,-0L0,-0.563L0.563,-0.563ZM0.188,-0.375L0.438,-0.375L0.438,-0.438L0.125,-0.438L0.125,-0.125L0.438,-0.125L0.438,-0.188L0.188,-0.188L0.188,-0.25L0.375,-0.25L0.375,-0.313L0.188,-0.313L0.188,-0.375Z" style="fill:white;fill-rule:nonzero;"/>
            </g>
            <g transform="matrix(266.667,0,0,266.667,1470.12,452.799)">
                <path d="M0.375,-0.375L0.375,-0.313L0.188,-0.313L0.188,-0.375L0.375,-0.375ZM0.36,-0.125L0.438,-0.125L0.327,-0.25L0.438,-0.25L0.438,-0.438L0.125,-0.438L0.125,-0.125L0.188,-0.125L0.188,-0.25L0.25,-0.25L0.36,-0.125ZM0.563,-0.563L0.563,-0L0,-0L0,-0.563L0.563,-0.563Z" style="fill:white;fill-rule:nonzero;"/>
            </g>
            <g transform="matrix(266.667,0,0,266.667,1636.79,452.799)">
                <path d="M0.438,-0.438L0.125,-0.438L0.125,-0.25L0.375,-0.25L0.375,-0.188L0.125,-0.188L0.125,-0.125L0.438,-0.125L0.438,-0.313L0.188,-0.313L0.188,-0.375L0.438,-0.375L0.438,-0.438ZM0.563,-0.563L0.563,-0L0,-0L0,-0.563L0.563,-0.563Z" style="fill:white;fill-rule:nonzero;"/>
            </g>
        </g>
        <g id="torgue1" serif:id="torgue" transform="matrix(0.659033,0,0,0.659033,-100.691,-195.458)">
            <path d="M686.792,419.465L686.792,362.174L736.792,419.465L753.458,419.465L753.458,336.132L736.792,336.132L736.792,395.247L686.792,336.132L670.125,336.132L670.125,419.465L686.792,419.465ZM786.792,302.799L786.792,452.799L636.792,452.799L636.792,302.799L786.792,302.799Z" style="fill:white;fill-rule:nonzero;"/>
            <path d="M870.125,336.132L870.125,419.465L886.792,419.465L886.792,336.132L870.125,336.132ZM953.458,302.799L953.458,452.799L803.458,452.799L803.458,302.799L953.458,302.799Z" style="fill:white;fill-rule:nonzero;"/>
            <path d="M1086.79,369.465L1053.46,369.465L1053.46,386.132L1070.12,386.132L1070.12,402.799L1020.12,402.799L1020.12,352.799L1086.79,352.799L1086.79,336.132L1003.46,336.132L1003.46,419.465L1086.79,419.465L1086.79,369.465ZM1120.12,302.799L1120.12,452.799L970.125,452.799L970.125,302.799L1120.12,302.799Z" style="fill:white;fill-rule:nonzero;"/>
            <path d="M1170.12,336.132L1170.12,419.465L1186.79,419.465L1186.79,386.132L1236.79,386.132L1236.79,419.465L1253.46,419.465L1253.46,336.132L1236.79,336.132L1236.79,369.465L1186.79,369.465L1186.79,336.132L1170.12,336.132ZM1286.79,302.799L1286.79,452.799L1136.79,452.799L1136.79,302.799L1286.79,302.799Z" style="fill:white;fill-rule:nonzero;"/>
            <path d="M1336.79,352.799L1370.12,352.799L1370.12,419.465L1386.79,419.465L1386.79,352.799L1420.12,352.799L1420.12,336.132L1336.79,336.132L1336.79,352.799ZM1453.46,302.799L1453.46,452.799L1303.46,452.799L1303.46,302.799L1453.46,302.799Z" style="fill:white;fill-rule:nonzero;"/>
        </g>
        <g transform="matrix(0.659033,0,0,0.659033,-365.32,-345.059)">
            <g transform="matrix(2.09292,0,0,1,-1468.15,0)">
                <rect x="1038.33" y="529.132" width="150.667" height="150.667" style="fill:white;"/>
            </g>
            <g transform="matrix(2,0,0,2,-373.333,-495.201)">
                <circle cx="618" cy="550" r="23" style="fill:rgb(188,0,45);"/>
            </g>
        </g>
        <g transform="matrix(81.1045,0,0,81.1045,116.569,291.346)">
            <path d="M0.754,-0.516L0.754,-0.441L0.441,-0.441L0.441,-0.34C0.441,-0.238 0.422,-0.156 0.383,-0.094C0.341,-0.023 0.277,0.03 0.191,0.066L0.137,-0.004C0.22,-0.038 0.279,-0.081 0.313,-0.133C0.346,-0.182 0.363,-0.251 0.363,-0.34L0.363,-0.441L0.039,-0.441L0.039,-0.516L0.363,-0.516L0.363,-0.777L0.441,-0.777L0.441,-0.516L0.754,-0.516Z" style="fill:white;fill-rule:nonzero;"/>
        </g>
        <g transform="matrix(81.1045,0,0,81.1045,116.569,291.346)">
            <path d="M0.754,-0.516L0.754,-0.441L0.441,-0.441L0.441,-0.34C0.441,-0.238 0.422,-0.156 0.383,-0.094C0.341,-0.023 0.277,0.03 0.191,0.066L0.137,-0.004C0.22,-0.038 0.279,-0.081 0.313,-0.133C0.346,-0.182 0.363,-0.251 0.363,-0.34L0.363,-0.441L0.039,-0.441L0.039,-0.516L0.363,-0.516L0.363,-0.777L0.441,-0.777L0.441,-0.516L0.754,-0.516Z" style="fill:white;fill-rule:nonzero;"/>
        </g>
        <g transform="matrix(81.1045,0,0,81.1045,231.784,291.663)">
            <path d="M0.336,-0.523C0.432,-0.607 0.504,-0.693 0.551,-0.781L0.633,-0.73C0.591,-0.66 0.531,-0.589 0.453,-0.516L0.453,0.063L0.375,0.063L0.375,-0.438C0.276,-0.349 0.18,-0.283 0.086,-0.238L0.035,-0.316C0.145,-0.371 0.245,-0.44 0.336,-0.523Z" style="fill:white;fill-rule:nonzero;"/>
        </g>
        <g transform="matrix(81.1045,0,0,81.1045,332.567,291.98)">
            <path d="M0.313,-0.496C0.451,-0.449 0.566,-0.398 0.66,-0.344L0.609,-0.258C0.581,-0.279 0.536,-0.303 0.477,-0.332C0.417,-0.361 0.362,-0.384 0.313,-0.402L0.313,0.059L0.234,0.059L0.234,-0.777L0.313,-0.777L0.313,-0.496Z" style="fill:white;fill-rule:nonzero;"/>
        </g>
        <g transform="matrix(81.1045,0,0,81.1045,451.267,294.325)">
            <path d="M0.117,-0.715L0.563,-0.715L0.563,-0.641L0.117,-0.641L0.117,-0.715ZM0.047,-0.496L0.637,-0.496L0.637,-0.422C0.637,-0.318 0.608,-0.224 0.551,-0.141C0.483,-0.042 0.382,0.029 0.246,0.07L0.195,-0.012C0.32,-0.04 0.413,-0.098 0.473,-0.184C0.525,-0.251 0.549,-0.331 0.547,-0.422L0.047,-0.422L0.047,-0.496Z" style="fill:white;fill-rule:nonzero;"/>
        </g>
        <g transform="matrix(81.1045,0,0,81.1045,557.278,296.542)">
            <path d="M0.125,-0.711C0.214,-0.661 0.286,-0.607 0.344,-0.547L0.277,-0.465C0.233,-0.522 0.164,-0.582 0.07,-0.645L0.125,-0.711ZM0.469,-0.223C0.547,-0.303 0.6,-0.418 0.629,-0.566L0.711,-0.523C0.669,-0.357 0.604,-0.23 0.516,-0.145C0.424,-0.056 0.29,0.007 0.113,0.043L0.082,-0.043C0.251,-0.074 0.38,-0.134 0.469,-0.223Z" style="fill:white;fill-rule:nonzero;"/>
        </g>
        <g transform="matrix(81.1045,0,0,81.1045,666.949,294.641)">
            <path d="M0.754,-0.516L0.754,-0.441L0.441,-0.441L0.441,-0.34C0.441,-0.238 0.422,-0.156 0.383,-0.094C0.341,-0.023 0.277,0.03 0.191,0.066L0.137,-0.004C0.22,-0.038 0.279,-0.081 0.313,-0.133C0.346,-0.182 0.363,-0.251 0.363,-0.34L0.363,-0.441L0.039,-0.441L0.039,-0.516L0.363,-0.516L0.363,-0.777L0.441,-0.777L0.441,-0.516L0.754,-0.516Z" style="fill:white;fill-rule:nonzero;"/>
        </g>
        <g transform="matrix(81.1045,0,0,81.1045,775.785,296.225)">
            <rect x="0.063" y="-0.418" width="0.68" height="0.086" style="fill:white;fill-rule:nonzero;"/>
        </g>
    </g>
</svg>
