<?xml version="1.0" encoding="UTF-8" standalone="no"?>
<!DOCTYPE svg PUBLIC "-//W3C//DTD SVG 1.1//EN" "http://www.w3.org/Graphics/SVG/1.1/DTD/svg11.dtd">
<svg width="100%" height="100%" viewBox="0 0 176 126" version="1.1" xmlns="http://www.w3.org/2000/svg" xmlns:xlink="http://www.w3.org/1999/xlink" xml:space="preserve" xmlns:serif="http://www.serif.com/" style="fill-rule:evenodd;clip-rule:evenodd;stroke-linecap:round;stroke-linejoin:round;stroke-miterlimit:2;">
    <g id="TEXAS" transform="matrix(0.0406869,5.01505e-34,5.01505e-34,-0.0406869,13.8308,98.6997)">
        <path d="M925.398,1698.47L927.523,1390.01C944.914,1381.09 962.734,1370.91 981.406,1360.73C981.656,1361.07 981.926,1361.38 982.188,1361.68L1045.88,1344.82C1048.41,1340.68 1051.16,1336.85 1054.81,1334C1081.54,1334.85 1100.21,1331.03 1126.94,1326.79C1129.48,1320.84 1133.73,1315.75 1136.27,1309.81C1149.98,1329.98 1167.43,1326.94 1187.43,1322.43L1353.13,1287.1C1353.76,1288.85 1354.19,1290.88 1354.36,1293.27C1372.61,1294.54 1364.97,1262.29 1388.73,1272.9C1391.69,1273.82 1394,1277.08 1396.33,1280.04L1533.98,1288.7C1536.56,1289.3 1539.13,1289.94 1541.67,1290.61L1669.25,1271.54L1761.78,1235.17C1762.03,1235.16 1762.28,1235.15 1762.54,1235.14L1764.66,978.859C1801.58,942.793 1801.16,886.789 1834.67,851.57C1833.82,785.805 1821.09,724.703 1814.3,661.059L1812.11,658.109L1796,614.258C1796.13,613.656 1796.16,612.996 1796.06,612.266C1752.79,593.594 1646.28,570.684 1643.31,546.922L1607.68,528.68C1607.24,522.738 1604.28,513.402 1604.7,510.434L1607.68,513.402C1598.34,496.008 1578.82,477.34 1558.88,466.73C1522.29,445.324 1391.7,388.234 1391.7,388.234C1387.88,392.902 1310.98,278.156 1310.98,278.156C1305.75,257.984 1285.63,176.508 1272.9,161.234C1284.78,117.957 1298.78,76.797 1307.27,31.824L1322.54,29.699C1329.75,22.488 1328.48,12.727 1328.91,1.273C1306.84,-0.848 1287.32,0.422 1264.41,0C1201.62,44.973 1110.39,25.031 1055.66,72.555C1029.35,100.887 1033.15,146.98 1005.94,172.895L918.082,332.68C907.895,349.109 897.984,365.895 885.938,380.172C862.176,429.391 846.055,483.277 814.656,527.828C782.406,550.316 745.07,569.836 728.945,608.02C696.699,612.266 663.18,620.324 632.207,621.176C592.32,644.934 595.293,595.293 555.832,608.02C529.102,592.75 534.617,551.168 525.281,522.738L496.008,483.703C476.063,482.008 459.094,494.313 440.848,497.277C405.629,540.984 340.285,538.012 302.523,581.715L244.398,740.406C227.426,765.859 193.055,770.527 168.023,786.227L91.648,874.906C82.727,878.832 69.605,875.855 61.113,879.855L8.613,934.297C1.195,944.82 -1.676,957.406 -0,971.648C165.051,975.465 330.531,973.344 496.008,975.465C498.551,1216.89 490.914,1461.29 504.066,1698.47C644.512,1698.47 784.953,1700.17 925.398,1698.47" style="fill:rgb(52,50,53);fill-rule:nonzero;stroke:rgb(52,50,53);stroke-width:47.7px;"/>
    </g>
    <g id="TEXAS1" serif:id="TEXAS" transform="matrix(0.0406869,0,0,-0.0406869,11.0018,96.4365)">
        <path d="M925.398,1698.47L927.523,1390.01C944.914,1381.09 962.734,1370.91 981.406,1360.73C981.656,1361.07 981.926,1361.38 982.188,1361.68L1045.88,1344.82C1048.41,1340.68 1051.16,1336.85 1054.81,1334C1081.54,1334.85 1100.21,1331.03 1126.94,1326.79C1129.48,1320.84 1133.73,1315.75 1136.27,1309.81C1149.98,1329.98 1167.43,1326.94 1187.43,1322.43L1353.13,1287.1C1353.76,1288.85 1354.19,1290.88 1354.36,1293.27C1372.61,1294.54 1364.97,1262.29 1388.73,1272.9C1391.69,1273.82 1394,1277.08 1396.33,1280.04L1533.98,1288.7C1536.56,1289.3 1539.13,1289.94 1541.67,1290.61L1669.25,1271.54L1761.78,1235.17C1762.03,1235.16 1762.28,1235.15 1762.54,1235.14L1764.66,978.859C1801.58,942.793 1801.16,886.789 1834.67,851.57C1833.82,785.805 1821.09,724.703 1814.3,661.059L1812.11,658.109L1796,614.258C1796.13,613.656 1796.16,612.996 1796.06,612.266C1752.79,593.594 1646.28,570.684 1643.31,546.922L1607.68,528.68C1607.24,522.738 1604.28,513.402 1604.7,510.434L1607.68,513.402C1598.34,496.008 1578.82,477.34 1558.88,466.73C1522.29,445.324 1391.7,388.234 1391.7,388.234C1387.88,392.902 1310.98,278.156 1310.98,278.156C1305.75,257.984 1285.63,176.508 1272.9,161.234C1284.78,117.957 1298.78,76.797 1307.27,31.824L1322.54,29.699C1329.75,22.488 1328.48,12.727 1328.91,1.273C1306.84,-0.848 1287.32,0.422 1264.41,0C1201.62,44.973 1110.39,25.031 1055.66,72.555C1029.35,100.887 1033.15,146.98 1005.94,172.895L918.082,332.68C907.895,349.109 897.984,365.895 885.938,380.172C862.176,429.391 846.055,483.277 814.656,527.828C782.406,550.316 745.07,569.836 728.945,608.02C696.699,612.266 663.18,620.324 632.207,621.176C592.32,644.934 595.293,595.293 555.832,608.02C529.102,592.75 534.617,551.168 525.281,522.738L496.008,483.703C476.063,482.008 459.094,494.313 440.848,497.277C405.629,540.984 340.285,538.012 302.523,581.715L244.398,740.406C227.426,765.859 193.055,770.527 168.023,786.227L91.648,874.906C82.727,878.832 69.605,875.855 61.113,879.855L8.613,934.297C1.195,944.82 -1.676,957.406 -0,971.648C165.051,975.465 330.531,973.344 496.008,975.465C498.551,1216.89 490.914,1461.29 504.066,1698.47C644.512,1698.47 784.953,1700.17 925.398,1698.47" style="fill:rgb(246,246,246);fill-rule:nonzero;stroke:rgb(52,50,53);stroke-width:31.41px;"/>
    </g>
    <g transform="matrix(0.0190139,0,0,0.0190139,9.13707,16.8139)">
        <path d="M1475.4,1088.5C1434.1,1094.9 1398,1125.5 1385.2,1165C1382.4,1173.3 1226.3,1846 1225,1854.9C1222.7,1870.6 1224.5,1890.4 1229.6,1905.6C1241.1,1940 1268,1966.6 1302.9,1977.9C1320.9,1983.8 1304.1,1983.5 1587,1983.5C1869.9,1983.5 1853.1,1983.8 1871.1,1977.9C1905.8,1966.7 1933,1939.9 1944.2,1906C1945.6,1901.9 1956.3,1856.8 1968.1,1805.8L1989.5,1713L2040.2,1713L2039.6,1716.2C2039.2,1718 1977.4,1983.9 1902.2,2307L1765.4,2894.5L1687.5,2895L1609.5,2895.6L1599.9,2898.2C1559.6,2909.2 1530.3,2936.9 1518.6,2975C1515.1,2986.3 1424.3,3381.8 1422.9,3391.8C1421.3,3403 1422.4,3421.5 1425.3,3433.1C1436,3474.7 1465.3,3504.1 1507.9,3515.9L1517.5,3518.5L2534.5,3518.5L2544.1,3515.9C2566.6,3509.6 2580.6,3501.6 2596.6,3485.6C2612.6,3469.6 2620.8,3455.3 2626.5,3433.8C2632,3412.8 2721.1,3029.7 2722.1,3022.4C2724.4,3005.9 2721.5,2982.5 2715,2966.3C2709.2,2951.9 2702.7,2941.9 2691.5,2930.1C2674.2,2911.9 2653.2,2900.9 2627.6,2896.5C2620.4,2895.3 2608.2,2895 2562.7,2895L2506.7,2895L2507.3,2891.7C2507.6,2890 2568,2630.2 2641.5,2314.5C2715,1998.8 2776.6,1734.3 2778.3,1726.7L2781.4,1713L2832.7,1713L2816.9,1781.2C2807.4,1822 2800.6,1853.8 2799.9,1860.1C2797.2,1884.5 2804.5,1912.6 2819.1,1934.1C2824.6,1942.3 2836.7,1954.9 2844.9,1961.1C2857.9,1970.9 2876.9,1979 2894,1982.1C2900.2,1983.3 2945.7,1983.5 3163,1983.5L3424.5,1983.5L3434.9,1981.2C3453.3,1977.1 3469.5,1969.5 3483.1,1958.5C3486.5,1955.7 3489.8,1953.1 3490.5,1952.6C3491.3,1952 3494,1953.6 3498.6,1957.3C3511.8,1968 3531.5,1976.6 3549.4,1979.5C3563.4,1981.8 3870.6,1981.7 3883.6,1979.5C3893.6,1977.7 3907.5,1973.3 3914.9,1969.5L3919.8,1967.1L3928.5,1971.1C3933.2,1973.3 3941.5,1976.3 3946.8,1977.8L3956.5,1980.5L4118,1980.8C4257.1,1981 4280.8,1980.9 4289,1979.6C4330.7,1973 4365.4,1943.4 4378.8,1903C4380,1899.4 4387.8,1867.5 4396.2,1832L4411.4,1767.5L4411.4,1748.5C4411.5,1730.7 4411.3,1728.8 4408.7,1719.6C4398.2,1682 4370.8,1652.7 4334.8,1640.7C4323.6,1636.9 4316.3,1635.8 4300.1,1635.1L4285.7,1634.5L4260.8,1596.7C4247.2,1575.8 4236,1558.4 4236,1558C4236,1557.5 4267.4,1529.5 4305.8,1495.7L4375.6,1434.3L4389,1433.7C4421.2,1432.3 4444.7,1422.7 4466.2,1402.1C4479.9,1389.1 4489.8,1373.8 4495.3,1357C4498.2,1348.3 4526.5,1225.6 4528,1215.4C4532.9,1181 4520.1,1144 4494.8,1119.4C4477.1,1102.1 4455.5,1091.6 4430.5,1088C4426.1,1087.4 4365.6,1087 4267.5,1087C4094.9,1087 4101,1086.8 4081.7,1093.4L4071.7,1096.8L4061.6,1093.5C4041.5,1086.7 4049.1,1087 3876.5,1087C3709.2,1087 3711,1087 3694.5,1092C3679.3,1096.7 3659.4,1108.4 3650.6,1117.8L3647.7,1120.9L3642.2,1115.9C3626.9,1101.9 3606,1092.1 3583.7,1088.5C3575.6,1087.2 3450,1087 2529,1087.1C1694.2,1087.2 1481.9,1087.5 1475.4,1088.5ZM7171.5,2020.7C7040.8,2027.6 6908.8,2067.7 6790,2136.8C6769.9,2148.5 6728.2,2176.2 6710.5,2189.5C6639.5,2243.1 6574.6,2308.9 6527.4,2375.4C6522.6,2382.3 6518.2,2387.6 6517.8,2387.4C6517.4,2387.1 6517,2385.8 6517,2384.6C6517,2383.3 6515.9,2376.7 6514.5,2370C6492,2259.6 6433.9,2171 6346.4,2113.7C6279.8,2070.1 6207.3,2047.6 6118.5,2043C6090.7,2041.6 5469.3,2041.7 5457.5,2043.1C5440.3,2045.2 5421.2,2052.4 5406.9,2062.1C5398.8,2067.6 5387.1,2078.8 5380.9,2086.9C5374.8,2095.1 5367,2110 5363.8,2120C5362.4,2124.1 5350.6,2174.4 5337.5,2231.7L5313.7,2335.8L5307.5,2317.2C5298.6,2290.5 5289.9,2270.4 5277.6,2248C5268.9,2232.3 5250.7,2205.2 5238.9,2190.5C5225.5,2173.7 5199.1,2147.3 5182.2,2133.8C5148.5,2106.6 5105.1,2082.1 5065.5,2067.9C5026,2053.7 4984,2045.6 4936,2043C4908,2041.6 4254.7,2041.6 4242.5,2043.1C4230.1,2044.6 4218.4,2048.1 4206.3,2054L4196,2058.9L4185.8,2054C4173.2,2048 4161.5,2044.5 4148.4,2043C4141.3,2042.2 4066.9,2042 3882.5,2042.2C3644.6,2042.5 3626,2042.7 3619.5,2044.3C3584.6,2052.9 3560.5,2070.5 3543.2,2100.3L3538.7,2108.1L3535.1,2101.3C3530,2091.6 3525.7,2085.7 3517.7,2077.3C3508.1,2067.2 3499.5,2060.9 3486.5,2054.5C3473.5,2048 3462,2044.6 3448.4,2043C3441.3,2042.2 3366.9,2042 3182.5,2042.2C2944.6,2042.5 2926,2042.7 2919.5,2044.3C2894.8,2050.4 2878.7,2059.1 2862.4,2075.4C2848.8,2089.1 2839.8,2103.5 2834.2,2121C2830.8,2131.3 2779.1,2355 2777.9,2364.2C2777.3,2368.8 2777.1,2376.9 2777.4,2382.3C2779.2,2410.6 2789.4,2434.8 2808,2454.3C2822.9,2470 2838.3,2479.3 2859.6,2485.5C2864.4,2486.9 2868.6,2488.2 2868.8,2488.4C2869,2488.6 2850.5,2568.8 2827.6,2666.7C2779.8,2871.1 2779.2,2874.2 2773.6,2914.5C2754.9,3050.4 2777,3179 2836.8,3282C2869.7,3338.7 2917.9,3388.7 2976.7,3427.4C3042.9,3470.9 3120.8,3499.7 3204.5,3511.5C3271.8,3520.9 3357,3519.4 3434,3507.4C3556.6,3488.2 3657.8,3442.3 3741.5,3367.9C3767.5,3344.9 3798.6,3310.9 3819.8,3282.5C3882.4,3198.8 3927.8,3097.1 3959,2970.5C3962.3,2957.3 3988.4,2844.6 4017,2720C4045.6,2595.4 4069.3,2492.8 4069.6,2491.9C4070,2490.5 4072.5,2490.2 4085.3,2489.7C4107,2488.8 4119.6,2485.8 4136.2,2477.5L4144.9,2473.1L4153.7,2477.6C4166.7,2484.2 4180.2,2488 4195.9,2489.6L4203.2,2490.3L4202.7,2493.4C4202.1,2496.8 4076.5,3036.3 4074.9,3042.2L4073.9,3046L4061,3046C4045.8,3046 4035.8,3047.2 4024.2,3050.6C3989.7,3060.6 3962.4,3086.3 3949.3,3120.9C3946.7,3127.8 3893.6,3354.1 3892,3364.9C3888.9,3386.3 3892.9,3409.2 3903.5,3430.5C3909.9,3443.5 3916.2,3452.1 3926.3,3461.7C3943.8,3478.3 3966.4,3488.9 3990.5,3491.9C4003.2,3493.4 4499.8,3493.4 4512.5,3491.9C4549.4,3487.4 4581.8,3465.1 4598.6,3432.7C4605,3420.4 4606.3,3416.3 4614.1,3383.5L4621,3354.5L4620.4,3370C4619.5,3394.8 4623.1,3412.6 4633.1,3432C4639.2,3443.8 4645.7,3452.6 4655.3,3461.7C4672.8,3478.3 4695.4,3488.9 4719.5,3491.9C4732.1,3493.4 5096.9,3493.4 5109.5,3491.9C5120.6,3490.5 5133.2,3487 5142.5,3482.6L5149.5,3479.3L5156.5,3482.6C5165.8,3487 5178.4,3490.5 5189.5,3491.9C5201.1,3493.3 5843.5,3493.4 5881,3492C5909.8,3490.9 5925.9,3489.7 5950.5,3487C6167.2,3462.5 6320.3,3357 6388.8,3185C6394,3171.8 6402.9,3145.2 6405,3136.2C6406.3,3130.5 6406.9,3130.5 6409,3136C6431.7,3196.2 6467.4,3257.1 6509.3,3307.2C6521.5,3321.8 6558.3,3359 6573,3371.6C6657.8,3444.2 6762.3,3491.9 6875,3509.4C6954.2,3521.7 7040.9,3520.3 7128.8,3505.4C7267.9,3481.9 7404.3,3421.2 7512.5,3334.5C7570.3,3288.2 7624,3232.4 7665.5,3175.5C7753.4,3055.1 7809.2,2911 7826,2761C7831.4,2713.3 7833.5,2647.6 7831.1,2606.8C7824.8,2502.8 7801.8,2415.8 7758.1,2331.5C7697.1,2213.7 7601.3,2124.9 7477.5,2071.2C7413,2043.3 7344.1,2027 7266.5,2021.5C7248.6,2020.2 7190.3,2019.7 7171.5,2020.7ZM4621.7,3353.2C4621.4,3354 4621.1,3353.7 4621.1,3352.6C4621,3351.5 4621.3,3350.9 4621.6,3351.3C4621.9,3351.6 4622,3352.5 4621.7,3353.2ZM4611.5,3006C4621.1,3007.1 4632.8,3009.7 4634.6,3011.1C4635.9,3012.2 4637.6,3019.9 4639,3031C4640.1,3040.1 4640.4,3079.2 4639.4,3085.1L4638.8,3088.8L4631.7,3081.3C4621.9,3071 4613.5,3064.9 4599.4,3057.9L4587.3,3051.9L4589.5,3042.2C4598.7,3002.8 4598.1,3005 4600.4,3005C4601.5,3005 4606.6,3005.5 4611.5,3006ZM5352,2467.1C5366.6,2478.1 5385.9,2485.9 5405.5,2488.7C5411.6,2489.6 5416.6,2490.3 5416.7,2490.4C5416.8,2490.5 5388,2615.4 5352.6,2768L5288.3,3045.5L5262.9,3046.1C5245.7,3046.6 5235.4,3047.3 5231,3048.3C5222.5,3050.3 5212.7,3053.7 5206.6,3056.7L5201.8,3059.2L5192.1,3055.2C5178.9,3049.7 5167.2,3047 5153.3,3046.2L5141.5,3045.5L5140.4,3006C5139.8,2984.3 5139,2962.7 5138.6,2958C5136.3,2929.9 5131.3,2899.6 5126,2880.5C5124.3,2874.6 5123.1,2869.7 5123.2,2869.6C5151.9,2851 5186.1,2821.7 5214.4,2791.5C5232.3,2772.4 5242.9,2758.9 5257.5,2737C5279.9,2703.5 5295,2672.3 5307.5,2634C5323.1,2586 5330.6,2538.2 5331.7,2479.5L5332.3,2448.5L5338.9,2455.3C5342.5,2459.1 5348.4,2464.4 5352,2467.1ZM5924.3,2991.2C5922.9,3012 5917,3027.2 5907.6,3034.4C5905.6,3035.9 5901.5,3038.2 5898.6,3039.6C5887.9,3044.5 5881.4,3045.2 5840.6,3045.7L5802.7,3046.2L5803.2,3043.9C5803.4,3042.6 5806.5,3029 5810.1,3013.8L5816.5,2986L5924.7,2986L5924.3,2991.2ZM3497.3,2441.5C3499.5,2444.8 3505.4,2451.6 3510.4,2456.6C3523.1,2469.4 3536.7,2478 3553,2483.5C3558.2,2485.3 3559.4,2486.1 3559.2,2487.6C3558.4,2492.2 3473.5,2860.1 3469.9,2874.5C3449.6,2956 3422.6,3009.6 3393.8,3025.8C3374.2,3036.8 3331,3040.2 3303.9,3032.9C3290.5,3029.3 3282.9,3021.3 3277.4,3005.4C3272.3,2990.8 3272.9,2965.5 3279,2930C3280.6,2920.9 3304,2818.4 3330.9,2702.2C3357.9,2586 3380,2490.8 3380,2490.6C3380,2490.4 3384.5,2490 3389.9,2489.6C3430.5,2487 3463.7,2465.9 3484,2429.8L3487.2,2424L3490.2,2429.8C3491.9,2432.9 3495.1,2438.2 3497.3,2441.5ZM4808.5,2491.1C4821.4,2492.7 4821,2492.3 4821,2503.9C4821,2527.5 4815.2,2538 4797.5,2546.5C4778.9,2555.4 4740.9,2561.7 4711.4,2560.8L4701.3,2560.5L4709.6,2525.5C4714.1,2506.2 4717.9,2490.4 4717.9,2490.2C4718.2,2489.4 4801,2490.2 4808.5,2491.1ZM6025.4,2492.4C6026.4,2496.5 6024.3,2508.9 6021.6,2514.4C6016.6,2524.6 6005.8,2532.2 5990,2536.5C5984.6,2538 5978.2,2538.4 5952.2,2538.7L5920.8,2539.2L5921.5,2535.8C5921.9,2534 5924.4,2523.1 5927.1,2511.7C5929.8,2500.2 5932,2490.6 5932,2490.4C5932,2490.2 5952.9,2490 5978.4,2490L6024.8,2490L6025.4,2492.4Z" style="fill:rgb(246,246,246);"/>
    </g>
    <g transform="matrix(0.0190139,0,0,0.0190139,9.13707,16.8139)">
        <path d="M1475.4,1088.5C1434.1,1094.9 1398,1125.5 1385.2,1165C1382.4,1173.3 1226.3,1846 1225,1854.9C1222.7,1870.6 1224.5,1890.4 1229.6,1905.6C1241.1,1940 1268,1966.6 1302.9,1977.9C1320.9,1983.8 1304.1,1983.5 1587,1983.5C1869.9,1983.5 1853.1,1983.8 1871.1,1977.9C1905.8,1966.7 1933,1939.9 1944.2,1906C1945.6,1901.9 1956.3,1856.8 1968.1,1805.8L1989.5,1713L2040.2,1713L2039.6,1716.2C2039.2,1718 1977.4,1983.9 1902.2,2307L1765.4,2894.5L1687.5,2895L1609.5,2895.6L1599.9,2898.2C1559.6,2909.2 1530.3,2936.9 1518.6,2975C1515.1,2986.3 1424.3,3381.8 1422.9,3391.8C1421.3,3403 1422.4,3421.5 1425.3,3433.1C1436,3474.7 1465.3,3504.1 1507.9,3515.9L1517.5,3518.5L2534.5,3518.5L2544.1,3515.9C2566.6,3509.6 2580.6,3501.6 2596.6,3485.6C2612.6,3469.6 2620.8,3455.3 2626.5,3433.8C2632,3412.8 2721.1,3029.7 2722.1,3022.4C2724.4,3005.9 2721.5,2982.5 2715,2966.3C2709.2,2951.9 2702.7,2941.9 2691.5,2930.1C2674.2,2911.9 2653.2,2900.9 2627.6,2896.5C2620.4,2895.3 2608.2,2895 2562.7,2895L2506.7,2895L2507.3,2891.7C2507.6,2890 2568,2630.2 2641.5,2314.5C2715,1998.8 2776.6,1734.3 2778.3,1726.7L2781.4,1713L2832.7,1713L2816.9,1781.2C2807.4,1822 2800.6,1853.8 2799.9,1860.1C2797.2,1884.5 2804.5,1912.6 2819.1,1934.1C2824.6,1942.3 2836.7,1954.9 2844.9,1961.1C2857.9,1970.9 2876.9,1979 2894,1982.1C2900.2,1983.3 2945.7,1983.5 3163,1983.5L3424.5,1983.5L3434.9,1981.2C3453.3,1977.1 3469.5,1969.5 3483.1,1958.5C3486.5,1955.7 3489.8,1953.1 3490.5,1952.6C3491.3,1952 3494,1953.6 3498.6,1957.3C3511.8,1968 3531.5,1976.6 3549.4,1979.5C3563.4,1981.8 3870.6,1981.7 3883.6,1979.5C3893.6,1977.7 3907.5,1973.3 3914.9,1969.5L3919.8,1967.1L3928.5,1971.1C3933.2,1973.3 3941.5,1976.3 3946.8,1977.8L3956.5,1980.5L4118,1980.8C4257.1,1981 4280.8,1980.9 4289,1979.6C4330.7,1973 4365.4,1943.4 4378.8,1903C4380,1899.4 4387.8,1867.5 4396.2,1832L4411.4,1767.5L4411.4,1748.5C4411.5,1730.7 4411.3,1728.8 4408.7,1719.6C4398.2,1682 4370.8,1652.7 4334.8,1640.7C4323.6,1636.9 4316.3,1635.8 4300.1,1635.1L4285.7,1634.5L4260.8,1596.7C4247.2,1575.8 4236,1558.4 4236,1558C4236,1557.5 4267.4,1529.5 4305.8,1495.7L4375.6,1434.3L4389,1433.7C4421.2,1432.3 4444.7,1422.7 4466.2,1402.1C4479.9,1389.1 4489.8,1373.8 4495.3,1357C4498.2,1348.3 4526.5,1225.6 4528,1215.4C4532.9,1181 4520.1,1144 4494.8,1119.4C4477.1,1102.1 4455.5,1091.6 4430.5,1088C4426.1,1087.4 4365.6,1087 4267.5,1087C4094.9,1087 4101,1086.8 4081.7,1093.4L4071.7,1096.8L4061.6,1093.5C4041.5,1086.7 4049.1,1087 3876.5,1087C3709.2,1087 3711,1087 3694.5,1092C3679.3,1096.7 3659.4,1108.4 3650.6,1117.8L3647.7,1120.9L3642.2,1115.9C3626.9,1101.9 3606,1092.1 3583.7,1088.5C3575.6,1087.2 3450,1087 2529,1087.1C1694.2,1087.2 1481.9,1087.5 1475.4,1088.5ZM7171.5,2020.7C7040.8,2027.6 6908.8,2067.7 6790,2136.8C6769.9,2148.5 6728.2,2176.2 6710.5,2189.5C6639.5,2243.1 6574.6,2308.9 6527.4,2375.4C6522.6,2382.3 6518.2,2387.6 6517.8,2387.4C6517.4,2387.1 6517,2385.8 6517,2384.6C6517,2383.3 6515.9,2376.7 6514.5,2370C6492,2259.6 6433.9,2171 6346.4,2113.7C6279.8,2070.1 6207.3,2047.6 6118.5,2043C6090.7,2041.6 5469.3,2041.7 5457.5,2043.1C5440.3,2045.2 5421.2,2052.4 5406.9,2062.1C5398.8,2067.6 5387.1,2078.8 5380.9,2086.9C5374.8,2095.1 5367,2110 5363.8,2120C5362.4,2124.1 5350.6,2174.4 5337.5,2231.7L5313.7,2335.8L5307.5,2317.2C5298.6,2290.5 5289.9,2270.4 5277.6,2248C5268.9,2232.3 5250.7,2205.2 5238.9,2190.5C5225.5,2173.7 5199.1,2147.3 5182.2,2133.8C5148.5,2106.6 5105.1,2082.1 5065.5,2067.9C5026,2053.7 4984,2045.6 4936,2043C4908,2041.6 4254.7,2041.6 4242.5,2043.1C4230.1,2044.6 4218.4,2048.1 4206.3,2054L4196,2058.9L4185.8,2054C4173.2,2048 4161.5,2044.5 4148.4,2043C4141.3,2042.2 4066.9,2042 3882.5,2042.2C3644.6,2042.5 3626,2042.7 3619.5,2044.3C3584.6,2052.9 3560.5,2070.5 3543.2,2100.3L3538.7,2108.1L3535.1,2101.3C3530,2091.6 3525.7,2085.7 3517.7,2077.3C3508.1,2067.2 3499.5,2060.9 3486.5,2054.5C3473.5,2048 3462,2044.6 3448.4,2043C3441.3,2042.2 3366.9,2042 3182.5,2042.2C2944.6,2042.5 2926,2042.7 2919.5,2044.3C2894.8,2050.4 2878.7,2059.1 2862.4,2075.4C2848.8,2089.1 2839.8,2103.5 2834.2,2121C2830.8,2131.3 2779.1,2355 2777.9,2364.2C2777.3,2368.8 2777.1,2376.9 2777.4,2382.3C2779.2,2410.6 2789.4,2434.8 2808,2454.3C2822.9,2470 2838.3,2479.3 2859.6,2485.5C2864.4,2486.9 2868.6,2488.2 2868.8,2488.4C2869,2488.6 2850.5,2568.8 2827.6,2666.7C2779.8,2871.1 2779.2,2874.2 2773.6,2914.5C2754.9,3050.4 2777,3179 2836.8,3282C2869.7,3338.7 2917.9,3388.7 2976.7,3427.4C3042.9,3470.9 3120.8,3499.7 3204.5,3511.5C3271.8,3520.9 3357,3519.4 3434,3507.4C3556.6,3488.2 3657.8,3442.3 3741.5,3367.9C3767.5,3344.9 3798.6,3310.9 3819.8,3282.5C3882.4,3198.8 3927.8,3097.1 3959,2970.5C3962.3,2957.3 3988.4,2844.6 4017,2720C4045.6,2595.4 4069.3,2492.8 4069.6,2491.9C4070,2490.5 4072.5,2490.2 4085.3,2489.7C4107,2488.8 4119.6,2485.8 4136.2,2477.5L4144.9,2473.1L4153.7,2477.6C4166.7,2484.2 4180.2,2488 4195.9,2489.6L4203.2,2490.3L4202.7,2493.4C4202.1,2496.8 4076.5,3036.3 4074.9,3042.2L4073.9,3046L4061,3046C4045.8,3046 4035.8,3047.2 4024.2,3050.6C3989.7,3060.6 3962.4,3086.3 3949.3,3120.9C3946.7,3127.8 3893.6,3354.1 3892,3364.9C3888.9,3386.3 3892.9,3409.2 3903.5,3430.5C3909.9,3443.5 3916.2,3452.1 3926.3,3461.7C3943.8,3478.3 3966.4,3488.9 3990.5,3491.9C4003.2,3493.4 4499.8,3493.4 4512.5,3491.9C4549.4,3487.4 4581.8,3465.1 4598.6,3432.7C4605,3420.4 4606.3,3416.3 4614.1,3383.5L4621,3354.5L4620.4,3370C4619.5,3394.8 4623.1,3412.6 4633.1,3432C4639.2,3443.8 4645.7,3452.6 4655.3,3461.7C4672.8,3478.3 4695.4,3488.9 4719.5,3491.9C4732.1,3493.4 5096.9,3493.4 5109.5,3491.9C5120.6,3490.5 5133.2,3487 5142.5,3482.6L5149.5,3479.3L5156.5,3482.6C5165.8,3487 5178.4,3490.5 5189.5,3491.9C5201.1,3493.3 5843.5,3493.4 5881,3492C5909.8,3490.9 5925.9,3489.7 5950.5,3487C6167.2,3462.5 6320.3,3357 6388.8,3185C6394,3171.8 6402.9,3145.2 6405,3136.2C6406.3,3130.5 6406.9,3130.5 6409,3136C6431.7,3196.2 6467.4,3257.1 6509.3,3307.2C6521.5,3321.8 6558.3,3359 6573,3371.6C6657.8,3444.2 6762.3,3491.9 6875,3509.4C6954.2,3521.7 7040.9,3520.3 7128.8,3505.4C7267.9,3481.9 7404.3,3421.2 7512.5,3334.5C7570.3,3288.2 7624,3232.4 7665.5,3175.5C7753.4,3055.1 7809.2,2911 7826,2761C7831.4,2713.3 7833.5,2647.6 7831.1,2606.8C7824.8,2502.8 7801.8,2415.8 7758.1,2331.5C7697.1,2213.7 7601.3,2124.9 7477.5,2071.2C7413,2043.3 7344.1,2027 7266.5,2021.5C7248.6,2020.2 7190.3,2019.7 7171.5,2020.7ZM3585.1,1162.2C3599.4,1169.3 3607.8,1181.9 3608.7,1197.3C3609.1,1205.3 3607.1,1214 3531.1,1544.3C3479.6,1768.2 3452.3,1884.9 3450.6,1888.5C3445.4,1900 3432.8,1909.6 3420.1,1912C3416.6,1912.7 3327,1913 3161.6,1913C2937.4,1913 2907.7,1912.8 2902.5,1911.5C2884.5,1906.8 2871.4,1891.3 2870.3,1873.2C2869.9,1865.9 2871.1,1860.2 2895.8,1753.7L2921.7,1642L2725.5,1642L2571.4,2303.7L2417.4,2965.5L2519,2966C2610.6,2966.5 2620.9,2966.7 2624.6,2968.2C2637.2,2973.2 2646.8,2983.6 2650.4,2995.9C2653.9,3007.7 2655.3,3000.8 2605,3216.2C2579.1,3326.9 2557,3420 2555.8,3423C2554.3,3426.9 2551.6,3430.6 2546.6,3435.6C2538.8,3443.4 2532.7,3446.4 2521.5,3448.1C2512.9,3449.3 1538.4,3449.2 1529.6,3448C1515.3,3445.9 1502.9,3436.9 1496.8,3424.1C1494.2,3418.7 1493.6,3416.1 1493.3,3408.5C1492.8,3399.5 1493.1,3398.5 1539.4,3197.2C1574,3046.9 1586.7,2993.4 1588.7,2989.3C1592.5,2981.7 1600.4,2973.9 1608.6,2969.9L1615.5,2966.5L1718.5,2966L1821.4,2965.5L1975.2,2305C2059.8,1941.7 2129,1643.9 2129,1643.2C2129,1642.3 2108.8,1642 2031.2,1642L1933.4,1642L1905.7,1762.2C1883.6,1857.9 1877.3,1883.8 1874.8,1889C1869.4,1900.1 1859.4,1908.1 1846.5,1911.5C1841.3,1912.8 1811.6,1913 1587,1913C1310.4,1913 1328.6,1913.4 1316.9,1907.4C1309.6,1903.8 1302.5,1896.2 1298.7,1888.2C1295.7,1881.9 1295.5,1880.8 1295.6,1870.5C1295.6,1859.5 1295.8,1858.5 1373.9,1523.1C1435.8,1256.8 1452.7,1185.5 1455,1181.1C1460,1171.3 1469.3,1163.3 1479.7,1160C1485.3,1158.2 1514,1158.1 2531.6,1158.3L3577.6,1158.5L3585.1,1162.2ZM7240.5,2091C7319.4,2094.2 7385.4,2108.5 7449.5,2136.2C7549.6,2179.4 7627.9,2248.2 7682.7,2340.9C7692,2356.7 7710.1,2393.3 7717,2410.5C7750.1,2492.5 7763.9,2576.8 7760.9,2678C7758.5,2758.9 7747.5,2827.3 7725,2900.5C7659.6,3113.2 7510.1,3284.7 7310.3,3376C7208,3422.8 7097.5,3446.9 6984.5,3447C6871.7,3447.1 6769.8,3419.1 6681.1,3363.6C6577.3,3298.6 6502.1,3199.6 6463.2,3076.5C6439.1,3000.6 6431,2912.6 6439.1,2814.5C6452.3,2652.2 6515.6,2496.7 6618.5,2373.5C6656.9,2327.4 6702.8,2284 6752.5,2246.5C6769.1,2234 6807.2,2208.8 6826.5,2197.4C6843.8,2187.3 6881.7,2167.7 6900.6,2159.2C6989.7,2118.7 7088.3,2094.9 7183,2091.1C7210.2,2090 7214.2,2090 7240.5,2091ZM3453.2,2116.7C3462.6,2121.1 3469.2,2127.6 3473.8,2136.9C3477.3,2144.1 3477.5,2144.8 3477.5,2154.4C3477.4,2164 3476.2,2169.9 3451.1,2277C3435,2346 3423.9,2391.5 3422.4,2394.6C3417.5,2404.9 3408.2,2413.2 3397.2,2416.9C3391.5,2418.9 3388.8,2419 3357.6,2419L3324.2,2419L3323.7,2421.2C3318.6,2441.6 3213.9,2894.4 3211.5,2906.5C3205.4,2937 3203.6,2953.7 3203.6,2979.5C3203.6,3004.2 3204.5,3010.7 3210.6,3028.8C3220.4,3058 3240.3,3082 3264.4,3093.4C3286.7,3104.1 3318.1,3108.9 3352.5,3106.9C3398.7,3104.3 3428.5,3092.7 3455.2,3067.2C3485.2,3038.4 3509.7,2991.7 3528.9,2927C3535.8,2903.5 3542.2,2876.7 3595.5,2645.5L3647.6,2419.5L3613.5,2419L3579.5,2418.5L3572.8,2415.3C3558.2,2408.4 3549.2,2395.4 3548.3,2379.8C3547.8,2371.7 3548.5,2368.6 3574.5,2257C3592.1,2181.3 3602,2140.7 3603.6,2137.3C3607.6,2128.9 3615,2121.6 3623.8,2117.3L3631.4,2113.5L4146.5,2113.5L4153.2,2116.7C4167.9,2123.6 4176.8,2136.6 4177.7,2152.2C4178.1,2160.3 4177.4,2163.9 4152,2274.5C4123.1,2400.7 4123.9,2398.2 4114,2407.4C4111.2,2410 4105.9,2413.6 4102.2,2415.3L4095.5,2418.5L4054.5,2419L4013.6,2419.5L3955.9,2670.5C3890.4,2955.4 3891.5,2950.6 3885.4,2973.5C3853.5,3093.2 3805.9,3191.1 3744.1,3264C3656.6,3367.1 3541.6,3425 3390.5,3441.9C3356.6,3445.7 3341.2,3446.5 3300,3446.5C3257.7,3446.5 3242.4,3445.5 3211,3440.9C3100.3,3424.8 3002.4,3374.7 2937.6,3301C2916.7,3277.2 2901.4,3254.6 2887,3226.2C2860,3172.6 2844.7,3115.7 2839,3047.5C2837.7,3032 2837.7,2987.5 2839,2969.5C2841.3,2938 2847.1,2897.3 2853.5,2867.5C2856,2856.1 2956.6,2424.4 2957.6,2420.8C2958.1,2419.2 2955.2,2419.1 2918.8,2418.8L2879.5,2418.5L2872.8,2415.3C2858.2,2408.4 2849.2,2395.4 2848.3,2379.8C2847.8,2371.7 2848.5,2368.8 2874.5,2257C2892.1,2181.1 2902,2140.7 2903.6,2137.3C2908.7,2126.6 2920.8,2116.7 2931.6,2114.1C2933.9,2113.6 3039.1,2113.3 3191,2113.3L3446.5,2113.5L3453.2,2116.7ZM4961,2115.8C4996.6,2120.4 5028.5,2128.4 5054,2139.2C5136.7,2174.2 5197,2233.8 5231.2,2314.5C5245.6,2348.5 5255.6,2389.5 5259.6,2431.1C5261.6,2452.5 5261.1,2502.3 5258.5,2524.9C5250.8,2593.8 5232.2,2647.4 5198.5,2698C5178.5,2728 5155.7,2753 5122,2782.1C5100.8,2800.3 5074.8,2817.5 5050,2829.8C5041.5,2834 5034.3,2837.6 5034,2837.8C5033.8,2838 5035,2840.7 5036.7,2843.8C5047.3,2863 5057.3,2892.7 5062.4,2920C5067.7,2948.3 5068.9,2967.2 5071,3055C5071.6,3078.9 5072.3,3102.7 5072.6,3107.7L5073.2,3117L5114.1,3117C5153,3117 5155.4,3117.1 5161.2,3119.1C5179.5,3125.2 5190.8,3141.8 5189.7,3160.5C5189.1,3171.2 5138,3390.1 5134.4,3397.7C5130.4,3406.1 5123,3413.4 5114.2,3417.7L5106.6,3421.5L4722.4,3421.5L4714.9,3417.8C4700.9,3410.9 4692.3,3398.3 4691.3,3383.2C4691,3378.6 4694.8,3317.9 4700.6,3232C4709.5,3101.5 4710.4,3085.8 4710.4,3058.5C4710.4,3027 4709.5,3017.2 4705,2998.5C4695.1,2958 4668.7,2940 4612,2935C4600.9,2934 4542,2933.6 4542,2934.4C4542,2934.7 4532.6,2975.4 4521,3024.9C4509.5,3074.3 4500,3115.3 4500,3115.9C4500,3116.5 4510.4,3117 4530.3,3117.2L4560.5,3117.5L4567.2,3120.7C4576.6,3125.1 4583.2,3131.6 4587.8,3140.9C4591.3,3148 4591.5,3148.9 4591.5,3157.9C4591.4,3166.8 4589.6,3175.4 4565.2,3280.8C4536.5,3405.3 4537.6,3401.5 4527.8,3410.6C4525.1,3413.1 4519.9,3416.6 4516.2,3418.3L4509.5,3421.5L3993.4,3421.5L3985.9,3417.8C3976.6,3413.2 3970.1,3406.6 3965.7,3397.2C3962.7,3391 3962.5,3389.8 3962.5,3380C3962.6,3369.8 3963.4,3365.9 3988.8,3258C4009.4,3170.5 4015.7,3145.1 4018.1,3140.2C4022.1,3132.1 4029.2,3125 4037.7,3120.8L4044.5,3117.5L4130.3,3116.5L4292.5,2419.5L4243.5,2419C4190.5,2418.4 4191.6,2418.6 4182.4,2412.7C4176.6,2409.1 4169.2,2400.6 4166.4,2394.6C4163.3,2387.7 4161.6,2378.8 4162.4,2372.7C4162.8,2370.1 4175,2316.9 4189.5,2254.6C4208.7,2172.1 4216.6,2139.8 4218.5,2136C4223.7,2125.7 4235,2116.6 4245.6,2114.1C4248,2113.5 4387.8,2113.3 4597,2113.4L4944.5,2113.6L4961,2115.8ZM6141.5,2115.3C6179.7,2120 6210.7,2127.2 6238.5,2137.7C6304.4,2162.7 6357.5,2203.8 6393.9,2258C6424.8,2304.1 6443.3,2356.7 6450.6,2419.8C6452.8,2438.3 6453.1,2486.6 6451.2,2505C6445.9,2555 6434.5,2599.3 6416.9,2638.2C6396,2684.2 6361.2,2728.8 6320.5,2761.6C6312.6,2767.9 6292.1,2782.7 6288.1,2785C6287,2785.6 6287.8,2787.2 6291.9,2792.5C6307.4,2812.2 6325.9,2845.1 6334.3,2868C6347.5,2903.5 6352.8,2932.4 6353.7,2973C6355.9,3074.4 6331.9,3162.8 6282.3,3235.9C6213.3,3337.4 6096.2,3399.6 5941,3416.9C5898.8,3421.6 5909.7,3421.5 5541,3421.5L5192.5,3421.5L5185.8,3418.3C5174.6,3413 5167.5,3405.2 5162.9,3392.9C5158.7,3381.9 5158.5,3382.8 5187.4,3259.3C5206.9,3175.9 5214.6,3144.6 5216.7,3140.4C5220.6,3132.3 5228.4,3124.7 5236.7,3120.7L5243.5,3117.5L5294,3117L5344.4,3116.5L5425.2,2768C5469.6,2576.3 5506,2419.4 5506,2419.3C5506,2419.2 5484.3,2419 5457.8,2418.8L5409.5,2418.5L5402.8,2415.3C5393.4,2410.9 5386.8,2404.4 5382.2,2395.1C5378.7,2387.9 5378.5,2387.2 5378.6,2377.6C5378.6,2368.1 5380,2361.3 5404.7,2254.5C5424.1,2170.3 5431.4,2140.1 5433.5,2136.1C5438.7,2125.7 5449.9,2116.6 5460.6,2114.1C5463,2113.5 5596.3,2113.3 5796,2113.4C6102.9,2113.6 6128.5,2113.7 6141.5,2115.3ZM1491.7,1202.7C1491.4,1204.3 1456.4,1354.8 1414.1,1537.3C1371.7,1719.8 1337,1869.5 1337,1870C1337,1870.7 1428.4,1871 1587,1871L1837,1871L1837.7,1868.2C1838.1,1866.7 1852.2,1805.9 1869,1733L1899.7,1600.5L2041,1600.2L2182.3,1600L2181.7,1603.2C2181.2,1605.9 1857.6,2996.7 1855.4,3005.4L1854.8,3008L1740.4,3008C1677.5,3008 1626,3008.3 1626,3008.6C1626,3008.9 1605.5,3098.2 1580.5,3207C1555.5,3315.9 1535,3405.1 1535,3405.4C1535,3405.8 1756,3405.9 2026.2,3405.8L2517.4,3405.5L2563.7,3207.5C2589.1,3098.6 2610,3009.2 2610,3008.7C2610,3008.3 2554.8,3008 2487.4,3008L2364.7,3008L2365.3,3004.2C2365.8,3000.8 2690.4,1605.7 2691.6,1601.7C2692.1,1600.1 2699.7,1600 2833.4,1600L2974.7,1600L2943.9,1733.2C2926.9,1806.5 2912.8,1867.5 2912.5,1868.7L2912,1871L3412.6,1871L3489.5,1536.7C3531.7,1352.9 3566.5,1201.9 3566.8,1201.2C3567.1,1200.3 3359.3,1200 2529.7,1200L1492.3,1200L1491.7,1202.7ZM2916.1,2264.8C2902.1,2325.1 2890.4,2375.1 2890.2,2375.7C2889.9,2376.7 2902.4,2377 2950.5,2377L3011.2,2377L3010.7,2379.2C3006.5,2396.3 2895.5,2873 2893.6,2882C2887.4,2912.1 2883,2944.3 2880.9,2976C2879.5,2997.5 2880.3,3040 2882.5,3060C2888.3,3112.9 2902.8,3163.7 2924.5,3207C2965,3287.8 3041.3,3349.4 3140.6,3381.4C3174.4,3392.3 3205.6,3398.6 3246,3402.7C3267.4,3404.8 3326.8,3405.1 3352,3403.2C3469.9,3394.2 3558.6,3364.9 3633.5,3310.2C3735.5,3235.7 3808.1,3112.5 3849.6,2943C3852.1,2932.8 3882,2803.2 3916.1,2655C3950.2,2506.8 3978.6,2383.6 3979.2,2381.3L3980.2,2377L4032.8,2376.8L4085.3,2376.5L4110.6,2266C4124.6,2205.2 4136,2155.4 4136,2155.2C4136,2155.1 4024.7,2155.1 3888.8,2155.2L3641.5,2155.5L3616.4,2263.5C3602.5,2322.9 3590.9,2372.7 3590.6,2374.2L3590.1,2377L3645,2377C3693.9,2377 3700,2377.2 3700,2378.5C3700,2380.7 3585.1,2878.5 3578.9,2903.5C3548.5,3025 3504.7,3096.7 3441.5,3128.4C3413,3142.6 3380.8,3149.2 3339,3149.3C3300.2,3149.3 3273.9,3144.4 3247.1,3131.9C3207.5,3113.5 3176.5,3072.7 3165.5,3024.7C3158,2992 3159.8,2948.8 3171,2893.5C3173.3,2882.4 3286.8,2392.2 3289.8,2380.5L3290.6,2377.5L3337.5,2377L3384.5,2376.5L3409.6,2268.5C3423.5,2209.1 3435.1,2159.3 3435.4,2157.7L3436,2155L2941.5,2155L2916.1,2264.8ZM7200,2132.7C7125.6,2134.1 7043.1,2149.6 6972.5,2175.3C6926,2192.3 6870.3,2219.3 6831,2244C6729,2307.9 6646,2392 6585.7,2492.1C6537.3,2572.6 6502.7,2667.5 6488.1,2760C6476,2836.1 6475.1,2920.2 6485.5,2986.8C6505.9,3116.4 6569.4,3227.1 6666.5,3302.1C6716.1,3340.5 6777.1,3370.3 6840,3386.9C6888.4,3399.7 6928,3404.4 6986.5,3404.4C7048.7,3404.3 7096.8,3398.7 7157.5,3384.3C7236.2,3365.7 7314.6,3332.4 7383.5,3288.2C7447.7,3247 7507.1,3193.4 7555.6,3133C7643.4,3023.8 7698.7,2888.1 7714.4,2743.5C7718,2709.9 7718.5,2699.9 7718.5,2653C7718.5,2603.1 7717.8,2591 7712.9,2557.5C7698.6,2458.3 7661.8,2371.7 7604.5,2302.5C7521.5,2202.3 7398,2142.4 7257,2134.1C7237,2132.9 7216.6,2132.4 7200,2132.7ZM4256,2155.2C4255.9,2155.4 4244.3,2205.2 4230.2,2266L4204.4,2376.5L4345.6,2377.5L4256.4,2761C4207.2,2971.9 4166.3,3147.8 4165.4,3151.7L4163.8,3159L4055.4,3159L4030,3267.7C4016.1,3327.6 4004.4,3377.3 4004.2,3378.2C4003.8,3379.9 4016.1,3380 4251.4,3380L4499,3380L4499.5,3377.7C4499.8,3376.5 4511.2,3326.9 4524.9,3267.5L4549.7,3159.5L4498.4,3159.2C4450.3,3159 4447,3158.9 4447,3157.2C4447.1,3156.3 4460.9,3096.3 4477.8,3024L4508.6,2892.5L4555,2892.2C4614.5,2891.8 4634.7,2893.4 4660.5,2900.7C4707,2913.8 4735.5,2943.4 4746.3,2990C4751.6,3012.7 4752.5,3022.8 4752.4,3059.5C4752.4,3091.6 4751.8,3101.6 4742.7,3235.9C4737.4,3314.2 4733,3378.7 4733,3379.2C4733,3379.6 4814.8,3379.9 4914.7,3379.8L5096.5,3379.5L5122.2,3269.5C5136.4,3209 5148,3159.4 5148,3159.2C5148,3159.1 5121.9,3159 5090.1,3159L5032.2,3159L5031.6,3150.7C5031.3,3146.2 5030.3,3114.8 5029.5,3081C5026.2,2950.6 5025,2936.3 5014.5,2901.5C5004.9,2870 4995.7,2853.4 4976.1,2832.8L4966.9,2823.1L4975.2,2819.2C5005.9,2804.6 5035.8,2790 5043.5,2785.8C5082.2,2764.5 5130.8,2720.8 5157.6,2683.4C5193.9,2632.4 5212.8,2575.9 5218.1,2501.5C5219.5,2481.6 5218.7,2439.8 5216.5,2424C5205.7,2344.5 5176.9,2283.6 5127.7,2236.3C5107.2,2216.7 5086,2201.9 5057.5,2187.5C5025.8,2171.4 4996.5,2162.9 4953.5,2157.3C4941.5,2155.8 4913,2155.6 4598.3,2155.3C4410,2155.1 4256,2155.1 4256,2155.2ZM5470.1,2158.7C5469.6,2160.8 5458.3,2210 5445,2268C5431.7,2326 5420.7,2374.3 5420.4,2375.2C5419.9,2376.9 5423.6,2377 5489.5,2377L5559,2377L5558.5,2379.2C5558.2,2380.5 5518.4,2552.5 5469.9,2761.5C5421.5,2970.5 5381,3145.4 5379.9,3150.2L5377.8,3159L5315.9,3159C5281.9,3159 5254,3159.2 5254,3159.4C5254,3159.7 5242.5,3208.9 5228.5,3269C5214.5,3329 5203,3378.5 5203,3379.1C5203,3379.7 5321.2,3379.9 5547.8,3379.7C5913.4,3379.3 5898.1,3379.5 5937,3375C6039,3363.2 6119.1,3332.9 6183,3282.1C6195.5,3272.2 6222.6,3245.1 6232.3,3232.8C6280.5,3171.8 6305,3103.1 6311.1,3012C6313.6,2974.9 6310.9,2939.2 6303.5,2910.6C6290.7,2860.9 6266.7,2821.4 6226.7,2784.3L6217.9,2776.2L6231.7,2769C6324.8,2720 6379.5,2649.8 6401,2551.7C6407.8,2520.7 6410.4,2496.7 6410.3,2463.5C6410.3,2429.9 6406.9,2401.7 6399.5,2373.3C6387.2,2326.4 6368.1,2289.5 6338.1,2254.8C6296.5,2206.5 6233.7,2173 6162.3,2161C6128.8,2155.3 6152.3,2155.7 5797.8,2155.3L5471.1,2155L5470.1,2158.7ZM4621.7,3353.2C4621.4,3354 4621.1,3353.7 4621.1,3352.6C4621,3351.5 4621.3,3350.9 4621.6,3351.3C4621.9,3351.6 4622,3352.5 4621.7,3353.2ZM5940.6,2874.1C5985,2878.4 6016,2901.5 6030,2941C6035.3,2955.7 6037.2,2968.2 6037.1,2987.2C6036.9,3073.2 5990.7,3135.2 5913.5,3153C5890.7,3158.3 5891.4,3158.3 5772.3,3158.7C5688.7,3159 5661,3158.8 5661,3158C5661,3156.9 5725.5,2878.4 5726.6,2874.7C5727.1,2873.1 5732.8,2873 5828.4,2873C5892.1,2873 5933.7,2873.4 5940.6,2874.1ZM7211,2405.5C7281.5,2412.9 7339.3,2447.4 7377.1,2504.3C7414,2560 7429.2,2635.8 7420.5,2721.3C7412,2804.9 7378.3,2891.5 7327.1,2961C7300.5,2997.2 7262.9,3034.7 7228,3060.2C7123.4,3136.1 6993,3155.2 6901,3107.9C6841.2,3077.2 6799.2,3021.8 6780.6,2949C6770.2,2908 6767.9,2852.1 6774.5,2801C6783.6,2731.2 6810.8,2659.8 6852.7,2596.3C6902,2521.2 6970.7,2462.7 7047.1,2430.5C7079.6,2416.9 7117,2407.8 7153.5,2404.7C7164.9,2403.7 7199,2404.2 7211,2405.5ZM5737.2,3015.2C5724.4,3070.4 5714,3115.8 5714,3116.2C5714,3117.3 5854.7,3117.1 5872.5,3116C5890.7,3114.9 5901.9,3113 5914.8,3108.9C5957.4,3095.3 5983.1,3064.8 5992.7,3016.5C5994,3009.8 5994.5,3002.6 5994.5,2988C5994.5,2970.6 5994.3,2967.7 5992.2,2960.5C5986.9,2942.2 5977.4,2930.2 5962.7,2923C5947.1,2915.5 5950.3,2915.7 5850,2915.3L5760.5,2914.9L5737.2,3015.2ZM7148,2447.5C7085.1,2454.7 7028.4,2479.8 6971,2525.9C6952.1,2541.1 6923.6,2570.9 6905.9,2594C6861,2652.7 6829,2725.9 6818.1,2794.5C6814,2821 6813.5,2827.8 6813.5,2862C6813.6,2891.6 6813.8,2897.2 6815.8,2910C6831.5,3011.5 6891,3076.1 6980.8,3089.1C6993.7,3091 6998.4,3091.2 7020.5,3090.7C7051.5,3090.1 7068.5,3087.5 7095.3,3079.5C7172,3056.8 7240.8,3006.8 7293.1,2936C7365,2838.6 7396.4,2708.7 7373.4,2604C7354.2,2517.2 7297.7,2461.4 7216,2448.5C7201.3,2446.2 7164.3,2445.7 7148,2447.5ZM4611.5,3006C4621.1,3007.1 4632.8,3009.7 4634.6,3011.1C4635.9,3012.2 4637.6,3019.9 4639,3031C4640.1,3040.1 4640.4,3079.2 4639.4,3085.1L4638.8,3088.8L4631.7,3081.3C4621.9,3071 4613.5,3064.9 4599.4,3057.9L4587.3,3051.9L4589.5,3042.2C4598.7,3002.8 4598.1,3005 4600.4,3005C4601.5,3005 4606.6,3005.5 4611.5,3006ZM5352,2467.1C5366.6,2478.1 5385.9,2485.9 5405.5,2488.7C5411.6,2489.6 5416.6,2490.3 5416.7,2490.4C5416.8,2490.5 5388,2615.4 5352.6,2768L5288.3,3045.5L5262.9,3046.1C5245.7,3046.6 5235.4,3047.3 5231,3048.3C5222.5,3050.3 5212.7,3053.7 5206.6,3056.7L5201.8,3059.2L5192.1,3055.2C5178.9,3049.7 5167.2,3047 5153.3,3046.2L5141.5,3045.5L5140.4,3006C5139.8,2984.3 5139,2962.7 5138.6,2958C5136.3,2929.9 5131.3,2899.6 5126,2880.5C5124.3,2874.6 5123.1,2869.7 5123.2,2869.6C5151.9,2851 5186.1,2821.7 5214.4,2791.5C5232.3,2772.4 5242.9,2758.9 5257.5,2737C5279.9,2703.5 5295,2672.3 5307.5,2634C5323.1,2586 5330.6,2538.2 5331.7,2479.5L5332.3,2448.5L5338.9,2455.3C5342.5,2459.1 5348.4,2464.4 5352,2467.1ZM5924.3,2991.2C5922.9,3012 5917,3027.2 5907.6,3034.4C5905.6,3035.9 5901.5,3038.2 5898.6,3039.6C5887.9,3044.5 5881.4,3045.2 5840.6,3045.7L5802.7,3046.2L5803.2,3043.9C5803.4,3042.6 5806.5,3029 5810.1,3013.8L5816.5,2986L5924.7,2986L5924.3,2991.2ZM3497.3,2441.5C3499.5,2444.8 3505.4,2451.6 3510.4,2456.6C3523.1,2469.4 3536.7,2478 3553,2483.5C3558.2,2485.3 3559.4,2486.1 3559.2,2487.6C3558.4,2492.2 3473.5,2860.1 3469.9,2874.5C3449.6,2956 3422.6,3009.6 3393.8,3025.8C3374.2,3036.8 3331,3040.2 3303.9,3032.9C3290.5,3029.3 3282.9,3021.3 3277.4,3005.4C3272.3,2990.8 3272.9,2965.5 3279,2930C3280.6,2920.9 3304,2818.4 3330.9,2702.2C3357.9,2586 3380,2490.8 3380,2490.6C3380,2490.4 3384.5,2490 3389.9,2489.6C3430.5,2487 3463.7,2465.9 3484,2429.8L3487.2,2424L3490.2,2429.8C3491.9,2432.9 3495.1,2438.2 3497.3,2441.5ZM7024.9,2957C7036.3,2990.3 7045.4,3017.8 7045.1,3018.2C7044.8,3018.6 7037.4,3019.4 7028.8,3020.1C7016.6,3021 7010.2,3021 7000,3020.1C6985.8,3018.8 6984,3018.4 6984,3016.5C6984,3015.9 6988.3,2988.8 6993.5,2956.4C6998.7,2924 7003,2896.8 7003.1,2896C7003.2,2893.7 7002.7,2892.3 7024.9,2957ZM7104.9,2945.9L7154,2974.2L7145.4,2979.7C7135.1,2986.2 7122.3,2993.2 7112.1,2997.9C7104.7,3001.3 7085,3009 7085,3008.6C7085,3008.4 7078,2987.9 7069.5,2963C7061,2938.1 7054,2917.5 7054,2917.3C7054,2916.5 7054.6,2916.8 7104.9,2945.9ZM6965.5,2922.6C6958.2,2967.7 6952.1,3005.2 6951.9,3005.8C6951.3,3007.5 6940.9,3001.2 6931.9,2993.6C6924.6,2987.5 6912,2972.9 6908.6,2966.6L6906.9,2963.4L6942.6,2901.7C6962.2,2867.7 6978.4,2840 6978.5,2840.2C6978.6,2840.4 6972.8,2877.4 6965.5,2922.6ZM7250.4,2873.2C7241.5,2888.4 7220.1,2915.4 7202.7,2933.4L7193.2,2943.2L7186.3,2939.4C7157.1,2923 7117.2,2899.4 7117.8,2898.8C7118.3,2898.3 7246.4,2872.4 7250.3,2872.1C7250.8,2872 7250.8,2872.6 7250.4,2873.2ZM6979.2,2775.3C6978.2,2779 6893.1,2927 6892,2927C6890.9,2927 6887.2,2909.4 6885.6,2897C6883.7,2882.2 6882.7,2859 6883.7,2852.4L6884.5,2847.3L6932,2808.6C6958.1,2787.4 6979.6,2770.4 6979.8,2770.9C6980,2771.5 6979.7,2773.4 6979.2,2775.3ZM7303.6,2742.2C7303.3,2742.9 7302.2,2747.8 7301,2753C7294.3,2781.9 7279,2824.2 7274.6,2826.1C7272.2,2827 7186.1,2844 7183.6,2844C7182.3,2844 7182.8,2842.7 7185.8,2838.5C7188.8,2834.3 7203.4,2821.9 7246.1,2787C7277.1,2761.8 7302.8,2741.1 7303.2,2741.1C7303.6,2741 7303.8,2741.6 7303.6,2742.2ZM7012,2698.7C7008.8,2703.2 6995.8,2714.3 6948.7,2752.5C6916.2,2779 6889.4,2800.2 6889.2,2799.5C6889,2798.8 6890.3,2792 6892,2784.4C6895.7,2768 6904.8,2740.2 6911.7,2724L6916.7,2712.5L6964.6,2702.8C6990.9,2697.5 7013.3,2693.2 7014.2,2693.1C7015.6,2693 7015,2694.3 7012,2698.7ZM7304.8,2620.7C7308,2636.1 7309.2,2648.2 7309.7,2669.5L7310.3,2692.5L7263.9,2730.2C7238.4,2750.9 7217.4,2767.7 7217.3,2767.6C7215.8,2766.1 7225.8,2747.6 7261.1,2686.5C7283.8,2647.2 7302.7,2615 7303,2615C7303.3,2615 7304.1,2617.6 7304.8,2620.7ZM7249.9,2534.2C7263.8,2542.7 7277.8,2557.2 7286.4,2572.2L7289.1,2576.9L7254.4,2637C7235.3,2670 7219.6,2696.9 7219.4,2696.7C7219,2696.3 7245.4,2532 7245.9,2532C7246.1,2532 7247.9,2533 7249.9,2534.2ZM4813,2378C4838,2380.3 4859.4,2385.6 4875.1,2393.5C4898.8,2405.5 4915.3,2424.5 4925.3,2451C4931.8,2468.5 4933.4,2478.5 4933.4,2503.5C4933.5,2516.9 4933,2528.6 4932.2,2533.5C4919.6,2610.8 4864.7,2656.9 4769.5,2669.9C4744.6,2673.3 4724.1,2674 4639.6,2674C4563.1,2674 4558.8,2673.9 4559.2,2672.2C4559.4,2671.3 4575.1,2604.5 4594,2523.7L4628.4,2377L4714.9,2377C4766.5,2377 4806.2,2377.4 4813,2378ZM7041.9,2615.5C7062.8,2627.6 7080,2637.8 7080,2638.2C7080,2638.5 7076.7,2639.6 7072.8,2640.4C7055.2,2644.2 6942.7,2666.1 6942.4,2665.8C6941.4,2664.8 6964,2633.9 6975.9,2620C6985,2609.3 7001.4,2592.9 7002.6,2593.2C7003.2,2593.4 7020.9,2603.4 7041.9,2615.5ZM6037.8,2378.1C6077.3,2382.4 6107,2402.1 6124.3,2435.7C6134,2454.4 6138.2,2473.3 6138.2,2497C6138.1,2523.4 6132.6,2546.6 6121.7,2567C6095.5,2615.8 6048.9,2644.9 5987.1,2651C5980.8,2651.6 5938.1,2652 5877.8,2652L5778.8,2652L5779.2,2649.7C5779.4,2648.5 5793.8,2586.6 5811.1,2512.2L5842.5,2377L5935.3,2377C5994.1,2377 6031.6,2377.4 6037.8,2378.1ZM7203.1,2518.1C7207.8,2518.7 7212.2,2519.5 7212.8,2519.9C7213.6,2520.4 7210.9,2539.5 7204.3,2580.8C7198.9,2613.9 7194.3,2641 7194,2641C7193.5,2641 7152,2520.2 7152,2518.8C7152,2517 7190.7,2516.5 7203.1,2518.1ZM4661.6,2420.7C4661.3,2421.7 4650.2,2468.6 4637,2525C4623.8,2581.4 4612.8,2628.5 4612.5,2629.7L4612,2632L4661.8,2632C4717,2632 4745.8,2630.9 4765.7,2628C4827.1,2619 4865.8,2595.3 4882.2,2556.7C4889.1,2540.4 4892.7,2518.1 4891.7,2497C4890.9,2482 4888.3,2470.6 4883,2459.5C4873.6,2440 4860.8,2430.4 4835.5,2424.1C4819.4,2420 4813.6,2419.7 4736.8,2419.3C4665.2,2418.9 4662.2,2418.9 4661.6,2420.7ZM7128.1,2574C7136.8,2599.5 7143.9,2620.5 7143.7,2620.6C7143.2,2621 7042.7,2562.4 7042.6,2561.6C7042.4,2560.2 7064.3,2547.2 7077.6,2540.7C7090,2534.8 7109.9,2526.9 7111.4,2527.3C7111.9,2527.5 7119.4,2548.5 7128.1,2574ZM5875.5,2421.2C5869.6,2446.1 5832,2608.7 5832,2609.2C5832,2610.4 5969.7,2610.2 5983,2608.9C6002.1,2607.2 6021.2,2601.9 6036.5,2594.2C6067.1,2578.9 6088.7,2550.1 6094.6,2516.6C6096.2,2507.1 6096.4,2487.9 6094.9,2479.4C6089.9,2451.2 6073.8,2431.1 6049.9,2423.6C6037,2419.4 6027.4,2419 5949.6,2419L5876,2419L5875.5,2421.2ZM4808.5,2491.1C4821.4,2492.7 4821,2492.3 4821,2503.9C4821,2527.5 4815.2,2538 4797.5,2546.5C4778.9,2555.4 4740.9,2561.7 4711.4,2560.8L4701.3,2560.5L4709.6,2525.5C4714.1,2506.2 4717.9,2490.4 4717.9,2490.2C4718.2,2489.4 4801,2490.2 4808.5,2491.1ZM6025.4,2492.4C6026.4,2496.5 6024.3,2508.9 6021.6,2514.4C6016.6,2524.6 6005.8,2532.2 5990,2536.5C5984.6,2538 5978.2,2538.4 5952.2,2538.7L5920.8,2539.2L5921.5,2535.8C5921.9,2534 5924.4,2523.1 5927.1,2511.7C5929.8,2500.2 5932,2490.6 5932,2490.4C5932,2490.2 5952.9,2490 5978.4,2490L6024.8,2490L6025.4,2492.4ZM4043.1,1162.2C4057.1,1169.1 4065.7,1181.7 4066.7,1196.8C4067.2,1204 4066.3,1208.3 4052.6,1268.5C4036.1,1340.6 4035.4,1342.8 4025.5,1351.8C4022.5,1354.6 4020,1357.1 4020,1357.5C4020,1357.8 4020.7,1359.2 4021.6,1360.5L4023.2,1363L4033.7,1353.7C4039.5,1348.7 4046,1342.9 4048.2,1341L4052.1,1337.5L4050.6,1333.1C4047.1,1323.4 4047.9,1318.1 4063.5,1250.2C4078.7,1184.2 4079.9,1180.1 4086.7,1172.4C4091.6,1166.9 4098.9,1162.1 4105.6,1160C4112.1,1158 4114.3,1158 4267.6,1158C4421.6,1158 4423.1,1158 4429.1,1160C4436.5,1162.5 4439.2,1164.1 4444.9,1169.4C4453.4,1177.4 4458,1188 4458,1199.8C4458,1209.8 4430.3,1330.8 4426,1339.6C4422.2,1347.4 4414,1355.1 4405.3,1359.3L4398.5,1362.5L4373.9,1362.8L4349.3,1363.2L4246.4,1453.6C4189.8,1503.4 4143.4,1544.5 4143.2,1545C4143,1545.4 4166.5,1581.7 4195.3,1625.6L4247.6,1705.5L4279.1,1706L4310.5,1706.5L4317.2,1709.7C4321.2,1711.6 4326.1,1715 4329,1718C4337.6,1726.5 4343,1741.4 4341.5,1752.5C4341.2,1755.2 4334.4,1785.3 4326.4,1819.3C4315.2,1867.1 4311.3,1882.5 4308.9,1887.2C4304.8,1895.3 4297.5,1902.4 4289.2,1906.3L4282.5,1909.5L3963.5,1909.5L3956.8,1906.3C3947.4,1901.9 3940.8,1895.4 3936.2,1886.1C3932.7,1879 3932.5,1878.1 3932.5,1869.1C3932.6,1860.4 3933.9,1853.9 3946.7,1798.5C3954.5,1764.9 3961.6,1735.6 3962.4,1733.4C3964.6,1727.1 3968.2,1721.9 3974.3,1716.4L3979.8,1711.3L3975.2,1704.2C3972.6,1700.2 3970.2,1697.1 3969.8,1697.3C3968.9,1697.5 3933.1,1729 3932.5,1730.1C3932.2,1730.5 3932.7,1733.4 3933.5,1736.6C3934.3,1739.8 3935,1744.9 3935,1747.9C3935,1754.7 3906.7,1878.3 3903.5,1885.5C3898.8,1895.9 3889.5,1904.3 3878.7,1907.9L3872.4,1910L3714.5,1909.8L3556.5,1909.5L3549.8,1906.3C3532.9,1898.3 3522.7,1878.9 3526,1860.9C3526.6,1857.5 3533.4,1827.8 3541.1,1795.1C3556.3,1729.9 3557.3,1726.8 3566,1718C3568.7,1715.4 3574,1711.7 3577.7,1709.8L3584.4,1706.5L3632.6,1705.9L3741.1,1610.9C3800.7,1558.6 3849.9,1515.5 3850.4,1515C3850.9,1514.5 3829.7,1481.2 3801.9,1438.6L3752.5,1363L3722.7,1363C3695.3,1363 3692.5,1362.8 3686.8,1360.9C3679.5,1358.5 3673.9,1354.8 3668.3,1348.7C3660.7,1340.5 3656.3,1328.2 3657.3,1318C3658.3,1307.9 3687,1186.9 3689.7,1181.6C3692.6,1176 3700.7,1167 3705.7,1163.8C3707.6,1162.7 3711.7,1160.9 3714.8,1159.9C3720.2,1158.2 3728.1,1158.1 3878.1,1158.3L4035.6,1158.5L4043.1,1162.2ZM3713.4,1260.2L3699.3,1320.5L3737.4,1320.8L3775.5,1321L3840.5,1420.6C3876.3,1475.3 3905.5,1520.7 3905.5,1521.4C3905.5,1522.1 3847.7,1573.4 3777,1635.4L3648.5,1748L3595.4,1748L3567.4,1868L3716.4,1867.8L3865.5,1867.5L3879.2,1808C3886.7,1775.3 3892.9,1748.4 3893,1748.3C3893,1748.1 3883,1747.9 3870.8,1747.8L3848.6,1747.5L3913.5,1690.3C3963.6,1646.1 3978.7,1633.3 3979.6,1634.3C3981.7,1636.5 4053,1746.1 4053,1747.1C4053,1747.6 4042,1748.1 4027.3,1748.2L4001.7,1748.5L3974.3,1867.5L4122.8,1867.8C4204.5,1867.9 4271.4,1867.9 4271.6,1867.8C4271.7,1867.6 4278.1,1840.7 4285.7,1808L4299.6,1748.5L4224.8,1747.5L4156,1642.6L4087.1,1537.6L4091.3,1534C4093.6,1531.9 4149,1483.2 4214.5,1425.6L4333.4,1321L4388.5,1321L4401.9,1262.7C4409.2,1230.7 4415.4,1203.5 4415.7,1202.2L4416.2,1200L4118.2,1200L4117.1,1204.7C4116.6,1207.4 4110.5,1234.2 4103.6,1264.3C4096.7,1294.4 4091,1319.5 4091,1320C4091,1320.6 4099.9,1321.1 4112.6,1321.2L4134.2,1321.5L4075,1373.5C4042.4,1402.1 4015.3,1425.5 4014.8,1425.5C4013.9,1425.5 3946,1322.7 3946,1321.4C3946,1321.2 3957.5,1320.9 3971.7,1320.8L3997.3,1320.5L4010.5,1262.9C4017.8,1231.2 4024,1204.1 4024.4,1202.7L4025,1200L3727.4,1200L3713.4,1260.2Z" style="fill:rgb(52,50,53);stroke:rgb(52,50,53);stroke-width:7.01px;stroke-linecap:butt;"/>
    </g>
</svg>
