<?xml version="1.0" encoding="UTF-8" standalone="no"?>
<!DOCTYPE svg PUBLIC "-//W3C//DTD SVG 1.1//EN" "http://www.w3.org/Graphics/SVG/1.1/DTD/svg11.dtd">
<svg width="100%" height="100%" viewBox="0 0 280 1246" version="1.1" xmlns="http://www.w3.org/2000/svg" xmlns:xlink="http://www.w3.org/1999/xlink" xml:space="preserve" xmlns:serif="http://www.serif.com/" style="fill-rule:evenodd;clip-rule:evenodd;stroke-linejoin:round;stroke-miterlimit:2;">
    <g transform="matrix(1.97357e-16,-3.22309,3.22309,1.97357e-16,-2985.57,997.341)">
        <path d="M45.143,971.057L32.545,1012.66L30.051,1012.66L10.761,962.146C9.886,959.865 8.924,958.484 7.874,958.002C6.824,957.519 4.199,957.278 0,957.278L0,955.965L31.495,955.965L31.495,957.278C29.483,957.278 27.449,957.3 25.393,957.343C23.337,957.387 22.309,957.936 22.309,958.99C22.309,959.516 22.571,960.394 23.096,961.623L35.762,996.384L44.267,968.301L42.518,962.193C41.818,959.889 41.184,958.494 40.615,958.008C40.047,957.521 38.669,957.278 36.481,957.278L33.463,957.278L33.463,955.965L62.596,955.965L62.596,957.278C60.584,957.278 58.593,957.3 56.625,957.343C54.657,957.387 53.672,957.936 53.672,958.99C53.672,959.516 53.891,960.438 54.329,961.756L64.171,995.465L73.074,969.656C74.137,966.583 74.669,964.213 74.669,962.545C74.669,959.034 71.738,957.278 65.877,957.278L65.877,955.965L87.792,955.965L87.792,957.278C84.467,957.278 81.886,958.089 80.049,959.712C78.212,961.334 76.156,965.39 73.882,971.879L59.971,1012.66L57.478,1012.66L45.143,971.057Z" style="fill:rgb(225,224,226);fill-rule:nonzero;"/>
        <path d="M142.383,984.442C142.383,992.928 139.452,999.971 133.59,1005.57C128.254,1010.64 122.261,1013.18 115.612,1013.18C108.788,1013.18 102.839,1010.82 97.765,1006.1C91.816,1000.58 88.842,993.366 88.842,984.442C88.842,975.956 91.772,968.957 97.634,963.446C102.971,958.459 108.963,955.965 115.612,955.965C122.349,955.965 128.298,958.328 133.459,963.052C139.408,968.476 142.383,975.606 142.383,984.442ZM128.735,984.442C128.735,974.731 127.904,967.907 126.242,963.97C124.317,959.421 120.774,957.147 115.612,957.147C110.888,957.147 107.52,959.334 105.508,963.708C103.495,968.082 102.489,974.994 102.489,984.442C102.489,994.065 103.386,1001.06 105.18,1005.44C106.973,1009.81 110.451,1012 115.612,1012C120.336,1012 123.705,1009.77 125.717,1005.31C127.729,1000.85 128.735,993.89 128.735,984.442Z" style="fill:rgb(225,224,226);fill-rule:nonzero;"/>
        <path d="M159.967,964.67C159.967,962.906 159.792,961.804 159.442,961.362C158.83,960.481 158.261,959.952 157.736,959.775C156.162,959.335 152.575,959.115 146.976,959.115L146.976,957.934L172.303,955.965L172.303,972.631C172.653,969.045 173.878,965.676 175.977,962.527C178.864,958.153 182.495,955.965 186.869,955.965C188.531,955.965 190.325,956.512 192.25,957.606C194.174,958.699 195.465,960.077 196.121,961.74C196.777,963.402 197.105,964.889 197.105,966.201C197.105,969.701 195.647,972.107 192.731,973.419C192.025,973.769 191.097,973.944 189.949,973.944C188.183,973.944 186.681,973.331 185.444,972.107C184.207,970.882 183.588,969.045 183.588,966.595C183.588,965.02 184.185,963.446 185.377,961.871C186.57,960.296 187.961,959.684 189.551,960.034C189.029,958.196 187.461,957.278 184.847,957.278C182.321,957.278 179.795,959.124 177.269,962.816C173.958,967.563 172.303,973.674 172.303,981.147L172.303,1005.68C172.303,1007.43 172.434,1008.58 172.697,1009.11C172.871,1009.37 173.265,1009.63 173.878,1009.9C175.715,1010.51 179.52,1010.82 185.294,1010.82L185.294,1012L146.976,1012L146.976,1010.82C149.513,1010.82 151.809,1010.73 153.865,1010.55C155.921,1010.38 157.693,1010.02 159.18,1009.5C159.705,1009.06 159.967,1007.78 159.967,1005.66L159.967,964.67Z" style="fill:rgb(225,224,226);fill-rule:nonzero;"/>
        <path d="M223.088,988.379L223.088,1005.67C223.088,1007.43 223.219,1008.58 223.482,1009.1C223.657,1009.37 224.072,1009.63 224.729,1009.89C225.385,1010.16 226.544,1010.38 228.206,1010.55C229.868,1010.73 231.224,1010.82 232.274,1010.82L232.274,1012L198.417,1012L198.417,1010.82C203.666,1010.82 207.21,1010.51 209.047,1009.9L209.965,1009.5C210.49,1009.06 210.753,1007.79 210.753,1005.69L210.753,935.381C210.753,933.626 210.49,932.375 209.965,931.629C209.44,930.882 208.959,930.465 208.522,930.378C207.122,929.939 203.798,929.72 198.549,929.72L198.549,928.539L223.088,926.308L223.088,986.017L239.623,969.462C242.248,966.901 243.56,964.606 243.56,962.576C243.56,960.897 242.641,959.595 240.804,958.668C238.967,957.741 236.167,957.278 232.405,957.278L232.405,955.965L262.457,955.965L262.457,957.278C259.132,957.278 256.53,957.761 254.649,958.728C252.768,959.696 250.209,961.674 246.972,964.663L238.836,972.707L255.633,1006.2C256.595,1008.14 257.798,1009.39 259.242,1009.96C260.685,1010.53 263.069,1010.82 266.394,1010.82L266.394,1012L234.374,1012L234.374,1010.82C237.261,1010.82 239.492,1010.75 241.066,1010.62C242.641,1010.49 243.429,1009.85 243.429,1008.71C243.429,1008.18 243.079,1007.21 242.379,1005.8L230.043,981.293L223.088,988.379Z" style="fill:rgb(225,224,226);fill-rule:nonzero;"/>
        <path d="M299.201,960.034C302.613,957.496 304.406,956.14 304.581,955.965L304.581,975.65L303.531,975.387C302.306,970.138 300.119,965.851 296.97,962.527C293.558,958.94 289.796,957.147 285.684,957.147C282.535,957.147 279.954,957.759 277.942,958.984C275.23,960.646 273.874,963.402 273.874,967.251C273.874,970.401 275.355,972.85 278.319,974.6C280.41,975.825 284.594,977.181 290.87,978.668C297.145,980.155 301.548,981.905 304.077,983.917C307.65,986.717 309.436,991.178 309.436,997.302C309.436,1002.99 307.512,1007.19 303.662,1009.9C300.6,1012.09 296.751,1013.18 292.114,1013.18C288.265,1013.18 285.509,1012.92 283.847,1012.39C281.397,1011.61 278.729,1009.73 275.842,1006.75C272.343,1010.86 270.505,1013.01 270.33,1013.18L270.33,989.954L271.249,989.954C272.743,995.378 273.973,999.14 274.938,1001.24C276.256,1004.13 277.661,1006.27 279.156,1007.67C281.176,1009.59 283.087,1010.8 284.888,1011.28C286.689,1011.76 289.39,1012 292.992,1012C295.715,1012 297.955,1011.3 299.713,1009.9C301.821,1008.24 302.875,1005.88 302.875,1002.81C302.875,998.877 301.47,995.946 298.659,994.022C296.464,992.534 292.578,991.222 287.002,990.085C281.425,988.948 277.1,987.11 274.025,984.573C270.337,981.511 268.493,977.443 268.493,972.369C268.493,967.82 270.046,963.949 273.152,960.755C276.258,957.562 280.041,955.965 284.503,955.965C287.915,955.965 290.89,956.534 293.427,957.671C296.751,959.159 298.676,959.946 299.201,960.034Z" style="fill:rgb(225,224,226);fill-rule:nonzero;"/>
    </g>
</svg>
