<?xml version="1.0" encoding="UTF-8" standalone="no"?>
<!DOCTYPE svg PUBLIC "-//W3C//DTD SVG 1.1//EN" "http://www.w3.org/Graphics/SVG/1.1/DTD/svg11.dtd">
<svg width="100%" height="100%" viewBox="0 0 192 220" version="1.1" xmlns="http://www.w3.org/2000/svg" xmlns:xlink="http://www.w3.org/1999/xlink" xml:space="preserve" xmlns:serif="http://www.serif.com/" style="fill-rule:evenodd;clip-rule:evenodd;stroke-linejoin:round;stroke-miterlimit:2;">
    <g transform="matrix(0.105724,0,0,0.105724,3.56476,2.03174)">
        <path d="M142.615,41.073C143.626,40.371 144.574,39.663 145.439,38.956C157.363,29.211 177.616,0 177.616,0C186.67,22.2 184.257,49.349 172.983,67.665C184.927,83.669 192,103.515 192,125C192,177.984 148.984,221 96,221C43.016,221 0,177.984 0,125C0,103.515 7.073,83.669 19.013,67.67C7.737,49.356 5.322,22.203 14.378,0C14.378,0 34.631,29.211 46.554,38.956C47.42,39.663 48.367,40.371 49.382,41.076C63.191,33.383 79.088,29 96,29C112.912,29 128.809,33.383 142.615,41.073ZM88.771,124.392C80.66,149.212 62.853,157.683 48.937,143.279C34.965,128.819 30.171,96.745 38.237,71.699C38.237,71.699 52.571,97.879 61.009,106.613C69.447,115.346 88.866,124.1 88.866,124.1L88.771,124.392ZM103.229,124.392C111.34,149.212 129.147,157.683 143.063,143.279C157.035,128.819 161.829,96.745 153.763,71.699C153.763,71.699 139.429,97.879 130.991,106.613C122.553,115.346 103.134,124.1 103.134,124.1L103.229,124.392Z" style="fill:white;"/>
    </g>
    <g transform="matrix(0.105724,0,0,0.105724,30.9933,2.03174)">
        <path d="M142.615,41.073C143.626,40.371 144.574,39.663 145.439,38.956C157.363,29.211 177.616,0 177.616,0C186.67,22.2 184.257,49.349 172.983,67.665C184.927,83.669 192,103.515 192,125C192,177.984 148.984,221 96,221C43.016,221 0,177.984 0,125C0,103.515 7.073,83.669 19.013,67.67C7.737,49.356 5.322,22.203 14.378,0C14.378,0 34.631,29.211 46.554,38.956C47.42,39.663 48.367,40.371 49.382,41.076C63.191,33.383 79.088,29 96,29C112.912,29 128.809,33.383 142.615,41.073ZM88.771,124.392C80.66,149.212 62.853,157.683 48.937,143.279C34.965,128.819 30.171,96.745 38.237,71.699C38.237,71.699 52.571,97.879 61.009,106.613C69.447,115.346 88.866,124.1 88.866,124.1L88.771,124.392ZM103.229,124.392C111.34,149.212 129.147,157.683 143.063,143.279C157.035,128.819 161.829,96.745 153.763,71.699C153.763,71.699 139.429,97.879 130.991,106.613C122.553,115.346 103.134,124.1 103.134,124.1L103.229,124.392Z" style="fill:white;"/>
    </g>
    <g transform="matrix(0.105724,0,0,0.105724,58.4219,2.03174)">
        <path d="M142.615,41.073C143.626,40.371 144.574,39.663 145.439,38.956C157.363,29.211 177.616,0 177.616,0C186.67,22.2 184.257,49.349 172.983,67.665C184.927,83.669 192,103.515 192,125C192,177.984 148.984,221 96,221C43.016,221 0,177.984 0,125C0,103.515 7.073,83.669 19.013,67.67C7.737,49.356 5.322,22.203 14.378,0C14.378,0 34.631,29.211 46.554,38.956C47.42,39.663 48.367,40.371 49.382,41.076C63.191,33.383 79.088,29 96,29C112.912,29 128.809,33.383 142.615,41.073ZM88.771,124.392C80.66,149.212 62.853,157.683 48.937,143.279C34.965,128.819 30.171,96.745 38.237,71.699C38.237,71.699 52.571,97.879 61.009,106.613C69.447,115.346 88.866,124.1 88.866,124.1L88.771,124.392ZM103.229,124.392C111.34,149.212 129.147,157.683 143.063,143.279C157.035,128.819 161.829,96.745 153.763,71.699C153.763,71.699 139.429,97.879 130.991,106.613C122.553,115.346 103.134,124.1 103.134,124.1L103.229,124.392Z" style="fill:white;"/>
    </g>
    <g transform="matrix(0.105724,0,0,0.105724,85.8505,2.03174)">
        <path d="M142.615,41.073C143.626,40.371 144.574,39.663 145.439,38.956C157.363,29.211 177.616,0 177.616,0C186.67,22.2 184.257,49.349 172.983,67.665C184.927,83.669 192,103.515 192,125C192,177.984 148.984,221 96,221C43.016,221 0,177.984 0,125C0,103.515 7.073,83.669 19.013,67.67C7.737,49.356 5.322,22.203 14.378,0C14.378,0 34.631,29.211 46.554,38.956C47.42,39.663 48.367,40.371 49.382,41.076C63.191,33.383 79.088,29 96,29C112.912,29 128.809,33.383 142.615,41.073ZM88.771,124.392C80.66,149.212 62.853,157.683 48.937,143.279C34.965,128.819 30.171,96.745 38.237,71.699C38.237,71.699 52.571,97.879 61.009,106.613C69.447,115.346 88.866,124.1 88.866,124.1L88.771,124.392ZM103.229,124.392C111.34,149.212 129.147,157.683 143.063,143.279C157.035,128.819 161.829,96.745 153.763,71.699C153.763,71.699 139.429,97.879 130.991,106.613C122.553,115.346 103.134,124.1 103.134,124.1L103.229,124.392Z" style="fill:white;"/>
    </g>
    <g transform="matrix(0.105724,0,0,0.105724,113.279,2.03174)">
        <path d="M142.615,41.073C143.626,40.371 144.574,39.663 145.439,38.956C157.363,29.211 177.616,0 177.616,0C186.67,22.2 184.257,49.349 172.983,67.665C184.927,83.669 192,103.515 192,125C192,177.984 148.984,221 96,221C43.016,221 0,177.984 0,125C0,103.515 7.073,83.669 19.013,67.67C7.737,49.356 5.322,22.203 14.378,0C14.378,0 34.631,29.211 46.554,38.956C47.42,39.663 48.367,40.371 49.382,41.076C63.191,33.383 79.088,29 96,29C112.912,29 128.809,33.383 142.615,41.073ZM88.771,124.392C80.66,149.212 62.853,157.683 48.937,143.279C34.965,128.819 30.171,96.745 38.237,71.699C38.237,71.699 52.571,97.879 61.009,106.613C69.447,115.346 88.866,124.1 88.866,124.1L88.771,124.392ZM103.229,124.392C111.34,149.212 129.147,157.683 143.063,143.279C157.035,128.819 161.829,96.745 153.763,71.699C153.763,71.699 139.429,97.879 130.991,106.613C122.553,115.346 103.134,124.1 103.134,124.1L103.229,124.392Z" style="fill:white;"/>
    </g>
    <g transform="matrix(0.105724,0,0,0.105724,140.708,2.03174)">
        <path d="M142.615,41.073C143.626,40.371 144.574,39.663 145.439,38.956C157.363,29.211 177.616,0 177.616,0C186.67,22.2 184.257,49.349 172.983,67.665C184.927,83.669 192,103.515 192,125C192,177.984 148.984,221 96,221C43.016,221 0,177.984 0,125C0,103.515 7.073,83.669 19.013,67.67C7.737,49.356 5.322,22.203 14.378,0C14.378,0 34.631,29.211 46.554,38.956C47.42,39.663 48.367,40.371 49.382,41.076C63.191,33.383 79.088,29 96,29C112.912,29 128.809,33.383 142.615,41.073ZM88.771,124.392C80.66,149.212 62.853,157.683 48.937,143.279C34.965,128.819 30.171,96.745 38.237,71.699C38.237,71.699 52.571,97.879 61.009,106.613C69.447,115.346 88.866,124.1 88.866,124.1L88.771,124.392ZM103.229,124.392C111.34,149.212 129.147,157.683 143.063,143.279C157.035,128.819 161.829,96.745 153.763,71.699C153.763,71.699 139.429,97.879 130.991,106.613C122.553,115.346 103.134,124.1 103.134,124.1L103.229,124.392Z" style="fill:white;"/>
    </g>
    <g transform="matrix(0.105724,0,0,0.105724,168.136,2.03174)">
        <path d="M142.615,41.073C143.626,40.371 144.574,39.663 145.439,38.956C157.363,29.211 177.616,0 177.616,0C186.67,22.2 184.257,49.349 172.983,67.665C184.927,83.669 192,103.515 192,125C192,177.984 148.984,221 96,221C43.016,221 0,177.984 0,125C0,103.515 7.073,83.669 19.013,67.67C7.737,49.356 5.322,22.203 14.378,0C14.378,0 34.631,29.211 46.554,38.956C47.42,39.663 48.367,40.371 49.382,41.076C63.191,33.383 79.088,29 96,29C112.912,29 128.809,33.383 142.615,41.073ZM88.771,124.392C80.66,149.212 62.853,157.683 48.937,143.279C34.965,128.819 30.171,96.745 38.237,71.699C38.237,71.699 52.571,97.879 61.009,106.613C69.447,115.346 88.866,124.1 88.866,124.1L88.771,124.392ZM103.229,124.392C111.34,149.212 129.147,157.683 143.063,143.279C157.035,128.819 161.829,96.745 153.763,71.699C153.763,71.699 139.429,97.879 130.991,106.613C122.553,115.346 103.134,124.1 103.134,124.1L103.229,124.392Z" style="fill:white;"/>
    </g>
    <g transform="matrix(0.105724,0,0,0.105724,3.56476,29.4603)">
        <path d="M142.615,41.073C143.626,40.371 144.574,39.663 145.439,38.956C157.363,29.211 177.616,0 177.616,0C186.67,22.2 184.257,49.349 172.983,67.665C184.927,83.669 192,103.515 192,125C192,177.984 148.984,221 96,221C43.016,221 0,177.984 0,125C0,103.515 7.073,83.669 19.013,67.67C7.737,49.356 5.322,22.203 14.378,0C14.378,0 34.631,29.211 46.554,38.956C47.42,39.663 48.367,40.371 49.382,41.076C63.191,33.383 79.088,29 96,29C112.912,29 128.809,33.383 142.615,41.073ZM88.771,124.392C80.66,149.212 62.853,157.683 48.937,143.279C34.965,128.819 30.171,96.745 38.237,71.699C38.237,71.699 52.571,97.879 61.009,106.613C69.447,115.346 88.866,124.1 88.866,124.1L88.771,124.392ZM103.229,124.392C111.34,149.212 129.147,157.683 143.063,143.279C157.035,128.819 161.829,96.745 153.763,71.699C153.763,71.699 139.429,97.879 130.991,106.613C122.553,115.346 103.134,124.1 103.134,124.1L103.229,124.392Z" style="fill:white;"/>
    </g>
    <g transform="matrix(0.105724,0,0,0.105724,30.9933,29.4603)">
        <path d="M142.615,41.073C143.626,40.371 144.574,39.663 145.439,38.956C157.363,29.211 177.616,0 177.616,0C186.67,22.2 184.257,49.349 172.983,67.665C184.927,83.669 192,103.515 192,125C192,177.984 148.984,221 96,221C43.016,221 0,177.984 0,125C0,103.515 7.073,83.669 19.013,67.67C7.737,49.356 5.322,22.203 14.378,0C14.378,0 34.631,29.211 46.554,38.956C47.42,39.663 48.367,40.371 49.382,41.076C63.191,33.383 79.088,29 96,29C112.912,29 128.809,33.383 142.615,41.073ZM88.771,124.392C80.66,149.212 62.853,157.683 48.937,143.279C34.965,128.819 30.171,96.745 38.237,71.699C38.237,71.699 52.571,97.879 61.009,106.613C69.447,115.346 88.866,124.1 88.866,124.1L88.771,124.392ZM103.229,124.392C111.34,149.212 129.147,157.683 143.063,143.279C157.035,128.819 161.829,96.745 153.763,71.699C153.763,71.699 139.429,97.879 130.991,106.613C122.553,115.346 103.134,124.1 103.134,124.1L103.229,124.392Z" style="fill:white;"/>
    </g>
    <g transform="matrix(0.105724,0,0,0.105724,58.4219,29.4603)">
        <path d="M142.615,41.073C143.626,40.371 144.574,39.663 145.439,38.956C157.363,29.211 177.616,0 177.616,0C186.67,22.2 184.257,49.349 172.983,67.665C184.927,83.669 192,103.515 192,125C192,177.984 148.984,221 96,221C43.016,221 0,177.984 0,125C0,103.515 7.073,83.669 19.013,67.67C7.737,49.356 5.322,22.203 14.378,0C14.378,0 34.631,29.211 46.554,38.956C47.42,39.663 48.367,40.371 49.382,41.076C63.191,33.383 79.088,29 96,29C112.912,29 128.809,33.383 142.615,41.073ZM88.771,124.392C80.66,149.212 62.853,157.683 48.937,143.279C34.965,128.819 30.171,96.745 38.237,71.699C38.237,71.699 52.571,97.879 61.009,106.613C69.447,115.346 88.866,124.1 88.866,124.1L88.771,124.392ZM103.229,124.392C111.34,149.212 129.147,157.683 143.063,143.279C157.035,128.819 161.829,96.745 153.763,71.699C153.763,71.699 139.429,97.879 130.991,106.613C122.553,115.346 103.134,124.1 103.134,124.1L103.229,124.392Z" style="fill:white;"/>
    </g>
    <g transform="matrix(0.105724,0,0,0.105724,85.8505,29.4603)">
        <path d="M142.615,41.073C143.626,40.371 144.574,39.663 145.439,38.956C157.363,29.211 177.616,0 177.616,0C186.67,22.2 184.257,49.349 172.983,67.665C184.927,83.669 192,103.515 192,125C192,177.984 148.984,221 96,221C43.016,221 0,177.984 0,125C0,103.515 7.073,83.669 19.013,67.67C7.737,49.356 5.322,22.203 14.378,0C14.378,0 34.631,29.211 46.554,38.956C47.42,39.663 48.367,40.371 49.382,41.076C63.191,33.383 79.088,29 96,29C112.912,29 128.809,33.383 142.615,41.073ZM88.771,124.392C80.66,149.212 62.853,157.683 48.937,143.279C34.965,128.819 30.171,96.745 38.237,71.699C38.237,71.699 52.571,97.879 61.009,106.613C69.447,115.346 88.866,124.1 88.866,124.1L88.771,124.392ZM103.229,124.392C111.34,149.212 129.147,157.683 143.063,143.279C157.035,128.819 161.829,96.745 153.763,71.699C153.763,71.699 139.429,97.879 130.991,106.613C122.553,115.346 103.134,124.1 103.134,124.1L103.229,124.392Z" style="fill:white;"/>
    </g>
    <g transform="matrix(0.105724,0,0,0.105724,113.279,29.4603)">
        <path d="M142.615,41.073C143.626,40.371 144.574,39.663 145.439,38.956C157.363,29.211 177.616,0 177.616,0C186.67,22.2 184.257,49.349 172.983,67.665C184.927,83.669 192,103.515 192,125C192,177.984 148.984,221 96,221C43.016,221 0,177.984 0,125C0,103.515 7.073,83.669 19.013,67.67C7.737,49.356 5.322,22.203 14.378,0C14.378,0 34.631,29.211 46.554,38.956C47.42,39.663 48.367,40.371 49.382,41.076C63.191,33.383 79.088,29 96,29C112.912,29 128.809,33.383 142.615,41.073ZM88.771,124.392C80.66,149.212 62.853,157.683 48.937,143.279C34.965,128.819 30.171,96.745 38.237,71.699C38.237,71.699 52.571,97.879 61.009,106.613C69.447,115.346 88.866,124.1 88.866,124.1L88.771,124.392ZM103.229,124.392C111.34,149.212 129.147,157.683 143.063,143.279C157.035,128.819 161.829,96.745 153.763,71.699C153.763,71.699 139.429,97.879 130.991,106.613C122.553,115.346 103.134,124.1 103.134,124.1L103.229,124.392Z" style="fill:white;"/>
    </g>
    <g transform="matrix(0.105724,0,0,0.105724,140.708,29.4603)">
        <path d="M142.615,41.073C143.626,40.371 144.574,39.663 145.439,38.956C157.363,29.211 177.616,0 177.616,0C186.67,22.2 184.257,49.349 172.983,67.665C184.927,83.669 192,103.515 192,125C192,177.984 148.984,221 96,221C43.016,221 0,177.984 0,125C0,103.515 7.073,83.669 19.013,67.67C7.737,49.356 5.322,22.203 14.378,0C14.378,0 34.631,29.211 46.554,38.956C47.42,39.663 48.367,40.371 49.382,41.076C63.191,33.383 79.088,29 96,29C112.912,29 128.809,33.383 142.615,41.073ZM88.771,124.392C80.66,149.212 62.853,157.683 48.937,143.279C34.965,128.819 30.171,96.745 38.237,71.699C38.237,71.699 52.571,97.879 61.009,106.613C69.447,115.346 88.866,124.1 88.866,124.1L88.771,124.392ZM103.229,124.392C111.34,149.212 129.147,157.683 143.063,143.279C157.035,128.819 161.829,96.745 153.763,71.699C153.763,71.699 139.429,97.879 130.991,106.613C122.553,115.346 103.134,124.1 103.134,124.1L103.229,124.392Z" style="fill:white;"/>
    </g>
    <g transform="matrix(0.105724,0,0,0.105724,168.136,29.4603)">
        <path d="M142.615,41.073C143.626,40.371 144.574,39.663 145.439,38.956C157.363,29.211 177.616,0 177.616,0C186.67,22.2 184.257,49.349 172.983,67.665C184.927,83.669 192,103.515 192,125C192,177.984 148.984,221 96,221C43.016,221 0,177.984 0,125C0,103.515 7.073,83.669 19.013,67.67C7.737,49.356 5.322,22.203 14.378,0C14.378,0 34.631,29.211 46.554,38.956C47.42,39.663 48.367,40.371 49.382,41.076C63.191,33.383 79.088,29 96,29C112.912,29 128.809,33.383 142.615,41.073ZM88.771,124.392C80.66,149.212 62.853,157.683 48.937,143.279C34.965,128.819 30.171,96.745 38.237,71.699C38.237,71.699 52.571,97.879 61.009,106.613C69.447,115.346 88.866,124.1 88.866,124.1L88.771,124.392ZM103.229,124.392C111.34,149.212 129.147,157.683 143.063,143.279C157.035,128.819 161.829,96.745 153.763,71.699C153.763,71.699 139.429,97.879 130.991,106.613C122.553,115.346 103.134,124.1 103.134,124.1L103.229,124.392Z" style="fill:white;"/>
    </g>
    <g transform="matrix(0.105724,0,0,0.105724,3.56476,56.8889)">
        <path d="M142.615,41.073C143.626,40.371 144.574,39.663 145.439,38.956C157.363,29.211 177.616,0 177.616,0C186.67,22.2 184.257,49.349 172.983,67.665C184.927,83.669 192,103.515 192,125C192,177.984 148.984,221 96,221C43.016,221 0,177.984 0,125C0,103.515 7.073,83.669 19.013,67.67C7.737,49.356 5.322,22.203 14.378,0C14.378,0 34.631,29.211 46.554,38.956C47.42,39.663 48.367,40.371 49.382,41.076C63.191,33.383 79.088,29 96,29C112.912,29 128.809,33.383 142.615,41.073ZM88.771,124.392C80.66,149.212 62.853,157.683 48.937,143.279C34.965,128.819 30.171,96.745 38.237,71.699C38.237,71.699 52.571,97.879 61.009,106.613C69.447,115.346 88.866,124.1 88.866,124.1L88.771,124.392ZM103.229,124.392C111.34,149.212 129.147,157.683 143.063,143.279C157.035,128.819 161.829,96.745 153.763,71.699C153.763,71.699 139.429,97.879 130.991,106.613C122.553,115.346 103.134,124.1 103.134,124.1L103.229,124.392Z" style="fill:white;"/>
    </g>
    <g transform="matrix(0.105724,0,0,0.105724,30.9933,56.8889)">
        <path d="M142.615,41.073C143.626,40.371 144.574,39.663 145.439,38.956C157.363,29.211 177.616,0 177.616,0C186.67,22.2 184.257,49.349 172.983,67.665C184.927,83.669 192,103.515 192,125C192,177.984 148.984,221 96,221C43.016,221 0,177.984 0,125C0,103.515 7.073,83.669 19.013,67.67C7.737,49.356 5.322,22.203 14.378,0C14.378,0 34.631,29.211 46.554,38.956C47.42,39.663 48.367,40.371 49.382,41.076C63.191,33.383 79.088,29 96,29C112.912,29 128.809,33.383 142.615,41.073ZM88.771,124.392C80.66,149.212 62.853,157.683 48.937,143.279C34.965,128.819 30.171,96.745 38.237,71.699C38.237,71.699 52.571,97.879 61.009,106.613C69.447,115.346 88.866,124.1 88.866,124.1L88.771,124.392ZM103.229,124.392C111.34,149.212 129.147,157.683 143.063,143.279C157.035,128.819 161.829,96.745 153.763,71.699C153.763,71.699 139.429,97.879 130.991,106.613C122.553,115.346 103.134,124.1 103.134,124.1L103.229,124.392Z" style="fill:white;"/>
    </g>
    <g transform="matrix(0.105724,0,0,0.105724,58.4219,56.8889)">
        <path d="M142.615,41.073C143.626,40.371 144.574,39.663 145.439,38.956C157.363,29.211 177.616,0 177.616,0C186.67,22.2 184.257,49.349 172.983,67.665C184.927,83.669 192,103.515 192,125C192,177.984 148.984,221 96,221C43.016,221 0,177.984 0,125C0,103.515 7.073,83.669 19.013,67.67C7.737,49.356 5.322,22.203 14.378,0C14.378,0 34.631,29.211 46.554,38.956C47.42,39.663 48.367,40.371 49.382,41.076C63.191,33.383 79.088,29 96,29C112.912,29 128.809,33.383 142.615,41.073ZM88.771,124.392C80.66,149.212 62.853,157.683 48.937,143.279C34.965,128.819 30.171,96.745 38.237,71.699C38.237,71.699 52.571,97.879 61.009,106.613C69.447,115.346 88.866,124.1 88.866,124.1L88.771,124.392ZM103.229,124.392C111.34,149.212 129.147,157.683 143.063,143.279C157.035,128.819 161.829,96.745 153.763,71.699C153.763,71.699 139.429,97.879 130.991,106.613C122.553,115.346 103.134,124.1 103.134,124.1L103.229,124.392Z" style="fill:white;"/>
    </g>
    <g transform="matrix(0.105724,0,0,0.105724,85.8505,56.8889)">
        <path d="M142.615,41.073C143.626,40.371 144.574,39.663 145.439,38.956C157.363,29.211 177.616,0 177.616,0C186.67,22.2 184.257,49.349 172.983,67.665C184.927,83.669 192,103.515 192,125C192,177.984 148.984,221 96,221C43.016,221 0,177.984 0,125C0,103.515 7.073,83.669 19.013,67.67C7.737,49.356 5.322,22.203 14.378,0C14.378,0 34.631,29.211 46.554,38.956C47.42,39.663 48.367,40.371 49.382,41.076C63.191,33.383 79.088,29 96,29C112.912,29 128.809,33.383 142.615,41.073ZM88.771,124.392C80.66,149.212 62.853,157.683 48.937,143.279C34.965,128.819 30.171,96.745 38.237,71.699C38.237,71.699 52.571,97.879 61.009,106.613C69.447,115.346 88.866,124.1 88.866,124.1L88.771,124.392ZM103.229,124.392C111.34,149.212 129.147,157.683 143.063,143.279C157.035,128.819 161.829,96.745 153.763,71.699C153.763,71.699 139.429,97.879 130.991,106.613C122.553,115.346 103.134,124.1 103.134,124.1L103.229,124.392Z" style="fill:white;"/>
    </g>
    <g transform="matrix(0.105724,0,0,0.105724,113.279,56.8889)">
        <path d="M142.615,41.073C143.626,40.371 144.574,39.663 145.439,38.956C157.363,29.211 177.616,0 177.616,0C186.67,22.2 184.257,49.349 172.983,67.665C184.927,83.669 192,103.515 192,125C192,177.984 148.984,221 96,221C43.016,221 0,177.984 0,125C0,103.515 7.073,83.669 19.013,67.67C7.737,49.356 5.322,22.203 14.378,0C14.378,0 34.631,29.211 46.554,38.956C47.42,39.663 48.367,40.371 49.382,41.076C63.191,33.383 79.088,29 96,29C112.912,29 128.809,33.383 142.615,41.073ZM88.771,124.392C80.66,149.212 62.853,157.683 48.937,143.279C34.965,128.819 30.171,96.745 38.237,71.699C38.237,71.699 52.571,97.879 61.009,106.613C69.447,115.346 88.866,124.1 88.866,124.1L88.771,124.392ZM103.229,124.392C111.34,149.212 129.147,157.683 143.063,143.279C157.035,128.819 161.829,96.745 153.763,71.699C153.763,71.699 139.429,97.879 130.991,106.613C122.553,115.346 103.134,124.1 103.134,124.1L103.229,124.392Z" style="fill:white;"/>
    </g>
    <g transform="matrix(0.105724,0,0,0.105724,140.708,56.8889)">
        <path d="M142.615,41.073C143.626,40.371 144.574,39.663 145.439,38.956C157.363,29.211 177.616,0 177.616,0C186.67,22.2 184.257,49.349 172.983,67.665C184.927,83.669 192,103.515 192,125C192,177.984 148.984,221 96,221C43.016,221 0,177.984 0,125C0,103.515 7.073,83.669 19.013,67.67C7.737,49.356 5.322,22.203 14.378,0C14.378,0 34.631,29.211 46.554,38.956C47.42,39.663 48.367,40.371 49.382,41.076C63.191,33.383 79.088,29 96,29C112.912,29 128.809,33.383 142.615,41.073ZM88.771,124.392C80.66,149.212 62.853,157.683 48.937,143.279C34.965,128.819 30.171,96.745 38.237,71.699C38.237,71.699 52.571,97.879 61.009,106.613C69.447,115.346 88.866,124.1 88.866,124.1L88.771,124.392ZM103.229,124.392C111.34,149.212 129.147,157.683 143.063,143.279C157.035,128.819 161.829,96.745 153.763,71.699C153.763,71.699 139.429,97.879 130.991,106.613C122.553,115.346 103.134,124.1 103.134,124.1L103.229,124.392Z" style="fill:white;"/>
    </g>
    <g transform="matrix(0.105724,0,0,0.105724,168.136,56.8889)">
        <path d="M142.615,41.073C143.626,40.371 144.574,39.663 145.439,38.956C157.363,29.211 177.616,0 177.616,0C186.67,22.2 184.257,49.349 172.983,67.665C184.927,83.669 192,103.515 192,125C192,177.984 148.984,221 96,221C43.016,221 0,177.984 0,125C0,103.515 7.073,83.669 19.013,67.67C7.737,49.356 5.322,22.203 14.378,0C14.378,0 34.631,29.211 46.554,38.956C47.42,39.663 48.367,40.371 49.382,41.076C63.191,33.383 79.088,29 96,29C112.912,29 128.809,33.383 142.615,41.073ZM88.771,124.392C80.66,149.212 62.853,157.683 48.937,143.279C34.965,128.819 30.171,96.745 38.237,71.699C38.237,71.699 52.571,97.879 61.009,106.613C69.447,115.346 88.866,124.1 88.866,124.1L88.771,124.392ZM103.229,124.392C111.34,149.212 129.147,157.683 143.063,143.279C157.035,128.819 161.829,96.745 153.763,71.699C153.763,71.699 139.429,97.879 130.991,106.613C122.553,115.346 103.134,124.1 103.134,124.1L103.229,124.392Z" style="fill:white;"/>
    </g>
    <g transform="matrix(0.105724,0,0,0.105724,3.56476,84.3174)">
        <path d="M142.615,41.073C143.626,40.371 144.574,39.663 145.439,38.956C157.363,29.211 177.616,0 177.616,0C186.67,22.2 184.257,49.349 172.983,67.665C184.927,83.669 192,103.515 192,125C192,177.984 148.984,221 96,221C43.016,221 0,177.984 0,125C0,103.515 7.073,83.669 19.013,67.67C7.737,49.356 5.322,22.203 14.378,0C14.378,0 34.631,29.211 46.554,38.956C47.42,39.663 48.367,40.371 49.382,41.076C63.191,33.383 79.088,29 96,29C112.912,29 128.809,33.383 142.615,41.073ZM88.771,124.392C80.66,149.212 62.853,157.683 48.937,143.279C34.965,128.819 30.171,96.745 38.237,71.699C38.237,71.699 52.571,97.879 61.009,106.613C69.447,115.346 88.866,124.1 88.866,124.1L88.771,124.392ZM103.229,124.392C111.34,149.212 129.147,157.683 143.063,143.279C157.035,128.819 161.829,96.745 153.763,71.699C153.763,71.699 139.429,97.879 130.991,106.613C122.553,115.346 103.134,124.1 103.134,124.1L103.229,124.392Z" style="fill:white;"/>
    </g>
    <g transform="matrix(0.105724,0,0,0.105724,30.9933,84.3174)">
        <path d="M142.615,41.073C143.626,40.371 144.574,39.663 145.439,38.956C157.363,29.211 177.616,0 177.616,0C186.67,22.2 184.257,49.349 172.983,67.665C184.927,83.669 192,103.515 192,125C192,177.984 148.984,221 96,221C43.016,221 0,177.984 0,125C0,103.515 7.073,83.669 19.013,67.67C7.737,49.356 5.322,22.203 14.378,0C14.378,0 34.631,29.211 46.554,38.956C47.42,39.663 48.367,40.371 49.382,41.076C63.191,33.383 79.088,29 96,29C112.912,29 128.809,33.383 142.615,41.073ZM88.771,124.392C80.66,149.212 62.853,157.683 48.937,143.279C34.965,128.819 30.171,96.745 38.237,71.699C38.237,71.699 52.571,97.879 61.009,106.613C69.447,115.346 88.866,124.1 88.866,124.1L88.771,124.392ZM103.229,124.392C111.34,149.212 129.147,157.683 143.063,143.279C157.035,128.819 161.829,96.745 153.763,71.699C153.763,71.699 139.429,97.879 130.991,106.613C122.553,115.346 103.134,124.1 103.134,124.1L103.229,124.392Z" style="fill:white;"/>
    </g>
    <g transform="matrix(0.105724,0,0,0.105724,58.4219,84.3174)">
        <path d="M142.615,41.073C143.626,40.371 144.574,39.663 145.439,38.956C157.363,29.211 177.616,0 177.616,0C186.67,22.2 184.257,49.349 172.983,67.665C184.927,83.669 192,103.515 192,125C192,177.984 148.984,221 96,221C43.016,221 0,177.984 0,125C0,103.515 7.073,83.669 19.013,67.67C7.737,49.356 5.322,22.203 14.378,0C14.378,0 34.631,29.211 46.554,38.956C47.42,39.663 48.367,40.371 49.382,41.076C63.191,33.383 79.088,29 96,29C112.912,29 128.809,33.383 142.615,41.073ZM88.771,124.392C80.66,149.212 62.853,157.683 48.937,143.279C34.965,128.819 30.171,96.745 38.237,71.699C38.237,71.699 52.571,97.879 61.009,106.613C69.447,115.346 88.866,124.1 88.866,124.1L88.771,124.392ZM103.229,124.392C111.34,149.212 129.147,157.683 143.063,143.279C157.035,128.819 161.829,96.745 153.763,71.699C153.763,71.699 139.429,97.879 130.991,106.613C122.553,115.346 103.134,124.1 103.134,124.1L103.229,124.392Z" style="fill:white;"/>
    </g>
    <g transform="matrix(0.105724,0,0,0.105724,85.8505,84.3174)">
        <path d="M142.615,41.073C143.626,40.371 144.574,39.663 145.439,38.956C157.363,29.211 177.616,0 177.616,0C186.67,22.2 184.257,49.349 172.983,67.665C184.927,83.669 192,103.515 192,125C192,177.984 148.984,221 96,221C43.016,221 0,177.984 0,125C0,103.515 7.073,83.669 19.013,67.67C7.737,49.356 5.322,22.203 14.378,0C14.378,0 34.631,29.211 46.554,38.956C47.42,39.663 48.367,40.371 49.382,41.076C63.191,33.383 79.088,29 96,29C112.912,29 128.809,33.383 142.615,41.073ZM88.771,124.392C80.66,149.212 62.853,157.683 48.937,143.279C34.965,128.819 30.171,96.745 38.237,71.699C38.237,71.699 52.571,97.879 61.009,106.613C69.447,115.346 88.866,124.1 88.866,124.1L88.771,124.392ZM103.229,124.392C111.34,149.212 129.147,157.683 143.063,143.279C157.035,128.819 161.829,96.745 153.763,71.699C153.763,71.699 139.429,97.879 130.991,106.613C122.553,115.346 103.134,124.1 103.134,124.1L103.229,124.392Z" style="fill:white;"/>
    </g>
    <g transform="matrix(0.105724,0,0,0.105724,113.279,84.3174)">
        <path d="M142.615,41.073C143.626,40.371 144.574,39.663 145.439,38.956C157.363,29.211 177.616,0 177.616,0C186.67,22.2 184.257,49.349 172.983,67.665C184.927,83.669 192,103.515 192,125C192,177.984 148.984,221 96,221C43.016,221 0,177.984 0,125C0,103.515 7.073,83.669 19.013,67.67C7.737,49.356 5.322,22.203 14.378,0C14.378,0 34.631,29.211 46.554,38.956C47.42,39.663 48.367,40.371 49.382,41.076C63.191,33.383 79.088,29 96,29C112.912,29 128.809,33.383 142.615,41.073ZM88.771,124.392C80.66,149.212 62.853,157.683 48.937,143.279C34.965,128.819 30.171,96.745 38.237,71.699C38.237,71.699 52.571,97.879 61.009,106.613C69.447,115.346 88.866,124.1 88.866,124.1L88.771,124.392ZM103.229,124.392C111.34,149.212 129.147,157.683 143.063,143.279C157.035,128.819 161.829,96.745 153.763,71.699C153.763,71.699 139.429,97.879 130.991,106.613C122.553,115.346 103.134,124.1 103.134,124.1L103.229,124.392Z" style="fill:white;"/>
    </g>
    <g transform="matrix(0.105724,0,0,0.105724,140.708,84.3174)">
        <path d="M142.615,41.073C143.626,40.371 144.574,39.663 145.439,38.956C157.363,29.211 177.616,0 177.616,0C186.67,22.2 184.257,49.349 172.983,67.665C184.927,83.669 192,103.515 192,125C192,177.984 148.984,221 96,221C43.016,221 0,177.984 0,125C0,103.515 7.073,83.669 19.013,67.67C7.737,49.356 5.322,22.203 14.378,0C14.378,0 34.631,29.211 46.554,38.956C47.42,39.663 48.367,40.371 49.382,41.076C63.191,33.383 79.088,29 96,29C112.912,29 128.809,33.383 142.615,41.073ZM88.771,124.392C80.66,149.212 62.853,157.683 48.937,143.279C34.965,128.819 30.171,96.745 38.237,71.699C38.237,71.699 52.571,97.879 61.009,106.613C69.447,115.346 88.866,124.1 88.866,124.1L88.771,124.392ZM103.229,124.392C111.34,149.212 129.147,157.683 143.063,143.279C157.035,128.819 161.829,96.745 153.763,71.699C153.763,71.699 139.429,97.879 130.991,106.613C122.553,115.346 103.134,124.1 103.134,124.1L103.229,124.392Z" style="fill:white;"/>
    </g>
    <g transform="matrix(0.105724,0,0,0.105724,168.136,84.3174)">
        <path d="M142.615,41.073C143.626,40.371 144.574,39.663 145.439,38.956C157.363,29.211 177.616,0 177.616,0C186.67,22.2 184.257,49.349 172.983,67.665C184.927,83.669 192,103.515 192,125C192,177.984 148.984,221 96,221C43.016,221 0,177.984 0,125C0,103.515 7.073,83.669 19.013,67.67C7.737,49.356 5.322,22.203 14.378,0C14.378,0 34.631,29.211 46.554,38.956C47.42,39.663 48.367,40.371 49.382,41.076C63.191,33.383 79.088,29 96,29C112.912,29 128.809,33.383 142.615,41.073ZM88.771,124.392C80.66,149.212 62.853,157.683 48.937,143.279C34.965,128.819 30.171,96.745 38.237,71.699C38.237,71.699 52.571,97.879 61.009,106.613C69.447,115.346 88.866,124.1 88.866,124.1L88.771,124.392ZM103.229,124.392C111.34,149.212 129.147,157.683 143.063,143.279C157.035,128.819 161.829,96.745 153.763,71.699C153.763,71.699 139.429,97.879 130.991,106.613C122.553,115.346 103.134,124.1 103.134,124.1L103.229,124.392Z" style="fill:white;"/>
    </g>
    <g transform="matrix(0.105724,0,0,0.105724,3.56476,111.746)">
        <path d="M142.615,41.073C143.626,40.371 144.574,39.663 145.439,38.956C157.363,29.211 177.616,0 177.616,0C186.67,22.2 184.257,49.349 172.983,67.665C184.927,83.669 192,103.515 192,125C192,177.984 148.984,221 96,221C43.016,221 0,177.984 0,125C0,103.515 7.073,83.669 19.013,67.67C7.737,49.356 5.322,22.203 14.378,0C14.378,0 34.631,29.211 46.554,38.956C47.42,39.663 48.367,40.371 49.382,41.076C63.191,33.383 79.088,29 96,29C112.912,29 128.809,33.383 142.615,41.073ZM88.771,124.392C80.66,149.212 62.853,157.683 48.937,143.279C34.965,128.819 30.171,96.745 38.237,71.699C38.237,71.699 52.571,97.879 61.009,106.613C69.447,115.346 88.866,124.1 88.866,124.1L88.771,124.392ZM103.229,124.392C111.34,149.212 129.147,157.683 143.063,143.279C157.035,128.819 161.829,96.745 153.763,71.699C153.763,71.699 139.429,97.879 130.991,106.613C122.553,115.346 103.134,124.1 103.134,124.1L103.229,124.392Z" style="fill:white;"/>
    </g>
    <g transform="matrix(0.105724,0,0,0.105724,30.9933,111.746)">
        <path d="M142.615,41.073C143.626,40.371 144.574,39.663 145.439,38.956C157.363,29.211 177.616,0 177.616,0C186.67,22.2 184.257,49.349 172.983,67.665C184.927,83.669 192,103.515 192,125C192,177.984 148.984,221 96,221C43.016,221 0,177.984 0,125C0,103.515 7.073,83.669 19.013,67.67C7.737,49.356 5.322,22.203 14.378,0C14.378,0 34.631,29.211 46.554,38.956C47.42,39.663 48.367,40.371 49.382,41.076C63.191,33.383 79.088,29 96,29C112.912,29 128.809,33.383 142.615,41.073ZM88.771,124.392C80.66,149.212 62.853,157.683 48.937,143.279C34.965,128.819 30.171,96.745 38.237,71.699C38.237,71.699 52.571,97.879 61.009,106.613C69.447,115.346 88.866,124.1 88.866,124.1L88.771,124.392ZM103.229,124.392C111.34,149.212 129.147,157.683 143.063,143.279C157.035,128.819 161.829,96.745 153.763,71.699C153.763,71.699 139.429,97.879 130.991,106.613C122.553,115.346 103.134,124.1 103.134,124.1L103.229,124.392Z" style="fill:white;"/>
    </g>
    <g transform="matrix(0.105724,0,0,0.105724,58.4219,111.746)">
        <path d="M142.615,41.073C143.626,40.371 144.574,39.663 145.439,38.956C157.363,29.211 177.616,0 177.616,0C186.67,22.2 184.257,49.349 172.983,67.665C184.927,83.669 192,103.515 192,125C192,177.984 148.984,221 96,221C43.016,221 0,177.984 0,125C0,103.515 7.073,83.669 19.013,67.67C7.737,49.356 5.322,22.203 14.378,0C14.378,0 34.631,29.211 46.554,38.956C47.42,39.663 48.367,40.371 49.382,41.076C63.191,33.383 79.088,29 96,29C112.912,29 128.809,33.383 142.615,41.073ZM88.771,124.392C80.66,149.212 62.853,157.683 48.937,143.279C34.965,128.819 30.171,96.745 38.237,71.699C38.237,71.699 52.571,97.879 61.009,106.613C69.447,115.346 88.866,124.1 88.866,124.1L88.771,124.392ZM103.229,124.392C111.34,149.212 129.147,157.683 143.063,143.279C157.035,128.819 161.829,96.745 153.763,71.699C153.763,71.699 139.429,97.879 130.991,106.613C122.553,115.346 103.134,124.1 103.134,124.1L103.229,124.392Z" style="fill:white;"/>
    </g>
    <g transform="matrix(0.105724,0,0,0.105724,85.8505,111.746)">
        <path d="M142.615,41.073C143.626,40.371 144.574,39.663 145.439,38.956C157.363,29.211 177.616,0 177.616,0C186.67,22.2 184.257,49.349 172.983,67.665C184.927,83.669 192,103.515 192,125C192,177.984 148.984,221 96,221C43.016,221 0,177.984 0,125C0,103.515 7.073,83.669 19.013,67.67C7.737,49.356 5.322,22.203 14.378,0C14.378,0 34.631,29.211 46.554,38.956C47.42,39.663 48.367,40.371 49.382,41.076C63.191,33.383 79.088,29 96,29C112.912,29 128.809,33.383 142.615,41.073ZM88.771,124.392C80.66,149.212 62.853,157.683 48.937,143.279C34.965,128.819 30.171,96.745 38.237,71.699C38.237,71.699 52.571,97.879 61.009,106.613C69.447,115.346 88.866,124.1 88.866,124.1L88.771,124.392ZM103.229,124.392C111.34,149.212 129.147,157.683 143.063,143.279C157.035,128.819 161.829,96.745 153.763,71.699C153.763,71.699 139.429,97.879 130.991,106.613C122.553,115.346 103.134,124.1 103.134,124.1L103.229,124.392Z" style="fill:white;"/>
    </g>
    <g transform="matrix(0.105724,0,0,0.105724,113.279,111.746)">
        <path d="M142.615,41.073C143.626,40.371 144.574,39.663 145.439,38.956C157.363,29.211 177.616,0 177.616,0C186.67,22.2 184.257,49.349 172.983,67.665C184.927,83.669 192,103.515 192,125C192,177.984 148.984,221 96,221C43.016,221 0,177.984 0,125C0,103.515 7.073,83.669 19.013,67.67C7.737,49.356 5.322,22.203 14.378,0C14.378,0 34.631,29.211 46.554,38.956C47.42,39.663 48.367,40.371 49.382,41.076C63.191,33.383 79.088,29 96,29C112.912,29 128.809,33.383 142.615,41.073ZM88.771,124.392C80.66,149.212 62.853,157.683 48.937,143.279C34.965,128.819 30.171,96.745 38.237,71.699C38.237,71.699 52.571,97.879 61.009,106.613C69.447,115.346 88.866,124.1 88.866,124.1L88.771,124.392ZM103.229,124.392C111.34,149.212 129.147,157.683 143.063,143.279C157.035,128.819 161.829,96.745 153.763,71.699C153.763,71.699 139.429,97.879 130.991,106.613C122.553,115.346 103.134,124.1 103.134,124.1L103.229,124.392Z" style="fill:white;"/>
    </g>
    <g transform="matrix(0.105724,0,0,0.105724,140.708,111.746)">
        <path d="M142.615,41.073C143.626,40.371 144.574,39.663 145.439,38.956C157.363,29.211 177.616,0 177.616,0C186.67,22.2 184.257,49.349 172.983,67.665C184.927,83.669 192,103.515 192,125C192,177.984 148.984,221 96,221C43.016,221 0,177.984 0,125C0,103.515 7.073,83.669 19.013,67.67C7.737,49.356 5.322,22.203 14.378,0C14.378,0 34.631,29.211 46.554,38.956C47.42,39.663 48.367,40.371 49.382,41.076C63.191,33.383 79.088,29 96,29C112.912,29 128.809,33.383 142.615,41.073ZM88.771,124.392C80.66,149.212 62.853,157.683 48.937,143.279C34.965,128.819 30.171,96.745 38.237,71.699C38.237,71.699 52.571,97.879 61.009,106.613C69.447,115.346 88.866,124.1 88.866,124.1L88.771,124.392ZM103.229,124.392C111.34,149.212 129.147,157.683 143.063,143.279C157.035,128.819 161.829,96.745 153.763,71.699C153.763,71.699 139.429,97.879 130.991,106.613C122.553,115.346 103.134,124.1 103.134,124.1L103.229,124.392Z" style="fill:white;"/>
    </g>
    <g transform="matrix(0.105724,0,0,0.105724,168.136,111.746)">
        <path d="M142.615,41.073C143.626,40.371 144.574,39.663 145.439,38.956C157.363,29.211 177.616,0 177.616,0C186.67,22.2 184.257,49.349 172.983,67.665C184.927,83.669 192,103.515 192,125C192,177.984 148.984,221 96,221C43.016,221 0,177.984 0,125C0,103.515 7.073,83.669 19.013,67.67C7.737,49.356 5.322,22.203 14.378,0C14.378,0 34.631,29.211 46.554,38.956C47.42,39.663 48.367,40.371 49.382,41.076C63.191,33.383 79.088,29 96,29C112.912,29 128.809,33.383 142.615,41.073ZM88.771,124.392C80.66,149.212 62.853,157.683 48.937,143.279C34.965,128.819 30.171,96.745 38.237,71.699C38.237,71.699 52.571,97.879 61.009,106.613C69.447,115.346 88.866,124.1 88.866,124.1L88.771,124.392ZM103.229,124.392C111.34,149.212 129.147,157.683 143.063,143.279C157.035,128.819 161.829,96.745 153.763,71.699C153.763,71.699 139.429,97.879 130.991,106.613C122.553,115.346 103.134,124.1 103.134,124.1L103.229,124.392Z" style="fill:white;"/>
    </g>
    <g transform="matrix(0.105724,0,0,0.105724,3.56476,139.175)">
        <path d="M142.615,41.073C143.626,40.371 144.574,39.663 145.439,38.956C157.363,29.211 177.616,0 177.616,0C186.67,22.2 184.257,49.349 172.983,67.665C184.927,83.669 192,103.515 192,125C192,177.984 148.984,221 96,221C43.016,221 0,177.984 0,125C0,103.515 7.073,83.669 19.013,67.67C7.737,49.356 5.322,22.203 14.378,0C14.378,0 34.631,29.211 46.554,38.956C47.42,39.663 48.367,40.371 49.382,41.076C63.191,33.383 79.088,29 96,29C112.912,29 128.809,33.383 142.615,41.073ZM88.771,124.392C80.66,149.212 62.853,157.683 48.937,143.279C34.965,128.819 30.171,96.745 38.237,71.699C38.237,71.699 52.571,97.879 61.009,106.613C69.447,115.346 88.866,124.1 88.866,124.1L88.771,124.392ZM103.229,124.392C111.34,149.212 129.147,157.683 143.063,143.279C157.035,128.819 161.829,96.745 153.763,71.699C153.763,71.699 139.429,97.879 130.991,106.613C122.553,115.346 103.134,124.1 103.134,124.1L103.229,124.392Z" style="fill:white;"/>
    </g>
    <g transform="matrix(0.105724,0,0,0.105724,30.9933,139.175)">
        <path d="M142.615,41.073C143.626,40.371 144.574,39.663 145.439,38.956C157.363,29.211 177.616,0 177.616,0C186.67,22.2 184.257,49.349 172.983,67.665C184.927,83.669 192,103.515 192,125C192,177.984 148.984,221 96,221C43.016,221 0,177.984 0,125C0,103.515 7.073,83.669 19.013,67.67C7.737,49.356 5.322,22.203 14.378,0C14.378,0 34.631,29.211 46.554,38.956C47.42,39.663 48.367,40.371 49.382,41.076C63.191,33.383 79.088,29 96,29C112.912,29 128.809,33.383 142.615,41.073ZM88.771,124.392C80.66,149.212 62.853,157.683 48.937,143.279C34.965,128.819 30.171,96.745 38.237,71.699C38.237,71.699 52.571,97.879 61.009,106.613C69.447,115.346 88.866,124.1 88.866,124.1L88.771,124.392ZM103.229,124.392C111.34,149.212 129.147,157.683 143.063,143.279C157.035,128.819 161.829,96.745 153.763,71.699C153.763,71.699 139.429,97.879 130.991,106.613C122.553,115.346 103.134,124.1 103.134,124.1L103.229,124.392Z" style="fill:white;"/>
    </g>
    <g transform="matrix(1.01589,0,0,1.01589,54.8571,137.143)">
        <rect x="-0" y="-0" width="27" height="27" style="fill:none;"/>
    </g>
    <g transform="matrix(0.105724,0,0,0.105724,58.4219,139.175)">
        <path d="M142.615,41.073C143.626,40.371 144.574,39.663 145.439,38.956C157.363,29.211 177.616,0 177.616,0C186.67,22.2 184.257,49.349 172.983,67.665C184.927,83.669 192,103.515 192,125C192,177.984 148.984,221 96,221C43.016,221 0,177.984 0,125C0,103.515 7.073,83.669 19.013,67.67C7.737,49.356 5.322,22.203 14.378,0C14.378,0 34.631,29.211 46.554,38.956C47.42,39.663 48.367,40.371 49.382,41.076C63.191,33.383 79.088,29 96,29C112.912,29 128.809,33.383 142.615,41.073ZM88.771,124.392C80.66,149.212 62.853,157.683 48.937,143.279C34.965,128.819 30.171,96.745 38.237,71.699C38.237,71.699 52.571,97.879 61.009,106.613C69.447,115.346 88.866,124.1 88.866,124.1L88.771,124.392ZM103.229,124.392C111.34,149.212 129.147,157.683 143.063,143.279C157.035,128.819 161.829,96.745 153.763,71.699C153.763,71.699 139.429,97.879 130.991,106.613C122.553,115.346 103.134,124.1 103.134,124.1L103.229,124.392Z" style="fill:white;"/>
    </g>
    <g transform="matrix(1.01589,0,0,1.01589,82.2857,137.143)">
        <rect x="-0" y="-0" width="27" height="27" style="fill:none;"/>
    </g>
    <g transform="matrix(0.105724,0,0,0.105724,85.8505,139.175)">
        <path d="M142.615,41.073C143.626,40.371 144.574,39.663 145.439,38.956C157.363,29.211 177.616,0 177.616,0C186.67,22.2 184.257,49.349 172.983,67.665C184.927,83.669 192,103.515 192,125C192,177.984 148.984,221 96,221C43.016,221 0,177.984 0,125C0,103.515 7.073,83.669 19.013,67.67C7.737,49.356 5.322,22.203 14.378,0C14.378,0 34.631,29.211 46.554,38.956C47.42,39.663 48.367,40.371 49.382,41.076C63.191,33.383 79.088,29 96,29C112.912,29 128.809,33.383 142.615,41.073ZM88.771,124.392C80.66,149.212 62.853,157.683 48.937,143.279C34.965,128.819 30.171,96.745 38.237,71.699C38.237,71.699 52.571,97.879 61.009,106.613C69.447,115.346 88.866,124.1 88.866,124.1L88.771,124.392ZM103.229,124.392C111.34,149.212 129.147,157.683 143.063,143.279C157.035,128.819 161.829,96.745 153.763,71.699C153.763,71.699 139.429,97.879 130.991,106.613C122.553,115.346 103.134,124.1 103.134,124.1L103.229,124.392Z" style="fill:white;"/>
    </g>
    <g transform="matrix(1.01589,0,0,1.01589,109.714,137.143)">
        <rect x="-0" y="-0" width="27" height="27" style="fill:none;"/>
    </g>
    <g transform="matrix(0.105724,0,0,0.105724,113.279,139.175)">
        <path d="M142.615,41.073C143.626,40.371 144.574,39.663 145.439,38.956C157.363,29.211 177.616,0 177.616,0C186.67,22.2 184.257,49.349 172.983,67.665C184.927,83.669 192,103.515 192,125C192,177.984 148.984,221 96,221C43.016,221 0,177.984 0,125C0,103.515 7.073,83.669 19.013,67.67C7.737,49.356 5.322,22.203 14.378,0C14.378,0 34.631,29.211 46.554,38.956C47.42,39.663 48.367,40.371 49.382,41.076C63.191,33.383 79.088,29 96,29C112.912,29 128.809,33.383 142.615,41.073ZM88.771,124.392C80.66,149.212 62.853,157.683 48.937,143.279C34.965,128.819 30.171,96.745 38.237,71.699C38.237,71.699 52.571,97.879 61.009,106.613C69.447,115.346 88.866,124.1 88.866,124.1L88.771,124.392ZM103.229,124.392C111.34,149.212 129.147,157.683 143.063,143.279C157.035,128.819 161.829,96.745 153.763,71.699C153.763,71.699 139.429,97.879 130.991,106.613C122.553,115.346 103.134,124.1 103.134,124.1L103.229,124.392Z" style="fill:white;"/>
    </g>
    <g transform="matrix(1.01589,0,0,1.01589,137.143,137.143)">
        <rect x="-0" y="-0" width="27" height="27" style="fill:none;"/>
    </g>
    <g transform="matrix(0.105724,0,0,0.105724,140.708,139.175)">
        <path d="M142.615,41.073C143.626,40.371 144.574,39.663 145.439,38.956C157.363,29.211 177.616,0 177.616,0C186.67,22.2 184.257,49.349 172.983,67.665C184.927,83.669 192,103.515 192,125C192,177.984 148.984,221 96,221C43.016,221 0,177.984 0,125C0,103.515 7.073,83.669 19.013,67.67C7.737,49.356 5.322,22.203 14.378,0C14.378,0 34.631,29.211 46.554,38.956C47.42,39.663 48.367,40.371 49.382,41.076C63.191,33.383 79.088,29 96,29C112.912,29 128.809,33.383 142.615,41.073ZM88.771,124.392C80.66,149.212 62.853,157.683 48.937,143.279C34.965,128.819 30.171,96.745 38.237,71.699C38.237,71.699 52.571,97.879 61.009,106.613C69.447,115.346 88.866,124.1 88.866,124.1L88.771,124.392ZM103.229,124.392C111.34,149.212 129.147,157.683 143.063,143.279C157.035,128.819 161.829,96.745 153.763,71.699C153.763,71.699 139.429,97.879 130.991,106.613C122.553,115.346 103.134,124.1 103.134,124.1L103.229,124.392Z" style="fill:white;"/>
    </g>
    <g transform="matrix(1.01589,0,0,1.01589,164.571,137.143)">
        <rect x="-0" y="-0" width="27" height="27" style="fill:none;"/>
    </g>
    <g transform="matrix(0.105724,0,0,0.105724,168.136,139.175)">
        <path d="M142.615,41.073C143.626,40.371 144.574,39.663 145.439,38.956C157.363,29.211 177.616,0 177.616,0C186.67,22.2 184.257,49.349 172.983,67.665C184.927,83.669 192,103.515 192,125C192,177.984 148.984,221 96,221C43.016,221 0,177.984 0,125C0,103.515 7.073,83.669 19.013,67.67C7.737,49.356 5.322,22.203 14.378,0C14.378,0 34.631,29.211 46.554,38.956C47.42,39.663 48.367,40.371 49.382,41.076C63.191,33.383 79.088,29 96,29C112.912,29 128.809,33.383 142.615,41.073ZM88.771,124.392C80.66,149.212 62.853,157.683 48.937,143.279C34.965,128.819 30.171,96.745 38.237,71.699C38.237,71.699 52.571,97.879 61.009,106.613C69.447,115.346 88.866,124.1 88.866,124.1L88.771,124.392ZM103.229,124.392C111.34,149.212 129.147,157.683 143.063,143.279C157.035,128.819 161.829,96.745 153.763,71.699C153.763,71.699 139.429,97.879 130.991,106.613C122.553,115.346 103.134,124.1 103.134,124.1L103.229,124.392Z" style="fill:white;"/>
    </g>
    <g transform="matrix(1.01589,0,0,1.01589,1.49933e-14,164.571)">
        <rect x="-0" y="-0" width="27" height="27" style="fill:none;"/>
    </g>
    <g transform="matrix(0.105724,0,0,0.105724,3.56476,166.603)">
        <path d="M142.615,41.073C143.626,40.371 144.574,39.663 145.439,38.956C157.363,29.211 177.616,0 177.616,0C186.67,22.2 184.257,49.349 172.983,67.665C184.927,83.669 192,103.515 192,125C192,177.984 148.984,221 96,221C43.016,221 0,177.984 0,125C0,103.515 7.073,83.669 19.013,67.67C7.737,49.356 5.322,22.203 14.378,0C14.378,0 34.631,29.211 46.554,38.956C47.42,39.663 48.367,40.371 49.382,41.076C63.191,33.383 79.088,29 96,29C112.912,29 128.809,33.383 142.615,41.073ZM88.771,124.392C80.66,149.212 62.853,157.683 48.937,143.279C34.965,128.819 30.171,96.745 38.237,71.699C38.237,71.699 52.571,97.879 61.009,106.613C69.447,115.346 88.866,124.1 88.866,124.1L88.771,124.392ZM103.229,124.392C111.34,149.212 129.147,157.683 143.063,143.279C157.035,128.819 161.829,96.745 153.763,71.699C153.763,71.699 139.429,97.879 130.991,106.613C122.553,115.346 103.134,124.1 103.134,124.1L103.229,124.392Z" style="fill:white;"/>
    </g>
    <g transform="matrix(1.01589,0,0,1.01589,27.4286,164.571)">
        <rect x="-0" y="-0" width="27" height="27" style="fill:none;"/>
    </g>
    <g transform="matrix(0.105724,0,0,0.105724,30.9933,166.603)">
        <path d="M142.615,41.073C143.626,40.371 144.574,39.663 145.439,38.956C157.363,29.211 177.616,0 177.616,0C186.67,22.2 184.257,49.349 172.983,67.665C184.927,83.669 192,103.515 192,125C192,177.984 148.984,221 96,221C43.016,221 0,177.984 0,125C0,103.515 7.073,83.669 19.013,67.67C7.737,49.356 5.322,22.203 14.378,0C14.378,0 34.631,29.211 46.554,38.956C47.42,39.663 48.367,40.371 49.382,41.076C63.191,33.383 79.088,29 96,29C112.912,29 128.809,33.383 142.615,41.073ZM88.771,124.392C80.66,149.212 62.853,157.683 48.937,143.279C34.965,128.819 30.171,96.745 38.237,71.699C38.237,71.699 52.571,97.879 61.009,106.613C69.447,115.346 88.866,124.1 88.866,124.1L88.771,124.392ZM103.229,124.392C111.34,149.212 129.147,157.683 143.063,143.279C157.035,128.819 161.829,96.745 153.763,71.699C153.763,71.699 139.429,97.879 130.991,106.613C122.553,115.346 103.134,124.1 103.134,124.1L103.229,124.392Z" style="fill:white;"/>
    </g>
    <g transform="matrix(1.01589,0,0,1.01589,54.8571,164.571)">
        <rect x="-0" y="-0" width="27" height="27" style="fill:none;"/>
    </g>
    <g transform="matrix(0.105724,0,0,0.105724,58.4219,166.603)">
        <path d="M142.615,41.073C143.626,40.371 144.574,39.663 145.439,38.956C157.363,29.211 177.616,0 177.616,0C186.67,22.2 184.257,49.349 172.983,67.665C184.927,83.669 192,103.515 192,125C192,177.984 148.984,221 96,221C43.016,221 0,177.984 0,125C0,103.515 7.073,83.669 19.013,67.67C7.737,49.356 5.322,22.203 14.378,0C14.378,0 34.631,29.211 46.554,38.956C47.42,39.663 48.367,40.371 49.382,41.076C63.191,33.383 79.088,29 96,29C112.912,29 128.809,33.383 142.615,41.073ZM88.771,124.392C80.66,149.212 62.853,157.683 48.937,143.279C34.965,128.819 30.171,96.745 38.237,71.699C38.237,71.699 52.571,97.879 61.009,106.613C69.447,115.346 88.866,124.1 88.866,124.1L88.771,124.392ZM103.229,124.392C111.34,149.212 129.147,157.683 143.063,143.279C157.035,128.819 161.829,96.745 153.763,71.699C153.763,71.699 139.429,97.879 130.991,106.613C122.553,115.346 103.134,124.1 103.134,124.1L103.229,124.392Z" style="fill:white;"/>
    </g>
    <g transform="matrix(1.01589,0,0,1.01589,82.2857,164.571)">
        <rect x="-0" y="-0" width="27" height="27" style="fill:none;"/>
    </g>
    <g transform="matrix(0.105724,0,0,0.105724,85.8505,166.603)">
        <path d="M142.615,41.073C143.626,40.371 144.574,39.663 145.439,38.956C157.363,29.211 177.616,0 177.616,0C186.67,22.2 184.257,49.349 172.983,67.665C184.927,83.669 192,103.515 192,125C192,177.984 148.984,221 96,221C43.016,221 0,177.984 0,125C0,103.515 7.073,83.669 19.013,67.67C7.737,49.356 5.322,22.203 14.378,0C14.378,0 34.631,29.211 46.554,38.956C47.42,39.663 48.367,40.371 49.382,41.076C63.191,33.383 79.088,29 96,29C112.912,29 128.809,33.383 142.615,41.073ZM88.771,124.392C80.66,149.212 62.853,157.683 48.937,143.279C34.965,128.819 30.171,96.745 38.237,71.699C38.237,71.699 52.571,97.879 61.009,106.613C69.447,115.346 88.866,124.1 88.866,124.1L88.771,124.392ZM103.229,124.392C111.34,149.212 129.147,157.683 143.063,143.279C157.035,128.819 161.829,96.745 153.763,71.699C153.763,71.699 139.429,97.879 130.991,106.613C122.553,115.346 103.134,124.1 103.134,124.1L103.229,124.392Z" style="fill:white;"/>
    </g>
    <g transform="matrix(1.01589,0,0,1.01589,109.714,164.571)">
        <rect x="-0" y="-0" width="27" height="27" style="fill:none;"/>
    </g>
    <g transform="matrix(0.105724,0,0,0.105724,113.279,166.603)">
        <path d="M142.615,41.073C143.626,40.371 144.574,39.663 145.439,38.956C157.363,29.211 177.616,0 177.616,0C186.67,22.2 184.257,49.349 172.983,67.665C184.927,83.669 192,103.515 192,125C192,177.984 148.984,221 96,221C43.016,221 0,177.984 0,125C0,103.515 7.073,83.669 19.013,67.67C7.737,49.356 5.322,22.203 14.378,0C14.378,0 34.631,29.211 46.554,38.956C47.42,39.663 48.367,40.371 49.382,41.076C63.191,33.383 79.088,29 96,29C112.912,29 128.809,33.383 142.615,41.073ZM88.771,124.392C80.66,149.212 62.853,157.683 48.937,143.279C34.965,128.819 30.171,96.745 38.237,71.699C38.237,71.699 52.571,97.879 61.009,106.613C69.447,115.346 88.866,124.1 88.866,124.1L88.771,124.392ZM103.229,124.392C111.34,149.212 129.147,157.683 143.063,143.279C157.035,128.819 161.829,96.745 153.763,71.699C153.763,71.699 139.429,97.879 130.991,106.613C122.553,115.346 103.134,124.1 103.134,124.1L103.229,124.392Z" style="fill:white;"/>
    </g>
    <g transform="matrix(1.01589,0,0,1.01589,137.143,164.571)">
        <rect x="-0" y="-0" width="27" height="27" style="fill:none;"/>
    </g>
    <g transform="matrix(0.105724,0,0,0.105724,140.708,166.603)">
        <path d="M142.615,41.073C143.626,40.371 144.574,39.663 145.439,38.956C157.363,29.211 177.616,0 177.616,0C186.67,22.2 184.257,49.349 172.983,67.665C184.927,83.669 192,103.515 192,125C192,177.984 148.984,221 96,221C43.016,221 0,177.984 0,125C0,103.515 7.073,83.669 19.013,67.67C7.737,49.356 5.322,22.203 14.378,0C14.378,0 34.631,29.211 46.554,38.956C47.42,39.663 48.367,40.371 49.382,41.076C63.191,33.383 79.088,29 96,29C112.912,29 128.809,33.383 142.615,41.073ZM88.771,124.392C80.66,149.212 62.853,157.683 48.937,143.279C34.965,128.819 30.171,96.745 38.237,71.699C38.237,71.699 52.571,97.879 61.009,106.613C69.447,115.346 88.866,124.1 88.866,124.1L88.771,124.392ZM103.229,124.392C111.34,149.212 129.147,157.683 143.063,143.279C157.035,128.819 161.829,96.745 153.763,71.699C153.763,71.699 139.429,97.879 130.991,106.613C122.553,115.346 103.134,124.1 103.134,124.1L103.229,124.392Z" style="fill:white;"/>
    </g>
    <g transform="matrix(1.01589,0,0,1.01589,164.571,164.571)">
        <rect x="-0" y="-0" width="27" height="27" style="fill:none;"/>
    </g>
    <g transform="matrix(0.105724,0,0,0.105724,168.136,166.603)">
        <path d="M142.615,41.073C143.626,40.371 144.574,39.663 145.439,38.956C157.363,29.211 177.616,0 177.616,0C186.67,22.2 184.257,49.349 172.983,67.665C184.927,83.669 192,103.515 192,125C192,177.984 148.984,221 96,221C43.016,221 0,177.984 0,125C0,103.515 7.073,83.669 19.013,67.67C7.737,49.356 5.322,22.203 14.378,0C14.378,0 34.631,29.211 46.554,38.956C47.42,39.663 48.367,40.371 49.382,41.076C63.191,33.383 79.088,29 96,29C112.912,29 128.809,33.383 142.615,41.073ZM88.771,124.392C80.66,149.212 62.853,157.683 48.937,143.279C34.965,128.819 30.171,96.745 38.237,71.699C38.237,71.699 52.571,97.879 61.009,106.613C69.447,115.346 88.866,124.1 88.866,124.1L88.771,124.392ZM103.229,124.392C111.34,149.212 129.147,157.683 143.063,143.279C157.035,128.819 161.829,96.745 153.763,71.699C153.763,71.699 139.429,97.879 130.991,106.613C122.553,115.346 103.134,124.1 103.134,124.1L103.229,124.392Z" style="fill:white;"/>
    </g>
    <g transform="matrix(1.01589,0,0,1.01589,1.53264e-14,192)">
        <rect x="-0" y="-0" width="27" height="27" style="fill:none;"/>
    </g>
    <g transform="matrix(0.105724,0,0,0.105724,3.56476,194.032)">
        <path d="M142.615,41.073C143.626,40.371 144.574,39.663 145.439,38.956C157.363,29.211 177.616,0 177.616,0C186.67,22.2 184.257,49.349 172.983,67.665C184.927,83.669 192,103.515 192,125C192,177.984 148.984,221 96,221C43.016,221 0,177.984 0,125C0,103.515 7.073,83.669 19.013,67.67C7.737,49.356 5.322,22.203 14.378,0C14.378,0 34.631,29.211 46.554,38.956C47.42,39.663 48.367,40.371 49.382,41.076C63.191,33.383 79.088,29 96,29C112.912,29 128.809,33.383 142.615,41.073ZM88.771,124.392C80.66,149.212 62.853,157.683 48.937,143.279C34.965,128.819 30.171,96.745 38.237,71.699C38.237,71.699 52.571,97.879 61.009,106.613C69.447,115.346 88.866,124.1 88.866,124.1L88.771,124.392ZM103.229,124.392C111.34,149.212 129.147,157.683 143.063,143.279C157.035,128.819 161.829,96.745 153.763,71.699C153.763,71.699 139.429,97.879 130.991,106.613C122.553,115.346 103.134,124.1 103.134,124.1L103.229,124.392Z" style="fill:white;"/>
    </g>
    <g transform="matrix(1.01589,0,0,1.01589,27.4286,192)">
        <rect x="-0" y="-0" width="27" height="27" style="fill:none;"/>
    </g>
    <g transform="matrix(0.105724,0,0,0.105724,30.9933,194.032)">
        <path d="M142.615,41.073C143.626,40.371 144.574,39.663 145.439,38.956C157.363,29.211 177.616,0 177.616,0C186.67,22.2 184.257,49.349 172.983,67.665C184.927,83.669 192,103.515 192,125C192,177.984 148.984,221 96,221C43.016,221 0,177.984 0,125C0,103.515 7.073,83.669 19.013,67.67C7.737,49.356 5.322,22.203 14.378,0C14.378,0 34.631,29.211 46.554,38.956C47.42,39.663 48.367,40.371 49.382,41.076C63.191,33.383 79.088,29 96,29C112.912,29 128.809,33.383 142.615,41.073ZM88.771,124.392C80.66,149.212 62.853,157.683 48.937,143.279C34.965,128.819 30.171,96.745 38.237,71.699C38.237,71.699 52.571,97.879 61.009,106.613C69.447,115.346 88.866,124.1 88.866,124.1L88.771,124.392ZM103.229,124.392C111.34,149.212 129.147,157.683 143.063,143.279C157.035,128.819 161.829,96.745 153.763,71.699C153.763,71.699 139.429,97.879 130.991,106.613C122.553,115.346 103.134,124.1 103.134,124.1L103.229,124.392Z" style="fill:white;"/>
    </g>
    <g transform="matrix(1.01589,0,0,1.01589,54.8571,192)">
        <rect x="-0" y="-0" width="27" height="27" style="fill:none;"/>
    </g>
    <g transform="matrix(0.105724,0,0,0.105724,58.4219,194.032)">
        <path d="M142.615,41.073C143.626,40.371 144.574,39.663 145.439,38.956C157.363,29.211 177.616,0 177.616,0C186.67,22.2 184.257,49.349 172.983,67.665C184.927,83.669 192,103.515 192,125C192,177.984 148.984,221 96,221C43.016,221 0,177.984 0,125C0,103.515 7.073,83.669 19.013,67.67C7.737,49.356 5.322,22.203 14.378,0C14.378,0 34.631,29.211 46.554,38.956C47.42,39.663 48.367,40.371 49.382,41.076C63.191,33.383 79.088,29 96,29C112.912,29 128.809,33.383 142.615,41.073ZM88.771,124.392C80.66,149.212 62.853,157.683 48.937,143.279C34.965,128.819 30.171,96.745 38.237,71.699C38.237,71.699 52.571,97.879 61.009,106.613C69.447,115.346 88.866,124.1 88.866,124.1L88.771,124.392ZM103.229,124.392C111.34,149.212 129.147,157.683 143.063,143.279C157.035,128.819 161.829,96.745 153.763,71.699C153.763,71.699 139.429,97.879 130.991,106.613C122.553,115.346 103.134,124.1 103.134,124.1L103.229,124.392Z" style="fill:white;"/>
    </g>
    <g transform="matrix(1.01589,0,0,1.01589,82.2857,192)">
        <rect x="-0" y="-0" width="27" height="27" style="fill:none;"/>
    </g>
    <g transform="matrix(0.105724,0,0,0.105724,85.8505,194.032)">
        <path d="M142.615,41.073C143.626,40.371 144.574,39.663 145.439,38.956C157.363,29.211 177.616,0 177.616,0C186.67,22.2 184.257,49.349 172.983,67.665C184.927,83.669 192,103.515 192,125C192,177.984 148.984,221 96,221C43.016,221 0,177.984 0,125C0,103.515 7.073,83.669 19.013,67.67C7.737,49.356 5.322,22.203 14.378,0C14.378,0 34.631,29.211 46.554,38.956C47.42,39.663 48.367,40.371 49.382,41.076C63.191,33.383 79.088,29 96,29C112.912,29 128.809,33.383 142.615,41.073ZM88.771,124.392C80.66,149.212 62.853,157.683 48.937,143.279C34.965,128.819 30.171,96.745 38.237,71.699C38.237,71.699 52.571,97.879 61.009,106.613C69.447,115.346 88.866,124.1 88.866,124.1L88.771,124.392ZM103.229,124.392C111.34,149.212 129.147,157.683 143.063,143.279C157.035,128.819 161.829,96.745 153.763,71.699C153.763,71.699 139.429,97.879 130.991,106.613C122.553,115.346 103.134,124.1 103.134,124.1L103.229,124.392Z" style="fill:white;"/>
    </g>
    <g transform="matrix(1.01589,0,0,1.01589,109.714,192)">
        <rect x="-0" y="-0" width="27" height="27" style="fill:none;"/>
    </g>
    <g transform="matrix(0.105724,0,0,0.105724,113.279,194.032)">
        <path d="M142.615,41.073C143.626,40.371 144.574,39.663 145.439,38.956C157.363,29.211 177.616,0 177.616,0C186.67,22.2 184.257,49.349 172.983,67.665C184.927,83.669 192,103.515 192,125C192,177.984 148.984,221 96,221C43.016,221 0,177.984 0,125C0,103.515 7.073,83.669 19.013,67.67C7.737,49.356 5.322,22.203 14.378,0C14.378,0 34.631,29.211 46.554,38.956C47.42,39.663 48.367,40.371 49.382,41.076C63.191,33.383 79.088,29 96,29C112.912,29 128.809,33.383 142.615,41.073ZM88.771,124.392C80.66,149.212 62.853,157.683 48.937,143.279C34.965,128.819 30.171,96.745 38.237,71.699C38.237,71.699 52.571,97.879 61.009,106.613C69.447,115.346 88.866,124.1 88.866,124.1L88.771,124.392ZM103.229,124.392C111.34,149.212 129.147,157.683 143.063,143.279C157.035,128.819 161.829,96.745 153.763,71.699C153.763,71.699 139.429,97.879 130.991,106.613C122.553,115.346 103.134,124.1 103.134,124.1L103.229,124.392Z" style="fill:white;"/>
    </g>
    <g transform="matrix(1.01589,0,0,1.01589,137.143,192)">
        <rect x="-0" y="-0" width="27" height="27" style="fill:none;"/>
    </g>
    <g transform="matrix(0.105724,0,0,0.105724,140.708,194.032)">
        <path d="M142.615,41.073C143.626,40.371 144.574,39.663 145.439,38.956C157.363,29.211 177.616,0 177.616,0C186.67,22.2 184.257,49.349 172.983,67.665C184.927,83.669 192,103.515 192,125C192,177.984 148.984,221 96,221C43.016,221 0,177.984 0,125C0,103.515 7.073,83.669 19.013,67.67C7.737,49.356 5.322,22.203 14.378,0C14.378,0 34.631,29.211 46.554,38.956C47.42,39.663 48.367,40.371 49.382,41.076C63.191,33.383 79.088,29 96,29C112.912,29 128.809,33.383 142.615,41.073ZM88.771,124.392C80.66,149.212 62.853,157.683 48.937,143.279C34.965,128.819 30.171,96.745 38.237,71.699C38.237,71.699 52.571,97.879 61.009,106.613C69.447,115.346 88.866,124.1 88.866,124.1L88.771,124.392ZM103.229,124.392C111.34,149.212 129.147,157.683 143.063,143.279C157.035,128.819 161.829,96.745 153.763,71.699C153.763,71.699 139.429,97.879 130.991,106.613C122.553,115.346 103.134,124.1 103.134,124.1L103.229,124.392Z" style="fill:white;"/>
    </g>
    <g transform="matrix(1.01589,0,0,1.01589,164.571,192)">
        <rect x="-0" y="-0" width="27" height="27" style="fill:none;"/>
    </g>
    <g transform="matrix(0.105724,0,0,0.105724,168.136,194.032)">
        <path d="M142.615,41.073C143.626,40.371 144.574,39.663 145.439,38.956C157.363,29.211 177.616,0 177.616,0C186.67,22.2 184.257,49.349 172.983,67.665C184.927,83.669 192,103.515 192,125C192,177.984 148.984,221 96,221C43.016,221 0,177.984 0,125C0,103.515 7.073,83.669 19.013,67.67C7.737,49.356 5.322,22.203 14.378,0C14.378,0 34.631,29.211 46.554,38.956C47.42,39.663 48.367,40.371 49.382,41.076C63.191,33.383 79.088,29 96,29C112.912,29 128.809,33.383 142.615,41.073ZM88.771,124.392C80.66,149.212 62.853,157.683 48.937,143.279C34.965,128.819 30.171,96.745 38.237,71.699C38.237,71.699 52.571,97.879 61.009,106.613C69.447,115.346 88.866,124.1 88.866,124.1L88.771,124.392ZM103.229,124.392C111.34,149.212 129.147,157.683 143.063,143.279C157.035,128.819 161.829,96.745 153.763,71.699C153.763,71.699 139.429,97.879 130.991,106.613C122.553,115.346 103.134,124.1 103.134,124.1L103.229,124.392Z" style="fill:white;"/>
    </g>
</svg>
