<?xml version="1.0" encoding="utf-8"?>
<!-- Generator: Adobe Illustrator 25.0.1, SVG Export Plug-In . SVG Version: 6.00 Build 0)  -->
<svg version="1.1" id="Layer_1" xmlns="http://www.w3.org/2000/svg" xmlns:xlink="http://www.w3.org/1999/xlink" x="0px" y="0px"
	 viewBox="0 0 288 288" style="enable-background:new 0 0 288 288;" xml:space="preserve">
<style type="text/css">
	.st0{fill:#FFFFFF;}
	.st1{clip-path:url(#SVGID_2_);fill:url(#SVGID_3_);}
	.st2{clip-path:url(#SVGID_2_);fill:url(#SVGID_4_);}
	.st3{clip-path:url(#SVGID_2_);fill:#FFA70C;}
</style>
<g>
	<rect y="0" class="st0" width="288" height="288"/>
	<g>
		<defs>
			<rect id="SVGID_1_" y="0" width="288" height="288"/>
		</defs>
		<clipPath id="SVGID_2_">
			<use xlink:href="#SVGID_1_"  style="overflow:visible;"/>
		</clipPath>
		<linearGradient id="SVGID_3_" gradientUnits="userSpaceOnUse" x1="134.9052" y1="168.9639" x2="144.354" y2="210.5387">
			<stop  offset="0" style="stop-color:#FFFFFF"/>
			<stop  offset="0.2369" style="stop-color:#FDFDFD"/>
			<stop  offset="0.3736" style="stop-color:#F4F5F5"/>
			<stop  offset="0.4849" style="stop-color:#E6E7E9"/>
			<stop  offset="0.5824" style="stop-color:#D2D3D7"/>
			<stop  offset="0.671" style="stop-color:#B9BABF"/>
			<stop  offset="0.7532" style="stop-color:#999BA2"/>
			<stop  offset="0.8303" style="stop-color:#737680"/>
			<stop  offset="0.9036" style="stop-color:#474B58"/>
			<stop  offset="0.9713" style="stop-color:#171B2D"/>
			<stop  offset="1" style="stop-color:#000518"/>
		</linearGradient>
		<polygon class="st1" points="301.3,127.7 -13.9,196.9 -18.4,267.8 307.6,269.5 		"/>
		<linearGradient id="SVGID_4_" gradientUnits="userSpaceOnUse" x1="309.1731" y1="398.1812" x2="109.6133" y2="197.4876">
			<stop  offset="0" style="stop-color:#363636"/>
			<stop  offset="1" style="stop-color:#000518"/>
		</linearGradient>
		<polygon class="st2" points="301.3,159.5 -13.9,228.7 -18.4,299.5 307.6,301.2 		"/>
		<path class="st3" d="M293.8,144.9c-2.3,1.5-204.9,52.9-204.9,52.9l204.9-94.1V144.9z"/>
		<polygon class="st3" points="-26.7,251.5 170.2,198.6 -27.1,278.4 		"/>
		<path class="st3" d="M241.8,120.1l67.5-43.3c2.3-1.5,5.3-0.8,6.8,1.5c1.5,2.3,0.8,5.3-1.5,6.8c-0.2,0.1-0.4,0.2-0.5,0.3
			L241.8,120.1z"/>
		<path class="st3" d="M-14,287.9l129.6-58.4l-124.9,68c-2.6,1.4-5.8,0.5-7.2-2.1c-1.4-2.6-0.5-5.8,2.1-7.2
			C-14.3,288.1-14.1,288-14,287.9z"/>
	</g>
</g>
</svg>
