<?xml version="1.0" encoding="UTF-8" standalone="no"?>
<!DOCTYPE svg PUBLIC "-//W3C//DTD SVG 1.1//EN" "http://www.w3.org/Graphics/SVG/1.1/DTD/svg11.dtd">
<svg width="100%" height="100%" viewBox="0 0 739 221" version="1.1" xmlns="http://www.w3.org/2000/svg" xmlns:xlink="http://www.w3.org/1999/xlink" xml:space="preserve" xmlns:serif="http://www.serif.com/" style="fill-rule:evenodd;clip-rule:evenodd;stroke-linejoin:round;stroke-miterlimit:2;">
    <g transform="matrix(1,-1.11022e-16,1.11022e-16,1,-616.43,-215.551)">
        <g transform="matrix(1,0,0,1,239.43,-134.449)">
            <circle cx="473" cy="475" r="96" style="fill:rgb(115,29,216);"/>
        </g>
        <g transform="matrix(1.41301,0,0,1.11577,-294.244,-104.954)">
            <g transform="matrix(0.263692,0.272918,-0.152242,0.472708,514.974,-156.712)">
                <path d="M995.998,475.62C995.664,528.319 952.777,571 900,571C847.016,571 804,527.984 804,475C804,475 868.749,493 900.749,493C932.749,493 996,475 996,475L995.998,475.62Z" style="fill:rgb(115,29,216);"/>
            </g>
            <g transform="matrix(-0.263692,0.272918,0.152242,0.472708,909.886,-156.712)">
                <path d="M995.998,475.62C995.664,528.319 952.777,571 900,571C847.016,571 804,527.984 804,475C804,475 868.749,493 900.749,493C932.749,493 996,475 996,475L995.998,475.62Z" style="fill:rgb(115,29,216);"/>
            </g>
        </g>
        <g>
            <g transform="matrix(0.263692,0.272918,-0.152242,0.472708,514.974,-156.712)">
                <path d="M995.998,475.62C995.664,528.319 952.777,571 900,571C847.016,571 804,527.984 804,475C804,475 868.749,493 900.749,493C932.749,493 996,475 996,475L995.998,475.62Z" style="fill:white;"/>
            </g>
            <g transform="matrix(-0.263692,0.272918,0.152242,0.472708,909.886,-156.712)">
                <path d="M995.998,475.62C995.664,528.319 952.777,571 900,571C847.016,571 804,527.984 804,475C804,475 868.749,493 900.749,493C932.749,493 996,475 996,475L995.998,475.62Z" style="fill:white;"/>
            </g>
        </g>
    </g>
    <g transform="matrix(1,0,0,1,-40.3987,-576.514)">
        <g transform="matrix(210.924,0,0,210.924,264,726)">
            <path d="M0.016,-0L0.016,-0.7L0.197,-0.7C0.241,-0.7 0.278,-0.69 0.31,-0.671C0.342,-0.651 0.358,-0.619 0.358,-0.576L0.358,-0.479C0.358,-0.43 0.328,-0.395 0.268,-0.375C0.331,-0.359 0.363,-0.326 0.363,-0.274L0.363,-0.138C0.363,-0.092 0.348,-0.057 0.318,-0.034C0.288,-0.011 0.252,-0 0.21,-0L0.016,-0ZM0.213,-0.454L0.213,-0.574C0.213,-0.598 0.199,-0.61 0.17,-0.61L0.17,-0.417C0.199,-0.417 0.213,-0.429 0.213,-0.454ZM0.213,-0.127L0.213,-0.304C0.213,-0.329 0.199,-0.341 0.17,-0.341L0.17,-0.09C0.199,-0.09 0.213,-0.102 0.213,-0.127Z" style="fill:rgb(115,29,216);fill-rule:nonzero;"/>
        </g>
        <g transform="matrix(210.924,0,0,210.924,343.92,726)">
            <rect x="0.015" y="-0.7" width="0.154" height="0.7" style="fill:rgb(115,29,216);"/>
        </g>
        <g transform="matrix(210.924,0,0,210.924,382.336,726)">
            <path d="M0.354,-0L0.281,-0L0.261,-0.039C0.227,-0.009 0.191,0.006 0.153,0.006C0.117,0.006 0.084,-0.003 0.057,-0.022C0.029,-0.041 0.016,-0.072 0.016,-0.113L0.016,-0.57C0.016,-0.661 0.074,-0.707 0.189,-0.707C0.299,-0.707 0.354,-0.665 0.354,-0.583L0.354,-0.453L0.215,-0.453L0.215,-0.594C0.215,-0.606 0.207,-0.611 0.192,-0.611C0.177,-0.611 0.169,-0.606 0.169,-0.594L0.169,-0.108C0.169,-0.097 0.177,-0.091 0.192,-0.091C0.207,-0.091 0.215,-0.097 0.215,-0.108L0.215,-0.239L0.184,-0.239L0.184,-0.347L0.354,-0.347L0.354,-0Z" style="fill:rgb(115,29,216);fill-rule:nonzero;"/>
        </g>
        <g transform="matrix(210.924,0,0,210.924,460.402,726)">
            <path d="M0.016,-0L0.016,-0.7L0.197,-0.7C0.241,-0.7 0.278,-0.69 0.31,-0.671C0.342,-0.651 0.358,-0.619 0.358,-0.576L0.358,-0.479C0.358,-0.43 0.328,-0.395 0.268,-0.375C0.331,-0.359 0.363,-0.326 0.363,-0.274L0.363,-0.138C0.363,-0.092 0.348,-0.057 0.318,-0.034C0.288,-0.011 0.252,-0 0.21,-0L0.016,-0ZM0.213,-0.454L0.213,-0.574C0.213,-0.598 0.199,-0.61 0.17,-0.61L0.17,-0.417C0.199,-0.417 0.213,-0.429 0.213,-0.454ZM0.213,-0.127L0.213,-0.304C0.213,-0.329 0.199,-0.341 0.17,-0.341L0.17,-0.09C0.199,-0.09 0.213,-0.102 0.213,-0.127Z" style="fill:white;fill-rule:nonzero;"/>
        </g>
        <g transform="matrix(210.924,0,0,210.924,540.322,726)">
            <path d="M0.016,-0.12L0.016,-0.57C0.016,-0.661 0.074,-0.707 0.192,-0.707C0.308,-0.707 0.366,-0.661 0.366,-0.571L0.366,-0.121C0.366,-0.08 0.35,-0.049 0.318,-0.027C0.285,-0.005 0.243,0.006 0.191,0.006C0.074,0.006 0.016,-0.036 0.016,-0.12ZM0.216,-0.112L0.216,-0.589C0.216,-0.603 0.208,-0.61 0.191,-0.61C0.174,-0.61 0.166,-0.603 0.166,-0.589L0.166,-0.112C0.166,-0.098 0.174,-0.091 0.191,-0.091C0.208,-0.091 0.216,-0.098 0.216,-0.112Z" style="fill:white;fill-rule:nonzero;"/>
        </g>
        <g transform="matrix(210.924,0,0,210.924,620.86,726)">
            <path d="M0.017,-0.28L0.156,-0.28L0.156,-0.12C0.156,-0.104 0.166,-0.096 0.185,-0.096C0.204,-0.096 0.213,-0.104 0.213,-0.12L0.213,-0.203C0.213,-0.228 0.196,-0.258 0.163,-0.292C0.097,-0.355 0.056,-0.398 0.041,-0.42C0.025,-0.442 0.017,-0.466 0.017,-0.492L0.017,-0.57C0.017,-0.661 0.076,-0.707 0.195,-0.707C0.301,-0.707 0.354,-0.665 0.354,-0.583L0.354,-0.461L0.214,-0.461L0.214,-0.59C0.214,-0.604 0.207,-0.611 0.191,-0.611C0.173,-0.611 0.164,-0.598 0.164,-0.571L0.167,-0.525C0.167,-0.499 0.184,-0.469 0.218,-0.435C0.283,-0.373 0.324,-0.33 0.341,-0.306C0.358,-0.281 0.367,-0.254 0.367,-0.223L0.367,-0.133C0.367,-0.04 0.308,0.006 0.189,0.006C0.074,0.006 0.017,-0.036 0.017,-0.121L0.017,-0.28Z" style="fill:white;fill-rule:nonzero;"/>
        </g>
        <g transform="matrix(210.924,0,0,210.924,701.605,726)">
            <path d="M0.017,-0.28L0.156,-0.28L0.156,-0.12C0.156,-0.104 0.166,-0.096 0.185,-0.096C0.204,-0.096 0.213,-0.104 0.213,-0.12L0.213,-0.203C0.213,-0.228 0.196,-0.258 0.163,-0.292C0.097,-0.355 0.056,-0.398 0.041,-0.42C0.025,-0.442 0.017,-0.466 0.017,-0.492L0.017,-0.57C0.017,-0.661 0.076,-0.707 0.195,-0.707C0.301,-0.707 0.354,-0.665 0.354,-0.583L0.354,-0.461L0.214,-0.461L0.214,-0.59C0.214,-0.604 0.207,-0.611 0.191,-0.611C0.173,-0.611 0.164,-0.598 0.164,-0.571L0.167,-0.525C0.167,-0.499 0.184,-0.469 0.218,-0.435C0.283,-0.373 0.324,-0.33 0.341,-0.306C0.358,-0.281 0.367,-0.254 0.367,-0.223L0.367,-0.133C0.367,-0.04 0.308,0.006 0.189,0.006C0.074,0.006 0.017,-0.036 0.017,-0.121L0.017,-0.28Z" style="fill:white;fill-rule:nonzero;"/>
        </g>
    </g>
    <g transform="matrix(0.327548,0,0,0.327548,150.854,-17.6435)">
        <g transform="matrix(210.924,0,0,210.924,269.273,726)">
            <path d="M0.412,-0.281L0.412,-0.365L0.715,-0.365L0.715,-0.1C0.669,-0.063 0.621,-0.035 0.571,-0.016C0.522,0.003 0.471,0.012 0.419,0.012C0.349,0.012 0.285,-0.003 0.227,-0.033C0.17,-0.063 0.126,-0.107 0.097,-0.164C0.068,-0.221 0.053,-0.284 0.053,-0.354C0.053,-0.424 0.068,-0.489 0.097,-0.55C0.126,-0.61 0.168,-0.655 0.223,-0.684C0.277,-0.713 0.34,-0.728 0.412,-0.728C0.463,-0.728 0.51,-0.72 0.552,-0.703C0.594,-0.686 0.627,-0.663 0.65,-0.633C0.674,-0.603 0.692,-0.564 0.705,-0.516L0.619,-0.492C0.608,-0.529 0.595,-0.557 0.579,-0.578C0.563,-0.599 0.54,-0.616 0.511,-0.628C0.481,-0.641 0.448,-0.647 0.412,-0.647C0.369,-0.647 0.331,-0.64 0.3,-0.627C0.268,-0.614 0.243,-0.597 0.223,-0.575C0.204,-0.554 0.189,-0.53 0.178,-0.504C0.16,-0.46 0.151,-0.412 0.151,-0.36C0.151,-0.297 0.162,-0.243 0.184,-0.2C0.206,-0.157 0.238,-0.125 0.28,-0.104C0.322,-0.084 0.366,-0.073 0.414,-0.073C0.455,-0.073 0.495,-0.081 0.534,-0.097C0.573,-0.113 0.602,-0.13 0.623,-0.147L0.623,-0.281L0.412,-0.281Z" style="fill:white;fill-rule:nonzero;"/>
        </g>
        <g transform="matrix(210.924,0,0,210.924,443.882,726)">
            <path d="M-0.001,-0L0.273,-0.716L0.375,-0.716L0.668,-0L0.561,-0L0.477,-0.217L0.178,-0.217L0.099,-0L-0.001,-0ZM0.205,-0.294L0.448,-0.294L0.373,-0.492C0.35,-0.552 0.333,-0.602 0.322,-0.641C0.313,-0.595 0.3,-0.549 0.284,-0.504L0.205,-0.294Z" style="fill:white;fill-rule:nonzero;"/>
        </g>
        <g transform="matrix(210.924,0,0,210.924,595.113,726)">
            <path d="M0.074,-0L0.074,-0.716L0.217,-0.716L0.386,-0.209C0.402,-0.162 0.413,-0.126 0.42,-0.103C0.429,-0.129 0.441,-0.167 0.458,-0.218L0.63,-0.716L0.757,-0.716L0.757,-0L0.666,-0L0.666,-0.599L0.458,-0L0.373,-0L0.166,-0.609L0.166,-0L0.074,-0Z" style="fill:white;fill-rule:nonzero;"/>
        </g>
        <g transform="matrix(210.924,0,0,210.924,781.36,726)">
            <path d="M0.079,-0L0.079,-0.716L0.597,-0.716L0.597,-0.631L0.174,-0.631L0.174,-0.412L0.57,-0.412L0.57,-0.328L0.174,-0.328L0.174,-0.084L0.613,-0.084L0.613,-0L0.079,-0Z" style="fill:white;fill-rule:nonzero;"/>
        </g>
        <g transform="matrix(210.924,0,0,210.924,1001.74,726)">
            <path d="M0.045,-0.23L0.134,-0.238C0.139,-0.202 0.148,-0.173 0.164,-0.15C0.179,-0.127 0.203,-0.108 0.236,-0.094C0.268,-0.08 0.305,-0.073 0.346,-0.073C0.382,-0.073 0.414,-0.078 0.441,-0.089C0.469,-0.1 0.49,-0.114 0.503,-0.133C0.517,-0.152 0.523,-0.172 0.523,-0.194C0.523,-0.217 0.517,-0.236 0.504,-0.253C0.491,-0.27 0.469,-0.284 0.439,-0.295C0.42,-0.303 0.378,-0.315 0.312,-0.33C0.246,-0.346 0.2,-0.361 0.174,-0.375C0.14,-0.393 0.114,-0.415 0.097,-0.442C0.081,-0.468 0.072,-0.498 0.072,-0.531C0.072,-0.567 0.083,-0.601 0.103,-0.632C0.124,-0.663 0.153,-0.687 0.193,-0.704C0.232,-0.72 0.276,-0.728 0.324,-0.728C0.377,-0.728 0.424,-0.719 0.465,-0.702C0.505,-0.685 0.536,-0.66 0.558,-0.627C0.58,-0.594 0.592,-0.556 0.593,-0.514L0.502,-0.507C0.498,-0.553 0.481,-0.587 0.453,-0.61C0.425,-0.633 0.383,-0.645 0.328,-0.645C0.271,-0.645 0.229,-0.634 0.203,-0.613C0.177,-0.592 0.164,-0.567 0.164,-0.537C0.164,-0.511 0.173,-0.49 0.191,-0.474C0.21,-0.457 0.257,-0.44 0.334,-0.423C0.411,-0.405 0.464,-0.39 0.493,-0.377C0.534,-0.358 0.565,-0.333 0.585,-0.304C0.605,-0.274 0.615,-0.241 0.615,-0.202C0.615,-0.164 0.604,-0.128 0.582,-0.094C0.56,-0.061 0.529,-0.035 0.488,-0.016C0.447,0.003 0.401,0.012 0.35,0.012C0.285,0.012 0.231,0.003 0.187,-0.016C0.143,-0.035 0.109,-0.063 0.084,-0.101C0.059,-0.139 0.046,-0.182 0.045,-0.23Z" style="fill:white;fill-rule:nonzero;"/>
        </g>
        <g transform="matrix(210.924,0,0,210.924,1152.97,726)">
            <path d="M0.259,-0L0.259,-0.631L0.023,-0.631L0.023,-0.716L0.591,-0.716L0.591,-0.631L0.354,-0.631L0.354,-0L0.259,-0Z" style="fill:white;fill-rule:nonzero;"/>
        </g>
        <g transform="matrix(210.924,0,0,210.924,1288.54,726)">
            <path d="M0.048,-0.349C0.048,-0.467 0.08,-0.56 0.144,-0.628C0.208,-0.695 0.29,-0.729 0.391,-0.729C0.457,-0.729 0.517,-0.713 0.57,-0.681C0.623,-0.65 0.663,-0.606 0.691,-0.549C0.719,-0.493 0.733,-0.429 0.733,-0.357C0.733,-0.284 0.718,-0.219 0.689,-0.162C0.66,-0.105 0.618,-0.061 0.564,-0.032C0.511,-0.003 0.453,0.012 0.391,0.012C0.323,0.012 0.263,-0.004 0.21,-0.037C0.157,-0.069 0.117,-0.114 0.089,-0.17C0.062,-0.226 0.048,-0.286 0.048,-0.349ZM0.146,-0.347C0.146,-0.261 0.169,-0.193 0.216,-0.143C0.262,-0.094 0.32,-0.069 0.39,-0.069C0.461,-0.069 0.52,-0.094 0.566,-0.144C0.612,-0.194 0.635,-0.265 0.635,-0.357C0.635,-0.416 0.625,-0.467 0.606,-0.51C0.586,-0.553 0.557,-0.587 0.519,-0.611C0.481,-0.635 0.439,-0.647 0.392,-0.647C0.325,-0.647 0.267,-0.624 0.219,-0.578C0.17,-0.532 0.146,-0.455 0.146,-0.347Z" style="fill:white;fill-rule:nonzero;"/>
        </g>
        <g transform="matrix(210.924,0,0,210.924,1463.15,726)">
            <path d="M0.079,-0L0.079,-0.716L0.396,-0.716C0.46,-0.716 0.508,-0.709 0.542,-0.697C0.575,-0.684 0.601,-0.661 0.621,-0.628C0.641,-0.596 0.651,-0.56 0.651,-0.521C0.651,-0.47 0.634,-0.427 0.602,-0.392C0.569,-0.357 0.518,-0.335 0.449,-0.326C0.474,-0.314 0.493,-0.302 0.506,-0.29C0.534,-0.265 0.56,-0.233 0.585,-0.195L0.709,-0L0.59,-0L0.496,-0.149C0.468,-0.192 0.445,-0.225 0.427,-0.248C0.409,-0.27 0.393,-0.286 0.379,-0.295C0.365,-0.305 0.351,-0.311 0.336,-0.314C0.325,-0.317 0.308,-0.318 0.283,-0.318L0.173,-0.318L0.173,-0L0.079,-0ZM0.173,-0.4L0.377,-0.4C0.42,-0.4 0.454,-0.404 0.479,-0.413C0.503,-0.422 0.521,-0.437 0.534,-0.456C0.547,-0.476 0.553,-0.497 0.553,-0.521C0.553,-0.554 0.541,-0.582 0.516,-0.604C0.492,-0.626 0.453,-0.637 0.4,-0.637L0.173,-0.637L0.173,-0.4Z" style="fill:white;fill-rule:nonzero;"/>
        </g>
        <g transform="matrix(210.924,0,0,210.924,1626.02,726)">
            <path d="M0.079,-0L0.079,-0.716L0.597,-0.716L0.597,-0.631L0.174,-0.631L0.174,-0.412L0.57,-0.412L0.57,-0.328L0.174,-0.328L0.174,-0.084L0.613,-0.084L0.613,-0L0.079,-0Z" style="fill:white;fill-rule:nonzero;"/>
        </g>
    </g>
</svg>
